<svg xmlns="http://www.w3.org/2000/svg" width="492" height="492" viewBox="0 0 492 492">
  <g id="Group_76" data-name="Group 76" transform="translate(-130 -249)">
    <g id="Component_1_2" data-name="Component 1 – 2" transform="translate(130 249)">
      <g id="Group_53" data-name="Group 53">
        <circle id="Ellipse_7" data-name="Ellipse 7" cx="246" cy="246" r="246" fill="#e5dbdb"/>
      </g>
    </g>
    <g id="Group_75" data-name="Group 75" transform="translate(66.851 273.672)">
      <path id="Path_393" data-name="Path 393" d="M297.84,272.826c-41.142-23.269-69.446-64.1-71.5-108.451-1.883-40.833,38.163-80.9,36.736-86.763-3.371-13.8-44.938,15.186-60.621,69.189C189.5,191.388,223.408,267.6,269.32,294.188c17.453,10.18,32.845-9.208,28.52-21.362Zm0,0" transform="translate(0 81.47)" fill="#7d441b"/>
      <path id="Path_394" data-name="Path 394" d="M225.467,110.983c10.159-17.453,21.134-30.25,20.379-33.372-2.121-8.671-19.336-.445-35.721,20.276,1.954,5.585,9.6,10.7,15.342,13.1Zm0,0" transform="translate(17.234 81.471)" fill="#462a16"/>
      <path id="Path_395" data-name="Path 395" d="M349.515,196.863c4.767-19.378,8.6-43.783,1.488-76.141C321.964,87.75,255.516,93.256,224.4,115.785c-10.188,34.72-4.582,62.229.818,81.6-22.45,64.358,6.994,87.1,24.437,96.417,9.341,2.452,12.6,2.495,19.426,1.687,8.485,2.328,30.1,2.73,38.828-.217,6.8,1.054,13.488,1.531,24.5-4.346s39.548-29.712,17.111-94.067Zm0,0" transform="translate(28.74 119.787)" fill="#8d5d3b"/>
      <path id="Path_396" data-name="Path 396" d="M290.425,406c2.172,10.594,21.123,16.894,30.766,6.155,6.258-6.973,2.3-13.936-3.6-22.1,4.023-96.912,29.513-98.734,27.879-156.212-1.189-41.794-33.518-63.593-24.124-90.54,6.443-18.467,16.438-19.015,12.206-58.307,6.973-8.721-1.377-52.48-9.455-60.229C310.246,28.992,302.269,50,293.725,70.341a66.121,66.121,0,0,0-12.672-.983,81.584,81.584,0,0,0-12.664,1.179c-8.554-20.339-16.52-41.349-30.382-45.57-8.08,7.749-13.491,50.96-6.507,59.681-4.232,39.291,2.762,40.366,10.551,58.307,9.7,22.315-20.721,48.468-21.91,90.272-1.634,57.478,24.145,62.144,28.16,159.066-7.927,7.14-10.874,13.1-4.616,20.059,9.643,10.739,28,4.3,30.769-6.155,11.69-44.029-18.043-121.772,8.957-122.074S281.786,364,290.425,406Zm0,0" transform="translate(33.62 0)" fill="#c97338"/>
      <path id="Path_397" data-name="Path 397" d="M247.931,64.234c-.837-16.812,14.081-17.649,20.639-9.87,2.6,15.31-16.221,14.754-20.639,9.87Zm0,0" transform="translate(79.497 40.98)" fill="#c6eb56"/>
      <path id="Path_398" data-name="Path 398" d="M254.976,50.827c-6.849.331-7.551,11.669,0,11.544,8.35-.146,7.916-11.928,0-11.544Zm0,0" transform="translate(82.259 42.936)" fill="#2b1100"/>
      <path id="Path_399" data-name="Path 399" d="M252.442,64.273c.85-16.812-14.068-17.649-20.639-9.87-2.585,15.313,16.232,14.754,20.639,9.87Zm0,0" transform="translate(52.567 41.044)" fill="#c6eb56"/>
      <path id="Path_400" data-name="Path 400" d="M239.542,50.866c6.849.331,7.553,11.669,0,11.544-8.348-.146-7.913-11.928,0-11.544Zm0,0" transform="translate(55.671 43)" fill="#2b1100"/>
      <path id="Path_401" data-name="Path 401" d="M239.578,42.7c.487,20.97,19.624,20.546,19.863-.114a42.91,42.91,0,0,0-19.863.114Zm0,0" transform="translate(65.783 27.53)" fill="#65452d"/>
      <path id="Path_402" data-name="Path 402" d="M242.137,44.078c-4.915,4.492-5.5,8.048-2.937,12.953,3.941-3.745,5.212-8.575,2.937-12.953Zm0,0" transform="translate(62.697 31.827)" fill="#65452d"/>
      <path id="Path_403" data-name="Path 403" d="M248.1,44.047c4.9,4.489,5.5,8.048,2.94,12.953-3.951-3.745-5.215-8.578-2.94-12.953Zm0,0" transform="translate(77.972 31.776)" fill="#65452d"/>
      <path id="Path_404" data-name="Path 404" d="M223.941,60.09c2.648-2.813,8.12-7,19.148-8.379-9.134,4.738-14.574,11.783-18.547,16.759-.953-2.564-.861-5.223-.6-8.379Zm0,0" transform="translate(39.719 44.409)" fill="#65452d"/>
      <path id="Path_405" data-name="Path 405" d="M251.929,75.3c.217-2.246.869-5.792,4.272-7.945-13.345.32-23.981-6.311-27.622-13.6,2.214,10.355,9.465,21.1,23.351,21.55Zm0,0" transform="translate(47.651 47.763)" fill="#65452d"/>
      <path id="Path_406" data-name="Path 406" d="M238.811,65.051c14.3,6.92,16.4,6.229,28.067.456,1.706,21.333-7.884,44.111-12.217,46.656-5.389-2.41-17.267-25.088-15.85-47.112Zm0,0" transform="translate(64.326 66.398)" fill="#f3ceb4"/>
      <path id="Path_407" data-name="Path 407" d="M252.969,81.243c21.746.082,15.445-20.618-.217-21.062s-21.518,20.98.217,21.062Zm0,0" transform="translate(64.424 58.358)" fill="#ffe7d6"/>
      <path id="Path_408" data-name="Path 408" d="M245.171,60.567a1.751,1.751,0,0,0-1.531,1.666l-.175,5.532a1.754,1.754,0,0,0,1.645,1.74,1.775,1.775,0,0,0,1.737-1.645l.177-5.535a1.768,1.768,0,0,0-1.854-1.759Zm0,0" transform="translate(72.19 58.996)" fill="#2b1100"/>
      <path id="Path_409" data-name="Path 409" d="M251.467,62.518a1.756,1.756,0,0,0-1.531,1.356c-.291,1.406-2.185,2.762-4,2.969a3.247,3.247,0,0,1-2.161-.405c-.455-.31-.757-.734-.768-1.841a1.742,1.742,0,0,0-1.716-1.666,1.759,1.759,0,0,0-1.666,1.708,5.58,5.58,0,0,0,2.2,4.55,6.45,6.45,0,0,0,4.46.983,8.53,8.53,0,0,0,5.358-2.741,8.794,8.794,0,0,0,5.276,2.431,6.457,6.457,0,0,0,4.407-1.033,5.589,5.589,0,0,0,2.214-4.553,1.691,1.691,0,0,0-3.382-.042c-.011,1.107-.3,1.523-.765,1.843a3.315,3.315,0,0,1-2.161.413c-1.843-.177-3.747-1.52-4-2.659a1.746,1.746,0,0,0-1.759-1.314Zm0,0" transform="translate(65.854 62.217)" fill="#2b1100"/>
      <path id="Path_410" data-name="Path 410" d="M242.328,59.776c2.039-1.242,7.119-1.356,9.508-.228-3.591,5.554-5.959,5.8-9.508.228Zm0,0" transform="translate(70.316 56.042)" fill="#c54171"/>
      <path id="Path_411" data-name="Path 411" d="M243.335,58.6a1.761,1.761,0,0,0-1.615,2.111,9.35,9.35,0,0,0,1.968,3.93,6.4,6.4,0,0,0,4.208,2.524,1.438,1.438,0,0,0,.426,0,6.441,6.441,0,0,0,4.137-2.8,18.7,18.7,0,0,0,1.833-3.093,1.7,1.7,0,1,0-3.022-1.541,17.586,17.586,0,0,1-1.541,2.6,1.809,1.809,0,0,1-3.446.146,6.456,6.456,0,0,1-1.261-2.463,1.746,1.746,0,0,0-1.687-1.406Zm0,0" transform="translate(69.237 55.768)" fill="#2b1100"/>
      <path id="Path_412" data-name="Path 412" d="M275.192,60.163c-2.648-2.826-8.123-7.016-19.161-8.382,9.145,4.73,14.577,11.785,18.56,16.762.951-2.577.847-5.225.6-8.379Zm0,0" transform="translate(92.904 44.524)" fill="#65452d"/>
      <path id="Path_413" data-name="Path 413" d="M253.273,75.3c-.217-2.256-.869-5.792-4.261-7.945,13.335.31,22.387-6.322,26.039-13.6-2.214,10.355-7.895,21.1-21.778,21.55Zm0,0" transform="translate(81.334 47.763)" fill="#65452d"/>
      <path id="Path_414" data-name="Path 414" d="M229.172,89.266c4.261,23.472-1.52,41.9-8.319,56.876-2.905-25.1,2.007-43.47,8.319-56.876Zm0,0" transform="translate(33.506 106.313)" fill="#65452d"/>
      <path id="Path_415" data-name="Path 415" d="M264.87,89.969c-3.92,25.181,1.181,41.545,8.318,56.879,2.908-25.109-2.007-43.481-8.318-56.879Zm0,0" transform="translate(105.231 107.472)" fill="#65452d"/>
      <path id="Path_416" data-name="Path 416" d="M250.715,62.15c.93-7.6,15.157-36.375,22.138-35.888,5.442,2.606,8.959,32.774,8.525,44.2a12.44,12.44,0,0,0-7.3,9.071,36.732,36.732,0,0,0-15.207-7.4c-1.128-3.414-3-8.71-8.152-9.982Zm0,0" transform="translate(84.141 2.449)" fill="#ffd5d5"/>
      <path id="Path_417" data-name="Path 417" d="M254.874,62.2c-.932-7.6-15.157-36.375-22.14-35.888-5.44,2.606-8.959,32.774-8.522,44.193a12.446,12.446,0,0,1,7.3,9.073,36.741,36.741,0,0,1,15.21-7.4c1.126-3.414,3-8.7,8.152-9.982Zm0,0" transform="translate(40.392 2.533)" fill="#ffd5d5"/>
    </g>
  </g>
</svg>
