<svg xmlns="http://www.w3.org/2000/svg" width="492" height="492" viewBox="0 0 492 492">
  <g id="Group_55" data-name="Group 55" transform="translate(-1266 -369)">
    <circle id="Ellipse_15" data-name="Ellipse 15" cx="246" cy="246" r="246" transform="translate(1266 369)" fill="#bbaa85"/>
    <g id="Group_41" data-name="Group 41" transform="translate(1187.124 -206.077)">
      <path id="Path_138" data-name="Path 138" d="M298.432,866.955c-53.694-11.693-53.849-70.674-51.237-123.271,2.818-57.017-11.079-96.938-24.973-90.375-19.1,9.008-3.372,46.759-7.081,94.722-5.382,69.638-6.841,119.467,55.017,153.543,23.53,3.915,39.113-11.569,28.275-34.619Zm0,0" transform="translate(0 81.481)" fill="#303030"/>
      <path id="Path_139" data-name="Path 139" d="M257.229,723.628c-3.758,10.959-16.076,23.771-26.132,29.89a46.039,46.039,0,0,1-12.124-13.342c15.028-8.261,24.2-18.823,30.657-25.253,2.577,3.385,5.635,7.189,7.6,8.706Zm0,0" transform="translate(13.387 211.272)" fill="#888"/>
      <path id="Path_140" data-name="Path 140" d="M246.515,704.93c-6.538,5.213-20.676,9.066-33.91,4.01-.009-4.4.435-12.2.435-16.847,10.752,4.541,19.1,3.733,33.176.025a111.228,111.228,0,0,1,.3,12.812Zm0,0" transform="translate(0.125 163.728)" fill="#888"/>
      <path id="Path_141" data-name="Path 141" d="M245.394,696.713c-6.961,4.8-21.711,8.681-32.054,1.9.543-8.141.046-16.523.65-21.724,7.694,5.167,21.132,4.661,31.706.986.2,5.925-.336,14.125-.3,18.835Zm0,0" transform="translate(1.655 132.065)" fill="#888"/>
      <path id="Path_142" data-name="Path 142" d="M248.92,705.621c-4.421,3.832-18,10.08-35.584,9.865a60.013,60.013,0,0,0,3.191,13.918c12.969,4.408,31.043-3.021,36.342-10.62-.721-2.95-2.469-7.719-3.961-13.163Zm0,0" transform="translate(1.647 191.9)" fill="#888"/>
      <path id="Path_143" data-name="Path 143" d="M364.486,865.443c8.884-.12,16.955-1.915,28.13-7.537,41.832-21.061,22.615-125.811,2.445-145.658-28.866-21.132-112.642-34.85-155.075-1.865-18.028,21.758-32.791,126.785,9.042,147.849,11.175,5.623,21.437,8.379,31.6,7.223,12.815,4.479,20.377,1.375,25.361-.53,6.406,2.855,23.059,2.917,29.671.459,7.815,1.587,17.245,2.01,28.829.059Zm0,0" transform="translate(19.709 160.648)" fill="#777"/>
      <path id="Path_144" data-name="Path 144" d="M269.913,1026.178c-11.067-4.686-7.876-21.5-.829-28.913-13.958-41.869-35.729-77.78-40.655-127.787-5.863-59.428,21.641-92.327,15-111.483-9.609-27.744-22.155-41.653-.552-85.909-4.072-8.225-6.36-53.272,4.72-58.1,11.945-5.2,34.341,31.175,39.483,40.038,2.506,1.193,8-1.566,19.147-1.625,11.153-.074,16.933,4.131,19.991,2.938,3.215-8.863,27.923-46.05,39.483-40.029,11.717,6.107,7.5,48.59,4.723,58.1,21.6,44.243,9.054,58.149-.555,85.906-6.634,19.159,20.867,50.938,15,110.364-4.926,50.01-20.229,85.918-34.187,127.787,4.831,7.417,8.021,24.964.638,28.167-13.172,5.731-30.247,2.143-34.788-3.024-18.243-20.734,16.606-94.66,6.683-114.516-8.61,4.5-21.289,3.107-29.767-.108-6.828,22.482,25.71,92.771,10.019,112.253-5.577,6.936-20.327,11.523-33.561,5.938Zm0,0" transform="translate(31.361 0)" fill="#bebebe"/>
      <path id="Path_145" data-name="Path 145" d="M252.36,631.461c-7.827,2.771-10.127,10.164-3.733,15.993.7-4.951,4.6-9.72,3.733-15.993Zm0,0" transform="translate(67.435 37.448)" fill="#4c4c4c"/>
      <path id="Path_146" data-name="Path 146" d="M249.267,627.4c-5.419,21.351,6.982,12.257,7.741,29.393,6.165-20.374-4.525-13.872-7.741-29.393Zm0,0" transform="translate(73.635 28.98)" fill="#4c4c4c"/>
      <path id="Path_147" data-name="Path 147" d="M258.963,631.328c7.815,2.771,10.127,10.164,3.721,16.005-.687-4.963-4.587-9.729-3.721-16.005Zm0,0" transform="translate(96.415 37.171)" fill="#4c4c4c"/>
      <path id="Path_148" data-name="Path 148" d="M264.377,627.262c5.419,21.351-6.995,12.26-7.744,29.393-6.178-20.374,4.529-13.872,7.744-29.393Zm0,0" transform="translate(87.894 28.703)" fill="#4c4c4c"/>
      <path id="Path_149" data-name="Path 149" d="M255.531,627.531c-4.624,8.07-4.3,19.785-.432,27.288,4-5.863,4.55-18.687.432-27.288Zm0,0" transform="translate(82.446 29.263)" fill="#4c4c4c"/>
      <path id="Path_150" data-name="Path 150" d="M229.153,650.649c1.492-4.562,17.5-11.9,29.07-11.005-17.522,4.189-21.881,14.4-29.431,22.818,0-3.887-.41-8.332.361-11.813Zm0,0" transform="translate(33.612 54.336)" fill="#4c4c4c"/>
      <path id="Path_151" data-name="Path 151" d="M295.794,649.52c-1.5-4.55-15.679-10.885-27.251-9.994,17.522,4.189,20.867,13.391,28.419,21.807a59.2,59.2,0,0,0-1.168-11.813Zm0,0" transform="translate(116.627 54.069)" fill="#4c4c4c"/>
      <path id="Path_152" data-name="Path 152" d="M229.91,668.328c.82,1.625,1.276,3.588,1.856,5.022,22.831,10.657,54.225,23.758,70.84,23.444,16.619-.3,46.469-9.994,70.252-24.011.783-2.081,1.433-3.721,1.988-5.478-32.526-11.933-55.008-21.832-72.949-21.964s-39.462,11.693-71.987,22.988Zm0,0" transform="translate(36.166 66.353)" fill="#dfdfdf"/>
      <path id="Path_153" data-name="Path 153" d="M229.285,656.211c9.152-.348,25.648-3.672,41.327-8.332-11.005,6.455-20.469,13.669-39.172,15.8a38.751,38.751,0,0,1-2.155-7.466Zm0,0" transform="translate(34.864 71.642)" fill="#4c4c4c"/>
      <path id="Path_154" data-name="Path 154" d="M304.843,656.086c-9.153-.348-24.011-3.878-40.726-8.332,10.188,7.284,20.062,13.259,38.762,15.389a33.548,33.548,0,0,0,1.964-7.056Zm0,0" transform="translate(107.409 71.381)" fill="#4c4c4c"/>
      <path id="Path_155" data-name="Path 155" d="M249.213,675.258c-9.9-17.867,6.958-28.657,18.194-28.515,11.221.132,30.214,9.273,22.2,27.384-8.672,18.376-32.02,19.473-40.4,1.131Zm0,0" transform="translate(70.126 69.273)" fill="#f7f7f7"/>
      <path id="Path_156" data-name="Path 156" d="M251.5,648.053c3.684-3.277,11.344-.953,12.2-.265-1.205,8.73-8.286,8.092-12.2.265Zm0,0" transform="translate(81.14 68.447)" fill="#c54171"/>
      <path id="Path_157" data-name="Path 157" d="M230.242,653.891c16.27,1.637,45.192,23.071,67.542,24.865-22.325,2.673-50.3-11.461-64.169-16.329-1.433-2.2-1.927-5.5-3.372-8.536Zm0,0" transform="translate(36.857 84.163)" fill="#4c4c4c"/>
      <path id="Path_158" data-name="Path 158" d="M320.633,653.785c-16.255,1.64-43.025,23.4-65.387,25.192,22.337,2.673,47.939-11.366,61.811-16.23a50.07,50.07,0,0,0,3.576-8.961Zm0,0" transform="translate(88.933 83.942)" fill="#4c4c4c"/>
      <path id="Path_159" data-name="Path 159" d="M252.464,646.436a2.115,2.115,0,0,0-1.819,2.589c1.276,4.96,4.79,7.885,8.548,7.839s7.177-3.07,8.166-7.839a2.122,2.122,0,0,0-1.541-2.482,2.1,2.1,0,0,0-2.411,1.637c-.709,3.41-2.54,4.649-4.214,4.673s-3.708-1.168-4.661-4.865a2.077,2.077,0,0,0-2.068-1.553Zm0,0" transform="translate(79.205 68.63)" fill="#2b1100"/>
      <path id="Path_160" data-name="Path 160" d="M254.649,648.5a2.092,2.092,0,0,0-1.806,2.072l-.071,8.817a2.024,2.024,0,1,0,4.02.059l.12-8.875a2.1,2.1,0,0,0-2.263-2.072Zm0,0" transform="translate(83.75 72.91)" fill="#2b1100"/>
      <path id="Path_161" data-name="Path 161" d="M265.315,651.392a2.089,2.089,0,0,0-1.939,1.686,8,8,0,0,1-7.26,6.8,4.738,4.738,0,0,1-3.493-.977c-.734-.66-1.218-1.529-.9-3.431a2.02,2.02,0,1,0-3.949-.651,7.714,7.714,0,0,0,2.13,7.13,8.664,8.664,0,0,0,6.538,1.939,12.137,12.137,0,0,0,9.069-5.432,13.561,13.561,0,0,0,9.2,5.5,8.631,8.631,0,0,0,6.671-1.757,7.449,7.449,0,0,0,2.2-7.189,2.044,2.044,0,1,0-4.023.721c.373,1.964-.071,2.83-.771,3.431a4.939,4.939,0,0,1-3.625.771,9.078,9.078,0,0,1-7.778-6.924,2.093,2.093,0,0,0-2.072-1.625Zm0,0" transform="translate(73.084 78.955)" fill="#2b1100"/>
      <path id="Path_162" data-name="Path 162" d="M258.956,652.661c-2.334-19.557,24.507-20.8,26.687-4.455,2.192,16.508-24.914,19.3-26.687,4.455Zm0,0" transform="translate(96.361 48.749)" fill="#b2ee56"/>
      <path id="Path_163" data-name="Path 163" d="M268.9,653.493c10.934-.916,7.633-16.159-1.578-14.883s-9.356,15.8,1.578,14.883Zm0,0" transform="translate(99.968 52.18)" fill="#2b1100"/>
      <path id="Path_164" data-name="Path 164" d="M265.872,652.845c2.337-19.557-24.5-20.8-26.684-4.458-2.2,16.511,24.9,19.3,26.684,4.458Zm0,0" transform="translate(55.224 49.132)" fill="#b2ee56"/>
      <path id="Path_165" data-name="Path 165" d="M248.008,653.679c-10.934-.916-7.633-16.162,1.566-14.886s9.368,15.8-1.566,14.886Zm0,0" transform="translate(59.539 52.561)" fill="#2b1100"/>
      <path id="Path_166" data-name="Path 166" d="M358.36,665.353c-14.245,16.486-38.074,21.061-62.607,17.738-24.529,3.853-48.574-1.131-62.819-17.605,10.114-.53,33.558,10.007,62.819,9.741s52.492-10.392,62.607-9.874Zm0,0" transform="translate(42.464 107.995)" fill="#4c4c4c"/>
      <path id="Path_167" data-name="Path 167" d="M234.294,671.5c-1.615,28.238,56.367,24.073,64.5,34.236a92.291,92.291,0,0,1-69.29-18.69c1.227-4.769,3.829-13.292,4.794-15.546Zm0,0" transform="translate(35.312 120.845)" fill="#4c4c4c"/>
      <path id="Path_168" data-name="Path 168" d="M319.5,673.3c-3.228,1.4-8.958,2.722-11.344,5.1-21.844,21.832-31.474,12.874-52.933,23.6,26.009,4.347,49-7.744,68.06-14.1-1.023-3.647-2.059-8.379-3.782-14.606Zm0,0" transform="translate(88.893 124.58)" fill="#4c4c4c"/>
      <path id="Path_169" data-name="Path 169" d="M228.99,684.7c2.01,12.621,54.983,6.215,58.571,24.674-18.629-13.28-49.564-8.175-59.909-3.009.012-5.8-.527-14.2,1.338-21.665Zm0,0" transform="translate(31.331 148.326)" fill="#4c4c4c"/>
      <path id="Path_170" data-name="Path 170" d="M258.851,715.234c-9.646-4.818-22.639-3.782-30.648-16.113.724,9.214,3.107,17.667,4.3,23.037,6.779-11.32,16.3-.361,26.348-6.924Zm0,0" transform="translate(32.611 178.363)" fill="#4c4c4c"/>
      <path id="Path_171" data-name="Path 171" d="M273.665,713.349c-9.513-4.251-23.071,4.106-37,6.43,11.212,2.867,27.18-.543,39.052,7.972-.564-4.636-1.578-10.777-2.047-14.4Zm0,0" transform="translate(50.224 205.524)" fill="#4c4c4c"/>
      <path id="Path_172" data-name="Path 172" d="M235.367,723.807c12.426-2.734,27.831,3.431,36.9.395-4.914,8.345-25.109,10.25-31.78,12.476-1.563-4.165-3.178-7.9-5.117-12.87Zm0,0" transform="translate(47.531 228.279)" fill="#4c4c4c"/>
      <path id="Path_173" data-name="Path 173" d="M317.494,687.464c-6.239-.216-12.272,1.819-21.533,4-7.8,1.831-22.6-2.577-35.849,13.814,20.46-12.55,46.037-7.42,58.1-.663.191-7.309.24-13.391-.721-17.149Zm0,0" transform="translate(99.07 154.052)" fill="#4c4c4c"/>
      <path id="Path_174" data-name="Path 174" d="M297.653,702.487c-9.874-2.817-17.713-.145-29.141.879,12.066,6.19,5.839,5.515,17,11.1,6.5,7.355.771,5.826,9.082,7.21,1.215-5.719,2.371-13.052,3.058-19.193Zm0,0" transform="translate(116.562 182.765)" fill="#4c4c4c"/>
      <path id="Path_175" data-name="Path 175" d="M260.31,711.551c1.819,1.181,25.925,5.817,35.149,7.358-6.985,9.406-17.7,2-27.177,3.576-3.434,4.574-5.829,5.213-9.707,7.139a71.106,71.106,0,0,0,1.736-18.074Zm0,0" transform="translate(95.864 204.251)" fill="#4c4c4c"/>
      <path id="Path_176" data-name="Path 176" d="M296.644,723.438c-4.914-4.578-26.336,2.59-35.152,1.119,6.89,4.661,16.665,4.2,22.171,7.876,4.239,1.927,5.9,1.686,9.908,1.011a45.541,45.541,0,0,0,3.073-10.007Zm0,0" transform="translate(101.942 225.781)" fill="#4c4c4c"/>
      <path id="Path_177" data-name="Path 177" d="M257.611,728.244c5.432-2.71,15.148,2.722,21.977,8.188-7.454,3.795-17.883,3.012-23.7.1.527-2.879,1.48-5.866,1.72-8.286Zm0,0" transform="translate(90.276 237.519)" fill="#4c4c4c"/>
      <path id="Path_178" data-name="Path 178" d="M262.809,644.128c3.974-8.561,21.095-31.656,27.513-29.381,7.913,3.576,6.418,29.153,5.407,38.617-3.721,2.192-9.248,6.551-10.4,13.151-7.214-5.1-14.029-7.189-18.388-8.743.145-5.009-2.022-10.284-4.128-13.644Zm0,0" transform="translate(104.684 2.311)" fill="#ffd5d5"/>
      <path id="Path_179" data-name="Path 179" d="M266.336,644.148c-3.961-8.564-21.1-31.659-27.516-29.394-7.91,3.576-6.406,29.165-5.407,38.629,3.733,2.192,9.248,6.538,10.416,13.151,7.2-5.1,14.029-7.189,18.376-8.743-.145-5.009,2.022-10.284,4.131-13.644Zm0,0" transform="translate(41.766 2.328)" fill="#ffd5d5"/>
    </g>
  </g>
</svg>
