<svg xmlns="http://www.w3.org/2000/svg" width="492" height="492" viewBox="0 0 492 492">
  <g id="Group_56" data-name="Group 56" transform="translate(-714 -369)">
    <g id="Group_61" data-name="Group 61">
      <path id="Path_432" data-name="Path 432" d="M246,0C381.862,0,492,110.138,492,246S381.862,492,246,492,0,381.862,0,246,110.138,0,246,0Z" transform="translate(714 369)" fill="#4b235d"/>
      <g id="Group_108" data-name="Group 108" transform="translate(-199.479 -162.526)">
        <path id="Path_892" data-name="Path 892" d="M1168.3,803.435s-3.184,17.027-5,28.85,1.819,15.916,7.275,15.916h20.01L1187,800.065Z" transform="translate(47.948 30.309)" fill="#a3a3a3"/>
        <path id="Path_893" data-name="Path 893" d="M1143.273,804.921c-.694,1.671-10.459,16.3-10,19.942s16.37,5.911,22.283,13.642,5.457,12.279-7.277,12.279-19.1-6.367-25.921-9.1-20.919-6.367-29.1-21.374-25.467-24.1,1.819-35.926S1153.278,780.887,1143.273,804.921Z" transform="translate(28.862 25.454)" fill="#a3a3a3"/>
        <path id="Path_894" data-name="Path 894" d="M1070.781,799.395c3.22,5.062,7.067,9.046,11.023,11.364,4.952,2.906,14.12,5.294,25.553,7.135.014.042.014.083.027.123,1.624,6.6.846,6.3,7.463,7.653,3.438.71,6.686.328,9.905.792,2.823.409,5.32,1.979,8.062,1.692a5.529,5.529,0,0,1,1.774-1.869,2.932,2.932,0,0,1,1.337,1.3c2.347-2.225,6.738-2.634,6.6,1.663.873-.355,1.773-.7,2.673-.995a2.958,2.958,0,0,0-.9,1.486,6.815,6.815,0,0,0,5.676-1.663c.668,2.81,2.442,2.85,3.738.3,1.869,2.443,4.406,2.784,6.33.177,1.624,2.115,3.466.724,5.28-.873a1.125,1.125,0,0,0,.7,1.079,5.166,5.166,0,0,0,1.283-1.6c.382,1.106,1.692,1.719,2.114,2.483,1.72-1.732,5.362-5.089,7.7-4.516a5.457,5.457,0,0,1,.218,2.524c1.46-.422,3.042-1.106,4.584-1.582V827.8c.164.027,1.037-.355,1.119-.26-.231.1-.273.246-.164.464a15.407,15.407,0,0,0,4-2.333,23.868,23.868,0,0,1-.1,3.029c1.855-.545,3.574-1.623,5.47-1.337a5.843,5.843,0,0,1,.027,1.624,23.508,23.508,0,0,0,4.285-1.678,1.234,1.234,0,0,1,.641,1.4,7.9,7.9,0,0,0,4.652-1.665c-.014,1.187.846,2.088.969,2.961.627-1.146,2.046-1.869,2.742-2.605a3.008,3.008,0,0,0,.846,1.65,7.648,7.648,0,0,1,1.719.424c1.269-1.228,2.511-2.5,3.711-3.794.327.955,1.637,2.183,1.923,3.22.71-1.187,2.183-2.2,2.824-3.438.4.451.805.574,1.214,1.173a35.132,35.132,0,0,1,4.229-4.079c-.218,1.05.056,2.142-.095,3.137,1.827-1.241,3.411-2.864,5.4-3.765a1.854,1.854,0,0,0,.572,1.8,12.725,12.725,0,0,0,3.056-3.329c0,.655.014,1.31.014,1.965a5.033,5.033,0,0,0,3.984-2.4c-.069.859.2,1.883.054,2.783a24.257,24.257,0,0,0,5.075-5.717,9.517,9.517,0,0,0,.3,1.856,12.419,12.419,0,0,0,4.188-2.592,1.464,1.464,0,0,1,.574,1.064c1.324-1.077,2.551-2.469,3.819-3.683.4.518,1.065.9,1.393,1.336a25.964,25.964,0,0,0,3.915-4.174c.518.573,1.446.859,1.746,1.145.123-1.131.778-2.455.859-3.532.26.095.518.191.778.3.177-1.719,1.187-1.95,1.964-3.028a2.962,2.962,0,0,0,1.406.49c.135-.627.668-1.336.817-1.856.547.738,1.761,1.324,2.238,1.979a38.747,38.747,0,0,0,.613-6.031,21.927,21.927,0,0,0,2.129.942c.123-2.428-.778-4.6,1.364-5.566-.218-.873.259-2.183.137-3.083.532.027,1.145-.1,1.678-.081-.478-3.165,1.5-6.031,2.442-9.032.137-.15,1-.027,1.2-.068a14.671,14.671,0,0,0,.15-2.2c.177.054.682.641.832.6.628-2.033.464-4.324.518-6.507.546.014,1.16-.11,1.692-.11a10.6,10.6,0,0,1-.328-4.393c.423-.081.792-.041,1.214-.137a64.1,64.1,0,0,1,1.965-7.039c.518.081.655.3,1.2.259,1.719-4.734-.287-8.062.095-11.8h-.2c.819-2.266,1.5-4.148,2.019-5.526a59.187,59.187,0,0,0-5.921-1.3c-9.455-1.6-26.9-3.752-35.089,3.547a9.236,9.236,0,0,0,2.811.1l-2.265,1.364c.628.328,1.705,2.2,2.36,3.438a8.034,8.034,0,0,1,3.1,1.965c.574-.942,1.337-.846,1.734-1.256.7,2.5,1.787.7,3.042,1.734a11.235,11.235,0,0,1,3.287,4.447c6.3-3.628,5.2,10.246,5.075,13.6a10.565,10.565,0,0,0-1.733-.191c-.1,2.742-.26,5.416.846,7.954-.424-.15-1.583-.068-2.224-.3.135.628-.069,1.884.054,2.36a15.2,15.2,0,0,0-1.842-.573c.164,1.378-.819,2.524-.955,3.67a9.275,9.275,0,0,1-1.5-.915,6.047,6.047,0,0,0-.928,5.062c-.586-.382-1.445-.478-1.992-.9.206.886-.422,2.565-.2,3.561a26.877,26.877,0,0,0-4.066,1.378c-.245-.75-1.05-1.418-1.282-2.224-1.624.75-3,2.524-4.57,3.642a19.716,19.716,0,0,1-.574-2.318,7,7,0,0,1-1.651-.478c.383-3.438-1.719-5.416-.586-9.086-.655,1.569-1.828,1.992-3.07,2.728a14.576,14.576,0,0,0-2.8-9.509c-2.347,1.256-3.179,4.052-5.239,5.43-.819.545-3.465.751-4.611,1.324-1.842.928-3.915,3.165-5.825,4.093-7.163,3.507-12.607,3.929-20.151,4.148a21.3,21.3,0,0,1-1.911,5.048c-.436-.137-.491-.5-.9-.7-.081.942-.873,2.142-.832,3.22-.982-.723-2.224-1.214-2.974-2.592a32.554,32.554,0,0,0-.765,4.6,17.781,17.781,0,0,1-3.193-3.656,8.872,8.872,0,0,1-4.052,2.578c.027-.545-.108-1.146-.081-1.678a7,7,0,0,0-1.719,1.3c-2.279.3-4.489-.137-4.98-2.838-2.374.137-4.488.164-5.4-1.979a9.271,9.271,0,0,0-3.355,6.74c-.819-1.091-1.911-1.883-2.537-3.247-.724.464-2.115.478-2.921,1.364a1.262,1.262,0,0,0-.763-.983,6.454,6.454,0,0,1-2.32.424c-.437-2.006-1.665-2.961-3.67-2.238.206-1.091-.2-2.428.137-3.519-4.12-.518-6.494,2.565-10.451.068.874-1.447.464-2.5.547-3.792-.765.027-1.514.027-2.279,0-.286-2.593-.368-5.239-1.609-7.763-2.347-.191-3.439-2.728-4.5-4.925-4.447,1.091-8.486-2.51-12.592-3.6-2.565-.669-3.056.355-6.289-.777-3.165-1.119-6.085-3.738-9.36-4.5-4.652-1.091-6.289.805-9.754,3.63-7.177,5.852-16.031,7.64-21.828,15.566A31.261,31.261,0,0,0,1070.781,799.395Z" transform="translate(26.665 17.274)" fill="#a6a7a7"/>
        <path id="Path_895" data-name="Path 895" d="M971.737,737.152c1.309-.027,2.96.873,4.256.927a5.039,5.039,0,0,0,1.364,6.262c-1.269.191-2.019,1.119-3.029,1.474,4.665,2.333-1.624,4.324.641,7.312-3.125,2.4.259,6.3,1.9,8.308-3.125,1.256-2.879,3.547.164,4.775-1.2-.041-2.142.765-2.906.928a7.406,7.406,0,0,1,1.569,1.883,15.028,15.028,0,0,0-3.615,2.783c2.414,3.22-1.815,5.976,2.168,8.977.874-.162,2.033.206,2.948.055-.6.723-.7,1.992-1.2,2.715a14.791,14.791,0,0,0,1.827.573c.042.518-.586.778-.518,1.283.424.464,1.187.573,1.543.954a15.149,15.149,0,0,1-1.065,2.075,10.95,10.95,0,0,1,4.9.6c-.491,1.883-1.255,3.561-1.638,5.43,1.229-.258,2.293.547,3.221.547-.478,1.241-.369,2.879-1.038,4.106,1.173-.545,2.169.014,3.084-.15-.518,1.16-.26,2.906-.56,3.983a16.951,16.951,0,0,0,2.47-.422c-.231.736.068,2.251-.464,3.274,1.187-.382,2.565-.108,3.807-.79-.518,1.064-.123,2.264-.451,3.26,1.16-.2,1.638.655,3.083-.177.027.723.942,2.96.859,3.875.751-.682,2.265-.955,2.757-1.31-.123,1.91-.069,3.915,1.3,5.334.26-.627,1.228-1.513,1.542-2.332,1.16.573,2.252.873,3,2.318a20.762,20.762,0,0,0,2.019-.7,15.579,15.579,0,0,1-.614,2.374,24.362,24.362,0,0,1,5.048-.368,10.081,10.081,0,0,1-.491,1.269,15.047,15.047,0,0,0,5.8-2.156c.273,2.237.969,4.3,3.042,5.416a5.146,5.146,0,0,0,2.061-1.555c.368.5,1.473,1.01,1.869,1.623.518-1.309,1.827-1.869,2.441-2.715a15.185,15.185,0,0,1,1.187,2.115,5.378,5.378,0,0,1,3.779-1.938,17.3,17.3,0,0,1,.383,2.06c.982-.886,2.428-1.705,3.193-2.987.326.518,1.569,1.459,1.8,1.95,0-.859.437-1.842.41-2.8,1.923,1.023,3.287,2.919,5.062,4.01.3-.682,1.064-1.4,1.322-2.046.273,1.065,1.556,2.36,1.925,3.329a19,19,0,0,1,2.087-1.9,13.315,13.315,0,0,0,.478,1.786c.436-1.1,1.487-2.087,1.91-3.247,1.023,1.528,1.2,3.984,2.729,5.5.123-.614.751-1.624.955-2.347.368.464,1.337.954,1.732,1.5.341-.792,1.923-2.265,2.183-2.838.273.573.723,1.023.969,1.487a18.021,18.021,0,0,1,3.615-2.852c.083.709.559,1.46.615,2.251.382-.5,1.2-.954,1.609-1.636,2.838.654,5.62-1.828,6.576-4.612.478.724,1.774,1.528,2.115,2.088-.179-1.065.272-2.387.135-3.452,2.006,1.487,3.343.219,3.206-2.347.368.4,1.474.982,1.761,1.3a12.746,12.746,0,0,0,.586-4.42c.928.682,2.578,1.474,3.4,2.647a57.94,57.94,0,0,1,.969-7.641c.464.628,1.282.982,1.759,1.583.615-3.9,2.374-7.463,3.711-11.229.027-4.515,8.213-.477,12.784,2.948,5.771-6.7,13.942-8.622,20.655-14.093,3.465-2.824,5.1-4.721,9.754-3.63,3.275.765,6.194,3.383,9.36,4.5,3.233,1.132,3.725.108,6.289.777,4.106,1.092,8.145,4.693,12.592,3.6,1.064,2.2,2.156,4.734,4.5,4.925,1.241,2.524,1.323,5.17,1.609,7.763.765.027,1.514.027,2.279,0-.083,1.3.327,2.346-.547,3.792,3.957,2.5,6.331-.586,10.451-.068-.341,1.091.069,2.428-.137,3.519,2.006-.723,3.233.233,3.67,2.238a6.455,6.455,0,0,0,2.32-.424,1.262,1.262,0,0,1,.763.983c.805-.887,2.2-.9,2.921-1.364.627,1.364,1.719,2.156,2.538,3.247a9.27,9.27,0,0,1,3.355-6.74c.915,2.142,3.029,2.115,5.4,1.979.491,2.7,2.7,3.137,4.98,2.838a7,7,0,0,1,1.719-1.3c-.027.532.108,1.133.082,1.678a8.872,8.872,0,0,0,4.052-2.578,17.773,17.773,0,0,0,3.193,3.656,32.553,32.553,0,0,1,.764-4.6c.75,1.378,1.991,1.869,2.974,2.592-.041-1.077.751-2.278.832-3.22.409.192.464.56.9.7a21.3,21.3,0,0,0,1.911-5.048c7.544-.219,12.987-.641,20.151-4.148,1.909-.927,3.983-3.164,5.825-4.093,1.146-.573,3.792-.778,4.611-1.324,2.06-1.378,2.892-4.174,5.239-5.43a14.576,14.576,0,0,1,2.8,9.509c1.241-.736,2.415-1.16,3.07-2.728-1.133,3.67.969,5.649.586,9.086a7.005,7.005,0,0,0,1.651.478,19.691,19.691,0,0,0,.573,2.318c1.569-1.118,2.947-2.892,4.571-3.642.231.805,1.037,1.474,1.282,2.224a26.881,26.881,0,0,1,4.065-1.378c-.218-1,.41-2.674.2-3.561.547.422,1.406.518,1.992.9a6.046,6.046,0,0,1,.928-5.062,9.275,9.275,0,0,0,1.5.915c.137-1.146,1.119-2.293.955-3.67a15.211,15.211,0,0,1,1.842.573c-.123-.477.081-1.732-.054-2.36.64.233,1.8.15,2.224.3-1.106-2.538-.942-5.212-.846-7.954a10.563,10.563,0,0,1,1.732.191c.123-3.355,1.228-17.23-5.075-13.6a11.234,11.234,0,0,0-3.287-4.447c-1.256-1.037-2.347.763-3.042-1.734-.4.41-1.16.314-1.733,1.256a8.033,8.033,0,0,0-3.1-1.965c-.655-1.241-1.732-3.11-2.36-3.438l2.265-1.364a9.236,9.236,0,0,1-2.811-.1c8.185-7.3,25.634-5.143,35.089-3.547a59.192,59.192,0,0,1,5.921,1.3c.628-1.705,1-2.661,1-2.661l-75.267-42.033s-15.308,6.044-19.865,11.761c0,0-44.106-7.927-93.9,12.2-14.379,5.811-23.152,14.38-27.927,23.9l-.014-.014s-17.081,33.11-46.414,37.53-48.432-46-29.332-63.424c16.659-15.212,2.7-31.678-10.641-33.37-2.865-.942-4.788-.5-7.49-.219-.832.819-2.306.491-3.942,1.5-4.038,2.51-2.961,6.221-6.345,8.308.805.491,1.57,1.705,2.728,2.046-1.705.4-3.37.874-5.02,1.433.9,1.665.095,3.465-1.3,4.6.641.341,1.351,1.364,1.8,1.638a8.521,8.521,0,0,0-4.189,2.8,53.312,53.312,0,0,0,4.9,2.142c-3.233.328-9.959-.1-11.925,2.973.464.451.955,1.61,1.474,2.2-1.514.874-1.76,1.938-2.333,3.166a20.154,20.154,0,0,1,2.389,1.418C973.292,735.147,972.61,736.579,971.737,737.152Z" transform="translate(3.756 7.168)" fill="#e8e6e6"/>
        <path id="Path_896" data-name="Path 896" d="M958.289,759.406a.984.984,0,0,0-1.05,1.091,5.155,5.155,0,0,1,1.636,2.033c-1.351,1.651-1.187,1.91.192,3.3-.287.532-.6,1.064-.928,1.582a1.467,1.467,0,0,0,1.759.614c-.463,1.132-.4,3.042-1.159,4.243a1.15,1.15,0,0,1,1.131.873,2.177,2.177,0,0,0-1.1,1.132c1.65,2.429-.859,5.034,1.324,6.618-1.774,2.5.777,6.958,3.505,7.967a3.132,3.132,0,0,0,1.037,4.665,1.448,1.448,0,0,0-.191,1.269,7.9,7.9,0,0,0,1.57.736,2.543,2.543,0,0,1-.464,1.46,5.048,5.048,0,0,0,2.019.2,18.584,18.584,0,0,1,1.636,2.019,6.708,6.708,0,0,1-1.023,2.551c.518.954.928,1.842,1.5,2.728a20.211,20.211,0,0,0,1.992.464c-.709.436-1.283,1.378-1.883,1.786,1.064-.027,2.538.915,3.492,1-.449.969-.041,2.129-.341,3.015,1.828.9,1.87.941,2.824,2.237,1.815-.232,2.592.518,3.684,1.433-.424.559-.7,1.364-1.106,1.883,1.187-.014,3,.832,4.2.79a6.244,6.244,0,0,1-.478,1.828,6.248,6.248,0,0,1,1.774.424c-.437.941-.041,2.5-.3,3.26.655-.027,1.569.273,2.006.273-.137.613-.137,1.4-.26,1.95.26.341.805.873,1.215,1.4.682-.532,1.923-.64,2.646-1.322,1.173,2,1.474,4.365,1.979,6.289,1.651.095,3.37.014,5.006.122.055.451.042.792.123,1.229,1.023-.233,2.483.382,3.493.122.081.123.491,1.065.532,1.146.669-.409,1.883-.328,2.605-.723a13.6,13.6,0,0,1,.587,1.773c2.006-.968,3.588.042,4.515,1.938a7.283,7.283,0,0,0,1.242-.532c.4.463.409.941.846,1.351.655-.832,1.351-.846,2.019-1.406.218.7.982,1.351,1.228,1.979,2.006-1.2,4.3-.081,6.235.054,1.542,1.542,4.066-.4,5.852,1.01,2.033.273,1.173-.832,2.265.942.518-.2,1.023-.424,1.528-.628a1.121,1.121,0,0,1-.2,1.079,17.5,17.5,0,0,1,6.193-.955c.041.437.069.859.083,1.3a8.01,8.01,0,0,0,6.234-1.528c1.474.654.6.6,2.688.559a3.037,3.037,0,0,0,.641,1.364c.655-.614,1.952-.873,2.551-1.391a2.709,2.709,0,0,1,.177,1.241c1.734-.368,3.411-1.214,5.075-1.692a10.339,10.339,0,0,1,.4,1.255c1.351-1.432,3.07-1.787,4.528-.382.7-.137.518-.777.983-.927a4.881,4.881,0,0,0,2.073.368c.26-.723.724-1.3,1-1.9.41.013,1,.5,1.378.64,1.392-1.391,1.215-1.5,3.042-.995.3-.778,1.187-1.487,1.433-2.2a12.287,12.287,0,0,0,.451,1.3c2.224-1.255,5.307-4.338,7.27-6.207,1.9-.013,2.36-1.364,4.557-1.6.287-.314-.095-.873.137-1.228,2.156-.26,1.214-.3,2.292-1.828a5.708,5.708,0,0,0,1.814-3.179c2.033-.914,5.622-2.7,5.907-5.457.532-.027,1.133-.137,1.665-.137.491-2.8,2.975-3.683,2.414-6.725.518.2,1.269.218,1.692.368a22.553,22.553,0,0,0,.518-3.383c.41.709.819,1.4,1.256,2.087a31.261,31.261,0,0,1,4.9-10.586c.382-.52.763-1.01,1.173-1.474-4.57-3.424-12.757-7.463-12.784-2.948-1.337,3.766-3.1,7.327-3.711,11.229-.478-.6-1.3-.955-1.759-1.583a57.9,57.9,0,0,0-.969,7.641c-.819-1.173-2.469-1.965-3.4-2.647a12.746,12.746,0,0,1-.586,4.42c-.287-.314-1.392-.9-1.761-1.3.137,2.566-1.2,3.834-3.206,2.347.137,1.065-.314,2.387-.135,3.452-.341-.56-1.637-1.364-2.115-2.088-.955,2.784-3.738,5.266-6.576,4.612-.409.682-1.228,1.131-1.609,1.636-.056-.79-.532-1.542-.615-2.251a18.022,18.022,0,0,0-3.615,2.852c-.246-.464-.7-.915-.969-1.487-.26.573-1.842,2.046-2.183,2.838-.4-.547-1.364-1.037-1.732-1.5-.2.723-.832,1.732-.955,2.347-1.528-1.514-1.705-3.971-2.729-5.5-.422,1.16-1.474,2.142-1.91,3.247a13.278,13.278,0,0,1-.478-1.786,19,19,0,0,0-2.087,1.9c-.368-.969-1.651-2.264-1.925-3.329-.258.641-1.023,1.364-1.322,2.046-1.774-1.091-3.138-2.987-5.062-4.01.027.954-.41,1.937-.41,2.8-.231-.491-1.474-1.432-1.8-1.95-.765,1.282-2.21,2.1-3.193,2.987a17.28,17.28,0,0,0-.383-2.06,5.378,5.378,0,0,0-3.779,1.938,15.185,15.185,0,0,0-1.187-2.115c-.614.846-1.923,1.406-2.442,2.715-.4-.613-1.5-1.118-1.869-1.623a5.146,5.146,0,0,1-2.061,1.555c-2.073-1.119-2.769-3.179-3.042-5.416a15.047,15.047,0,0,1-5.8,2.156,10.081,10.081,0,0,0,.491-1.269,24.362,24.362,0,0,0-5.048.368,15.579,15.579,0,0,0,.614-2.374,20.762,20.762,0,0,1-2.019.7c-.75-1.445-1.842-1.746-3-2.318-.314.819-1.282,1.705-1.542,2.332-1.364-1.418-1.418-3.424-1.3-5.334-.491.355-2.006.628-2.757,1.31.082-.915-.832-3.152-.859-3.875-1.445.832-1.923-.027-3.083.177.327-1-.068-2.2.451-3.26-1.242.682-2.62.409-3.807.79.532-1.023.233-2.538.464-3.274a16.951,16.951,0,0,1-2.47.422c.3-1.077.042-2.823.56-3.983-.915.164-1.911-.4-3.084.15.669-1.227.56-2.865,1.038-4.106-.928,0-1.992-.805-3.221-.547.383-1.869,1.146-3.547,1.638-5.43a10.95,10.95,0,0,0-4.9-.6,15.149,15.149,0,0,0,1.065-2.075c-.356-.382-1.119-.49-1.543-.954-.068-.5.56-.765.518-1.283a14.791,14.791,0,0,1-1.827-.573c.5-.723.6-1.992,1.2-2.715-.915.15-2.073-.218-2.948-.055-3.983-3,.246-5.757-2.168-8.977a15.028,15.028,0,0,1,3.615-2.783,7.406,7.406,0,0,0-1.569-1.883c.763-.164,1.705-.969,2.906-.928-3.042-1.228-3.289-3.519-.164-4.775-1.638-2.006-5.021-5.907-1.9-8.308-2.266-2.988,4.024-4.979-.641-7.312,1.01-.355,1.759-1.283,3.029-1.474a5.039,5.039,0,0,1-1.364-6.262c-1.3-.054-2.948-.954-4.256-.927.873-.574,1.555-2.006,2.36-2.593a20.154,20.154,0,0,0-2.389-1.418c.574-1.227.819-2.291,2.333-3.166-.518-.586-1.01-1.746-1.474-2.2,1.965-3.069,8.691-2.646,11.925-2.973a53.312,53.312,0,0,1-4.9-2.142,8.521,8.521,0,0,1,4.189-2.8c-.451-.273-1.16-1.3-1.8-1.638,1.391-1.133,2.2-2.933,1.3-4.6,1.65-.559,3.314-1.037,5.02-1.433-1.158-.341-1.923-1.555-2.728-2.046,3.384-2.087,2.306-5.8,6.345-8.308,1.636-1.01,3.11-.682,3.942-1.5-.041,0-.1.014-.15.014-4.2.41-8.145,1.323-10.164,4.639-.7-.26-2.4.041-3.124-.218a7.112,7.112,0,0,1-2.279,2.019c-.763,1.569-1.692,2.224-2.5,3.97-.368.041-.736.068-1.118.1-.218,2.455-3.561,2.742-5.512,3.178-.177,1.979-1.05,2.975-1.869,4.8-.572.4-1.268.723-1.746,1.05a1,1,0,0,1,.655.9c-1.514.191-2.77,1.269-3.929,1.951a3.056,3.056,0,0,1,.586,1.542c-2.156.15-2.114.7-2.742,1.705a2.031,2.031,0,0,1-1.6.041,9.675,9.675,0,0,1-1.609,3.451c-.969,1.638-2.946,3.206-1.665,5.976-.6.9-1.4,3.328-2.865,4.42.478.328,1.078,1.378,1.637,1.746a7.267,7.267,0,0,1-2.129,1.133c.109.886.709,1.3,1.788,1.214-.805.5-1.965,2.183-2.906,2.7,1.446,1.6,1.842,3.67.054,5.1a3.422,3.422,0,0,0,1.214.846c-.886.4-1.5,1.487-2.183,1.938a2.965,2.965,0,0,1,1.911,1.459,4.044,4.044,0,0,0-.547,2.265A2.5,2.5,0,0,1,958.289,759.406Z" transform="translate(0 7.235)" fill="#a6a7a7"/>
        <path id="Path_897" data-name="Path 897" d="M1175.655,797.34c-.081.886.368,2.237.15,3.069.287-.3.464-.6.723-.846-.49,4.516,3.22,4.12,2.443,7.653.4-.259.846-.559,1.2-.791.668,3.328,2.933,4.748,3.861,6.752,1.16,2.483,1.1,7.354,1.241,10.069.451,9.277-5.634,30.587,3.056,36.508,2.77,1.883,8.677,1.814,12.17,1.692,2.783-.1,6.494.449,9.741.177a5.81,5.81,0,0,0,1.05-3.821c-.341-9.549-8.295-7.722-8.745-10.451s-1.364-28.65,2.729-42.292S1208,771.855,1208,771.855c.246-16.494-22.087-13.86-31.692.3a40.594,40.594,0,0,0-1.5,9.714c-.245,4.979,1.487,11.3-.79,15.32C1174.537,797.19,1175.11,797.34,1175.655,797.34Z" transform="translate(50.537 21.157)" fill="#e8e6e6"/>
        <path id="Path_898" data-name="Path 898" d="M1064.609,782.138a1.236,1.236,0,0,1,1.4-.149c.056,2.632,1.079,4.815,1.283,7.176a22.838,22.838,0,0,0,.955-2.661c-.273,2.2-.233,8.227.355,10a7.024,7.024,0,0,1,1.4-.259c-.11.819.273,1.324-.3,2.387a2.791,2.791,0,0,0,1.16-.123c.778,1.651.559,3.547.6,5.457,2.673.123,3.328,2.634,3.465,5.294,3.821-1.283,3.37,2.973,4.2,6.085.231-.41,1.037-1.092,1.378-1.624,1.119,2.824,3.9,3.287,5.293,5.661a7.173,7.173,0,0,0,1.61-1.663c-.137,1.2.164,2.783-.123,4.079a20.327,20.327,0,0,0,3.628-2.961,6.89,6.89,0,0,0,2.743,6.181c.355-.982,1.445-2.156,1.759-2.988a5.226,5.226,0,0,0,.559,2.483c.859-.574,1.842-.451,2.77-1.364.272.832,1.418,2.264,1.65,3.151.177-.968.888-2.21,1.024-3.029.532,2.429,2.251,5.2,4.869,5.84a8.494,8.494,0,0,1,.191-5.539,21.916,21.916,0,0,1,2.811,3.643c.054-.655.354-1.406.382-2.115.273.382,1.283,1.05,1.637,1.638a18.377,18.377,0,0,1,2.852-6.112c.068.8.464,1.692.518,2.414.354-1,1.364-1.951,1.746-2.946.26.422.545.873.778,1.268,1.636-2.783,4.407-4.911,6.561-7.3a13.152,13.152,0,0,1,.9,2.264c2.3.137,3.3-1.883,3.233-4.052.328.614,1.31,1.324,1.638,1.815-.123-1.445.245-3.056.135-4.5.547-.015,1.16-.11,1.705-.083a11.654,11.654,0,0,1-1.255-4.911,7.521,7.521,0,0,1,1.241-.2,43.66,43.66,0,0,0,.451-5.662c.437.3,1,.533,1.378.778-.11-1.228.287-2.647.027-3.9.6.7,1.323.805,1.774,1.173.122-2.087.014-4.243.164-6.316.382,0,.328.409.723.4-.041-2.087-.437-4.461-.191-5.921a36.18,36.18,0,0,1,2.605-7.285v-.013c-.027-.545-.054-.832-.054-.832,0-27.736-47.286-22.742-60.478-19.1a18.4,18.4,0,0,0-11.761,10.041c.273-.014.547-.014.832,0-.286,1.842-1.474,3.643-1.8,5.635C1064.555,776.272,1065.278,779.205,1064.609,782.138Z" transform="translate(25.238 19.85)" fill="#e8e6e6"/>
        <path id="Path_899" data-name="Path 899" d="M1178.092,816.362c2.266,8.95,2.73,31.065,3.179,39.25s10.915,6.372,13.193,6.372c1.883,0,12.879,2.2,16.331-2.551-3.248.272-6.959-.273-9.741-.177-3.493.122-9.4.191-12.17-1.692-8.69-5.921-2.605-27.231-3.056-36.508-.137-2.715-.081-7.586-1.241-10.069-.928-2-3.193-3.424-3.861-6.752-.355.232-.805.532-1.2.791.777-3.534-2.933-3.137-2.443-7.653-.258.246-.436.545-.723.846.218-.832-.231-2.183-.15-3.069-.545,0-1.118-.15-1.636-.15,2.278-4.025.545-10.341.79-15.32a40.594,40.594,0,0,1,1.5-9.714,24.677,24.677,0,0,0-3.779,8.8C1168.543,800.141,1175.814,807.412,1178.092,816.362Z" transform="translate(49.983 23.349)" fill="#a6a7a7"/>
        <path id="Path_900" data-name="Path 900" d="M1063.941,789.838c2.647,15.008,12.36,35.472,16.9,40.929s9.1,21.829,15.457,28.2,19.564,4.6,28.649,4.6c9.1,0,3.643-11.869-2.264-13.7s-10.013-13.643-4.093-16.372,18.963-17.408,20-31.378a211.292,211.292,0,0,0,.054-26.89,36.18,36.18,0,0,0-2.605,7.285c-.246,1.46.15,3.834.191,5.921-.4.014-.341-.4-.723-.4-.15,2.073-.042,4.229-.164,6.316-.451-.368-1.173-.478-1.774-1.173.26,1.255-.137,2.674-.027,3.9-.382-.245-.941-.478-1.378-.778a43.66,43.66,0,0,1-.451,5.662,7.521,7.521,0,0,0-1.241.2,11.654,11.654,0,0,0,1.255,4.911c-.545-.027-1.159.068-1.705.083.11,1.445-.258,3.056-.135,4.5-.328-.491-1.31-1.2-1.638-1.815.068,2.169-.928,4.189-3.233,4.052a13.152,13.152,0,0,0-.9-2.264c-2.155,2.387-4.925,4.516-6.561,7.3-.233-.4-.518-.846-.778-1.268-.382.995-1.391,1.95-1.746,2.946-.054-.723-.451-1.61-.518-2.414a18.377,18.377,0,0,0-2.852,6.112c-.354-.587-1.364-1.256-1.637-1.638-.027.709-.328,1.46-.382,2.115a21.916,21.916,0,0,0-2.811-3.643,8.494,8.494,0,0,0-.191,5.539c-2.619-.641-4.338-3.411-4.869-5.84-.137.819-.847,2.061-1.024,3.029-.232-.886-1.378-2.318-1.65-3.151-.928.914-1.911.791-2.77,1.364a5.226,5.226,0,0,1-.559-2.483c-.314.832-1.4,2.006-1.759,2.988a6.89,6.89,0,0,1-2.743-6.181,20.327,20.327,0,0,1-3.628,2.961c.287-1.3-.014-2.879.123-4.079a7.173,7.173,0,0,1-1.61,1.663c-1.391-2.374-4.174-2.837-5.293-5.661-.341.532-1.146,1.214-1.378,1.624-.832-3.111-.382-7.368-4.2-6.085-.137-2.661-.792-5.171-3.465-5.294-.042-1.91.177-3.806-.6-5.457a2.791,2.791,0,0,1-1.16.123c.574-1.064.191-1.569.3-2.387a7.024,7.024,0,0,0-1.4.259c-.587-1.773-.628-7.8-.355-10a22.838,22.838,0,0,1-.955,2.661c-.2-2.36-1.227-4.543-1.283-7.176a1.236,1.236,0,0,0-1.4.149c.669-2.933-.054-5.866.437-8.758.326-1.992,1.514-3.793,1.8-5.635-.286-.014-.559-.014-.832,0C1062.985,772.062,1062.4,781.107,1063.941,789.838Z" transform="translate(24.896 22.273)" fill="#a6a7a7"/>
        <path id="Path_901" data-name="Path 901" d="M1237.353,684.437s4.573-13.188,11.167-12.961,5.684,10.915,5.23,16.6.09,11.141-6.436,11.141S1234.827,693.76,1237.353,684.437Z" transform="translate(65.045 0.574)" fill="#fff"/>
        <path id="Path_902" data-name="Path 902" d="M1200.988,757.383H1201a11.173,11.173,0,0,0,4.037-.6c.123.518.7,1.106.805,1.678,2.784.424,4.68-1.132,7.463.082a9.23,9.23,0,0,0,1.869-2.838c2.906.641,8.091-4.283,9.892-2.592a8.519,8.519,0,0,1,1.705-3.493c.314.464,1.623,1.214,1.882,1.665.123-.137,1.241-1.077,1.268-1.077a23.881,23.881,0,0,0,1.283-2.674c.75,1.173,1.187.545,2.47,1.077-1.351-4.624,4.883-3.356,7.176-3.752,2.046-.355,3.6-1.746,6.071-2.1,2.769-.383,5.1,1.555,7.9,2.087,6.262,1.2,10.41-3.356,13.562-7.831.654,1.8.532,5.538,1.692,6.889a3.54,3.54,0,0,0,3.314,1.173c3.915-5.212,2.906-11.638-1.31-17.245-.382-.491-.954-.818-1.378-1.309a63.189,63.189,0,0,0-.014-14.94c-.846-8.526-4.611-15.525-13.029-25.307-6.1-5.348-18.717-10-28.418-10-21,0-44.488,11.773-46.535,41.187C1180.8,744.913,1190.293,749.47,1200.988,757.383Z" transform="translate(52.489 1.685)" fill="#e8e6e6"/>
        <path id="Path_903" data-name="Path 903" d="M1242.869,718.671s-2.36-8.1-5.1-9.377-8.711-1.219-9.506,5.207c0,0,.967,6.3,4.6,7.243A10.574,10.574,0,0,0,1242.869,718.671Z" transform="translate(63.079 9.169)" fill="#1a1818"/>
        <path id="Path_904" data-name="Path 904" d="M1219.7,692.286s-2.046-13.642-8.185-20.463-14.325-.512-16.372,10.232a58.617,58.617,0,0,0-.031,20.464s8.216,4.093,14.356,0S1210.834,692.286,1219.7,692.286Z" transform="translate(55.21)" fill="#e8e6e6"/>
        <g id="Group_106" data-name="Group 106" transform="translate(1292.398 718.463)">
          <path id="Path_905" data-name="Path 905" d="M1229.12,714.659s1.115,5.469,4.474,6.638c3.359,1.186,5.831-1.168,8.289-2.354a23.163,23.163,0,0,0-2.821-7.346,19.167,19.167,0,0,1-1.652,6.46c-2.472,5.31-2.916-4.778-1.909-8.867C1232.976,708.959,1230.1,710.906,1229.12,714.659Z" transform="translate(-1229.12 -709.171)" fill="#b9a61d"/>
          <path id="Path_906" data-name="Path 906" d="M1236.306,718.053a19.167,19.167,0,0,0,1.652-6.46,8.22,8.22,0,0,0-.981-1.2,4.166,4.166,0,0,0-2.579-1.2C1233.39,713.275,1233.833,723.364,1236.306,718.053Z" transform="translate(-1228.016 -709.168)" fill="#1a1818"/>
        </g>
        <path id="Path_907" data-name="Path 907" d="M1217.205,689.3s-3.58-12.278-6.48-15.518-10.256-4.046-13.472,5.287-1.193,21.487-1.193,21.487,4.434,2.216,8.526,0S1218.058,696.127,1217.205,689.3Z" transform="translate(55.488 0.594)" fill="#c4b2af"/>
        <path id="Path_908" data-name="Path 908" d="M1197.521,745.976c.763.573,1.541,1.16,2.318,1.773,7.285,5.744,19.578,10.055,31.27,10.533,1.665,2.5,6.74.586,10.669.477,1.515-.027,3.316,1.324,5.129.874a9.785,9.785,0,0,0,4.025-2.306c1.106.014,1.883-.805,3.138-1.6.149.027.532.368.682.422,1.158-1.2,2.7-3.165,4-3.316.765-2.128,2.674-2.168,3.6-4.051.178.122.451.518.669.572,1.3-2.087,1.31-5.212,2.333-7.354a13.136,13.136,0,0,0,2.2-4.16c-4.393.177-4.133-2.715-4.133-2.715-11.214,10-18.241-1.555-18.541-2.073,11.583,9.836,18.541-3.042,18.541-3.042,0,7.844,4.488,5.839,4.488,5.839a14.106,14.106,0,0,0,2.006-2.183,3.54,3.54,0,0,1-3.314-1.173c-1.16-1.351-1.038-5.089-1.692-6.889-3.152,4.474-7.3,9.031-13.562,7.831-2.8-.532-5.129-2.47-7.9-2.087-2.47.355-4.025,1.746-6.071,2.1-2.292.4-8.526-.873-7.176,3.752-1.283-.532-1.72.1-2.47-1.077a23.881,23.881,0,0,1-1.283,2.674c-.027,0-1.145.941-1.268,1.077-.26-.451-1.568-1.2-1.882-1.665a8.519,8.519,0,0,0-1.705,3.493c-1.8-1.692-6.986,3.233-9.892,2.592a9.23,9.23,0,0,1-1.869,2.838c-2.783-1.214-4.679.341-7.463-.082-.108-.573-.682-1.16-.805-1.678A11.173,11.173,0,0,1,1197.521,745.976Z" transform="translate(55.971 13.092)" fill="#a6a7a7"/>
        <path id="Path_909" data-name="Path 909" d="M1253.794,723.749c1.591,0,1.655-.776,1.655-.776.949,2.076-.545,5.7-2.13,5.7-1.139,0-4.149-2.5-2.934-5.962C1251.284,723.92,1252.36,723.749,1253.794,723.749Z" transform="translate(68.129 12.423)" fill="#8a696b"/>
        <path id="Path_910" data-name="Path 910" d="M1235.981,732.229c.3.518,7.327,12.073,18.541,2.073,0,0-.26,2.892,4.133,2.715a11.589,11.589,0,0,0,.355-1.992s-4.488,2.006-4.488-5.839C1254.522,729.187,1247.564,742.066,1235.981,732.229Z" transform="translate(64.865 13.92)" fill="#1a1818"/>
        <path id="Path_911" data-name="Path 911" d="M1254.746,718.5l-.46.707-.485-.316-1.886-5.878s-.378-4.271,2.986-5.347C1254.9,707.67,1256.913,714.842,1254.746,718.5Z" transform="translate(68.546 8.944)" fill="#1a1818"/>
        <g id="Group_107" data-name="Group 107" transform="translate(1320.461 717.348)">
          <path id="Path_912" data-name="Path 912" d="M1252.5,716.971a3.791,3.791,0,0,0,1.3,1.787l1.01-1.023c1.882-2.128.123-9.468.123-9.468a4.445,4.445,0,0,0-1.133.587,15.137,15.137,0,0,1,.738,5.73c-.26,2.987-.846,2.987-1.447.6a20.838,20.838,0,0,1-.177-5.484C1250.933,712.36,1252.5,716.971,1252.5,716.971Z" transform="translate(-1251.912 -708.266)" fill="#b9a61d"/>
          <path id="Path_913" data-name="Path 913" d="M1252.919,715.073c.6,2.387,1.187,2.387,1.447-.6a15.137,15.137,0,0,0-.738-5.73,4.011,4.011,0,0,0-.886.846A20.838,20.838,0,0,0,1252.919,715.073Z" transform="translate(-1251.742 -708.156)" fill="#1a1818"/>
        </g>
        <path id="Path_914" data-name="Path 914" d="M1231.538,711.872a1.7,1.7,0,1,1,1.7,1.7A1.7,1.7,0,0,1,1231.538,711.872Z" transform="translate(63.837 9.522)" fill="#fff"/>
        <path id="Path_915" data-name="Path 915" d="M1252.082,711.9c0-.916.5-1.658,1.122-1.658s1.122.742,1.122,1.658-.5,1.658-1.122,1.658S1252.082,712.815,1252.082,711.9Z" transform="translate(68.588 9.539)" fill="#fff"/>
      </g>
    </g>
  </g>
</svg>
