<svg xmlns="http://www.w3.org/2000/svg" width="492" height="492" viewBox="0 0 492 492">
  <g id="Group_57" data-name="Group 57" transform="translate(-1266 -369)">
    <g id="Group_63" data-name="Group 63">
      <path id="Path_302" data-name="Path 302" d="M246,0C381.862,0,492,110.138,492,246S381.862,492,246,492,0,381.862,0,246,110.138,0,246,0Z" transform="translate(1266 369)" fill="#725c5c"/>
      <g id="Group_84" data-name="Group 84" transform="translate(1089.028 291.852)">
        <path id="Path_607" data-name="Path 607" d="M401.663,168.575s11.2-2.072,27.483-5.97c22.9-5.482,22.14,1.389,15.269,18.185s-9.747,29.054-7.295,35.686-24.006-6.675-35.457-20.417S391.723,165.538,401.663,168.575Z" transform="translate(58.623)" fill="#161211"/>
        <path id="Path_608" data-name="Path 608" d="M407.4,187.617s11.836-18.167,19.088-20.929,12.978-6.963,8.4,3.343-11.758,32.424-11.224,37.4S403,197.6,407.4,187.617Z" transform="translate(67.769 1.876)" fill="#22191a"/>
        <path id="Path_609" data-name="Path 609" d="M373.584,168.575s-11.2-2.072-27.483-5.97c-22.9-5.482-22.14,1.389-15.269,18.185s9.747,29.054,7.295,35.686,24.006-6.675,35.457-20.417S383.524,165.538,373.584,168.575Z" transform="translate(12.073)" fill="#161211"/>
        <path id="Path_610" data-name="Path 610" d="M357.482,187.617s-11.836-18.167-19.088-20.929-12.978-6.963-8.4,3.343,11.758,32.424,11.224,37.4S361.881,197.6,357.482,187.617Z" transform="translate(13.291 1.876)" fill="#22191a"/>
        <path id="Path_611" data-name="Path 611" d="M536.087,412.276a40.306,40.306,0,0,1-1.842-7.808c-.071-.685-.464-2.154.022-2.818.268-.352,1.291.056,1.706-.253.247-2.542-1.025-5.258-1.8-7.534-.486-1.4-2.049-3.833-1.789-5.336A4.076,4.076,0,0,1,534,389.9c-1.366-4.54-3.652-8.594-4.862-13.222a32.387,32.387,0,0,1-1.106-9.5c.063-2.76-.785-5.214-1.437-7.83-.28-1.149-.683-2.243-.961-3.381-.083-.31.227-.817.134-1.1-.33-.983-1.356-2.054-1.8-3.06-.424-.993-.827-2.02-1.23-3.026-.746-1.877-2.028-5-1.593-7.18.217-1.049.734-1.5.568-2.606-.164-1.049-1.034-1.723-1.064-2.85.61-.232,1.137.012,1.747-.276-.134-.5-1.881-1.579-2.43-2.044a23.755,23.755,0,0,1-2.089-2.164,3.548,3.548,0,0,0,1.02.051c1.167-1.4-.324-3.228-.624-4.6,1.132-1.356,6.924,2.24,5.07-1.859-.842-1.859-2.125-3.714-3.067-5.556-.469-.922-.9-2.543-1.6-3.233,1.771.176,3.531-.146,5.283.224,1.884.4,3.938,1.173,5.9.461.049-1.351-2.1-2.04-3.031-2.6a6.406,6.406,0,0,1-2.964-3.191,1.43,1.43,0,0,0,1.132-.476c-.444-2.935-3.218-5.205-3.458-8,1.045-.11,1.83.19,2.282-.807.43-.954-.413-2.371-.944-3.106-1.542-2.137-3.684-4.329-4.411-6.925-.337-1.2.037-2.518-.212-3.763-.315-1.574-1.234-3.086-1.7-4.626-.276-.918-.981-2.894-.491-3.858s1.147-.691,2.23-.807a9.465,9.465,0,0,0,.166-3.114c-.237-1.766-1.456-2.806-2.189-4.4a10.252,10.252,0,0,0-.8-2.393.6.6,0,0,1,.461-.834,7.127,7.127,0,0,0,.224-2.127,25.723,25.723,0,0,0-.984-3.048c-.5-1.523-.932-1.361.146-2.294a1.514,1.514,0,0,0,1.508-.664,2.452,2.452,0,0,0-.635-2.2,33.785,33.785,0,0,0-2.357-3.03c-1.6-2.259-2.428-4.831-3.821-7.08a10.406,10.406,0,0,0-4.253-3.718,3.129,3.129,0,0,0-.254-2.618c-1.334-2.816-2.916-5.378-4.3-8.14a17.219,17.219,0,0,1-1.664-4.087c-.229-1.247.207-1.767-.529-2.926a21.688,21.688,0,0,0-4.126-4.95c1.386-1.678-3.02-3.667-2.44-6.129.59-2.53,3.35-1.547,1.023-4.353-1.7-2.044-6.888-5.378-4.25-8.7,1.013-1.281,1.417-1.237.207-2.75a11.514,11.514,0,0,0-2.762-2.74c-.444-2.474,3.63-1.579.569-3.567-1.19-.785-2.266-1.657-3.4-2.552-.879-.674-2.44-1.161-3.04-2.188-1.2-2.076,1.7-2.872.8-4.639-.456-.895-2.74-1.6-3.569-1.778.186-.895,1.883-.951,1.727-1.867-.175-1.071-3.34-1.733-3.97-1.932-1-.31-5.129-.464-5.792-2.1-.363-.917.507-2.176.6-3.148.146-1.7-.093-1.689-1.25-1.855a26.184,26.184,0,0,0-3.362.022c-1.293,0-3.257.442-4.426-.342-1.086-.718-.713-1.137-.973-2.5-1.137-.254-1.881-.718-2.977-.862-.527-.076-1.066.222-1.583-.022-.59-.276-.62-1-1.044-1.313-1.686-1.2-4.4,1.037-6.039,1.391a10.691,10.691,0,0,1-2.4.176c.2-.961,1.3-2.12,1.571-3.048-1.883-.486-4,.244-5.915-.2a3.765,3.765,0,0,1,1.169-2.42c-2.286.542-5.563,1.933-7.911.907-.063-.408-.124-.817-.176-1.215-1.167-.52-1.716.264-2.554.442-.641.132-1.406-.044-2.037.132-1.728.5-2,1.425-2.235-1.369-1.778.088-3.857,1.976-5.46,3.821-1.6-1.845-3.682-3.733-5.46-3.821-.239,2.794-.508,1.866-2.235,1.369-.63-.176-1.4,0-2.037-.132-.837-.178-1.386-.962-2.554-.442-.053.4-.115.807-.176,1.215-2.349,1.027-5.626-.364-7.912-.907a3.765,3.765,0,0,1,1.169,2.42c-1.913.442-4.033-.288-5.915.2.268.929,1.374,2.088,1.571,3.048a10.691,10.691,0,0,1-2.4-.176c-1.644-.354-4.353-2.6-6.039-1.391-.424.308-.454,1.037-1.044,1.313-.517.244-1.056-.054-1.583.022-1.1.144-1.84.608-2.977.862-.259,1.359.114,1.777-.973,2.5-1.169.785-3.133.342-4.426.342a26.184,26.184,0,0,0-3.362-.022c-1.157.166-1.4.154-1.251,1.855.093.973.961,2.232.6,3.148-.663,1.635-4.789,1.789-5.792,2.1-.63.2-3.8.861-3.972,1.932-.154.917,1.542.973,1.728,1.867-.827.176-3.113.883-3.569,1.778-.9,1.767,2,2.564.8,4.639-.6,1.027-2.16,1.513-3.04,2.188-1.137.895-2.213,1.767-3.4,2.552-3.062,1.988,1.013,1.093.568,3.567a11.507,11.507,0,0,0-2.76,2.74c-1.21,1.513-.807,1.469.207,2.75,2.637,3.325-2.554,6.659-4.25,8.7-2.327,2.806.434,1.823,1.023,4.353.58,2.462-3.826,4.451-2.44,6.129a21.644,21.644,0,0,0-4.126,4.95c-.735,1.159-.3,1.679-.529,2.926a17.288,17.288,0,0,1-1.664,4.087c-1.386,2.762-2.969,5.324-4.3,8.14-.683,1.437-.373,1.491-.217,2.894.012.11.007.219.01.327-1.716,1.234-3.385,2.555-4.95,3.892-1.14.976-3.513,4.35-5.241,4.616,2-.29,3.12.718,2.543,2.53a22.5,22.5,0,0,1-2.545,4.917c-.656,1-2.245,1.974-2.482,3.089.666.214,2.488-.313,2.932.2.574.663-.5,3.494-.725,4.182a23.8,23.8,0,0,1-6.617,10.318,13.842,13.842,0,0,1,4.321-.014c.213,2.147-2.213,3.416-3.333,4.892a10.068,10.068,0,0,0-1.906,4.074c1.222.39,2.515-.266,3.677.193.808,2.874-1.837,6.134-3.68,8.169-1.955,2.16-4.733,3.382-6.691,5.551a18.271,18.271,0,0,1,7.417.791c-.053,2.665-2.445,6.09-1.574,8.759.6,1.835,2.626,1.815,4.5,1.911.391,1.752.6,3.572.891,5.346.225,1.386.092,4.616,1.21,5.643.773.71,1.612.322,2.615.366a2.128,2.128,0,0,1,2.059,1.1c-.513.968-.9,2.137-1.473,3.089a16.483,16.483,0,0,1-2.555,2.75c-.92.939-1.664,1.922-2.647,2.76-.549.464-2.3,1.547-2.43,2.044.61.288,1.137.044,1.747.276-.031,1.127-.9,1.8-1.066,2.85-.164,1.1.352,1.557.569,2.606.435,2.177-.847,5.3-1.593,7.18-.4,1.007-.807,2.033-1.23,3.026-.446,1.007-1.469,2.077-1.8,3.06-.093.288.217.795.134,1.1-.278,1.137-.681,2.232-.961,3.381-.652,2.616-1.5,5.07-1.439,7.83a32.326,32.326,0,0,1-1.1,9.5c-1.212,4.628-3.5,8.682-4.861,13.222a4.064,4.064,0,0,1,1.613-1.371c.259,1.5-1.3,3.933-1.789,5.336-.774,2.276-2.047,4.992-1.8,7.534.415.308,1.439-.1,1.706.253.486.664.093,2.133.022,2.818a40.31,40.31,0,0,1-1.842,7.808,6.659,6.659,0,0,0-.507,3.823c1.159.641,2.2-1.083,2.989-1.855.641.961-.92,4.772-1.137,6.075-.322,2.044-1.169,4.992-.6,7.024,1.023.442,2.16-.629,2.957-1.281.847,1.393-.259,5.434-.547,6.837-.363,1.713-1.22,4.4-.529,6.164.559.044,1.107.076,1.666.1.817,2-.444,4.573-.4,6.595.03,1.425.227.785.5,1.933.434,1.888,1.1,15.86,2.957,14.988.249-.927.4-2.132,1.313-2.276.9,2.542,1.573,5.17,2.535,7.688.434,1.139,1.19,3.877,2.42,4.175a34.414,34.414,0,0,1,.154-4.738c.932,1.767,1.552,3.821,2.482,5.633.9,1.723,2.069,5.114,3.982,5.534.341-.751.144-1.149.237-2.021,2.059.376,3.93,3.855,6.059,3.569a42.77,42.77,0,0,0,.012-5.148c2.389,2.672,4.643,5.368,7.186,7.854.93.9,2.659,3.313,3.95,3.258a13.531,13.531,0,0,0,.022-1.459c1.717.452,3.07,2.055,4.6,3.016-.827-1.8-1.591-3.613-2.326-5.478-.527-1.359-1.447-7.434-2.657-7.854-.837.873-1.749,3.953-3.362,3.369-1.023-.376-1.3-2.784-1.447-3.733a55.937,55.937,0,0,1,0-11.907c-.663.839-1.457,1.535-2.13,2.386a4.591,4.591,0,0,1-1.913,1.755c-.849-1.877-.239-5.754-.176-7.786.166-4.916,1.9-9.091,3.32-13.652-1.976,1.369-3.589,6.737-6.525,6.1-1.54-1.944.89-8.25,2.016-10.294,1.056-1.9,2.6-5.114,4.529-6.075-3.267.1-5.9,3.369-9.235,3,.28-1.117,1.676-2.044,2.432-2.84,1.117-1.181,2.254-2.364,3.36-3.579a39.97,39.97,0,0,0,2.679-3.445c1.034-1.4,3.453-2.906,3.67-4.75-1.21-.41-2.523.176-3.785-.178.073-1.469,1.418-2.452,2.225-3.545a25.293,25.293,0,0,0,2.72-4.363c-1.883-.773-2.865,1.491-4.562,1.381-.29-2.452,2.462-5.5,3.652-7.368,1.3-2.044,3.713-3.931,4.373-6.351-.91-1.027-4.043-.2-5.212.264-1.6.652-3.113,2.552-4.912,2.386.032-3.357,3.082-6.925,4.768-9.521a39.868,39.868,0,0,1,4.726-5.776c1.023-1.083,3.226-2.684,3.558-4.307-.89.442-3.8,1.237-4.592.386-.942-1,.94-3.126,1.561-3.943a23.778,23.778,0,0,1,7.012-5.677c1.013-.586,3.4-1.415,3.567-2.7-2.811,1.183-6.059.741-8.893,1.8a31.055,31.055,0,0,1,8.4-6.2c1.923-.983,4.013-.785,5.977-1.535,1.034-.4,3.04-2.42,4.126-2.188.032.22.073.442.1.663,2.948,4.463,3.145,4.507,3.33,4.54.176.939.59,1.745.746,2.518.176.885-.063,1.779.03,2.684a25.43,25.43,0,0,0,1.5,6.032,6.628,6.628,0,0,1,.6,2.274,8.348,8.348,0,0,0,.537,2c.486,1.7.922,3.226,1.532,4.994,1.447,4.141,2.43,8.25,3.97,12.36,1.013,2.716,2.028,5.312,3.289,7.918,1.386,2.862,3.092,5.49,4.446,8.374a109.254,109.254,0,0,0,6.215,12.271c.869,1.379,2.255,2.33,3.216,3.689.9,1.269,1.386,2.76,2.266,4a57.059,57.059,0,0,0,4.716,5.182,49.22,49.22,0,0,0,3.579,3.711c1.478,1.293,2.471,3.014,3.867,4.351a13.388,13.388,0,0,0,2.016,1.491,12.154,12.154,0,0,1,1.716,1.469c.786.718.414.939,1.717.3.839-.4,1.459-1.457,2.44-1.657a2.746,2.746,0,0,0,4.1,0c.983.2,1.6,1.259,2.442,1.657,1.3.641.93.42,1.716-.3a12.161,12.161,0,0,1,1.716-1.469,13.382,13.382,0,0,0,2.016-1.491c1.4-1.337,2.389-3.059,3.867-4.351a49.208,49.208,0,0,0,3.579-3.711,57.069,57.069,0,0,0,4.716-5.182c.879-1.237,1.366-2.728,2.266-4,.961-1.359,2.347-2.31,3.216-3.689a109.264,109.264,0,0,0,6.215-12.271c1.354-2.884,3.06-5.512,4.446-8.374,1.261-2.606,2.274-5.2,3.289-7.918,1.54-4.109,2.523-8.218,3.97-12.36.61-1.767,1.046-3.292,1.53-4.994a8.342,8.342,0,0,0,.539-2,6.627,6.627,0,0,1,.6-2.274,25.427,25.427,0,0,0,1.5-6.032c.093-.9-.146-1.8.031-2.684.156-.773.569-1.579.744-2.518.186-.032.383-.076,3.331-4.54.031-.22.071-.442.1-.663,1.086-.232,3.091,1.789,4.126,2.188,1.964.751,4.053.552,5.976,1.535a31.081,31.081,0,0,1,8.4,6.2c-2.833-1.061-6.081-.619-8.894-1.8.166,1.281,2.555,2.11,3.569,2.7a23.8,23.8,0,0,1,7.012,5.677c.62.817,2.5,2.938,1.561,3.943-.8.851-3.7.056-4.592-.386.332,1.623,2.535,3.225,3.558,4.307a39.868,39.868,0,0,1,4.726,5.776c1.686,2.6,4.736,6.165,4.768,9.521-1.8.166-3.311-1.733-4.912-2.386-1.169-.463-4.3-1.291-5.212-.264.661,2.42,3.07,4.307,4.373,6.351,1.19,1.867,3.94,4.916,3.652,7.368-1.7.11-2.679-2.154-4.562-1.381a25.293,25.293,0,0,0,2.72,4.363c.807,1.093,2.152,2.076,2.223,3.545-1.261.354-2.574-.232-3.784.178.217,1.844,2.637,3.347,3.67,4.75a39.946,39.946,0,0,0,2.679,3.445c1.107,1.215,2.243,2.4,3.36,3.579.756.8,2.152,1.723,2.432,2.84-3.331.364-5.968-2.906-9.235-3,1.933.961,3.474,4.175,4.529,6.075,1.127,2.044,3.557,8.35,2.016,10.294-2.937.641-4.551-4.728-6.525-6.1,1.417,4.562,3.153,8.737,3.319,13.652.063,2.032.673,5.909-.176,7.786a4.591,4.591,0,0,1-1.913-1.755c-.673-.851-1.467-1.547-2.13-2.386a55.945,55.945,0,0,1,0,11.907c-.146.949-.424,3.357-1.447,3.733-1.615.585-2.525-2.5-3.362-3.369-1.21.42-2.13,6.495-2.659,7.854-.734,1.866-1.5,3.677-2.327,5.478,1.532-.961,2.886-2.564,4.6-3.016a13.951,13.951,0,0,0,.02,1.459c1.293.054,3.021-2.354,3.952-3.258,2.543-2.486,4.8-5.182,7.186-7.854a43.113,43.113,0,0,0,.01,5.148c2.132.286,4-3.192,6.061-3.569.093.873-.1,1.271.237,2.021,1.913-.42,3.082-3.811,3.982-5.534.93-1.811,1.55-3.865,2.482-5.633a34.685,34.685,0,0,1,.154,4.738c1.23-.3,1.986-3.036,2.42-4.175.962-2.518,1.635-5.146,2.533-7.688.91.144,1.066,1.349,1.315,2.276,1.86.873,2.523-13.1,2.957-14.988.269-1.149.466-.508.5-1.933.041-2.021-1.22-4.6-.4-6.595.557-.022,1.107-.054,1.666-.1.691-1.767-.166-4.451-.529-6.164-.29-1.4-1.4-5.444-.547-6.837.8.652,1.933,1.723,2.957,1.281.569-2.032-.278-4.98-.6-7.024-.217-1.3-1.779-5.114-1.137-6.075.786.773,1.83,2.5,2.989,1.855A6.66,6.66,0,0,0,536.087,412.276Z" transform="translate(0 0.067)" fill="#c9b99b"/>
        <path id="Path_612" data-name="Path 612" d="M389.225,226.146c-3.133.537-4.462-3.108-6.541-2.454-1.584.5-.383,3-.869,4a46.585,46.585,0,0,0-9.355-.713,66.235,66.235,0,0,1-7.72-.647c-1.322-.137-2.618-.493-3.84-.059,2.372,1.13,8.115,2.886,5.651,4.951-2.05,1.722-9.033.669-9.742,2.713-.39,1.123,2.928,1.642,3.177,2.742.336,1.478-3.379,2.825-4.69,3.3-4.7,1.691-6.7,3.287-10.2,5.753a25.543,25.543,0,0,1,4.321.007c.6,1.911-4.44,5.219-6.01,6.41-1.718,1.3-3.419,2.325-4.455,3.957,3.05.454,6.129.778,9.176,1.056,1.081,1.456-1.227,3.34-1.956,4.656a20.96,20.96,0,0,0-2.606,8.183c3.482.891,8.317-2.493,10.55-1.4,1,.49.183,6.461.183,6.873,0,1.381-.642,3.76.124,5.111,2.6.076,4.548-1.232,6.922-1.572.541,1.625.105,3.335.419,5,.291,1.557.368,7.386,2.128,8.386,3.25,1.845,3.572-2.94,7.063-2.867.7,2.55.776,5.234,1.315,7.815q1.035,5.114,2.569,10.169a6.784,6.784,0,0,0,1.139,2.828c4.241,2.506,5.355-2.947,7.252-4.511,3.98,2.352,2.22,8.313,3.885,11.416,1.267,2.36,2.02.873,4.519,1.642,1.345.415,1.984,2.26,2.4,3.057a37.854,37.854,0,0,1,2.921,7.481,77.871,77.871,0,0,1,1.656,8.156c.186,1.159-.159,2.66.2,3.753.522,1.584,1.5,2.687,3.636,1.139,1.617-1.173,2.616-3.93,3.689-5.387,1.92-2.6,3.962-5.172,5.785-7.808a13.228,13.228,0,0,1,3.2-3.819c1.759-1.259,1.864-.952,3-3.142,1.827-3.53,2.518-7.193,3.884-10.765,1.6.4,2.016,2.54,4.312,1.469.9-.419.976-3.3,1.139-3.923.344-1.335.564-2.859,1.742-4.011,2.569-.058,3.5,2.506,5.482,3.309,1.7.69,1.615.922,2.733-.073,1.017-.9,1.989-4.251,2.179-5.039.412-1.7-1.247-7.368,1.31-8.437,2.027-.846,5.044.917,7.166,1.335,1.761-4.074-2.343-8.772-.862-13.07,1.186-.112,3.467.391,4.451-.13,1.015-.537.181-3.524.19-4.321.042-3.921-1.278-6.705-3.55-10.042,3.325-.691,7.5.622,10.641-.295,1.039-4-3.172-5.9-4.5-9.515-1.73-4.7,6.314-4.609,9.613-7.237,5.585-4.446-11.587-7.242-14.325-10.016-1.635-1.654.225-1.842,1.764-2.565,1.474-.693,3.123-2.01,4.892-2.32-3.016.147-9.2.849-10.636-1.511A6.009,6.009,0,0,1,446,232c.691-1.173,4.1-1.666,3.911-2.618-4.863-1.247-12.019.378-16.3-1.595-3.108-1.434,1.581-2.269,1.389-4.06-4.26.495-9.289,4.887-13.976,4.116-4.4-.725.652-3.157-.883-4.726-3.177.6-5.424,4.024-9.089,3.8-.981-1.771,1.7-3.128.918-4.77-2.1-.214-7.454,2.51-9.325,3.225-1.752.671-4.065,1.186-5.319,2.279a12.7,12.7,0,0,1-4.192-2.477c-.7-.63-.932-1.595-1.771-2.142C390.83,222.682,388.77,222.338,389.225,226.146Z" transform="translate(20.653 42.629)" fill="#eddcbe"/>
        <path id="Path_613" data-name="Path 613" d="M471.876,230.984c-3.687-.275-5.051.676-6.585,3.733-1.317,2.623-2,.549-4.248,1.581-1.4.641-.539,1.317-1.249,2.323-.549.779-1.317.608-2.142.871a62.994,62.994,0,0,1-6.137,2.142c-.871.183-1.786.515-2.657.676s-1.855-.173-2.715.034c-.641.149-.79.676-1.442.835a12.264,12.264,0,0,1-2.337-.034,11.24,11.24,0,0,0-2.325-.046c-.823.183-1.156.917-2.118.939-.091.688-.173,1.34-.264,2.027-.424.081-.835.173-1.247.275a11.45,11.45,0,0,0-.274,1.261c-.7.092-1.352.171-2.05.241-.32,1.683-.539,6.219-3.023,6.08-.493,1.993-.39,5.073-1.844,6.654-.39.069-.779.137-1.169.217-.332.654-.641,1.318-.951,1.983a24.72,24.72,0,0,1-1.488,3.526c-1.832,2.681-2.508-.618-4.638,1.432-.6.561-1.237,2.176-2.267,2.2-.7.024-.8-.869-1.478-.927-1.374-.1-3.172,1.832-4.077,2.611a7.689,7.689,0,0,1-2.806,1.466c-2.038.8-3.962,2.221-6.149,2.05-2.188.171-4.111-1.249-6.149-2.05a7.689,7.689,0,0,1-2.806-1.466c-.9-.779-2.7-2.715-4.077-2.611-.676.058-.779.951-1.478.927-1.03-.022-1.671-1.637-2.267-2.2-2.13-2.05-2.806,1.249-4.638-1.432a24.72,24.72,0,0,1-1.488-3.526c-.31-.664-.618-1.328-.951-1.983-.39-.08-.78-.147-1.169-.217-1.454-1.581-1.35-4.661-1.844-6.654-2.484.139-2.7-4.4-3.023-6.08-.7-.069-1.351-.149-2.05-.241a11.422,11.422,0,0,0-.275-1.261c-.412-.1-.823-.193-1.249-.275-.091-.686-.171-1.339-.263-2.027-.962-.022-1.295-.756-2.118-.939a11.239,11.239,0,0,0-2.325.046,12.263,12.263,0,0,1-2.337.034c-.652-.159-.8-.686-1.442-.835-.859-.207-1.833.137-2.715-.034s-1.786-.493-2.657-.676a63,63,0,0,1-6.137-2.142c-.825-.263-1.593-.091-2.142-.871-.71-1.007.149-1.683-1.249-2.323-2.244-1.032-2.931,1.042-4.248-1.581-1.535-3.057-2.9-4.007-6.585-3.733,1.076-1.134,3.687-3.15,4.214-4.65,1.167-3.355-4.34.068-4.479-2.245,2.05-2.027,4.18-3.63,5.887-6.046-1.167-.217-2.4.149-3.572-.253.446-1.6,3.516-2.2,4.741-3.469a39.575,39.575,0,0,1,4.179-3.436,70.762,70.762,0,0,1,9.379-5.9c1.981-1.112,3.78-2.748,6.1-3.116a32.1,32.1,0,0,1,5.726-.72c2.543.01,5.1.068,7.639.01,3.15-.092,2.13-2.164,2.806-4.534,1.35.024,1.168,1.225,2,2.016.527-2.394.813-5.051,1.293-7.513.286-1.42.286-3.126.951-4.443.264-.527.71-.768.893-1.249a15.261,15.261,0,0,0,.185-1.981,12.122,12.122,0,0,1,2.176-3.95c.583-.734,2.106-2.645,3.069-1.6,1.752-1.535,3.48-7.135,2.977-9.311.71.539,1.752,2.371,2.669,2.027.961-.366.308-2.794.573-3.7.424-.068.835-.159,1.247-.263.127-.435.229-.859.32-1.295.986.481,2.188.837,3.253,1.41.881.457,2.313,1.018,3.447,1.706,1.134-.688,2.565-1.249,3.447-1.706,1.066-.573,2.267-.929,3.253-1.41.091.435.193.859.32,1.295.412.1.824.195,1.247.263.264.9-.388,3.333.573,3.7.917.344,1.959-1.488,2.669-2.027-.5,2.176,1.225,7.776,2.977,9.311.962-1.042,2.486.869,3.069,1.6a12.12,12.12,0,0,1,2.176,3.95,15.583,15.583,0,0,0,.183,1.981c.185.481.63.722.895,1.249.664,1.317.664,3.023.949,4.443.481,2.462.768,5.119,1.295,7.513.837-.791.652-1.993,2-2.016.676,2.371-.344,4.443,2.806,4.534,2.542.058,5.1,0,7.637-.01a32.1,32.1,0,0,1,5.727.72c2.323.368,4.121,2,6.1,3.116a70.753,70.753,0,0,1,9.379,5.9,39.569,39.569,0,0,1,4.179,3.436c1.225,1.271,4.3,1.866,4.741,3.469-1.167.4-2.4.036-3.572.253,1.706,2.416,3.836,4.019,5.885,6.046-.137,2.313-5.644-1.11-4.477,2.245C468.189,227.834,470.8,229.85,471.876,230.984Z" transform="translate(18.775 3.203)" fill="#161211"/>
        <path id="Path_614" data-name="Path 614" d="M495.025,350.7c1.933.961,3.474,4.175,4.529,6.075,1.127,2.044,3.557,8.35,2.016,10.294-2.937.641-4.551-4.728-6.525-6.1,1.417,4.562,3.153,8.737,3.319,13.652.063,2.032.673,5.909-.176,7.786a4.591,4.591,0,0,1-1.913-1.755c-.673-.851-1.467-1.547-2.13-2.386a55.945,55.945,0,0,1,0,11.907c-.146.949-.424,3.357-1.447,3.733-1.615.586-2.525-2.5-3.362-3.369-1.21.42-2.13,6.495-2.659,7.854-.734,1.866-1.5,3.677-2.327,5.478a4.291,4.291,0,0,1-2.16.739,3.552,3.552,0,0,1,.341-2.02c-.9-.31-3.889,1.081-4.436,1.237-.869.264-3.982,1.778-4.633,1.281a11.786,11.786,0,0,1,.486-2.63c-2.286-.441-4.726,4.055-7.178,4.3-1.2.122-1.023-.056-1.8-.9-1.127-1.249-.868-1.371-2.74-1.327a16.615,16.615,0,0,1-4.963-.552,5.779,5.779,0,0,0-4.365.574c-.807.364-1.583.442-2.347.718s-.91.652-1.8.773a13.459,13.459,0,0,0-2.462.552c-1.82.574-3.774.156-5.553.862-2.233.895-4.4,2.1-6.866,1.523-1.045-.232-1.149-.054-1.686-1.347A9.3,9.3,0,0,1,432,405.5c-5.946.42-12.11.608-18.47.608s-12.524-.188-18.47-.608a9.3,9.3,0,0,1-.186,2.144c-.537,1.293-.641,1.115-1.686,1.347-2.471.574-4.633-.629-6.866-1.523-1.779-.707-3.733-.288-5.553-.862a13.489,13.489,0,0,0-2.462-.552c-.89-.12-1.023-.507-1.8-.773s-1.54-.354-2.347-.718a5.779,5.779,0,0,0-4.365-.574,16.615,16.615,0,0,1-4.963.552c-1.872-.044-1.613.078-2.74,1.327-.776.849-.6,1.027-1.8.9-2.452-.242-4.892-4.738-7.178-4.3a11.884,11.884,0,0,1,.486,2.63c-.651.5-3.765-1.017-4.633-1.281-.549-.156-3.536-1.547-4.436-1.237a3.552,3.552,0,0,1,.341,2.02,4.291,4.291,0,0,1-2.16-.739c-.829-1.8-1.593-3.613-2.328-5.478-.527-1.359-1.447-7.434-2.657-7.854-.837.873-1.749,3.955-3.362,3.369-1.023-.376-1.3-2.784-1.447-3.733a55.937,55.937,0,0,1,0-11.907c-.663.839-1.457,1.535-2.13,2.386a4.591,4.591,0,0,1-1.913,1.755c-.849-1.877-.239-5.754-.176-7.786.166-4.916,1.9-9.091,3.32-13.652-1.976,1.369-3.589,6.737-6.525,6.1-1.54-1.944.89-8.25,2.016-10.294,1.056-1.9,2.6-5.114,4.529-6.075-3.267.1-5.905,3.369-9.235,3,.28-1.117,1.676-2.044,2.432-2.84,1.117-1.181,2.254-2.364,3.36-3.579a39.97,39.97,0,0,0,2.679-3.445c1.034-1.4,3.453-2.906,3.67-4.75-1.21-.41-2.523.176-3.785-.178.073-1.469,1.418-2.452,2.225-3.545a25.293,25.293,0,0,0,2.72-4.363c-1.883-.773-2.865,1.491-4.562,1.381-.29-2.452,2.462-5.5,3.652-7.368,1.3-2.044,3.713-3.931,4.373-6.351-.91-1.027-4.043-.2-5.212.264-1.6.652-3.113,2.552-4.912,2.386.032-3.357,3.082-6.925,4.768-9.521a39.868,39.868,0,0,1,4.726-5.776c1.023-1.083,3.226-2.684,3.557-4.307-.888.442-3.794,1.237-4.59.386-.942-1,.94-3.126,1.561-3.943a23.778,23.778,0,0,1,7.012-5.677c1.013-.586,3.4-1.415,3.569-2.7-2.813,1.183-6.061.741-8.894,1.8a31.055,31.055,0,0,1,8.4-6.2c1.923-.983,4.013-.785,5.977-1.535,1.034-.4,3.042-2.42,4.126-2.188.032.22.073.442.1.663,2.948,4.463,3.145,4.507,3.33,4.54.176.939.59,1.745.746,2.518.176.885-.063,1.779.03,2.684a25.43,25.43,0,0,0,1.5,6.032,6.628,6.628,0,0,1,.6,2.274,8.348,8.348,0,0,0,.537,2c.486,1.7.922,3.226,1.532,4.994,1.447,4.141,2.43,8.25,3.97,12.36,1.013,2.716,2.028,5.312,3.289,7.92,1.386,2.86,3.092,5.488,4.446,8.372a109.254,109.254,0,0,0,6.215,12.271c.869,1.379,2.255,2.33,3.216,3.689.9,1.269,1.386,2.76,2.266,4a57.059,57.059,0,0,0,4.716,5.182,49.22,49.22,0,0,0,3.579,3.711c1.478,1.293,2.471,3.014,3.867,4.351a13.388,13.388,0,0,0,2.016,1.491,12.154,12.154,0,0,1,1.716,1.469c.786.718.414.939,1.717.3.839-.4,1.459-1.457,2.442-1.657a2.744,2.744,0,0,0,4.094,0c.983.2,1.6,1.259,2.442,1.657,1.3.641.93.42,1.716-.3a12.161,12.161,0,0,1,1.716-1.469,13.382,13.382,0,0,0,2.016-1.491c1.4-1.337,2.389-3.059,3.868-4.351a49.51,49.51,0,0,0,3.577-3.711,57.069,57.069,0,0,0,4.716-5.182c.879-1.237,1.366-2.728,2.266-4,.961-1.359,2.347-2.31,3.216-3.689a109.264,109.264,0,0,0,6.215-12.271c1.354-2.884,3.06-5.512,4.446-8.372,1.261-2.608,2.274-5.2,3.289-7.92,1.54-4.109,2.523-8.218,3.97-12.36.61-1.767,1.046-3.292,1.53-4.994a8.263,8.263,0,0,0,.539-2,6.627,6.627,0,0,1,.6-2.274,25.427,25.427,0,0,0,1.5-6.032c.093-.9-.146-1.8.031-2.684.156-.773.569-1.579.744-2.518.186-.032.383-.076,3.331-4.54.031-.22.071-.442.1-.663,1.086-.232,3.091,1.789,4.126,2.188,1.964.751,4.053.552,5.976,1.535a31.081,31.081,0,0,1,8.4,6.2c-2.833-1.061-6.081-.619-8.894-1.8.166,1.281,2.555,2.11,3.569,2.7a23.8,23.8,0,0,1,7.012,5.677c.62.817,2.5,2.938,1.561,3.943-.8.851-3.7.056-4.592-.386.332,1.623,2.535,3.225,3.558,4.307a39.868,39.868,0,0,1,4.726,5.776c1.686,2.6,4.736,6.165,4.768,9.521-1.8.166-3.311-1.733-4.912-2.386-1.169-.463-4.3-1.291-5.212-.264.661,2.42,3.07,4.307,4.373,6.351,1.19,1.867,3.94,4.916,3.652,7.368-1.7.11-2.679-2.154-4.562-1.381a25.293,25.293,0,0,0,2.72,4.363c.807,1.093,2.152,2.076,2.223,3.545-1.261.354-2.574-.232-3.784.178.217,1.844,2.637,3.347,3.67,4.75a39.946,39.946,0,0,0,2.679,3.445c1.107,1.215,2.243,2.4,3.36,3.579.756.8,2.152,1.723,2.432,2.84C500.929,354.067,498.292,350.8,495.025,350.7Z" transform="translate(9.438 83.957)" fill="#938670"/>
        <path id="Path_615" data-name="Path 615" d="M393.843,371.868c-1.237-1.042-1.81-2.979-2.442-4.37-.739-1.628-1.652-5.548-3.724-5.936a7.907,7.907,0,0,0-.3,1.183c-1.11-.144-3.106-5.219-3.5-6.546-.364-1.227-.859-6.624-2.249-7.1-.435,1.547-.29,3.169-1.127,4.607-3.479-.5-.656-8.666-3.421-10.03-.573,1.01-1.73,3.375-3.164,3.1q-1.019-4.875-1.574-9.831c-.125-1.139.686-9.764-.6-9.96-.607.774-2.191,2.333-3.164,2.2-.769-3.186,1.6-5.868,1.391-8.845-1.962-1.564-6.407,3.319-7.783,1.4.785-2.476,2.606-4.265,3.087-6.983.2-1.113.874-6.493-.534-7.078-.871.351-3.8,3.045-4.672,1.308-.4-.8.839-3.582.849-4.706-.947,1.535-5.273,3-6.952,2.762-1.044-3.186,5.927-4.443,4.431-7.495-1.41.693-1.92,1.167-2.177-.791-.322-2.449,2.315-4.385,1.454-6.708a24.715,24.715,0,0,0-3.924,2.247c-1.117.768-2.132,2.22-3.469,2.608a8.606,8.606,0,0,1,.74-5.832c.505-1.122,3.782-4.685,3.713-5.99-1.872-.585-4.016.1-5.966-.215-.356-1.256,1.1-3.475,1.9-4.367-2.64-.634-5.37-.464-7.906-.995.563-1.469,1.876-2.732,2.088-4.272.371-2.7-2.047-1.4-3.811-1.818a1.8,1.8,0,0,1-.085-1.188c-1.588,1.317-2.008,4.162-.737,8.92,0,0,17.558,65.656,22.14,83.216s11.8,31.444,5.15,38.172-10.848,23.667,2.689,23.667,26.231,4.58,27.9-10.689c.807-7.368-.271-24.163-2.269-42.655A11.254,11.254,0,0,1,393.843,371.868Z" transform="translate(21.005 77.419)" fill="#161211"/>
        <path id="Path_616" data-name="Path 616" d="M370.846,347.33s-13.346.171-14.888,6.871,3.726,7.776,14.078,7.776,12.643-2.672,12.643-7.324S377.234,347.33,370.846,347.33Z" transform="translate(32.276 129.574)" fill="#261d1c"/>
        <path id="Path_617" data-name="Path 617" d="M382.995,371.868c1.237-1.042,1.81-2.979,2.442-4.37.739-1.628,1.652-5.548,3.724-5.936a7.893,7.893,0,0,1,.3,1.183c1.11-.144,3.1-5.219,3.5-6.546.366-1.227.861-6.624,2.25-7.1.434,1.547.29,3.169,1.127,4.607,3.479-.5.656-8.666,3.419-10.03.574,1.01,1.732,3.375,3.165,3.1q1.019-4.875,1.574-9.831c.125-1.139-.686-9.764.6-9.96.607.774,2.191,2.333,3.164,2.2.769-3.186-1.6-5.868-1.391-8.845,1.962-1.564,6.405,3.319,7.783,1.4-.785-2.476-2.606-4.265-3.087-6.983-.2-1.113-.874-6.493.534-7.078.871.351,3.8,3.045,4.672,1.308.4-.8-.839-3.582-.849-4.706.947,1.535,5.273,3,6.952,2.762,1.044-3.186-5.927-4.443-4.431-7.495,1.41.693,1.92,1.167,2.177-.791.322-2.449-2.315-4.385-1.454-6.708a24.714,24.714,0,0,1,3.924,2.247c1.117.768,2.132,2.22,3.469,2.608a8.606,8.606,0,0,0-.74-5.832c-.507-1.122-3.782-4.685-3.713-5.99,1.872-.585,4.016.1,5.966-.215.356-1.256-1.1-3.475-1.9-4.367,2.64-.634,5.37-.464,7.906-.995-.563-1.469-1.876-2.732-2.088-4.272-.371-2.7,2.047-1.4,3.811-1.818a1.8,1.8,0,0,0,.085-1.188c1.588,1.317,2.008,4.162.737,8.92,0,0-17.56,65.656-22.14,83.216s-11.8,31.444-5.15,38.172,10.848,23.667-2.689,23.667-26.231,4.58-27.9-10.689c-.807-7.368.271-24.163,2.269-42.655A11.255,11.255,0,0,0,382.995,371.868Z" transform="translate(48.1 77.419)" fill="#161211"/>
        <path id="Path_618" data-name="Path 618" d="M392.914,347.33s13.346.171,14.888,6.871-3.726,7.776-14.078,7.776-12.643-2.672-12.643-7.324S386.525,347.33,392.914,347.33Z" transform="translate(49.907 129.574)" fill="#261d1c"/>
        <path id="Path_619" data-name="Path 619" d="M371.6,198.959a14.8,14.8,0,0,0-12.056-5.287c-7.6.529-6.814,5.287-5.5,10.045s10.484,7.137,15.2,3.436S373.823,201.1,371.6,198.959Z" transform="translate(30.543 22.838)" fill="#00a1ed"/>
        <path id="Path_620" data-name="Path 620" d="M359.512,195.33s-3.1,4.023,0,9.594C359.512,204.924,363.535,201.52,359.512,195.33Z" transform="translate(33.972 24.013)" fill="#1a1818"/>
        <path id="Path_621" data-name="Path 621" d="M368.24,222.717s11.678,4.355,11.678-6.8,2.064.151,2.064.151v3.055S379.691,228.1,368.24,222.717Z" transform="translate(40.989 34.898)" fill="#1a1818"/>
        <path id="Path_622" data-name="Path 622" d="M380.789,204.228s-10.831.308-10.831,4.331,1.857,13.617,10.831,13.617Z" transform="translate(42.182 30.192)" fill="#1a1818"/>
        <path id="Path_623" data-name="Path 623" d="M389.249,198.959a14.8,14.8,0,0,1,12.056-5.287c7.6.529,6.813,5.287,5.5,10.045s-10.484,7.137-15.2,3.436S387.031,201.1,389.249,198.959Z" transform="translate(54.546 22.838)" fill="#00a1ed"/>
        <path id="Path_624" data-name="Path 624" d="M394.485,195.33s3.1,4.023,0,9.594C394.485,204.924,390.462,201.52,394.485,195.33Z" transform="translate(57.974 24.013)" fill="#1a1818"/>
        <path id="Path_625" data-name="Path 625" d="M390.092,222.717s-11.678,4.355-11.678-6.8-2.064.151-2.064.151v3.055S378.641,228.1,390.092,222.717Z" transform="translate(46.622 34.898)" fill="#1a1818"/>
        <path id="Path_626" data-name="Path 626" d="M376.35,204.228s10.831.308,10.831,4.331-1.857,13.617-10.831,13.617Z" transform="translate(46.622 30.192)" fill="#1a1818"/>
      </g>
    </g>
  </g>
</svg>
