<svg xmlns="http://www.w3.org/2000/svg" width="492" height="492" viewBox="0 0 492 492">
  <g id="Group_57" data-name="Group 57" transform="translate(-1266 -369)">
    <g id="Group_63" data-name="Group 63">
      <path id="Path_302" data-name="Path 302" d="M246,0C381.862,0,492,110.138,492,246S381.862,492,246,492,0,381.862,0,246,110.138,0,246,0Z" transform="translate(1266 369)" fill="#fffabe"/>
      <g id="Group_99" data-name="Group 99" transform="translate(319.095 458.016)">
        <path id="Path_756" data-name="Path 756" d="M1227.228,140.384s-.671,17.33,3.975,31.023,11.614,39.824,18.583,43.309,10.452,13.355,0,13.355-17.421,2.324-18.583-4.645-15.1-32.729-19.164-39.013-22.647-26.609-25.551-39.384,2.323-32.519,16.259-33.1S1225.134,116.346,1227.228,140.384Z" transform="translate(73.536 19.159)" fill="#7b4922"/>
        <path id="Path_757" data-name="Path 757" d="M1119.819,124.44s10.125,26.1-7.878,42.378-40.069,12.79-45.295,24.986-11.034,26.712-3.485,34.262,0,8.711-6.968,8.711-13.357,0-13.357-9.872,4.646-33.1,5.807-42.393,11.614-8.161,11.033-15.694-.58-54.945,26.714-62.121S1117.444,114.459,1119.819,124.44Z" transform="translate(21.919 15.939)" fill="#7b4922"/>
        <path id="Path_758" data-name="Path 758" d="M1279.714,89.126s24.8-11.414,22.85-17.377-40.9,3.33-40.9,3.33Z" transform="translate(100.974 3.938)" fill="#895427"/>
        <path id="Path_759" data-name="Path 759" d="M1275.268,84.438s8.861-19.357,5.638-24.778-36.248,17.809-39.47,28.649S1267.6,88.642,1275.268,84.438Z" transform="translate(93.578 0)" fill="#aa6a2d"/>
        <path id="Path_760" data-name="Path 760" d="M1000.956,189.87c20.139-6.62,45.668-30.94,52.311-45.83,10.2-22.88,30.2-38.792,30.2-38.792s.046.976.139,2.555c.023.21.023.441.048.7.069,1,.162,2.16.255,3.414.069.535.117,1.092.186,1.65.023.3.046.628.093.928,8.8,16.749,51.15,22.393,63.159,30.524s37.932,10.452,67.362,6.41,40.65-19.047,40.65-19.047,20.905,7.2,32.45,9.523c11.522,2.322,23.693-6.179,26.017-13.542s5.412-6.968,7.735-3.485,12.009,5.412,21.3,5.622,23.6.185,31.73,6.387,19.326,0,19.326,0a6.85,6.85,0,0,0,1.022-2.717c.766-6.2-2.137-7.6-2.927-23.856-.767-16.26-13.937-27.108-13.937-27.108-13.938-13.519-29.825-14.239-42.16-8.826-4.018.7-24.53,12.288-40.325,10.779-17.839-1.7-28.781-6.714-45.458-5.064-16.678,1.672-28.758,1.069-43.136-.325-13.636-1.325-95.888-6.945-117.722,13.4a.023.023,0,0,1-.023-.023s-23.787,7.921-37.724,37.537a92.383,92.383,0,0,1-13.124,19.768,5.365,5.365,0,0,1,.487,4.088c-.372,1.741-2.927,3.391-4,4.808-1.231,1.6-2.113,4.321-3.716,5.691-4.948-1.906-7.712,4.877-8.873,8.245-6.063-2.555-8.874,5.5-10.151,9.617-2.88.069-3.9-2.88-4.274-5.343a4.394,4.394,0,0,0-1.022.186q-.976.557-1.881,1.044c-1.579,1.58-1.719,4.391-2.625,6.876A18.533,18.533,0,0,0,1000.956,189.87Z" transform="translate(6.789 4.47)" fill="#aa6a2d"/>
        <path id="Path_761" data-name="Path 761" d="M1002.173,184.418c1.022,1.184.86,1.022,2.253,1.394,19.512-7.411,41.836-28.572,51.173-43.833,8.479-13.89,14.913-27.99,22.6-36.26-2.531,15.866.581,30.383,5.412,38.792,7.48,13.031,38.536,25.482,60.975,24.925,22.439-.581,66.178-5.11,85.737-2.277s36.237,12.66,55.214-2.066c16.887-13.078,33.264-27.224,45.83-30.988,1.6.558,7.944-1.092,9.547-1.092,13.938,0,30.035,5.3,35.447,5.3a13.049,13.049,0,0,0,3.809-.72v-.023s-8.711-3.9-13.332-7.386-6.737-3.113-19.42-3.88-21.556-2.9-24.274-1.835c-2.74,1.069-17.445,20.812-33.332,16.538-15.866-4.25-27.852-3.832-37.352.6-9.477,4.436-6.968,9.664-40.069,9.664s-45.435,1.741-61.045-5.227-59.373-23-63.228-26.132c-2.091-1.695-3.275-8.547-3.926-14.449-.046-.3-.069-.626-.093-.928-.069-.558-.117-1.115-.186-1.65-.093-1.254-.185-2.415-.255-3.414-.024-.256-.024-.487-.048-.7-.093-1.579-.139-2.555-.139-2.555s-20,15.912-30.2,38.792c-6.643,14.89-32.172,39.21-52.311,45.83A4.384,4.384,0,0,0,1002.173,184.418Z" transform="translate(6.78 13.499)" fill="#aeaeae"/>
        <path id="Path_762" data-name="Path 762" d="M1062.1,103.01c.651,5.9,1.835,12.754,3.926,14.449,3.855,3.136,47.619,19.164,63.228,26.132s27.944,5.227,61.045,5.227,30.592-5.227,40.069-9.664c9.5-4.436,21.486-4.854,37.352-.6,15.887,4.274,30.592-15.469,33.332-16.538,2.719-1.069,11.591,1.069,24.274,1.835s14.8.395,19.42,3.88,13.332,7.386,13.332,7.386v.023c4.9-1.6,11.266-5.6,13.751-9.733,0,0-11.2,6.2-19.326,0s-22.439-6.179-31.73-6.387-18.978-2.137-21.3-5.622-5.412-3.88-7.735,3.485-14.495,15.864-26.017,13.542c-11.545-2.324-32.45-9.523-32.45-9.523s-11.219,15.005-40.65,19.047-55.353,1.719-67.362-6.41S1070.9,119.759,1062.1,103.01Z" transform="translate(28.877 15.953)" fill="#895427"/>
        <path id="Path_763" data-name="Path 763" d="M1293.406,115.65a25.153,25.153,0,0,1,.015,4.356,4.921,4.921,0,0,1-4.146,4.317c-1.417.039-6.218-1.082-6.934-1.993S1292.42,121.164,1293.406,115.65Z" transform="translate(108.432 20.519)" fill="#1a1818"/>
        <path id="Path_764" data-name="Path 764" d="M1269.486,82.16s10.8-15.369,8.025-19.458-29.179,19.357-30.486,22.454S1259.14,92.91,1269.486,82.16Z" transform="translate(95.654 1.218)" fill="#b27a7b"/>
        <path id="Path_765" data-name="Path 765" d="M1273.49,66.2s-3.427,9.872-8.247,12.775-15.708,5.517-13.094,1.6S1276.539,57.779,1273.49,66.2Z" transform="translate(97.393 1.881)" fill="#dd9092"/>
        <path id="Path_766" data-name="Path 766" d="M991.531,168.435c5.645,1.975,12.452,1.092,19.674-1.672-1.393-.372-1.231-.21-2.253-1.394a4.384,4.384,0,0,1-1.207-3.577,18.533,18.533,0,0,1,1.394-4.2c.905-2.484,1.045-5.3,2.625-6.876-8.2,4.415-14.68,5.553-16.748,1.557-2.811-5.459-8.5-3.485-11.266.836v.023C980.823,157.681,981.172,164.789,991.531,168.435Z" transform="translate(0 32.548)" fill="#3e2113"/>
        <path id="Path_767" data-name="Path 767" d="M1005.29,156.719a4.394,4.394,0,0,1,1.022-.186c.372,2.463,1.394,5.412,4.274,5.343,1.277-4.112,4.088-12.172,10.151-9.617,1.161-3.368,3.924-10.151,8.873-8.245,1.6-1.371,2.486-4.089,3.716-5.691,1.069-1.417,3.624-3.067,4-4.808a5.366,5.366,0,0,0-.487-4.088C1027.219,140.877,1015.208,150.982,1005.29,156.719Z" transform="translate(8.355 25.496)" fill="#3e2113"/>
        <path id="Path_768" data-name="Path 768" d="M1098.186,173.919c14.31,8.129.371,20.9,2.323,25.156,1.928,4.274,26.294,40.279,35.609,40.279s14.075-2.137,14.075-2.137c1.232-3.159-1.021-6.643-4.785-6.968-6.968-.581-13.355-13.937-21.486-25.551s-5.226-15.68-1.742-27.295,9.292-15.679,5.227-39.488-20.906-31.358-20.906-31.358c-18.234-16.98-31.869-10.476-40.115,1.184,0,.023-.023.046-.023.069C1056.212,140.818,1083.854,165.789,1098.186,173.919Z" transform="translate(29.627 13.5)" fill="#aa6a2d"/>
        <path id="Path_769" data-name="Path 769" d="M1177.345,226.562c1.161,9.687,7.479,9.687,21.161,9.105h.023c.348-2.02-.813-4.39-3.926-6.55-7.55-5.226-6.968-9.292,0-21.486s21.6-37.329,30.778-48.78,12.776-33.682,12.776-33.682,2.322-21.486-20.906-24.39c-9.779-1.232-17.1,1.789-22.415,6.991a73.361,73.361,0,0,0-8.572,33.636c0,18.954,2.7,31.358,0,43.739C1183.547,197.526,1176.182,216.9,1177.345,226.562Z" transform="translate(70.468 15.048)" fill="#aa6a2d"/>
        <path id="Path_770" data-name="Path 770" d="M1173.792,230.093c.581,8.711,7.549,8.711,16.632,8.711,5.3,0,8.85-2.207,9.362-5.064h-.023c-13.682.581-20,.581-21.161-9.105-1.162-9.664,6.2-29.036,8.919-41.417,2.7-12.381,0-24.785,0-43.739a73.361,73.361,0,0,1,8.572-33.636h-.023c-7.294,7.132-10.825,18.351-11.824,28.431-1.742,17.422,1.835,36.376-2.322,50.522C1177.765,198.966,1173.212,221.382,1173.792,230.093Z" transform="translate(69.211 16.976)" fill="#895427"/>
        <path id="Path_771" data-name="Path 771" d="M1059.426,134.322c2.833,13.38,26.829,38.282,35.539,41.765s-4.065,14.518,0,19.745,22.649,29.616,27.295,35.423,2.322,7.967,18,7.967c7.2,0,10.732-2.393,11.753-5.064,0,0-4.762,2.137-14.075,2.137s-33.682-36-35.609-40.279c-1.952-4.251,11.986-17.027-2.323-25.156-14.332-8.129-41.974-33.1-31.823-66.109,0-.023.023-.046.023-.069C1061.215,114.578,1058.125,128.166,1059.426,134.322Z" transform="translate(27.807 16.557)" fill="#895427"/>
        <g id="Group_97" data-name="Group 97" transform="translate(1003.386 79.464)">
          <path id="Path_772" data-name="Path 772" d="M1274.89,108.365c-1.9-3.262-1.393-5.5,1.554-6.745,2.273-.964,8.614-3.072,8.11,1.161l.387,2.71c0,3.452.932,7.524.31,10.8-1.714-1.83-1.134-3.9-3.786-5C1278.911,110.222,1276.617,111.329,1274.89,108.365Z" transform="translate(-898.039 -64.513)" fill="#3e2113"/>
          <path id="Path_773" data-name="Path 773" d="M1285.013,93.574l.387,1.161c-.094,2.367.626,4.558.309,6.938C1284.158,100.382,1283.795,93.76,1285.013,93.574Z" transform="translate(-894.239 -66.92)" fill="#3e2113"/>
          <path id="Path_774" data-name="Path 774" d="M1289.377,96.3c-.442-5.389-7.771-9.28-9.676-13.821C1283.616,85.755,1289.109,90.576,1289.377,96.3Z" transform="translate(-895.895 -70.927)" fill="#3e2113"/>
          <path id="Path_775" data-name="Path 775" d="M1268.8,73.994c3.865,1.617,10.42,5.7,12.289,9.232-3.184-2.456-9.26-6.779-12.715-7.808A1.977,1.977,0,0,1,1268.8,73.994Z" transform="translate(-899.989 -73.994)" fill="#3e2113"/>
          <path id="Path_776" data-name="Path 776" d="M1276.9,83.372c2.243.6,6.113,4.544,7.3,6.533l.388.773c1.462.027,4.915,4.412,5.671,6.466C1286.227,93.655,1278.494,88.682,1276.9,83.372Z" transform="translate(-896.907 -70.606)" fill="#3e2113"/>
          <path id="Path_777" data-name="Path 777" d="M1251.561,107.314c5.815-.468,12.035.481,17.594-1.235,4.161-1.284,9.338-6.075,12.194-3.489-2.147.237-5.083,2.51-3.233,4.665C1269.662,107.152,1259.033,112.82,1251.561,107.314Z" transform="translate(-906.061 -63.936)" fill="#3e2113"/>
          <path id="Path_778" data-name="Path 778" d="M1282.221,93.348v.775a2.912,2.912,0,0,1,1.488,2.661c-2.509-.894-9.511,1.781-8.786-2.216,1.948.029,3.738-.525,5.681-.513C1281.017,92.583,1281.5,93.3,1282.221,93.348Z" transform="translate(-897.641 -67.081)" fill="#3e2113"/>
          <path id="Path_779" data-name="Path 779" d="M1270.671,96.589a2.012,2.012,0,0,1,.328-1.877l1.162.387c.483.338,1.114.023.715,1.491A5.193,5.193,0,0,1,1270.671,96.589Z" transform="translate(-899.196 -66.509)" fill="#3e2113"/>
          <path id="Path_780" data-name="Path 780" d="M1263.256,101c-.245-2.053,1.631-4.928,3.037-2.65l.387,1.161C1266.245,100.827,1264.776,101.195,1263.256,101Z" transform="translate(-901.844 -65.498)" fill="#3e2113"/>
          <path id="Path_781" data-name="Path 781" d="M1256.169,99.919c2.156-.148,5.408-.7,6.156,1.491l-.774.387C1259.7,103.871,1255.054,103.719,1256.169,99.919Z" transform="translate(-904.458 -64.69)" fill="#3e2113"/>
          <path id="Path_782" data-name="Path 782" d="M1284.913,111.57c-3.164,12.566-30.548,5.382-35.9-2.31,6.7,1.565,13.655,4.027,22.424,5.361C1276.623,114.591,1280.37,113.092,1284.913,111.57Z" transform="translate(-906.984 -61.254)" fill="#3e2113"/>
          <path id="Path_783" data-name="Path 783" d="M1252.243,90.89c-2.886-2.416-8.579-2.772-6.87-8.123,1.262,4.157,4.888,3.388,7.656,5.809,1.571,1.374,2.158,3.852,3.571,5.426a22.506,22.506,0,0,0,5.73,4.171C1257.952,99.042,1254.9,93.11,1252.243,90.89Z" transform="translate(-908.411 -70.825)" fill="#3e2113"/>
          <path id="Path_784" data-name="Path 784" d="M1228.024,84.39c3.2-.421,6.123-3.373,9.224-4.4,2.525-.839,5.776-1.225,9.3-2.625-3.648,1.877-7.34,3.335-10.844,5.614C1234.388,83.833,1226.684,89.6,1228.024,84.39Z" transform="translate(-914.621 -72.777)" fill="#3e2113"/>
          <path id="Path_785" data-name="Path 785" d="M1231.481,94.1c-5.54-2.143,5.392-3.475,7.075-3.773,3.651-.645,7.167-1.1,11.12-3.58C1250.442,88.63,1235.146,95.521,1231.481,94.1Z" transform="translate(-913.877 -69.386)" fill="#3e2113"/>
          <path id="Path_786" data-name="Path 786" d="M1237.348,97.476c7.465.391,16.479-1.22,24.746-1.627-1.711,3.01-9.3,2.855-12.2,2.71C1247.144,98.422,1239.216,99.222,1237.348,97.476Z" transform="translate(-911.196 -66.098)" fill="#3e2113"/>
          <path id="Path_787" data-name="Path 787" d="M1240.194,104.1c.094,3.059-.875,5.449.434,8.277s4.051,5.144,4.181,8.734C1240.969,119.809,1232.078,104.051,1240.194,104.1Z" transform="translate(-911.363 -63.119)" fill="#3e2113"/>
          <path id="Path_788" data-name="Path 788" d="M1243.606,101.072c2.209.99,4.657,4.638,6.172,6.5-5.2.757-4.884-3.925-7.333-6.891Z" transform="translate(-909.355 -64.352)" fill="#3e2113"/>
          <path id="Path_789" data-name="Path 789" d="M1223.747,105.487c4.593-.192,6.7,4.887,9.3,7.7a9.163,9.163,0,0,0,7.637,3.185l1.936.775c1.885,1.378,2.68,4.879,2.652,7.144-1.853-1.286-3.4-2.833-5.344-4.028-2.193-1.35-4.85-1.47-6.793-2.71C1228.844,114.812,1227.948,108.4,1223.747,105.487Z" transform="translate(-916.11 -62.618)" fill="#3e2113"/>
          <path id="Path_790" data-name="Path 790" d="M1259.046,122.947l-.387.775c-2.71-1.156-4.686-7.084-6.444-9.647C1255.545,116.191,1259.386,118.423,1259.046,122.947Z" transform="translate(-905.825 -59.514)" fill="#3e2113"/>
          <path id="Path_791" data-name="Path 791" d="M1220.821,91.241c-1.785-2.623-4.515-4.02-4.79-7.284a30.549,30.549,0,0,1,4.6,2.252c1.849,4.676,4.313,11.139,3.784,16.625C1222.692,99.386,1223.178,94.7,1220.821,91.241Z" transform="translate(-918.897 -70.395)" fill="#3e2113"/>
          <path id="Path_792" data-name="Path 792" d="M1224.528,95.521c-3.773-1.623-6.337-1.947-9.266-4.646-1.8-1.658-3.568-3.153-5.443-4.635-3.089-2.442-7.19-3.477-9.942-5.826,5.082-3.135,10.1,3.731,13.424,6.617C1215.615,89.043,1224.74,92.133,1224.528,95.521Z" transform="translate(-924.733 -71.965)" fill="#3e2113"/>
          <path id="Path_793" data-name="Path 793" d="M1215.48,98.878c2.2-.289,3.907-1.6,5.648-2.7.757.513.814,1.017.485,1.877-5.655,7.8,5.1,11.614,7.788,19.616-3.493-2.654-5.76-5.832-8.391-9.2C1217.963,104.572,1215.136,104.007,1215.48,98.878Z" transform="translate(-919.107 -65.98)" fill="#3e2113"/>
          <path id="Path_794" data-name="Path 794" d="M1203.747,121.04c-1.538-4.242,1.885-1.448,3.783-.162a20.281,20.281,0,0,0,6.45,3.079l1.161.387c2.4-.41,5.506,1.884,7.341,2.991C1216.5,130.012,1206.213,127.842,1203.747,121.04Z" transform="translate(-923.475 -57.814)" fill="#3e2113"/>
          <path id="Path_795" data-name="Path 795" d="M1204.151,142.133a32.226,32.226,0,0,1-9.546.31c-2.581-.268-7.09-.787-7.879-3.711-.641-2.377,1.974-6.29,4.232-7.039-5.279,8.659,22.057,6.8,25.776,7.015C1215.26,144.1,1208.154,142.809,1204.151,142.133Z" transform="translate(-929.52 -53.149)" fill="#3e2113"/>
          <path id="Path_796" data-name="Path 796" d="M1186.727,161.8c2.83-1.128,6.688-2.849,8.486-5.072-1.371-.4-1.6-1.61-1.1-3.116,2.818-.237,5.177,1.907,8.1,1.489,2.544-.363,5.637-3.008,7.339.417a19.137,19.137,0,0,1-5.819,2.324C1200.532,159.837,1186.987,166.711,1186.727,161.8Z" transform="translate(-929.484 -45.238)" fill="#3e2113"/>
          <path id="Path_797" data-name="Path 797" d="M1186.813,148.466l2.322.387c2.143,1.853,5.664,1.722,7.686,3.087-3.842,2.081-11.48,2.128-11.5-3.417A7.145,7.145,0,0,1,1186.813,148.466Z" transform="translate(-929.991 -47.094)" fill="#3e2113"/>
          <path id="Path_798" data-name="Path 798" d="M1198.967,148.572c-.152-1.683,1.4-2.333,2.665-3.037h1.549c1.571-.3,4.518-1.732,5.058.366C1208.953,148.668,1200.764,148.674,1198.967,148.572Z" transform="translate(-925.066 -48.421)" fill="#3e2113"/>
          <path id="Path_799" data-name="Path 799" d="M1197.808,132.664c-4.8-2.812-6.4-4.694-5.014-10.369,1.052-4.314,4.872-7.619,7.415-11.47,1.49-2.258,2.546-4.221,4.6-1.2,2.429,3.956-4.161,5.622-6.153,8.072-1.655,2.034-2.307,4.9-3.467,7.315.327.83.806,1.877,1.16,2.758,7.239.664,10.844,5.73,17.348,7.009C1208.716,137.29,1202.443,135.384,1197.808,132.664Z" transform="translate(-927.465 -61.679)" fill="#3e2113"/>
          <path id="Path_800" data-name="Path 800" d="M1200.449,164.674l.388,1.548c-.614,5.408-11.181,3.259-14.679,3.038C1185.975,163.875,1198.436,167.214,1200.449,164.674Z" transform="translate(-929.69 -41.234)" fill="#3e2113"/>
          <path id="Path_801" data-name="Path 801" d="M1181.955,170.425c.713-.347.407.334.708.336l1.162.388c3.332,1.789,7.781.427,10.826,2.226C1191.989,174.287,1180.379,175.993,1181.955,170.425Z" transform="translate(-931.261 -39.192)" fill="#3e2113"/>
          <path id="Path_802" data-name="Path 802" d="M1183.354,181.2h2.324c2.5-.6,5.049-2.008,7.333-2.271-2.043,3.286-3.242,4.583-7.322,4.593C1182.445,183.533,1180.656,181.253,1183.354,181.2Z" transform="translate(-931.178 -36.083)" fill="#3e2113"/>
          <path id="Path_803" data-name="Path 803" d="M1177.038,184.692c0-.5,0-.992-.02-1.488a3.621,3.621,0,0,0,.192,1.03Z" transform="translate(-932.992 -34.54)" fill="#3e2113"/>
          <path id="Path_804" data-name="Path 804" d="M1180.464,186.28c1.079,1.295,3.625,2.079,4.914,3.108-2.574,2.13-7.247-1.659-8.219-4.726l.99-2.639C1179.7,182.52,1179.3,184.879,1180.464,186.28Z" transform="translate(-932.94 -34.967)" fill="#3e2113"/>
          <path id="Path_805" data-name="Path 805" d="M1187.511,192.284c-.257.257-.494.146-.453.708-2.2.406-5.578,1.192-6.881-1.037a30.006,30.006,0,0,0,6.173-.832Z" transform="translate(-931.85 -31.679)" fill="#3e2113"/>
          <path id="Path_806" data-name="Path 806" d="M1219.142,149.482l-.386,1.549c-.215,2.855-6.753,7.381-9.234,8.108-.355-1.819.372-3.617.775-5.331C1212.773,153.134,1216.7,146.9,1219.142,149.482Z" transform="translate(-921.283 -46.948)" fill="#3e2113"/>
          <path id="Path_807" data-name="Path 807" d="M1219.979,162.967l-.386.388c-.13,3.179.389,4.046-1.936,7.03-1.515,1.944-2.909,4.47-4.578,6.066-.15-2.9-2.11-4.975-2.755-7.6,2.262-.581,4.743-1.206,6.557-2.767C1218.52,164.675,1217.687,163.32,1219.979,162.967Z" transform="translate(-920.959 -41.851)" fill="#3e2113"/>
          <path id="Path_808" data-name="Path 808" d="M1213.747,109.507a23.292,23.292,0,0,1,7.041,6.76c-8.075-1.492-11.738-5.822-17.914-10.018,1.9-4.22,3.991-6.906,8.006-9.129A23.2,23.2,0,0,1,1216.091,95c-1.161,4.582-11.18,6.565-6.476,12.329C1210.666,108.613,1212.173,108.615,1213.747,109.507Z" transform="translate(-923.651 -66.407)" fill="#3e2113"/>
          <path id="Path_809" data-name="Path 809" d="M1204.7,91.734V90.662c-.034,5.705-2.35,5.423-4.936,10.283-1.316,2.471-1.23,4.842-2.693,7.137-1.541,2.416-3.76,4.3-5.147,6.881-1.462,2.723-2.239,7.811-4.587,9.664-.607-4,1.823-9.233,3.028-13.046,1.367-4.321,3.332-7.128,5.139-11.142,1.6-3.552,5.195-11.358,9.583-11.414Z" transform="translate(-929.297 -68.564)" fill="#3e2113"/>
          <path id="Path_810" data-name="Path 810" d="M1193.815,83.409c-3.649,3-4.026,2.531-1.7,6.058,1.277,1.934,3.547,3.266,2.2,5.691-2.151.421-9.027-6.923-8.456-9.416.163-.712,4.646-5.087,5.222-5.229,1.691-.415,3.509.721,4.455,1.938l-2.322,1.936A7.951,7.951,0,0,1,1193.815,83.409Z" transform="translate(-929.81 -71.67)" fill="#3e2113"/>
          <path id="Path_811" data-name="Path 811" d="M1175.989,130.076c1.293-3.051.528-6.4,1.688-9.213.453-1.1,2.337-2.823,3.113-4.033,1.618-2.518,4.823-6.056,5.159-9.058.647.193,1.164.591,1.162,1.191.937,7.806-6.49,17.675-8.739,25.792-.908,3.277-1.836,6.91-.182,10.222,1.733,3.47,4.928,6.913,6.56,10.694-2.488-2.422-7.1-4.161-8.592-7.211-1.606-3.286-2.965-11.594-2.12-14.7C1174.4,132.42,1175.457,131.333,1175.989,130.076Z" transform="translate(-934.161 -61.791)" fill="#3e2113"/>
          <path id="Path_812" data-name="Path 812" d="M1175.843,112.073c1.176-1.708,2.287-4.6,3.979-5.7v1.936c-.734,1.951-.912,9.107-3.166,11.169-2.2,2.012-7.737,2.143-10.682,1.964a5.921,5.921,0,0,1-.948-2.351C1169.825,117.858,1172.97,116.247,1175.843,112.073Z" transform="translate(-937.324 -62.297)" fill="#3e2113"/>
          <path id="Path_813" data-name="Path 813" d="M1173.36,90.821c.508-2.7,2.19-4.9,5.344-4.287.038.781.607.89.84,1.491V88.8c3.369,2.088,2.469,7.3,3.047,10.779C1178.576,99.741,1172.618,94.77,1173.36,90.821Z" transform="translate(-934.336 -69.501)" fill="#3e2113"/>
          <path id="Path_814" data-name="Path 814" d="M1171.69,79.07l1.549.775c-.005.524.005,3.049-.05,4.214C1168.951,85.322,1167.812,79.786,1171.69,79.07Z" transform="translate(-935.774 -72.16)" fill="#3e2113"/>
          <path id="Path_815" data-name="Path 815" d="M1157.912,104.124c-2.17-4.871,2.079-13.132,7.654-11.64h-.388c1.557-.344,5.112,2.706,5.793,4.906.889,2.864-.5,4.553-2.547,6.873C1165.49,107.587,1160.157,109.162,1157.912,104.124Z" transform="translate(-940.102 -67.378)" fill="#3e2113"/>
          <path id="Path_816" data-name="Path 816" d="M1171.617,128.029a9.9,9.9,0,0,1,.058,1.877l-.775,1.163c-1.462,3.881-1.6,5.012-5.448,6.067a13.049,13.049,0,0,1-.3-4.868C1168,131.694,1169,127.977,1171.617,128.029Z" transform="translate(-937.307 -54.473)" fill="#3e2113"/>
          <path id="Path_817" data-name="Path 817" d="M1162.864,139.33h-.386c3.025-2.158,4.835-.384,2.709,2.757-1.864,2.754-5.434,2.189-8.843,2.216C1155.474,140.682,1160.33,139.918,1162.864,139.33Z" transform="translate(-940.498 -50.733)" fill="#3e2113"/>
          <path id="Path_818" data-name="Path 818" d="M1153.46,122.3h1.549c7.1,3.385,1.446,11.949-2.691,14.981-3.957-3.007-6.731-3.448-4.759-9.594C1148.589,124.476,1150.294,123.906,1153.46,122.3Z" transform="translate(-943.869 -56.543)" fill="#3e2113"/>
          <path id="Path_819" data-name="Path 819" d="M1140.592,106.972c.852-2.1,7.167-6.086,9.41-4.944l1.936-.775c1.762,6.224,3.81,8.015-1.143,13.742-2.676,3.094-5.23,6.767-7.567,2.936C1142.113,116.1,1139.717,109.122,1140.592,106.972Z" transform="translate(-946.219 -64.146)" fill="#3e2113"/>
          <path id="Path_820" data-name="Path 820" d="M1154.832,86.75V88.3c-.292,3.508.432,8.267-3.852,7.286-2.641-.6-3.98-3.9-4.653-6.134C1148.17,88.33,1153.646,83.571,1154.832,86.75Z" transform="translate(-944.079 -69.775)" fill="#3e2113"/>
          <path id="Path_821" data-name="Path 821" d="M1160.085,83.1c-4.44-.829-9.071-.206-13.459-1.25,2.192-2.377,15.045-2.341,18.938-1.858,2.946-.3,3.792,3.326,3.444,5.745C1166.193,86.073,1162.908,83.627,1160.085,83.1Z" transform="translate(-943.971 -71.922)" fill="#3e2113"/>
          <path id="Path_822" data-name="Path 822" d="M1140.332,134.812c2.1.967,2.762,7.124,2.652,9.232-2.046-.176-6.229-6.062-4.2-8.071Z" transform="translate(-947 -52.022)" fill="#3e2113"/>
          <path id="Path_823" data-name="Path 823" d="M1135.738,149.793c-3.17-3.076-4.944-8.051-6.436-12.108-.856-2.332-2.511-5.4.387-7.707C1134.76,133.236,1135.044,144.44,1135.738,149.793Z" transform="translate(-950.682 -53.769)" fill="#3e2113"/>
          <path id="Path_824" data-name="Path 824" d="M1119.068,127.133c2.7,3.5,1.681,6.669,1.964,10.826a52.855,52.855,0,0,0,2.246,10.785c-3.312.1-7.13-17.458-6.476-21.553C1117.192,127.094,1117.52,127.2,1119.068,127.133Z" transform="translate(-954.772 -54.797)" fill="#3e2113"/>
          <path id="Path_825" data-name="Path 825" d="M1124.719,113.079c1.983-1.484,6.6-1.229,9.144-1.3l1.161,1.161c3.72,1.894,2.047,11.226-1.664,13.5-2.859,1.751-9.036-2.758-10.653-5C1120.9,118.932,1122.148,115,1124.719,113.079Z" transform="translate(-952.92 -60.345)" fill="#3e2113"/>
          <path id="Path_826" data-name="Path 826" d="M1124.093,99.227c.428-2.062,6.839-5.691,9.008-3.478l1.936.387c3.9-1.086,3.482,6.416,2.736,8.513C1133.886,104.684,1122.645,106.211,1124.093,99.227Z" transform="translate(-952.158 -66.385)" fill="#3e2113"/>
          <path id="Path_827" data-name="Path 827" d="M1131.446,89.371c-4.515-2.782.585-5.6,3.47-6.6h1.161c2.914-.094,8.345.082,6.9,4.886C1142.281,89.968,1133.929,90.9,1131.446,89.371Z" transform="translate(-950.102 -70.829)" fill="#3e2113"/>
          <path id="Path_828" data-name="Path 828" d="M1114.481,84.579c-.566-1.54,1.153-2.586,2.343-2.728l1.934-.775c2.128-.859,8.023-2.992,6.583,2.52-.657,2.52-4.434,2.328-6.87,2.126C1117.07,85.607,1115.1,86.272,1114.481,84.579Z" transform="translate(-955.625 -71.844)" fill="#3e2113"/>
          <path id="Path_829" data-name="Path 829" d="M1102.2,85.074c-1.722-2.694,3.3-3.971,4.827-4.276h1.161a47.186,47.186,0,0,1,4.951.031C1116.248,86.7,1103.561,87.21,1102.2,85.074Z" transform="translate(-960.15 -71.566)" fill="#3e2113"/>
          <path id="Path_830" data-name="Path 830" d="M1088.375,86.8a2.868,2.868,0,0,1,1.892-3.812l2.71-.775a5.365,5.365,0,0,1,3.453-1.119C1097.509,85.821,1092.132,87.1,1088.375,86.8Z" transform="translate(-965.074 -71.431)" fill="#3e2113"/>
          <path id="Path_831" data-name="Path 831" d="M1113.536,100.583c-3.661.512-10.617-2.041-6.069-6.309l2.71-1.936C1116.777,88.906,1123.89,99.133,1113.536,100.583Z" transform="translate(-958.657 -67.62)" fill="#3e2113"/>
          <path id="Path_832" data-name="Path 832" d="M1109.115,113.686c-1.236-1.365-1.146-4.739.241-3.681l2.322-2.71c4.611-1.1,6.165,1.327,5.784,6.113C1115.121,114.07,1110.677,115.411,1109.115,113.686Z" transform="translate(-957.836 -62.058)" fill="#3e2113"/>
          <path id="Path_833" data-name="Path 833" d="M1108.541,122.014h1.936c2.124,3.225,4.185,7.277,1.955,10.826C1110.723,131.356,1102.171,123.612,1108.541,122.014Z" transform="translate(-958.57 -56.646)" fill="#3e2113"/>
          <path id="Path_834" data-name="Path 834" d="M1092.292,105.666c-.505-.193-2.765-4.853-2.716-5.652.065-1.084,1.161-2.122,2.134-2.9l2.324-1.549C1101.585,97.676,1095.265,106.8,1092.292,105.666Z" transform="translate(-964.582 -66.201)" fill="#3e2113"/>
          <path id="Path_835" data-name="Path 835" d="M1079.621,92.5c4.543-2.016,4,9.142-1.369,8.161-2.747-.5-2.959-5.483-1.341-7Z" transform="translate(-969.525 -67.396)" fill="#3e2113"/>
          <path id="Path_836" data-name="Path 836" d="M1076.4,87.835c-.157-1.1.47-.983,1.116-1.489l4.646-2.322a9.265,9.265,0,0,1,4.216-.347C1086.89,88.139,1079.138,87.856,1076.4,87.835Z" transform="translate(-969.352 -70.532)" fill="#3e2113"/>
          <path id="Path_837" data-name="Path 837" d="M1065.273,96.77c.166-2.318,2.335-4.913,4.247-6.18l.773-1.161c.975-1.644,4.073-2.531,4.263.362C1074.658,91.332,1067,96.335,1065.273,96.77Z" transform="translate(-973.361 -68.969)" fill="#3e2113"/>
          <path id="Path_838" data-name="Path 838" d="M1091.657,112.97a44.537,44.537,0,0,1-7.266.362c-.342-1.65-.837-3.309-1.21-4.975l1.549-4.258C1090.192,103.958,1092.367,107.194,1091.657,112.97Z" transform="translate(-966.892 -63.12)" fill="#3e2113"/>
          <path id="Path_839" data-name="Path 839" d="M1093.758,121.187a6.791,6.791,0,0,1,.355-3.833l4.646-3.871c2.725.819,1.96,6.233,1.925,8.851C1098.2,122.751,1096.214,121.055,1093.758,121.187Z" transform="translate(-963.113 -59.728)" fill="#3e2113"/>
          <path id="Path_840" data-name="Path 840" d="M1085.282,126.128c-2.857-1.1-6.282-5.8-2.513-7.969l3.1-1.549c1.421,1.423,5.34,5.15,5.065,7.439C1090.571,127.063,1087.447,126.961,1085.282,126.128Z" transform="translate(-967.641 -58.598)" fill="#3e2113"/>
          <path id="Path_841" data-name="Path 841" d="M1079.142,113.219c-1.7,1.748-4.4,4.33-6.541,4.985-.3-3.211-3.771-6.24-.06-8.5l1.548-.773C1075.935,110.135,1077.992,111.454,1079.142,113.219Z" transform="translate(-971.35 -61.372)" fill="#3e2113"/>
          <path id="Path_842" data-name="Path 842" d="M1106.384,133.833c-3.218.8-8.394,2.234-8.414-2.258l2.323-3.485C1103.508,126.826,1107.107,128.611,1106.384,133.833Z" transform="translate(-961.549 -54.592)" fill="#3e2113"/>
          <path id="Path_843" data-name="Path 843" d="M1072.181,130.292c3.5,2.769,10.431,4.511,14.915,5.515,7.827,1.752,15.369,4.063,24,6.518,3.454-.671,6.891,4.911,8.775,7.3-6.4.37-11.342-3.454-16.791-5.661-2.46-1-5.139-2.9-7.663-3.549-3.444-.89-7.077-.723-10.677-1.768a76.351,76.351,0,0,1-13.138-5.234c-7.4-3.764-9.1-7.182-8.858-15.11C1067.018,121.181,1068.335,127.255,1072.181,130.292Z" transform="translate(-974.284 -57.986)" fill="#3e2113"/>
          <path id="Path_844" data-name="Path 844" d="M1100.961,146.483l3.1.388c3.01-.117,7.276-.216,10.041.727-.819,4.2-10.005,3.652-13.158,2.3-1.706-.73-2.6-1.681-4.481-2.254-3.57-1.088-9.538-.579-12.127-3.034A35.623,35.623,0,0,1,1100.961,146.483Z" transform="translate(-966.476 -48.596)" fill="#3e2113"/>
          <path id="Path_845" data-name="Path 845" d="M1075.913,138.88c2.792.979,6.691,6.73,8.88,9.956-2.179-2.592-6.025-3.274-8.661-5.486a28.279,28.279,0,0,0-3.309-2.81c-4.088-2.637-6.925-4.443-7.031-9.485,3.007,3.694,6.582,5.084,10.121,7.437Z" transform="translate(-973.174 -53.38)" fill="#3e2113"/>
          <path id="Path_846" data-name="Path 846" d="M1115.327,155.971c-1.824,1.623-7.736,4.518-10.577,4.212-2.457-.264-4.636-2.388-7.337-2.69-7.343-.824-14.975-1.418-19.855-8.214,8.922,2.846,17.05,4.4,27.4,7.019C1108.439,156.3,1111.922,156.159,1115.327,155.971Z" transform="translate(-968.924 -46.796)" fill="#3e2113"/>
          <path id="Path_847" data-name="Path 847" d="M1109.5,164.888c-3.84,2.173-7.594.1-11.684.747-4.914.777-5.365,1.585-9.246-2.626,3.292.806,8.226.436,11.541.824C1103.331,164.211,1108.33,161.616,1109.5,164.888Z" transform="translate(-964.946 -41.836)" fill="#3e2113"/>
          <path id="Path_848" data-name="Path 848" d="M1110.073,174.567c-3.572,4.381-13.255,2.821-17.743-1.914C1098.205,174.318,1103.721,177.043,1110.073,174.567Z" transform="translate(-963.587 -38.352)" fill="#3e2113"/>
          <path id="Path_849" data-name="Path 849" d="M1109.054,180.885l1.163.773c-1.42,3.165-3.433,1.571-6,2.306-3.791,1.086-6.646,3.489-9.067-2.256C1100.167,181.137,1104,182.8,1109.054,180.885Z" transform="translate(-962.567 -35.378)" fill="#3e2113"/>
          <path id="Path_850" data-name="Path 850" d="M1115.62,185.331l1.689,1.691c.117.029-1.082,3.666-2.826,4.574-2.248,1.171-5.327-.483-7.891-.374C1109.9,189.853,1114.775,189.291,1115.62,185.331Z" transform="translate(-958.434 -33.772)" fill="#3e2113"/>
          <path id="Path_851" data-name="Path 851" d="M1113.447,184.864a4.943,4.943,0,0,1-.158.686l-.246-.246C1113.27,185.129,1113.249,184.434,1113.447,184.864Z" transform="translate(-956.104 -33.99)" fill="#3e2113"/>
          <path id="Path_852" data-name="Path 852" d="M1069.695,157.578c2.578,1.29,3.014,1.518,6.742,1.516l1.161-.775A10.511,10.511,0,0,1,1079.5,158c-2,2.9-4.518,2.765-7.91,2.64-5.493-.2-5.347-3.637-9.393-7.314C1064.9,153.6,1067.341,156.4,1069.695,157.578Z" transform="translate(-974.471 -45.333)" fill="#3e2113"/>
          <path id="Path_853" data-name="Path 853" d="M1050.8,162.86c-.072-.486-.078-.983.725-1.869a30.277,30.277,0,0,1,4.615-1.127c.005,4.495,6.659,5.225,10.331,4.97-4.306,1.186-7.537,2.6-11.282.614C1053.2,164.39,1053.855,162.957,1050.8,162.86Z" transform="translate(-978.6 -42.972)" fill="#3e2113"/>
          <path id="Path_854" data-name="Path 854" d="M1056.427,184.52c.068.391,0,.719.031,1.112l-.775,1.161c-3.131-.114-4.645-2.316-6.768-4.047C1050.99,184.091,1054.637,185.151,1056.427,184.52Z" transform="translate(-979.271 -34.705)" fill="#3e2113"/>
          <path id="Path_855" data-name="Path 855" d="M1049.137,182.914a6.381,6.381,0,0,1-.834-.632C1048.6,182.481,1048.869,182.694,1049.137,182.914Z" transform="translate(-979.492 -34.873)" fill="#3e2113"/>
          <path id="Path_856" data-name="Path 856" d="M1048.842,103.5l1.549-3.1c.613.312.383,1,1.49.813.23,3.788-.144,5.514,2.985,8.023a26.969,26.969,0,0,0-5.6.433C1049.332,107.415,1048.015,105.654,1048.842,103.5Z" transform="translate(-979.396 -64.454)" fill="#3e2113"/>
          <path id="Path_857" data-name="Path 857" d="M1041.185,116.255c-.709-1.83-.5-4.755.791-5.411l1.936-.775c.746,2.292,1.648,8.166,6.1,8.121C1046.146,119.564,1043.049,121.064,1041.185,116.255Z" transform="translate(-982.209 -60.961)" fill="#3e2113"/>
          <path id="Path_858" data-name="Path 858" d="M1037.978,118.831l1.161-1.936c1.291,3.263,3.552,5.234,6.47,6.944a9.369,9.369,0,0,1-5.268,1.929C1038.766,123.237,1037.643,121.967,1037.978,118.831Z" transform="translate(-983.244 -58.495)" fill="#3e2113"/>
          <path id="Path_859" data-name="Path 859" d="M1041.571,133.44c-2.652.464-6.443,2-8.343-.481-.96-1.251-.554-4.082-.954-5.233l2.322-1.163C1037.116,128.836,1038.262,132.5,1041.571,133.44Z" transform="translate(-985.283 -55.002)" fill="#3e2113"/>
          <path id="Path_860" data-name="Path 860" d="M1029.2,133.8c1.64-.338.408,2.709.95,4.258.836,2.392,2.972,1.887,2.492,5.323-5.042.949-7.081-8.856-4.992-11.13Z" transform="translate(-987.245 -52.947)" fill="#3e2113"/>
          <path id="Path_861" data-name="Path 861" d="M1024.284,138.9l.387-.388c.218,2.031-1.074,3.893-.8,5.809.231,1.613,2.418,3.773,3.128,5.347-4.888.358-5.975.67-5.814-4.322C1021.264,142.937,1021.193,139.067,1024.284,138.9Z" transform="translate(-989.294 -50.687)" fill="#3e2113"/>
          <path id="Path_862" data-name="Path 862" d="M1017.3,143.913c1.274,2.815.1,9.024-.059,12.385-3.208-3.3-3.068-8.042-.716-11.61Z" transform="translate(-991.599 -48.735)" fill="#3e2113"/>
          <path id="Path_863" data-name="Path 863" d="M1009.32,149.316l1.161,1.161c-2.087,3.425,2.081,3.892,3.4,7.355-4.385,2.521-6.282,3.756-6.877-1.353C1006.642,153.341,1006.861,151.041,1009.32,149.316Z" transform="translate(-994.461 -46.783)" fill="#3e2113"/>
          <path id="Path_864" data-name="Path 864" d="M998.281,157.36a8.042,8.042,0,0,1,5.039-4.631l.388.387c-.35,1.467-2.33,2.936-2.324,4.438.005,1.557,2.437,3.665,3.121,5.181C999.871,163.286,996.385,163.516,998.281,157.36Z" transform="translate(-997.754 -45.55)" fill="#3e2113"/>
        </g>
        <g id="Group_98" data-name="Group 98" transform="translate(1379.643 115.396)">
          <path id="Path_865" data-name="Path 865" d="M1285.25,100.548s-9.741-1.266-10.9,3.36,3.306,7.336,3.306,7.336S1285.315,111.532,1285.25,100.548Z" transform="translate(-1274.156 -100.39)" fill="#ffda20"/>
          <path id="Path_866" data-name="Path 866" d="M1281.291,101.367s1.715.011-.161,3.982-4.759,4.951-3.576,2.226S1279.965,101.619,1281.291,101.367Z" transform="translate(-1273.027 -100.037)" fill="#1a1818"/>
          <path id="Path_867" data-name="Path 867" d="M1282.328,102.486a1.118,1.118,0,1,0-1.118,1.118A1.118,1.118,0,0,0,1282.328,102.486Z" transform="translate(-1272.011 -100.037)" fill="#fff"/>
        </g>
      </g>
    </g>
  </g>
</svg>
