<svg xmlns="http://www.w3.org/2000/svg" width="492" height="492" viewBox="0 0 492 492">
  <g id="Group_56" data-name="Group 56" transform="translate(-714 -369)">
    <g id="Group_61" data-name="Group 61">
      <path id="Path_432" data-name="Path 432" d="M246,0C381.862,0,492,110.138,492,246S381.862,492,246,492,0,381.862,0,246,110.138,0,246,0Z" transform="translate(714 369)" fill="#acbab1"/>
      <g id="Group_83" data-name="Group 83" transform="translate(755.129 -456.022)">
        <path id="Path_576" data-name="Path 576" d="M289.521,1114.366v.027a55.935,55.935,0,0,1-7.7,21.822c-21.343,33.959-49.153,25.77-49.153,25.77s-11.538-12.339-2.867-19.088c0,0,38.013,1.934,40.681-46.084s-54.021-100.038-72.7-99.372c-7.028.253-11.044-1.681-12.43-4.321,3.267-2.708,8.257-5.683,14.432-5.683C211.132,987.437,287.855,1013.914,289.521,1114.366Z" transform="translate(78.511 62.117)" fill="#13100d"/>
        <path id="Path_577" data-name="Path 577" d="M289.753,1117.133c-1.666-100.453-78.388-126.93-89.726-126.93-6.175,0-11.165,2.975-14.432,5.683-2.334-4.361,2.454-10.685,12.43-12.352,16.007-2.667,46.019,14.673,64.026,38.683C276.6,1041.624,294.648,1083.759,289.753,1117.133Z" transform="translate(78.278 59.35)" fill="#20170e"/>
        <path id="Path_578" data-name="Path 578" d="M87.552,1115.647c-.321,1.493,1.347,3.841,3.347,4s-.013,1.841-3.347,1.333-2.494-2.827-3.989-3.334-1.495,1.681.828,3.429c2.346,1.746,6.162,1.814,3.161,3.28a13.2,13.2,0,0,1-9.737-4.709c-8.39-10-13.993-39.348-9.1-58.022s18.2-51.486,18.2-51.486c1.052-1.841,2.053-3.442,3-4.828-.108,4.735-.467,9.389-2.908,13.152,0,0,1.894,29.157,2.226,32.159s-.88,14.672-3.108,22.674.214,8.671,3.162,23.009,5.281,16.674,5.281,19.008-1.333,2.494-3.161,2.667S87.885,1114.152,87.552,1115.647Z" transform="translate(0 73.962)" fill="#e3b599"/>
        <path id="Path_579" data-name="Path 579" d="M91.91,1113.914c4.348,7.79-2.908,13.684-10.59,13.378,3-1.466-.815-1.534-3.161-3.28-2.323-1.748-2.323-3.936-.828-3.428s.667,2.828,3.989,3.334,5.347-1.174,3.347-1.333-3.668-2.508-3.347-4,2.014,2.507,3.854,2.333,3.161-.333,3.161-2.667S86,1113.58,83.054,1099.24s-5.389-15-3.162-23.009,3.442-19.673,3.108-22.674-2.226-32.158-2.226-32.158c2.441-3.763,2.8-8.417,2.908-13.152,13.7-19.821,17.992,4.8,18.3,21.635.348,18.006-17.62,42.668-17.62,42.668S85.562,1102.576,91.91,1113.914Z" transform="translate(6.232 71.026)" fill="#886a58"/>
        <path id="Path_580" data-name="Path 580" d="M144.757,1094.205s-21.176,2.667-21.259,12.672,2.586,8,21.259,8h61.224c15.472,0,26.141-15.478,14.8-29.413S144.757,1094.205,144.757,1094.205Z" transform="translate(37.511 124.08)" fill="#13100d"/>
        <path id="Path_581" data-name="Path 581" d="M303.518,1193.279c-21.675,1.679-46.217-19.821-88.9-25.77s-43.35-86.087-43.35-86.087-22.674-25.343-26.637-20.674-24.049,14.005-44.216,12.818c-12.352-.733-18.767-12.738-21.89-21.941v-.027a87.518,87.518,0,0,1,.254-11.057c1.748-3.763,12.337-26.065,21.635-35.815,7.9-8.282,8.683-43.59,10.9-61.262,14.432-.895,43.869-2.642,61.956-3.242a10.771,10.771,0,0,1,2.748.254c3.588,11.378,9.256,33.452,7.9,55.927-1.974,32.333-11.817,49.673-5.229,47.671s9.258-15.338,9.258-15.338,32.679,28.678,54.686,54.688,51.313,75.294,60,99.317C303.5,1187.276,303.839,1190.9,303.518,1193.279Z" transform="translate(7.666 30.823)" fill="#e3b599"/>
        <path id="Path_582" data-name="Path 582" d="M97.776,959.149s7.768,25.619,32.561,25.619,33.791-10.779,35.517-25.619S97.776,959.149,97.776,959.149Z" transform="translate(20.467 38.999)" fill="#ae8972"/>
        <path id="Path_583" data-name="Path 583" d="M303.492,1148.875c-1.333,10-36.013,8-51.353,8s-60.183,4.534-73.508,1.2-51.406-45.364-75.068-78.042c-18.14-25.05-24.342-53.621-25.064-72.815,3.123,9.2,9.537,21.208,21.89,21.941,20.167,1.187,40.254-8.149,44.216-12.818s26.637,20.674,26.637,20.674.667,80.124,43.35,86.087S281.817,1150.554,303.492,1148.875Z" transform="translate(7.692 75.227)" fill="#ae8972"/>
        <path id="Path_584" data-name="Path 584" d="M111.185,942.169c-2.215,17.673-3,52.981-10.9,61.262-9.3,9.75-19.888,32.052-21.635,35.815.12-1.255.279-2.4.454-3.468,2.667-16.007,14-33.346,16.058-44.017s7.482-49.058,7.482-49.058S105.915,942.488,111.185,942.169Z" transform="translate(7.793 32.117)" fill="#ffd8c0"/>
        <path id="Path_585" data-name="Path 585" d="M263.742,1182.637c-8.684-24.023-38-73.321-60-99.317s-54.686-54.688-54.686-54.688-2.669,13.338-9.258,15.339,3.256-15.339,5.229-47.672c1.36-22.475-4.308-44.549-7.9-55.927,21.341,4.749,14.273,74.587,14.273,74.587s2.321,0,8.989,8,68.693,68.025,82.031,98.037C252.6,1143.889,260.953,1168.031,263.742,1182.637Z" transform="translate(46.549 30.926)" fill="#ffd8c0"/>
        <path id="Path_586" data-name="Path 586" d="M123.767,1106.551c-1.107,3.721-5.336,3.841-9.19,3.4s-1.255-6.9-.148-9.123-4.667,3.335-4.667,5.723-2.215,4.734-6.137,4.734-5.642-4.228-3.2-7.562,5.79-6,0-2.669-3.334,8.9-6,8.671-1.881-6.6-1.881-6.6c2.175-4.682,6.3-7.136,9.75-8.738,10.1-2.226,18.368,2,21.476,3.335S124.887,1102.828,123.767,1106.551Z" transform="translate(16.926 132.57)" fill="#e3b599"/>
        <path id="Path_587" data-name="Path 587" d="M135.137,1086.721c-5.254,12.138-12.085,45.218-21.687,44.978-9.218-.215-7.444-11.338-7.283-12.259a.15.15,0,0,0,.012-.053c2.815-9.737,5.455-19.646,7.271-26.8,4.908-19.327,2.266-15.34,3.36-46.017s8.122-36.147,8.122-36.147c9.271-13.086,26.437-.841,32.933,14.191C159.441,1044.051,140.326,1074.729,135.137,1086.721Z" transform="translate(25.869 73.676)" fill="#e3b599"/>
        <path id="Path_588" data-name="Path 588" d="M230.223,1130.808v-.013l-6.962-6.3v2.828l-4-4.029v4.029l-5.79-4.589,1.121,2.2-9.243-4.6c-9.23-4.616-34.333-7.923-34.333-7.923s-.146-.04-.414-.106c-2.893-.841-19.874-6.8-15.591-31.239a36.673,36.673,0,0,1,1.679-6.323c0,.534.12,22.915,19.434,28.185,19.568,5.336,46.471,3.455,51.581-10.937s-.4-23.689-7.643-29.6c6.855,4.348,12.565,10.311,15.367,18.007,7.055,19.341-6.35,34.894-6.35,34.894C238.013,1122.952,236.666,1128.3,230.223,1130.808Z" transform="translate(57.939 111.793)" fill="#ae8972"/>
        <path id="Path_589" data-name="Path 589" d="M169.854,1029.7c-1.333,19.02-17.339,48.351-20.993,58.354s-16.354,54.688-20.368,67.36-9.324,11.338-19.9,11.338-18.1-1.333-16.78-8.671a15.27,15.27,0,0,1,1.24-3.934s-.786,6.375,1.881,6.6.226-5.336,6-8.671,2.454-.667,0,2.669-.707,7.562,3.2,7.562,6.137-2.346,6.137-4.734,5.788-7.938,4.667-5.723-3.708,8.669.148,9.123,8.082.321,9.19-3.4,3.121-7.5,0-8.831-11.378-5.562-21.476-3.335c2.722-1.254,8.029-17.3,12.819-33.839-.161.921-1.935,12.044,7.283,12.259,9.6.24,16.433-32.84,21.687-44.978,5.189-11.991,24.3-42.67,22.729-62.1A28.253,28.253,0,0,1,169.854,1029.7Z" transform="translate(16.415 81.543)" fill="#ae8972"/>
        <path id="Path_590" data-name="Path 590" d="M238.467,1110.872v.013a29.672,29.672,0,0,1-10.523,1.614H174.589c-20.674,0-25.343,6.669-32.012-7.336s36.681-12.671,36.681-12.671,25.1,3.307,34.333,7.923l9.243,4.6-1.121-2.2,5.79,4.589v-4.029l4,4.029v-2.828Z" transform="translate(49.694 131.715)" fill="#13100d"/>
        <path id="Path_591" data-name="Path 591" d="M226.758,1095.672c-5.109,14.392-32.012,16.273-51.581,10.937-19.314-5.269-19.434-27.651-19.434-28.185v-.013c7.5-20.541,30.331-21.541,30.331-21.541a61.584,61.584,0,0,1,33,9.177c.013,0,.027.013.04.027C226.358,1071.983,231.866,1081.266,226.758,1095.672Z" transform="translate(58.883 108.115)" fill="#e3b599"/>
        <path id="Path_592" data-name="Path 592" d="M132.925,920.883s9.742-15.771,22.089-23.313,16.12-3.771,16.807,8.914.685,49.4-15.777,46.812S132.925,920.883,132.925,920.883Z" transform="translate(43.76 0)" fill="#13100d"/>
        <path id="Path_593" data-name="Path 593" d="M136.1,921.381s12.347-19.48,20.235-22.566,8.23-3.086,9.6,6.857-.788,40.429-10.289,41.14S136.1,921.381,136.1,921.381Z" transform="translate(45.866 2.184)" fill="#46332a"/>
        <path id="Path_594" data-name="Path 594" d="M123.1,920.883s-9.743-15.771-22.089-23.313S84.889,893.8,84.2,906.484s-.685,49.4,15.777,46.812S123.1,920.883,123.1,920.883Z" transform="translate(11.331 0)" fill="#13100d"/>
        <path id="Path_595" data-name="Path 595" d="M116.376,921.381S104.028,901.9,96.14,898.815s-8.232-3.086-9.6,6.857.79,40.429,10.29,41.14S116.376,921.381,116.376,921.381Z" transform="translate(12.77 2.184)" fill="#46332a"/>
        <path id="Path_596" data-name="Path 596" d="M188.885,971.479v.013q-.125,2.94-.494,5.883c-2.511,19.913-24.557,31.089-48.606,31.089s-46.1-11.177-48.606-31.089q-.369-2.94-.494-5.883v-.013c.206-1.468,3.786-25.152,16.037-44.432,12.663-19.9,25.531-17.814,33.063-17.814s20.4-2.085,33.061,17.814C185.1,946.327,188.678,970.011,188.885,971.479Z" transform="translate(15.767 10.248)" fill="#e3b599"/>
        <path id="Path_597" data-name="Path 597" d="M174.06,962.411l1.448,4.69-4.707-1.6-.362,7.2s-9.181,2.4-12.919,2.4h-3.736l3.736,4.115h-5.547l3.621,6.513h-2.9s-5.43,10.972-15.93,10.972-15.932-10.972-15.932-10.972h-2.9l3.62-6.513H116.01l3.736-4.115H116.01c-3.751,0-12.919-2.4-12.919-2.4l-.362-7.2-4.707,1.6,1.448-4.69-4.228-2.276s1.94-13.714,5.793-20.119S116.966,926.3,116.966,926.3l1.94-3.194h5.3l3.867-6.638,3.867,2.975,4.824-5.937,4.822,5.938,3.867-2.975,3.852,6.638h5.316l1.927,3.194s12.078,7.309,15.93,13.714,5.795,20.119,5.795,20.119Z" transform="translate(18.787 13.123)" fill="#20170e"/>
        <path id="Path_598" data-name="Path 598" d="M123.149,944.1s.361-11.948-7.605-14.121-11.587,2.9-14.121,5.432c0,0-2.9,10.5,7.241,13.4S123.149,944.1,123.149,944.1Z" transform="translate(22.63 23.686)" fill="#2b92a3"/>
        <path id="Path_599" data-name="Path 599" d="M123.306,956.678c-3.621,0-8.691-5.42-7.605-8.432s7.605-3.409,7.605-3.409,6.516.4,7.6,3.409S126.925,956.678,123.306,956.678Z" transform="translate(32.246 33.886)" fill="#1a1818"/>
        <path id="Path_600" data-name="Path 600" d="M110.518,932.523s-7.484,4.345-1.207,11.1C109.311,943.627,116.311,940.005,110.518,932.523Z" transform="translate(26.449 25.725)" fill="#1a1818"/>
        <path id="Path_601" data-name="Path 601" d="M113.5,934.969a2.447,2.447,0,1,0-2.446,2.448A2.447,2.447,0,0,0,113.5,934.969Z" transform="translate(27.646 25.725)" fill="#fff"/>
        <path id="Path_602" data-name="Path 602" d="M188.933,974.313c-.206-1.468-3.788-25.152-16.038-44.432-12.662-19.9-25.531-17.814-33.061-17.814s-20.4-2.085-33.063,17.814c-12.251,19.281-15.831,42.964-16.037,44.432-.878-18.02,3.1-35.683,9.768-51.276,7.765-18.143,39.331-18.143,39.331-18.143s31.567,0,39.331,18.143C185.845,938.629,189.811,956.292,188.933,974.313Z" transform="translate(15.719 7.414)" fill="#ffd8c0"/>
        <path id="Path_603" data-name="Path 603" d="M126.1,944.1s-.359-11.948,7.607-14.121,11.587,2.9,14.121,5.432c0,0,2.9,10.5-7.241,13.4S126.1,944.1,126.1,944.1Z" transform="translate(39.235 23.686)" fill="#2b92a3"/>
        <path id="Path_604" data-name="Path 604" d="M133.873,962.7c-9.3.956-9.762-5.069-9.762-5.069s-.479,6.026-9.777,5.069c0,0,7.821-1.071,7.835-10.081l1.942-2.476,1.94,2.476C126.067,961.633,133.873,962.7,133.873,962.7Z" transform="translate(31.44 37.404)" fill="#1a1818"/>
        <path id="Path_605" data-name="Path 605" d="M132.314,932.523s7.482,4.345,1.207,11.1C133.521,943.627,126.521,940.005,132.314,932.523Z" transform="translate(41.834 25.725)" fill="#1a1818"/>
        <path id="Path_606" data-name="Path 606" d="M128.883,934.969a2.447,2.447,0,1,1,2.446,2.448A2.447,2.447,0,0,1,128.883,934.969Z" transform="translate(41.082 25.725)" fill="#fff"/>
      </g>
    </g>
  </g>
</svg>
