<svg xmlns="http://www.w3.org/2000/svg" width="492" height="492" viewBox="0 0 492 492">
  <g id="Group_57" data-name="Group 57" transform="translate(-1266 -369)">
    <g id="Group_63" data-name="Group 63">
      <path id="Path_302" data-name="Path 302" d="M246,0C381.862,0,492,110.138,492,246S381.862,492,246,492,0,381.862,0,246,110.138,0,246,0Z" transform="translate(1266 369)" fill="#fffdc4"/>
      <g id="Group_78" data-name="Group 78" transform="translate(882.127 184.344)">
        <path id="Path_433" data-name="Path 433" d="M550.68,470.239c31.21-23.809-7.014-40.052-46.522-72.609-41.551-34.268-17.989-112.211,8.44-113.365,41.551-1.819-16.584,54.357,44.349,86.866,47.241,25.211,92.59,85.153,48.407,127.272-27.42,11.25-47.712-5.288-54.675-28.164Zm0,0" transform="translate(0 98.641)" fill="#595963"/>
        <path id="Path_434" data-name="Path 434" d="M625.8,470.506c12.985,1.828,26.644,4.5,38.021-.426,25.628,5.512,43.666.272,33.727-26.052,22.425-47.806,14.862-92.451,1.015-120.557-39.45-18.261-128.088-20.8-184.841-3.729-13.895,29.605-27.683,72.76-5.255,120.566-9.939,26.324,12.656,34.812,38.281,29.288,14.154,3.529,26.937,1.674,39.91-1.287,11.97,4.321,26.441,4.285,39.142,2.2Zm0,0" transform="translate(30.418 147.232)" fill="#46465a"/>
        <path id="Path_435" data-name="Path 435" d="M613.354,618.079c8.111,6.727,24.232,11.272,34.528,4.343,6.727-4.533,5.581-17.977,0-25.5,21.718-49.19,66.729-117.146,18.261-224.349,26.677-42.72,2.9-81.675-8.915-90.7,0-6.718-.967-40.487-13.148-46.035-10.235-4.651-26.713,32.367-27.729,33.37-4.3-.154-15.227-1.7-22.818-1.417s-18.095,1.405-22.815,1.568c-1.015-1.015-17.5-36.746-27.729-32.1-12.181,5.548-13.151,39.308-13.151,46.038-11.815,9.029-31.681,53.578-5.195,89.958-48.468,107.207-6.455,173.225,15.263,222.415-5.581,7.518-6.726,20.963,0,25.5,10.293,6.929,25.771,4.345,33.866-2.384,19.573-16.243-5.053-118.052,20.836-118.49,25.873-.447-.816,101.541,18.745,117.783Zm0,0" transform="translate(41.792 0)" fill="#797992"/>
        <path id="Path_436" data-name="Path 436" d="M533.2,267.788a1.876,1.876,0,0,0-1.426,1.771l-.073,8.676a1.812,1.812,0,1,0,3.623,0l.073-8.606a1.886,1.886,0,0,0-2.2-1.84Zm0,0" transform="translate(101.38 65.338)" fill="#2b1100"/>
        <path id="Path_437" data-name="Path 437" d="M545.789,270.847a1.87,1.87,0,0,0-1.714,1.559,16.653,16.653,0,0,1-6.47,10.386,21.086,21.086,0,0,1-10.374,4.545,1.82,1.82,0,1,0,.353,3.623,24.016,24.016,0,0,0,12.3-5.321,21.876,21.876,0,0,0,5.974-7.9,22.3,22.3,0,0,0,6.113,8.253,23.537,23.537,0,0,0,12.3,5.322,1.891,1.891,0,0,0,1.958-1.662,1.914,1.914,0,0,0-1.677-1.961,20.378,20.378,0,0,1-10.3-4.545,17.144,17.144,0,0,1-6.551-10.74,1.858,1.858,0,0,0-1.91-1.559Zm0,0" transform="translate(89.007 71.592)" fill="#2b1100"/>
        <path id="Path_438" data-name="Path 438" d="M529.483,258.377c-14.687.3-15.215,22.371.849,22.014,16.185-.354,13.928-22.32-.849-22.014Zm0,0" transform="translate(74.433 46.383)" fill="#ca7f11"/>
        <path id="Path_439" data-name="Path 439" d="M526.743,259.8c-9.066-.142-9.256,13.468-.012,13.257a6.632,6.632,0,1,0,.012-13.257Zm0,0" transform="translate(77.457 49.267)" fill="#2b1100"/>
        <path id="Path_440" data-name="Path 440" d="M550.7,258.416c14.7.3,15.227,22.371-.837,22.014-16.2-.342-13.943-22.32.837-22.014Zm0,0" transform="translate(115.391 46.462)" fill="#ca7f11"/>
        <path id="Path_441" data-name="Path 441" d="M547.117,259.841c9.066-.142,9.256,13.468.024,13.257a6.633,6.633,0,1,1-.024-13.257Zm0,0" transform="translate(118.687 49.346)" fill="#2b1100"/>
        <path id="Path_442" data-name="Path 442" d="M530.031,267.394c4.358-1.511,8.44-2.112,13.066-.2-3.409,7.047-9.1,7.612-13.066.2Zm0,0" transform="translate(97.999 61.788)" fill="#1a1a1a"/>
        <path id="Path_443" data-name="Path 443" d="M544.27,266.092a1.842,1.842,0,0,0-1.287.78,12,12,0,0,1-5.325,4.061,13.593,13.593,0,0,1-4.911-3.992,1.814,1.814,0,1,0-2.7,2.351c2.112,2.372,3.375,3.8,6.681,5.334a1.913,1.913,0,0,0,1.357.073,15.626,15.626,0,0,0,7.742-5.69,1.913,1.913,0,0,0-1.556-2.916Zm0,0" transform="translate(96.782 61.981)" fill="#2b1100"/>
        <path id="Path_444" data-name="Path 444" d="M542.5,261.28c.2-4.309,14.7-25.106,18.3-24.825,5.723.462,9.123,15.807,10.516,24.187-1.97,1.381-2.88,4.605-3.055,7.237a13.743,13.743,0,0,0-5.361,6.6,148.345,148.345,0,0,0-16.9-5.334c-.683-2.88-2.844-5.134-3.493-7.863Zm0,0" transform="translate(123.202 2.06)" fill="#c78888"/>
        <path id="Path_445" data-name="Path 445" d="M541.524,261.643c-.2-4.306-14.7-25.106-18.3-24.812-5.735.45-9.123,15.807-10.516,24.187,1.97,1.369,2.88,4.593,3.046,7.225a13.873,13.873,0,0,1,5.37,6.6,149.787,149.787,0,0,1,16.892-5.321c.683-2.88,2.856-5.134,3.505-7.875Zm0,0" transform="translate(62.981 2.818)" fill="#c78888"/>
        <path id="Path_446" data-name="Path 446" d="M571.974,268.231c-1.937,18.566-13.635,27.822-27.8,30.182,18.732,2.433,37.123-11.531,27.8-30.182Zm0,0" transform="translate(126.599 66.312)" fill="#626276"/>
        <path id="Path_447" data-name="Path 447" d="M534.3,279.891c6.068,5.04,20.056,6.316,26.653,1.191-4.391,11.356-24.74,8-26.653-1.191Zm0,0" transform="translate(106.625 89.887)" fill="#626276"/>
        <path id="Path_448" data-name="Path 448" d="M513.628,267.625c1.937,18.569,13.635,27.822,27.8,30.185-18.732,2.43-37.123-11.534-27.8-30.185Zm0,0" transform="translate(59.773 65.087)" fill="#626276"/>
        <path id="Path_449" data-name="Path 449" d="M548.208,279.942c-6.08,5.04-20.068,6.313-26.653,1.191,4.379,11.356,24.728,8,26.653-1.191Zm0,0" transform="translate(80.862 89.99)" fill="#626276"/>
        <path id="Path_450" data-name="Path 450" d="M579.239,271.629c-5.726,17.778-19.065,24.411-33.419,23.809,17.838,6.243,38.707-3.635,33.419-23.809Zm0,0" transform="translate(129.922 73.183)" fill="#626276"/>
        <path id="Path_451" data-name="Path 451" d="M509.27,270.926c5.723,17.778,19.065,24.411,33.419,23.8-17.838,6.243-38.707-3.623-33.419-23.8Zm0,0" transform="translate(54.334 71.761)" fill="#626276"/>
        <path id="Path_452" data-name="Path 452" d="M534.1,296.342c14.4,29.642,55.929,3.375,62.634-14.756-8.984,10.978-41.964,27.952-62.634,14.756Zm0,0" transform="translate(106.236 93.314)" fill="#626276"/>
        <path id="Path_453" data-name="Path 453" d="M574.018,296.367c-14.4,29.641-55.929,3.388-62.631-14.753,8.993,10.975,41.962,27.952,62.631,14.753Zm0,0" transform="translate(60.304 93.371)" fill="#626276"/>
        <path id="Path_454" data-name="Path 454" d="M514.328,323.657c10.528-6.563,29.357-.142,33.654,9.963-12.819-6.706-22.05-9.407-33.654-9.963Zm0,0" transform="translate(66.25 172.991)" fill="#626276"/>
        <path id="Path_455" data-name="Path 455" d="M514.473,329.419c5.134-6.657,25.081-5.37,30.361,7.615-7.331-2.81-21.486-6.751-30.361-7.615Zm0,0" transform="translate(66.543 182.055)" fill="#626276"/>
        <path id="Path_456" data-name="Path 456" d="M573.635,324.58c-10.528-6.576-29.358-.154-33.655,9.963,12.822-6.718,22.051-9.419,33.655-9.963Zm0,0" transform="translate(118.115 174.842)" fill="#626276"/>
        <path id="Path_457" data-name="Path 457" d="M571.295,330.335c-5.146-6.66-25.085-5.373-30.373,7.612,7.343-2.8,21.482-6.751,30.373-7.612Zm0,0" transform="translate(120.019 183.903)" fill="#626276"/>
      </g>
    </g>
  </g>
</svg>
