<svg xmlns="http://www.w3.org/2000/svg" width="492" height="492" viewBox="0 0 492 492">
  <g id="Group_57" data-name="Group 57" transform="translate(-1266 -369)">
    <g id="Group_63" data-name="Group 63">
      <path id="Path_302" data-name="Path 302" d="M246,0C381.862,0,492,110.138,492,246S381.862,492,246,492,0,381.862,0,246,110.138,0,246,0Z" transform="translate(1266 369)" fill="#8eafb9"/>
      <g id="Group_115" data-name="Group 115" transform="translate(1097.545 136.893)">
        <path id="Path_1051" data-name="Path 1051" d="M298.525,437.958c-8.688-8.184-23.105,6.657-13.426,17.889,9.19.441,11.878-9.466,13.426-17.889Zm0,0" transform="translate(46.434 183.432)" fill="#b9b9b9"/>
        <path id="Path_1052" data-name="Path 1052" d="M388.674,400.63c-6.2,18.627,8.53,63.341,2.945,74.03-8.726,16.676-21.69,35.825-28.7,43.545-2.4,2.64-6.077,6.9-12.619,7.518-5.429.522-10.29,0-12.192-3.665-5-11.071,8.913-37.874,16.368-45.328,7.172-7.161-2.991-71.283,34.2-76.1Zm0,0" transform="translate(150.242 117.635)" fill="#b9b9b9"/>
        <path id="Path_1053" data-name="Path 1053" d="M264.8,416.424c-6.435-11.034-7.25-20.676-7.144-29.52.089-6.06,4.423-12.117,2.847-17.768,11.809-8.573,18.074-11.042,27.609-19.454,1.988,1.121,6.363.9,11.593-1.34,1.548-.127,3.23-.236,5.08-.294,4.807,1.841,12.944,4.026,15.129,1.968,23.01,13.031,23.2,22.978,31.194,37.922,8.9.086,29.886,7.031,36.484,5.977,57.61-16.754,82.262-20.6,132.988-10.458,33.637,7.838,39.366,32.926,41.418,41.965,1.988,46.167-19.866,68.592-29.214,79.655-7.317,8.659-5.922,47.879-3.576,64.454,1.478,10.4-19.434,27.148-35.594,44.147-4.573,4.807-8.7,10.106-14.855,11.189a36.41,36.41,0,0,1-13.622-.611c-10.38-2.167-8.354-26.26,8.046-21.186,1.98-.9,2.818-2.109,4.15-2,6.619-8.815,10.714-13.466,17.284-25.837,1.617-3.631,1.418-5.239-.2-7.729-9.711-19.425-26.191-34.021-33.874-54.627-23.46,4.233-67.036,13.454-75.182,13.385-.187,6.68-1.337,14.016-2.127,20.765-2.689,23.215-4.2,45.749-9.919,57.42-3.812,7.772-8.095,17.956-18.693,19.771-6.945,1.19-9.832,2.686-18.676-.167-11.189-3.608-3.919-25.514,8.008-21,2.985-3.991,4.412-6.017,5.507-9.06,3.565-17.808-6.008-45.585-12.541-65.362C317.9,518.956,289.814,502,281.581,483.29c-10.708-24.327-14.143-49.149-16.489-66.209" transform="translate(0.834 18.694)" fill="#f2f2f2"/>
        <path id="Path_1054" data-name="Path 1054" d="M309.482,403.869c15.189-8.028,7.616-26.575,15.149-36.208-2.628-1.121-17.572-4.2-28.159-5.435-2.412,2.412-6.028,4.645-4.965,8.991-3.98,10.864,5.674,39.162,17.976,32.652Zm0,0" transform="translate(62.837 45.372)" fill="#333"/>
        <path id="Path_1055" data-name="Path 1055" d="M312.143,375.895c-14.777,17.345,25.263,49.377,43.305,25.324,16.647-9.239,25.748-30.286,2.839-30.286-6.7-15.227-44.985-10.5-46.144,4.962Zm0,0" transform="translate(97.341 44.238)" fill="#b3490f"/>
        <path id="Path_1056" data-name="Path 1056" d="M390.308,413.757c-1.752-9.434,17.728-27.984,3.861-49.126a11,11,0,0,1-4.533,1.475c1.075-3.369-.029-5.536-2.363-8.452-2.836,2.032-1.357,1.36-5.011,2.689a8.772,8.772,0,0,0-4.553-6.095c-3.279,6.57-12.875,20.575-28.819,17.543,1.063,7.651,10.815,2.006,14.607,7.069,1.23,5.161,3.271,8.383,7.337,10.423,1.772,19.5,10.256,14.881,19.474,24.474Zm0,0" transform="translate(172.523 30.36)" fill="#b3490f"/>
        <path id="Path_1057" data-name="Path 1057" d="M339.97,358.859c-1.683,10.973,9.071,11.769,18.932,19.166,5.516,21.128,29.911-5.268,12.535-13.959-8.616-1.614-20.967-4.893-31.468-5.207Zm0,0" transform="translate(155.41 39.036)" fill="#333"/>
        <path id="Path_1058" data-name="Path 1058" d="M259.445,387.193c-3.389-12.114-3.438-42.2,3.369-48.291,4.945-4.412,22.367,20.172,26.269,27.768,2.069,1.158,5.988.294,12.184-.19-1.213,2.919-1.885,4.749-3.539,6.391-2.746,2.761-13.325,1.409-17.077,5.152-3.1,3.115-8.463,7.389-11.388,10.3-5.259,5.262-5.288,12.648-10.8,16.8.118-6.08,2.562-12.264.985-17.93Zm0,0" transform="translate(0 0.495)" fill="#333"/>
        <path id="Path_1059" data-name="Path 1059" d="M320.012,415.692a65.285,65.285,0,0,0,.13-10.068c-.375-6.115-3.726-12.705-2.187-18.3,3.075-11.21,1.19-42.608-5.616-48.706-4.945-4.4-19.708,21.146-23.609,28.742-2.2,2.057-5.968-.867-14.725-.62.032,1.161.2,2.8.79,3.374,5,5.017,5.2,5.792,8.942,13.29,1.686,3.357,2.432,5.674,3.8,8.4,2.225,10.688,9.829,10.607,18.428,14.912,1.34.672,4.53,5.616,5.694,6.778,1.337,1.34,6.124,2.619,8.351,2.2Zm0,0" transform="translate(31.614 0)" fill="#b3490f"/>
        <path id="Path_1060" data-name="Path 1060" d="M274.246,365.446a1.142,1.142,0,0,0-.876,1.144l.115,3.467a1.178,1.178,0,0,0,1.147,1.19,1.147,1.147,0,0,0,1.06-1.262l-.115-3.467a1.168,1.168,0,0,0-1.331-1.072Zm0,0" transform="translate(30.418 51.399)"/>
        <path id="Path_1061" data-name="Path 1061" d="M280.725,366.736a1.119,1.119,0,0,0-.571.372,22.3,22.3,0,0,1-4.1,4.1c-1.585,1.141-3.161,1.694-4.6,1.2a1.122,1.122,0,1,0-.689,2.135c2.363.821,4.729-.156,6.619-1.5a21.154,21.154,0,0,0,3.712-3.723,26.727,26.727,0,0,0,4.224,3.723c2.158,1.438,4.729,2.591,7.25,1.764a1.129,1.129,0,0,0-.689-2.15c-1.487.5-3.4-.176-5.3-1.447a29.489,29.489,0,0,1-4.729-4.155,1.122,1.122,0,0,0-1.132-.314Zm0,0" transform="translate(24.066 53.774)"/>
        <path id="Path_1062" data-name="Path 1062" d="M281.527,363.712c.885-8.521-15.059-14.241-17.82-3.654-2.717,10.432,16.892,12.423,17.82,3.654Zm0,0" transform="translate(11.752 30.477)" fill="#85d812"/>
        <path id="Path_1063" data-name="Path 1063" d="M269.111,366.776c4.164-.334,3.377-12.478-.493-11.9-3.824.571-3.772,12.241.493,11.9Zm0,0" transform="translate(16.229 31.511)"/>
        <path id="Path_1064" data-name="Path 1064" d="M277.665,363.384c-.758-8.541,15.279-14.016,17.878-3.389,2.562,10.469-17.088,12.163-17.878,3.389Zm0,0" transform="translate(38.454 30.148)" fill="#85d812"/>
        <path id="Path_1065" data-name="Path 1065" d="M282.31,366.594c-4.167-.282-3.547-12.437.331-11.9,3.833.522,3.933,12.192-.331,11.9Zm0,0" transform="translate(41.857 31.16)"/>
        <path id="Path_1066" data-name="Path 1066" d="M277.151,370.671c-2.47-.79-6.017-4.461-4.893-6.518,2.372-1.568,8.322-1.055,9.239-.061.749,2.1-2.611,6.155-4.346,6.579Zm0,0" transform="translate(27.925 47.119)" fill="#ff8080"/>
        <path id="Path_1067" data-name="Path 1067" d="M295.675,339.183c4.933,3.694,7.524,19.5,5.752,28.387-3.08,5.08-3.907,7.772-4.216,12.656-6-4.493-10.864-8.5-15.345-10.737a84.648,84.648,0,0,0,.746-10.991c-.009-4.521,11.083-20.419,13.063-19.316Zm0,0" transform="translate(46.407 1.909)" fill="#ffd5d5"/>
        <path id="Path_1068" data-name="Path 1068" d="M262.865,339.235c-4.663,4.029-6.129,19.984-3.726,28.721,3.441,4.856,4.452,7.475,5.1,12.322,5.662-4.9,10.233-9.239,14.547-11.8a83,83,0,0,1-1.524-10.9c-.305-4.51-12.5-19.581-14.4-18.339Zm0,0" transform="translate(1.497 1.975)" fill="#ffd5d5"/>
      </g>
    </g>
  </g>
</svg>
