<svg xmlns="http://www.w3.org/2000/svg" width="492" height="492" viewBox="0 0 492 492">
  <g id="Group_105" data-name="Group 105" transform="translate(-130 -249)">
    <g id="Component_1_2" data-name="Component 1 – 2" transform="translate(130 249)">
      <g id="Group_53" data-name="Group 53">
        <circle id="Ellipse_7" data-name="Ellipse 7" cx="246" cy="246" r="246" fill="#a1baf4"/>
      </g>
    </g>
    <g id="Group_104" data-name="Group 104" transform="translate(118.748 -214.657)">
      <path id="Path_868" data-name="Path 868" d="M107.782,728.05c0,5.352,6.422,28.9,16.161,58.869s13.808,25.689,27.038,25.689c13.252,0,14.6-11.774,4.966-12.844s-17.468-35.15-21.748-49.772,2.14-13.207,14.32-22.841c10.6-8.391,27.894-19.373,36.414-41.208a53.224,53.224,0,0,0-7.857-1.691,27.415,27.415,0,0,1-7.578,5.266c-12.115,5.779-20.443,1.819-25.966-4.86-6.872-5.437-12.5-16.74-17.939-24.426-.449,16.677,2.5,33.546,6.807,37.849C140.962,706.642,107.782,722.7,107.782,728.05Z" transform="translate(24.089 15.859)" fill="#818386"/>
      <path id="Path_869" data-name="Path 869" d="M224.807,742.053c5.715,15.691,17.49,28.535,34.978,33.887,17.47,5.353,44.591,12.481,54.224,11.689,9.634-.814,16.42,4.731,32.11,4.731,15.35,0,15.52-4.538,15.52-4.731-5.051-3.726-15.926-7.471-32.88-8.478-36.392-2.14-43.131-4.429-58.634-9.633-14.986-5.031-19-2.408-3.747-30.237,9.442-17.229-8.425-33.716-8.425-33.716-12.372-10.79-20.666-10.051-30.942-2.666v.022C219.948,714.8,219.112,726.339,224.807,742.053Z" transform="translate(64.048 28.97)" fill="#818386"/>
      <g id="Group_101" data-name="Group 101" transform="translate(277.444 731.89)">
        <g id="Group_100" data-name="Group 100" transform="translate(0)">
          <path id="Path_870" data-name="Path 870" d="M215.394,724.193c0-8.006,5.545-16.911,13.616-22.713-7.064,11.881-7.9,23.419-2.2,39.133,5.715,15.691,17.49,28.535,34.978,33.887,17.47,5.353,44.591,12.481,54.224,11.689,9.634-.814,16.42,4.731,32.11,4.731,15.35,0,15.52-4.538,15.52-4.731,5.8,4.26,3.961,8.5-5.2,8.5-17.126,0-35.943,3.362-71.949-6.273-10.01-2.677-17.828-4.775-24.112-6.549.057.019.111.043.168.061-8.953-2.481-30.474-8.53-35.107-10.637-5.887-2.676-4.183-12.66-6.545-19.565l0-.015A77.719,77.719,0,0,1,215.394,724.193Z" transform="translate(-215.394 -701.48)" fill="#818386"/>
          <path id="Path_871" data-name="Path 871" d="M250.248,760.948c2.42.671,3.93,1.082,3.93,1.082A35.973,35.973,0,0,1,250.248,760.948Z" transform="translate(-203.099 -680.502)" fill="#818386"/>
        </g>
      </g>
      <path id="Path_872" data-name="Path 872" d="M302.452,661.254s17.928-28.611,16.505-36.97-17.219,1.8-30.779,10.556-27.069,22.338-19.343,27.675S293.386,677.151,302.452,661.254Z" transform="translate(80.106 2.08)" fill="#62423a"/>
      <path id="Path_873" data-name="Path 873" d="M293.139,657.413s8.545-4.935,13.656-17.037,7.605-16.613.7-12.8-27.63,28.854-27.407,30.636S283.68,663.647,293.139,657.413Z" transform="translate(84.872 3.874)" fill="#d3818f"/>
      <path id="Path_874" data-name="Path 874" d="M255.2,670.154c11.11,9.184,31.211,10.746,42.536,13.7,16.183,4.238,30.89-1.349,31.939-9.761.45-3.49,2.889-6.68,5.609-9.249a26.254,26.254,0,0,1-2.1-5.33c-2.848-10.7-30.678-16.42-30.678-16.42-29.969-5.715-44.247,6.423-46.389,17.832a50.8,50.8,0,0,0-.9,9.055C255.227,670.047,255.2,670.089,255.2,670.154Z" transform="translate(76.094 9.299)" fill="#81534b"/>
      <path id="Path_875" data-name="Path 875" d="M156.158,686.729c.364,1.541.685,3.125.92,4.687,3.211,20.658,29.97,37.141,47.1,43.029s26.223-1.07,26.223-1.07l36.928-4.817s29.969,17.662,35.856,6.423,2.676-26.759,9.633-36.928,1.606-12.844,3.362-15.285c1.755-2.462,7.877,2.44,35.172,4.752,13.444,1.135,22.349-1.242,27.914-3.939a10.33,10.33,0,0,0,1.006-4.43c0-8.177-6.208-12.995-10.04-20.359-2.719,2.569-5.158,5.759-5.609,9.249-1.048,8.413-15.756,14-31.939,9.761-11.325-2.954-31.426-4.517-42.536-13.7-.813,7.214-4.153,20.787-17.318,25.924a63.33,63.33,0,0,1-6.894.791s7.728,17.662-26.524,24.49c-34.25,6.807-42.471.9-62.807-13.594C167.418,695.184,161.745,690,156.158,686.729Z" transform="translate(41.154 15.351)" fill="#fff"/>
      <path id="Path_876" data-name="Path 876" d="M126.708,681.145c16.377,14.749,41.229,34.808,52.683,50.969,15.948,22.477,50.777,36.392,91.6,32.11,16.954-1.776,30.119-6.7,39.089-13.828,8.969-7.151,13.721-16.505,13.85-27.166,0,0,5.866-15.028,7.3-23.591.877-5.2,6.014-9.376,9.89-11.838,12.33,1.627,24.275,2.055,28.128,1.669,5.994-.6,17.061-4.731,20.4-11.966-5.565,2.7-14.47,5.074-27.914,3.939-27.295-2.312-33.417-7.214-35.172-4.752-1.756,2.44,3.6,5.116-3.362,15.285s-3.746,25.689-9.633,36.928-35.856-6.423-35.856-6.423L240.786,727.3s-9.1,6.957-26.223,1.07S170.678,706,167.467,685.34c-.235-1.562-.556-3.146-.92-4.687-6.807-3.961-13.509-5.1-26.245-2.377C135.592,679.282,131.033,680.2,126.708,681.145Z" transform="translate(30.765 21.428)" fill="#aeb0b3"/>
      <path id="Path_877" data-name="Path 877" d="M322.1,668.2s3.819,1.437,3.819,5.182-1.192,8.988-3.941,7.438-6.495-6.635-6.495-8.775S318.283,667.3,322.1,668.2Z" transform="translate(97.359 18.605)" fill="#d3818f"/>
      <path id="Path_878" data-name="Path 878" d="M309.888,659.411s-6.423-2.842-14.182,3.581a8.243,8.243,0,0,0,7.091,8.28A11.439,11.439,0,0,0,309.888,659.411Z" transform="translate(90.38 15.349)" fill="#fe0"/>
      <path id="Path_879" data-name="Path 879" d="M39.7,754.545a.075.075,0,0,0,.042-.022s23.547,9.1,43.349-1.392,26.759-58.334,35.858-84.322,25.881-24.148,25.881-24.148,12.651,15.884,23.89,16.955c10.382.983,23.976,18.431,28.515,37.377,5.587,3.275,11.26,8.455,20.444,14.985,20.336,14.492,28.557,20.4,62.807,13.594,34.252-6.829,26.524-24.49,26.524-24.49-33.2,2.033-45.4-25.26-79.334-55.23-18.839-16.634-37.4-23.826-52.683-23.826-11.838,0-21.728,4.3-28.258,11.86,0,0-33.137,12.288-36.349,32.925s-14.985,91.279-50.306,84.857C47.217,751.333,41.009,752.4,39.7,754.545Z" transform="translate(0.074 3.087)" fill="#81534b"/>
      <path id="Path_880" data-name="Path 880" d="M67.649,757.926c27.83-3.211,35.322-24.617,49.236-68.5,8.286-26.116,13.53-35.557,19.588-38.917-3.382,12.008.471,19.929,7,29.285,2.5,3.6,7.62,8.563,14,14.322,4.325-.943,8.884-1.863,13.594-2.869,12.736-2.719,19.438-1.584,26.245,2.377-4.539-18.945-18.132-36.393-28.515-37.377-11.239-1.071-23.89-16.955-23.89-16.955s-16.784-1.841-25.881,24.148-16.056,73.832-35.858,84.322-43.349,1.392-43.349,1.392a.075.075,0,0,1-.042.022l-.022.022C37.508,752.96,49.989,759.959,67.649,757.926Z" transform="translate(0 8.461)" fill="#62423a"/>
      <path id="Path_881" data-name="Path 881" d="M300.3,664.031c-1.157,3.038-.808,5.991.781,6.6s3.813-1.368,4.971-4.406.809-5.991-.779-6.6S301.463,660.993,300.3,664.031Z" transform="translate(91.763 15.607)" fill="#1a1818"/>
      <ellipse id="Ellipse_20" data-name="Ellipse 20" cx="1.539" cy="2.341" rx="1.539" ry="2.341" transform="translate(396.066 674.984)" fill="#fff"/>
      <path id="Path_882" data-name="Path 882" d="M98.287,731.215c0,5.352,6.422,28.9,16.161,58.869s13.808,25.689,27.038,25.689c13.252,0,14.6-11.775,4.966-12.844s-17.467-35.15-21.748-49.772,2.14-13.207,14.32-22.841c10.6-8.391,27.894-19.373,36.414-41.208a53.24,53.24,0,0,0-7.855-1.691A27.458,27.458,0,0,1,160,692.683c-12.117,5.779-20.444,1.819-25.968-4.86-6.872-5.437-12.5-16.74-17.939-24.425-.449,16.677,2.5,33.546,6.807,37.848C131.467,709.807,98.287,725.863,98.287,731.215Z" transform="translate(20.74 16.976)" fill="#aeb0b3"/>
      <path id="Path_883" data-name="Path 883" d="M215.312,745.218c5.715,15.691,17.49,28.535,34.978,33.887,17.47,5.353,44.591,12.481,54.225,11.689,9.633-.814,16.418,4.731,32.11,4.731,15.348,0,15.52-4.539,15.52-4.731-5.053-3.725-15.927-7.471-32.882-8.478-36.392-2.14-43.131-4.429-58.634-9.633-14.985-5.031-19-2.408-3.746-30.238,9.441-17.227-8.426-33.715-8.426-33.715-12.372-10.79-20.666-10.051-30.942-2.666v.022C210.453,717.966,209.617,729.5,215.312,745.218Z" transform="translate(60.698 30.086)" fill="#fff"/>
      <path id="Path_884" data-name="Path 884" d="M124.714,681.684c5.523,6.68,13.851,10.639,25.968,4.86a27.458,27.458,0,0,0,7.578-5.266c-5.952-.836-13.659-.878-20.509,2.375C132.87,685.965,128.588,684.767,124.714,681.684Z" transform="translate(30.062 23.115)" fill="#fff"/>
      <g id="Group_103" data-name="Group 103" transform="translate(264.6 736.171)">
        <g id="Group_102" data-name="Group 102">
          <path id="Path_885" data-name="Path 885" d="M205.9,727.358c0-8.006,5.545-16.911,13.616-22.713-7.064,11.881-7.9,23.419-2.205,39.133,5.715,15.691,17.49,28.535,34.978,33.887,17.47,5.353,44.591,12.481,54.225,11.689,9.633-.814,16.418,4.731,32.11,4.731,15.348,0,15.52-4.539,15.52-4.731,5.8,4.26,3.96,8.5-5.2,8.5-17.126,0-35.943,3.362-71.949-6.273-10.009-2.677-17.828-4.775-24.11-6.549.055.019.111.042.166.061-8.953-2.481-30.474-8.531-35.107-10.637-5.887-2.676-4.183-12.661-6.545-19.565l0-.015A77.719,77.719,0,0,1,205.9,727.358Z" transform="translate(-205.899 -704.645)" fill="#aeb0b3"/>
          <path id="Path_886" data-name="Path 886" d="M240.753,764.113c2.42.671,3.93,1.082,3.93,1.082A36,36,0,0,1,240.753,764.113Z" transform="translate(-193.604 -683.667)" fill="#aeb0b3"/>
        </g>
      </g>
      <path id="Path_887" data-name="Path 887" d="M118.379,678.237c1.2,5.288,3.918,13.657,8.99,19.758,3.874,3.083,8.156,4.281,13.037,1.97,6.85-3.253,14.557-3.211,20.509-2.375,13.379-13.167,8.326-36.285,8.027-37.592a.16.16,0,0,1-.022-.064,44.562,44.562,0,0,0-12.352-15.8s-14.107-13.592-31.082-8.391C116.024,646.641,116.281,669.011,118.379,678.237Z" transform="translate(27.407 6.803)" fill="#81534b"/>
      <path id="Path_888" data-name="Path 888" d="M149.512,690.956a53.24,53.24,0,0,1,7.855,1.691,70.576,70.576,0,0,0,3.126-10.341,43.952,43.952,0,0,0-2.954-28.942C157.838,654.671,162.891,677.789,149.512,690.956Z" transform="translate(38.81 13.437)" fill="#62423a"/>
      <path id="Path_889" data-name="Path 889" d="M111.453,673.261c5.438,7.685,11.067,18.989,17.939,24.426-5.073-6.1-7.792-14.47-8.99-19.758-2.1-9.226-2.355-31.6,7.107-42.493-.921.3-1.863.643-2.826,1.048C115.628,640.359,111.882,656.714,111.453,673.261Z" transform="translate(25.384 7.112)" fill="#62423a"/>
      <path id="Path_890" data-name="Path 890" d="M294.967,657.61s7.412-32.94,3.294-40.351-15.646,7.412-25.528,20.175-18.117,30.058-9.058,32.528S291.693,675.616,294.967,657.61Z" transform="translate(77.703)" fill="#81534b"/>
      <path id="Path_891" data-name="Path 891" d="M285.266,655.475s6.422-7.493,7.225-20.6,1.658-18.2-3.586-12.309-16.483,36.392-15.681,38S278.414,664.5,285.266,655.475Z" transform="translate(82.436 1.714)" fill="#d3818f"/>
    </g>
  </g>
</svg>
