<svg xmlns="http://www.w3.org/2000/svg" width="492" height="492" viewBox="0 0 492 492">
  <g id="Group_63" data-name="Group 63" transform="translate(-1266 -369)">
    <path id="Path_302" data-name="Path 302" d="M246,0C381.862,0,492,110.138,492,246S381.862,492,246,492,0,381.862,0,246,110.138,0,246,0Z" transform="translate(1266 369)" fill="#c8e5dd"/>
    <g id="Group_62" data-name="Group 62" transform="translate(1057.262 -208.062)">
      <path id="Path_273" data-name="Path 273" d="M424.46,888.676c-46.977-33.834-58.975-67.734-59.8-100.508-1.157-46.054,20.632-93.919-3.218-128.109,59.477,12.921,7.761,111.652,37.492,160.786,22.849,37.794,41.411,41.767,51.654,52.583,11.278,16.635-10.96,22.837-26.126,15.247Zm0,0" transform="translate(0 90.44)" fill="#1b1b1b"/>
      <path id="Path_274" data-name="Path 274" d="M527.065,843.219c9.2-13.273,17.807-46.989-8.746-65.978-21.571-106.186-107.879-112.908-133.092,4.8-26.978,20.305-18.365,54.018-9.17,67.294,8.94,5.276,20.377,6.932,31.68,6.043,18.138,3.056,71.033,5.822,87.624-1.961,12.217-3.046,23.432-3.081,31.7-10.2Zm0,0" transform="translate(11.937 165.883)" fill="#1a1a1a"/>
      <path id="Path_275" data-name="Path 275" d="M376.663,628.395c-.561-2.448-1.877-6.336-1.911-11.035-1.718,6.3-1.609,14.309,1.911,11.035Zm0,0" transform="translate(25.899)" fill="#333"/>
      <path id="Path_276" data-name="Path 276" d="M378.473,627.108c-1.718-.293-5.176-4.141-5.176-9.17-2.448,5.737,1.232,10.181,3.314,11.852.546-.817,1.325-1.865,1.862-2.682Zm0,0" transform="translate(23.394 1.224)" fill="#333"/>
      <path id="Path_277" data-name="Path 277" d="M414.109,628.5c.561-2.448,1.877-6.333,1.914-11.035,1.715,6.3,1.606,14.3-1.914,11.035Zm0,0" transform="translate(111.555 0.223)" fill="#333"/>
      <path id="Path_278" data-name="Path 278" d="M414.332,627.225c1.718-.305,5.176-4.153,5.176-9.186,2.435,5.75-1.229,10.2-3.311,11.864-.549-.817-1.328-1.865-1.865-2.678Zm0,0" transform="translate(112.027 1.438)" fill="#333"/>
      <path id="Path_279" data-name="Path 279" d="M454.388,887.591c31.483,25.188,16.139,107.05,36.88,127.963,7.041,7.1,22.07,9.145,28.134,2.741,6.835-7.212,1.949-18.247-4.615-25.774,0-76.941-10.754-170.128-38.929-233.784,18.453-14.761,37.626-23.554,36.238-53.687,7.063-21.194,13.055-60.79-4.022-84.565-20.314,8.232-38.6,49.244-49.655,52.349-7.3-.645-16.638.7-23.825.365-11.8-3.436-30.083-44.445-50.4-52.68-17.065,23.775-11.085,63.375-4.019,84.565-1.388,30.133,17.782,38.929,36.235,53.69-28.159,63.652-38.926,156.842-38.926,233.783-6.055,6.5-9.744,14.321-6.14,24.237,2.448,6.735,20.573,6.919,27.623-.181,21.243-21.437,7.43-103.8,38.917-128.988,5.323,3.34,12,2.158,16.5-.034Zm0,0" transform="translate(17.966 6.619)" fill="#333"/>
      <path id="Path_280" data-name="Path 280" d="M395.988,656.445a1.932,1.932,0,0,0-1.656,1.886v5.519a1.871,1.871,0,1,0,3.739,0v-5.519a1.941,1.941,0,0,0-2.083-1.886Zm0,0" transform="translate(69.665 82.763)" fill="#2b1100"/>
      <path id="Path_281" data-name="Path 281" d="M405.285,658.235a1.923,1.923,0,0,0-1.718,1.752,5.6,5.6,0,0,1-1.958,4.337,5.463,5.463,0,0,1-3.764,1.082,5.227,5.227,0,0,1-3.339-1.387,2.875,2.875,0,0,1-.7-3.031,1.876,1.876,0,0,0-3.642-.9,6.993,6.993,0,0,0,1.656,6.529,8.739,8.739,0,0,0,5.784,2.535,9.1,9.1,0,0,0,6.336-1.89,8.8,8.8,0,0,0,1.484-1.886,9.081,9.081,0,0,0,1.512,1.949,9.2,9.2,0,0,0,6.37,1.961,8.8,8.8,0,0,0,5.8-2.56,6.964,6.964,0,0,0,1.643-6.5,1.877,1.877,0,0,0-3.642.914,2.821,2.821,0,0,1-.7,3,5.191,5.191,0,0,1-3.327,1.413,5.476,5.476,0,0,1-3.776-1.144,5.735,5.735,0,0,1-1.983-4.409,1.942,1.942,0,0,0-2.024-1.752Zm0,0" transform="translate(60.368 86.563)" fill="#2b1100"/>
      <path id="Path_282" data-name="Path 282" d="M399.316,663.041c-2.292-10.084,16.161-27.1,27.3-9.8-1.01,17.075-20.85,18.415-27.3,9.8Zm0,0" transform="translate(79.81 60.271)" fill="#c5ff5e"/>
      <path id="Path_283" data-name="Path 283" d="M409.121,660.37c7.321-.172,8.515-13.617-1.254-13.143-8.88.44-8.428,13.361,1.254,13.143Zm0,0" transform="translate(84.888 63.235)" fill="#2b1100"/>
      <path id="Path_284" data-name="Path 284" d="M409.1,663c2.289-10.084-16.164-27.112-27.308-9.8,1,17.075,20.851,18.415,27.308,9.8Zm0,0" transform="translate(43.115 60.168)" fill="#c5ff5e"/>
      <path id="Path_285" data-name="Path 285" d="M389.71,660.31c-7.331-.159-8.512-13.6,1.257-13.13,8.865.44,8.428,13.361-1.257,13.13Zm0,0" transform="translate(47.625 63.136)" fill="#2b1100"/>
      <path id="Path_286" data-name="Path 286" d="M392.73,654.976c3.084-1.023,11.683-.876,13.436,0-2.142,8.565-11.228,9.111-13.436,0Zm0,0" transform="translate(66.272 78.164)" fill="#1a1a1a"/>
      <path id="Path_287" data-name="Path 287" d="M393.663,654.177a1.952,1.952,0,0,0-1.375,2.678,23.586,23.586,0,0,0,3.19,5.226,7.572,7.572,0,0,0,5.226,2.984h.218c2.438-.1,4.131-1.79,5.3-3.411s2.008-3.386,2.763-4.58a1.875,1.875,0,1,0-3.13-2.033c-.936,1.5-1.79,3.193-2.678,4.434-.864,1.194-1.559,1.755-2.326,1.815a3.946,3.946,0,0,1-2.535-1.6,21.036,21.036,0,0,1-2.616-4.434,1.922,1.922,0,0,0-2.036-1.082Zm0,0" transform="translate(64.974 77.747)" fill="#2b1100"/>
      <path id="Path_288" data-name="Path 288" d="M402.816,673.391c.306-4.384,1.416-8.989,2.011-12.569,9-15.955,25.066-37.124,32.874-38.611,6.174-.193,13.386,34.006,7.271,54.641-2.485,1.338-4.933,5.444-5.628,9.086-3.408,1.84-7.062,3.7-9.1,6.442-6.261-6.663-17.661-13.692-27.43-18.989Zm0,0" transform="translate(87.635 10.274)" fill="#c78888"/>
      <path id="Path_289" data-name="Path 289" d="M416.461,673.295a126.3,126.3,0,0,0-2-12.585c-9.011-15.955-25.079-37.124-32.886-38.6-6.161-.2-13.383,34.006-7.271,54.625,2.5,1.353,4.933,5.457,5.628,9.1,3.411,1.827,7.066,3.692,9.1,6.432,6.274-6.651,17.673-13.679,27.43-18.977Zm0,0" transform="translate(22.336 10.069)" fill="#c78888"/>
      <path id="Path_290" data-name="Path 290" d="M387.452,668.4c-.561,2.348.851,7.037,6.542,5.139,1.971,5.784,6.953,3.034,8.416,1.865,1.681,6.015,6.467,3.3,7.942,2.8-1.035,8.927-7.09,2-8.419,0-6.345,4.5-8.731.415-9.342-3.265-6.6,1.5-9.086-1.606-5.139-6.539Zm0,0" transform="translate(51.09 108.113)" fill="#666"/>
      <path id="Path_291" data-name="Path 291" d="M384.268,672.9c-1.291,3.458.683,10.046,8.419,7.477,1.179,6.236,7.917,3.046,9.342,2.326,3.92,5.469,8.575,2.023,11.68-.462-2.582,7.381-7.87,7.745-13.083,5.139-6.492,2.825-8.743-1.6-10.277-4.677-9.915,6.164-7.652-5.08-6.08-9.8Zm0,0" transform="translate(45.394 117.636)" fill="#666"/>
      <path id="Path_292" data-name="Path 292" d="M381.67,680.805c.293,5.762,4.836,6.953,8.964,4.883,3.436,5.251,7.614,3.789,11,.4,1.861,6.869,8.135,3.679,12.229,1.634-2.229,7.112-8.294,8.587-12.229,3.664-6.261,5.7-11.668.293-13.034-2.435-6.772,1.522-8.612-3.118-6.931-8.147Zm0,0" transform="translate(41.609 134.381)" fill="#666"/>
      <path id="Path_293" data-name="Path 293" d="M379.267,688.906c-1.06,5.494,6.052,12.351,13.847,6.105,3.3,4.187,6.969,4.237,9.379,1.228,3.106,4.447,5.665,2.473,7.736.817,4.786,2.641,7.8,1.462,10.6-2.045-.792,7.05-3.592,9.011-8.55,5.712-5.213,2.629-10.087,3.58-11.814-1.634-3.642,4.069-7.892,4.191-10.2-.415-6.517,6.663-13.458-2.385-11-9.769Zm0,0" transform="translate(36.681 151.539)" fill="#666"/>
      <path id="Path_294" data-name="Path 294" d="M377.223,697.266c.29,4.8,7.6,6.626,13.86,2.448-.306,5.494,7.368,4.057,10.583,2.448,3.679,3.558,6.931,2.85,10.2,1.219,3.093,2.071,5.323.8,7.733,0-1,4.9-4.858,5.03-8.961,3.667-4.35,4.287-8.989,2.314-11.818-1.219-5.076,2.07-7.917.9-10.6-2.448-6.467,4.568-11,.365-11-6.115Zm0,0" transform="translate(33.427 169.247)" fill="#666"/>
      <path id="Path_295" data-name="Path 295" d="M376.851,705.106c-.281,4.166,5.079,4.25,7.334,2.448,3.813,1.706,7.209,2.385,10.184,0,2.142,6.919,9.523,4.615,13.043,2.85-3.3,7.3-9.853,5.31-13.445.817-4.677,3.554-9.233.914-10.6,0-4.858,1.157-8.123-1.281-6.517-6.115Zm0,0" transform="translate(31.764 185.852)" fill="#666"/>
      <path id="Path_296" data-name="Path 296" d="M417.848,668.664c.574,2.351-.842,7.041-6.542,5.142-1.974,5.784-6.953,3.043-8.4,1.874-1.693,6.018-6.467,3.29-7.954,2.8,1.035,8.927,7.09,1.983,8.416,0,6.348,4.493,8.734.415,9.345-3.277,6.613,1.5,9.086-1.609,5.139-6.542Zm0,0" transform="translate(70.972 108.665)" fill="#666"/>
      <path id="Path_297" data-name="Path 297" d="M425.14,673.16c1.291,3.473-.683,10.062-8.406,7.48-1.182,6.236-7.917,3.056-9.354,2.339-3.919,5.469-8.575,2.02-11.68-.465,2.594,7.384,7.87,7.749,13.083,5.142,6.492,2.825,8.743-1.6,10.277-4.677,9.915,6.161,7.661-5.079,6.08-9.819Zm0,0" transform="translate(72.561 118.188)" fill="#666"/>
      <path id="Path_298" data-name="Path 298" d="M429.057,681.067c-.293,5.772-4.836,6.953-8.968,4.9-3.421,5.251-7.611,3.788-11,.4-1.862,6.857-8.135,3.679-12.229,1.631,2.242,7.115,8.294,8.574,12.229,3.667,6.274,5.7,11.668.293,13.033-2.448,6.772,1.534,8.612-3.105,6.932-8.147Zm0,0" transform="translate(75.026 134.936)" fill="#666"/>
      <path id="Path_299" data-name="Path 299" d="M437.769,689.168c1.073,5.494-6.04,12.351-13.847,6.115-3.3,4.191-6.969,4.228-9.367,1.219-3.106,4.456-5.666,2.485-7.748.814-4.786,2.656-7.783,1.475-10.6-2.033.792,7.053,3.6,9,8.562,5.7,5.213,2.632,10.074,3.583,11.814-1.631,3.63,4.078,7.879,4.191,10.184-.4,6.517,6.664,13.458-2.388,11-9.781Zm0,0" transform="translate(73.645 152.095)" fill="#666"/>
      <path id="Path_300" data-name="Path 300" d="M440.023,697.531c-.281,4.8-7.586,6.616-13.847,2.451.306,5.478-7.38,4.053-10.6,2.435-3.676,3.567-6.916,2.862-10.181,1.229-3.106,2.07-5.335.8-7.748,0,1,4.9,4.861,5.033,8.964,3.667,4.35,4.287,8.989,2.3,11.814-1.229,5.092,2.083,7.92.914,10.6-2.438,6.467,4.568,11,.355,11-6.115Zm0,0" transform="translate(76.689 169.808)" fill="#666"/>
      <path id="Path_301" data-name="Path 301" d="M432.642,705.371c.278,4.166-5.079,4.253-7.334,2.448-3.813,1.693-7.2,2.376-10.184,0-2.142,6.919-9.51,4.605-13.03,2.853,3.286,7.281,9.841,5.31,13.433.814,4.69,3.558,9.233.914,10.6,0,4.858,1.144,8.123-1.278,6.517-6.115Zm0,0" transform="translate(86.106 186.413)" fill="#666"/>
    </g>
  </g>
</svg>
