<svg xmlns="http://www.w3.org/2000/svg" xmlns:xlink="http://www.w3.org/1999/xlink" width="492" height="492" viewBox="0 0 492 492">
  <defs>
    <clipPath id="clip-path">
      <path id="Path_718" data-name="Path 718" d="M1221.6,1188.26c-2.552-4.2-8.755-8.439-15.231-13.333-10.274-7.743-61.623-9.725-79.575-10.422-6.519-.253-10.865-5.147-13.755-11.245-.675-10.484-2.932-21.244-4.726-30.337-1.884-9.585-3.785-30.691-11.216-48.8a41.824,41.824,0,0,0,2.39-4.29,61.877,61.877,0,0,0,5.127-19.465c.851-7.293,3.416-20.907-.281-35.248.018-.052,7.813-23.332,7.216-40.04-.6-16.727-5.974-25.688-18.521-19.115-8.81,4.614-17.319,16.79-21.609,23.64a71.4,71.4,0,0,0-49.969,0c-4.29-6.849-12.8-19.026-21.609-23.64-12.547-6.573-17.924,2.389-18.521,19.115-.6,16.709,7.2,39.989,7.215,40.04-3.661,14.206-1.18,27.692-.307,35.034-9.725,3.7-20.9,5.921-30.755,2.727-23.839-7.743-70.315,5.147-86.411,35.631-11.139,21.118-19.726,47.53-20.569,66.433-.358,8.375.781,15.274,3.9,19.578,10.126,14.071,59.577,14.071,91.748,14.071,4.687,0,9.423.106,14.1.286,1.76,3.854,4.391,6.774,8.287,7.732,15.885,3.9,37.278,5.1,65.716,7.806,26.56,2.51,28.016,1.962,39.281,12.362,9.726,8.966,41.666,3.9,39.619-8.08h-.021c-.295-1.9,1.548-8.854-4.606-12.722-1.1-.69-2.159-1.4-3.205-2.114,11.852,3.179,26.129,1.777,38.169,1.777h48.08c14.113,0,25.653,6.836,30.146,0C1223.354,1193.133,1223.1,1190.707,1221.6,1188.26Z" transform="translate(-850.433 -953.802)" fill="none"/>
    </clipPath>
    <clipPath id="clip-path-2">
      <path id="Path_755" data-name="Path 755" d="M1090.041,1048.093a61.932,61.932,0,0,1-5.126,19.465c-1.721-1.147-4.231-1.811-7.9-1.219-10.933,1.756-18.623,6.9-24.609-4.751-5.968-11.65-20.54-9.463-20.54-9.463s-14.572-2.187-20.54,9.463c-5.987,11.65-13.676,6.507-24.609,4.751-3.674-.592-6.183.072-7.9,1.219a61.9,61.9,0,0,1-5.126-19.465c-1.254-10.754-6.256-35.255,10.629-55.562,16.9-20.326,47.55-19.717,47.55-19.717s30.649-.609,47.55,19.717C1096.3,1012.838,1091.3,1037.339,1090.041,1048.093Z" transform="translate(-972.018 -972.812)" fill="none"/>
    </clipPath>
  </defs>
  <g id="Group_56" data-name="Group 56" transform="translate(-714 -369)">
    <g id="Group_61" data-name="Group 61">
      <path id="Path_432" data-name="Path 432" d="M246,0C381.862,0,492,110.138,492,246S381.862,492,246,492,0,381.862,0,246,110.138,0,246,0Z" transform="translate(714 369)" fill="#7bdeb8"/>
      <g id="Group_96" data-name="Group 96" transform="translate(-67.636 -472.574)">
        <path id="Path_654" data-name="Path 654" d="M1012.869,1027.829v78.141H967.407s-9.388,35.084-35.759,42.805c-26.328,7.721-67.7,16.834-81.158-2.7.843-18.9,9.429-45.315,20.569-66.433,16.1-30.484,62.572-43.374,86.411-35.631C981.288,1051.731,1012.869,1027.829,1012.869,1027.829Z" transform="translate(0.007 8.874)" fill="#847071"/>
        <path id="Path_655" data-name="Path 655" d="M1012.876,1097.6v78.668s-34.556-4.915-66.728-4.915-81.622,0-91.748-14.071c-3.122-4.3-4.261-11.2-3.9-19.578,13.46,19.535,54.829,10.422,81.158,2.7,26.371-7.722,35.759-42.805,35.759-42.805Z" transform="translate(0 17.239)" fill="#625454"/>
        <path id="Path_656" data-name="Path 656" d="M1208.923,1174.123c-4.493,6.836-16.033,0-30.146,0H1130.7c-13.564,0-29.977,1.793-42.551-3.206-4.979,5.063-9.43,4.915-16.35,4.915h-69.977c-15.716,0-33.564-2.363-44.724-10.949,3.228-17.953,15.569-31.561,15.569-31.561s23.206,13.354,38.691,7.743c15.464-5.633,37.974-9.874,47.8-3.186,9.853,6.688,25.316,13.67,30.252,4.557,4.916-9.114,6.33,8.924,6.33,15.021s30.927,8.206,50.631,7.51c19.683-.7,35.864,0,45.7,3.523,8.227,2.933,14.071,6.836,16.75-1.75C1210.315,1169.186,1210.568,1171.612,1208.923,1174.123Z" transform="translate(12.787 21.521)" fill="#625454"/>
        <path id="Path_657" data-name="Path 657" d="M1010.89,1084.863a86.559,86.559,0,0,1-9.62,20.633c-8.755,14.219-13.376,33.48-12.911,46.286a83.906,83.906,0,0,1-14.515-6.287s-12.341,13.608-15.569,31.561c-6.54-5.022-10.8-12.193-11.013-22.257-.611-27.278,12.362-65.694,24.894-88.964,8.292-15.358,25.97-28.838,25.97-28.838,3.5-2.743,5.76-4.368,8.249-5.211-11.1,19.156-12.954,39.6-12.954,39.6S998.908,1079.589,1010.89,1084.863Z" transform="translate(11.606 9.349)" fill="#847071"/>
        <path id="Path_658" data-name="Path 658" d="M1197.3,1176.3c-2.679,8.586-8.523,4.683-16.75,1.75-9.831-3.523-26.013-4.219-45.7-3.523-19.7.7-50.631-1.413-50.631-7.51s-1.413-24.135-6.33-15.021a7.567,7.567,0,0,1-1.012,1.477,127.741,127.741,0,0,0,1.709-23.249c-.7-16.877-20.633-28.8-25.443-48.859,7.891-4.43,13.4-12.658,15.527-27.826,10.949,19.471,13.143,46.265,15.337,57.424,1.794,9.092,4.051,19.852,4.726,30.337,2.89,6.1,7.237,10.992,13.755,11.245,17.953.7,69.3,2.679,79.575,10.422C1188.547,1167.864,1194.75,1172.1,1197.3,1176.3Z" transform="translate(24.302 11.957)" fill="#847071"/>
        <path id="Path_659" data-name="Path 659" d="M1076.43,1056.238c-4.452,31.814-23.775,33.079-48.881,33.079-27.13,0-39.07-17.847-39.07-17.847s1.857-20.442,12.954-39.6c6.033-2.089,13.311.337,42.3,2.025C1059.447,1034.8,1069.637,1044.107,1076.43,1056.238Z" transform="translate(16.549 9.262)" fill="#b79e9e"/>
        <path id="Path_660" data-name="Path 660" d="M1085.182,1150.5c-5.781,6.793-19.979.253-29.24-6.034-9.83-6.688-32.34-2.447-47.8,3.186-7.426,2.679-16.6,1.034-24.176-1.456-.465-12.806,4.156-32.067,12.911-46.286a86.559,86.559,0,0,0,9.62-20.633,53.067,53.067,0,0,0,21.6,4.368c13.122,0,24.683-.338,33.353-5.253,4.81,20.063,24.746,31.983,25.443,48.859A127.741,127.741,0,0,1,1085.182,1150.5Z" transform="translate(16.004 14.936)" fill="#fff"/>
        <path id="Path_661" data-name="Path 661" d="M1004.077,1083.087c2.426-8.248,1.645-12.51,1.645-12.51,6.33-50.631,48.522-8.438,53.311,11.624-8.67,4.915-20.232,5.253-33.353,5.253A53.067,53.067,0,0,1,1004.077,1083.087Z" transform="translate(18.419 11.124)" fill="#c6bebd"/>
        <path id="Path_662" data-name="Path 662" d="M1085.178,1143.791c-1.962,12.784-5.273,24.894-8.206,28.058-4.81,5.19-78.69-14.747-87.951-19.135-3.186-1.5-4.831-6.476-5.063-13.227,7.574,2.49,16.75,4.135,24.176,1.456,15.464-5.633,37.974-9.874,47.8-3.186C1065.2,1144.044,1079.4,1150.584,1085.178,1143.791Z" transform="translate(16.007 21.643)" fill="#949293"/>
        <path id="Path_663" data-name="Path 663" d="M1101.38,1189.389c-7.152,4.008-8.923-.064-12.341-5.591-3.418-5.549-7.89-6.2-5.8-4.43s5.8,6.793,5.8,11.265c0,4.494-7.636,3.439-9.24-.781-1.561-4.219-4.473-7.658-7.109-7.658s3.944,2.384,4.493,8.185c.506,5.8-5.717,7.025-11.35,0s-13.353-12.341-28.585-12.341c-15.211,0-64.471-3.8-75.336-8.438-10.844-4.642-13.5-43.164-13.5-43.164,9.261-26.94,27.626,1.132,30.224,5.927,9.142,16.878,44.436,14.977,66.1,14.977s32.348,16.948,52.037,29.325C1102.928,1180.535,1101.086,1187.49,1101.38,1189.389Z" transform="translate(11.746 19.313)" fill="#847071"/>
        <path id="Path_664" data-name="Path 664" d="M1062.126,1196.235c-11.265-10.4-12.721-9.853-39.281-12.362-28.438-2.7-49.83-3.9-65.716-7.806s-10.823-40.337-10.823-40.337a62.823,62.823,0,0,1,2.447-10.527s2.659,38.522,13.5,43.164c10.864,4.641,60.124,8.438,75.336,8.438,15.231,0,22.952,5.316,28.585,12.341s11.856,5.8,11.35,0c-.549-5.8-7.13-8.185-4.493-8.185s5.548,3.439,7.109,7.658c1.6,4.22,9.24,5.275,9.24.781,0-4.472-3.712-9.493-5.8-11.265s2.383-1.119,5.8,4.43c3.418,5.527,5.19,9.6,12.341,5.591h.021C1103.793,1200.138,1071.853,1205.2,1062.126,1196.235Z" transform="translate(11.401 20.548)" fill="#625454"/>
        <path id="Path_665" data-name="Path 665" d="M1080.988,1015.125s7.814-23.315,7.216-40.041-5.974-25.689-18.521-19.116-24.5,28.5-24.5,28.5Z" transform="translate(23.347 0)" fill="#847071"/>
        <path id="Path_666" data-name="Path 666" d="M1052.234,981.263s9.746-16.048,16.916-21.126,10.784-4.182,13.01,2.987,1.329,36.444-4.048,39.432-15.235-8.364-20.312-12.248S1050.483,984.03,1052.234,981.263Z" transform="translate(24.122 0.374)" fill="#d29484"/>
        <path id="Path_667" data-name="Path 667" d="M974.532,1015.125s-7.814-23.315-7.216-40.041,5.974-25.689,18.521-19.116,24.5,28.5,24.5,28.5Z" transform="translate(14.008 0)" fill="#847071"/>
        <path id="Path_668" data-name="Path 668" d="M1002.065,981.263s-9.745-16.048-16.915-21.126-10.784-4.182-13.01,2.987-1.329,36.444,4.047,39.432,15.235-8.364,20.313-12.248S1003.817,984.03,1002.065,981.263Z" transform="translate(14.454 0.374)" fill="#d29484"/>
        <path id="Path_669" data-name="Path 669" d="M1090.041,1048.093a61.932,61.932,0,0,1-5.126,19.465c-1.721-1.147-4.231-1.811-7.9-1.219-10.933,1.756-18.623,6.9-24.609-4.751-5.968-11.65-20.54-9.463-20.54-9.463s-14.572-2.187-20.54,9.463c-5.987,11.65-13.676,6.507-24.609,4.751-3.674-.592-6.183.072-7.9,1.219a61.9,61.9,0,0,1-5.126-19.465c-1.254-10.754-6.256-35.255,10.629-55.562,16.9-20.326,47.55-19.717,47.55-19.717s30.649-.609,47.55,19.717C1096.3,1012.838,1091.3,1037.339,1090.041,1048.093Z" transform="translate(14.576 2.279)" fill="#847071"/>
        <path id="Path_670" data-name="Path 670" d="M1016.312,1029.186s-1.494-10.535-7.617-12.138-13.294-.409-16.878,3.475-1.1,13.592,4.678,16.43,15.561-.9,17.839-3.289S1016.781,1031.421,1016.312,1029.186Z" transform="translate(16.749 7.499)" fill="#fff"/>
        <path id="Path_671" data-name="Path 671" d="M1084.188,1059.084a36.811,36.811,0,0,1-19.86,18.891c-20.056,8.245-33.193,6.452-33.193,6.452s-13.139,1.793-33.195-6.452a36.814,36.814,0,0,1-19.859-18.891c1.721-1.147,4.23-1.811,7.9-1.219,10.933,1.756,18.622,6.9,24.609-4.751,5.968-11.65,20.54-9.463,20.54-9.463s14.572-2.187,20.54,9.463c5.987,11.65,13.676,6.507,24.609,4.751C1079.958,1057.274,1082.467,1057.938,1084.188,1059.084Z" transform="translate(15.303 10.752)" fill="#fff"/>
        <path id="Path_672" data-name="Path 672" d="M1040.258,1064.486s-5.466,1.041-8.782-1.344-4.588-2.384-4.588-2.384-1.272,0-4.588,2.384-8.783,1.344-8.783,1.344c4.625,0,7.617-3.279,9.858-4.624s1.595-8.281,1.595-8.281l1.918-2.025,1.917,2.025s-.645,6.937,1.6,8.281S1035.634,1064.486,1040.258,1064.486Z" transform="translate(19.551 11.479)" fill="#1a1818"/>
        <g id="Group_86" data-name="Group 86" transform="translate(1006.438 1024.093)">
          <path id="Path_673" data-name="Path 673" d="M1012.548,1029.559s-.6-12.132-9.559-12.563-11.351,5.32-11.351,5.32-.224,10.976,7.953,11.574S1008.63,1033.278,1012.548,1029.559Z" transform="translate(-989.51 -1016.52)" fill="#f2b460"/>
          <path id="Path_674" data-name="Path 674" d="M1002.131,1035.583c-.99,0-2.123-.049-3.443-.146-8.5-.619-8.449-13.455-8.446-13.57l-.5-.587c.1-.246,4.306-5.131,13.5-4.683,9.26.446,11.136,12.848,11.143,12.973v1.009l-1.232,1.008C1010.161,1034.438,1007.162,1035.583,1002.131,1035.583Zm-9.818-13.117c0,1.1.178,10.49,7.539,11.027,7.626.553,8.661-.438,12.113-3.731l.349-.333c-.132-1.552-1.286-11.559-9.118-11.936C995.216,1017.1,992.625,1021.824,992.313,1022.465Z" transform="translate(-989.738 -1016.568)" fill="#1a1818"/>
        </g>
        <path id="Path_675" data-name="Path 675" d="M1001.272,1019.409s-6.274,4.183,0,11.352C1001.272,1030.761,1008.143,1025.683,1001.272,1019.409Z" transform="translate(17.749 7.865)" fill="#1a1818"/>
        <path id="Path_676" data-name="Path 676" d="M1006.2,1021.537a2.214,2.214,0,1,0-2.214,2.214A2.214,2.214,0,0,0,1006.2,1021.537Z" transform="translate(18.142 7.855)" fill="#fff"/>
        <path id="Path_677" data-name="Path 677" d="M1037.424,1029.186s1.493-10.535,7.617-12.138,13.294-.409,16.878,3.475,1.1,13.592-4.679,16.43-15.56-.9-17.837-3.289S1036.954,1031.421,1037.424,1029.186Z" transform="translate(22.391 7.499)" fill="#fff"/>
        <g id="Group_87" data-name="Group 87" transform="translate(1061.794 1024.093)">
          <path id="Path_678" data-name="Path 678" d="M1040.6,1029.559s.6-12.132,9.558-12.563,11.352,5.32,11.352,5.32.223,10.976-7.954,11.574S1044.52,1033.278,1040.6,1029.559Z" transform="translate(-1038.996 -1016.52)" fill="#f2b460"/>
          <path id="Path_679" data-name="Path 679" d="M1040.4,1031.587l-1.232-1.008v-1.009c.006-.124,1.883-12.527,11.143-12.973,9.2-.448,13.4,4.437,13.5,4.683l-.5.587c0,.114.056,12.95-8.446,13.57-1.319.1-2.453.146-3.444.146C1046.388,1035.583,1043.389,1034.438,1040.4,1031.587Zm9.955-14.094c-7.833.376-8.987,10.384-9.119,11.936l.349.333c3.451,3.294,4.487,4.285,12.114,3.731,7.361-.537,7.542-9.924,7.538-11.027C1060.925,1021.824,1058.334,1017.1,1050.354,1017.493Z" transform="translate(-1039.168 -1016.568)" fill="#1a1818"/>
        </g>
        <path id="Path_680" data-name="Path 680" d="M1050.265,1019.409s6.274,4.183,0,11.352C1050.265,1030.761,1043.394,1025.683,1050.265,1019.409Z" transform="translate(23.59 7.865)" fill="#1a1818"/>
        <path id="Path_681" data-name="Path 681" d="M1045.189,1021.537a2.214,2.214,0,1,1,2.214,2.214A2.214,2.214,0,0,1,1045.189,1021.537Z" transform="translate(23.347 7.855)" fill="#fff"/>
        <path id="Path_682" data-name="Path 682" d="M1035.635,1043.965c0,2.743-5.592,1.613-6.04,5.2s-1.829,4.266-3.155,4.266-2.707-.681-3.137-4.266c-.466-3.585-6.057-2.455-6.057-5.2,0-2.76,9.194-3.083,9.194-3.083S1035.635,1041.2,1035.635,1043.965Z" transform="translate(19.998 10.439)" fill="#643f33"/>
        <g id="Group_90" data-name="Group 90" transform="translate(850.433 953.802)">
          <g id="Group_89" data-name="Group 89" clip-path="url(#clip-path)">
            <g id="Group_88" data-name="Group 88" transform="translate(-5.509 10.395)">
              <path id="Path_683" data-name="Path 683" d="M1023.138,1001.674c0,2.8-.318,5.814-.036,8.6.179,1.767.619,3.317.723,5.115a40.436,40.436,0,0,0,.874,4.164c1.611-.243.261-18.976.609-21.366.57-3.924,1.354-7.632,1.346-11.627q0-2.462,0-4.925c.008-2.309-.05-3.088-2.813-2.109,0,2.155.035,4.311.017,6.466-.02,2.44-.738,4.631-.718,7.084C1023.165,995.94,1023.138,998.807,1023.138,1001.674Z" transform="translate(-824.239 -961.164)" fill="#1e1d1e"/>
              <path id="Path_684" data-name="Path 684" d="M1015.747,1013.781a29.914,29.914,0,0,1,3.37,4.949c.563,1.076.879,3.888,2.009,4.313,1.1-.942.261-2.439-.193-3.556-.379-.934-.408-2.295-.839-3.085-.31-.568-.945-.9-1.269-1.51-.417-.781-.958-1.769-1.328-2.558a30.235,30.235,0,0,0-2.891-5.505c-1.178-1.589-2.262-2.2-2.745-4.281-.993-4.292-.3-8.873-1.318-13.164-.3-1.243.038-2.485-.216-3.7a13.366,13.366,0,0,1-.652-3.463c.028-1.319-.228-4.3-1.944-4.548-.053.206-.105.412-1.563,1.323.027,2.693.717,5.188.7,7.888-.016,2.566-.532,5.779-.035,8.283a18.453,18.453,0,0,1,.756,2.815c.05.926-.01,1.884-.016,2.813a7.933,7.933,0,0,0,1.672,5.3C1011.234,1008.871,1013.62,1011.2,1015.747,1013.781Z" transform="translate(-826.255 -961.336)" fill="#1e1d1e"/>
              <path id="Path_685" data-name="Path 685" d="M1029.972,1022.638a12.86,12.86,0,0,1,2.457-5.378c.971-1.463,1.607-3.3,2.62-4.83a5.515,5.515,0,0,1,2.127-2.219,18.721,18.721,0,0,0,1.8-1.558,3.543,3.543,0,0,0,1.677-2.821c.268-1.381.681-2.883,1.057-4.235.674-2.426,1.83-4.667,1.777-7.188-.057-2.78.708-5.385.7-8.244,0-2.234.1-4.5.007-6.727-.119-2.762-2-4.841-4.221,1.753.026,3.984.374,8.2-.554,11.965-.215.875-.632,1.782-.8,2.524-.217.978.058,1.967-.216,2.948a7.066,7.066,0,0,0-.545,2.619,11.2,11.2,0,0,1-.158,3.007c-.82,3.084-3.9,4.558-5.761,7.182-1.177,1.66-1.34,4.084-1.8,6.01C1029.934,1018.332,1028.3,1022.355,1029.972,1022.638Z" transform="translate(-823.491 -961.44)" fill="#1e1d1e"/>
              <path id="Path_686" data-name="Path 686" d="M1038.821,980.782l0-.012c0-.15,0-.3,0-.45Z" transform="translate(-822.341 -961.018)" fill="#1e1d1e"/>
              <path id="Path_687" data-name="Path 687" d="M1020.4,997.9a18.747,18.747,0,0,1,.027-3.542c0-2.343-.026-4.689,0-7.032a15.824,15.824,0,0,0-.738-3.868c-.224-1.082.108-2.265-.12-3.36-.048-.229-.507-.477-.586-.823-.172-.755.141-1.369-.1-2.159a1.771,1.771,0,0,0-2.6-1.285c.088.747.551,1.261.677,2,.1.566-.138,1.119.017,1.691.13.479.542.68.681,1.242a13.9,13.9,0,0,1-.044,2.369c.061,1.3.59,2.24.737,3.489a31.255,31.255,0,0,1-.026,3.516c0,2.3-.433,5.137.14,7.365a41.316,41.316,0,0,0,1.813,4.271,13.876,13.876,0,0,1,.854,2.07A17.005,17.005,0,0,0,1020.4,997.9Z" transform="translate(-825.043 -961.581)" fill="#1e1d1e"/>
              <path id="Path_688" data-name="Path 688" d="M1030.734,998.187a38.993,38.993,0,0,0,1.337-4.479,59.172,59.172,0,0,0-.02-7.062q0-3.351,0-6.7a15.993,15.993,0,0,0-.077-3.853c-3.669-1.513-2.251,8.752-2.54,10.256a9.954,9.954,0,0,0-.547,2.35,13.554,13.554,0,0,1-.513,3.165,11.782,11.782,0,0,0-.541,3.307c.009,1.183,0,2.365,0,3.548C1030.28,1001.338,1030.344,999.8,1030.734,998.187Z" transform="translate(-823.658 -961.544)" fill="#1e1d1e"/>
              <path id="Path_689" data-name="Path 689" d="M1002.99,1012.9a6.023,6.023,0,0,0-.084,2.887c.424.622,2,.749,2.746.818.586.054,1.983.707,2.416.456,1.1-.638-.683-4.032-.861-4.583-.577-1.79-.328-3.786-1.157-5.367l-1.582.528a13.046,13.046,0,0,1-.04,2.906C1004.188,1011.523,1003.3,1011.968,1002.99,1012.9Z" transform="translate(-826.664 -957.807)" fill="#1e1d1e"/>
              <path id="Path_690" data-name="Path 690" d="M1045.465,1008.686c-.28-.551-2.23-2.544-2.4-1.049v2.11c-1.619-.537-1.054,2-1.055,2.895a9.952,9.952,0,0,1-.475,3.882c.632.093,1.473-.422,2.173-.463.588-.032,1.349.224,1.9-.093,1.416-.814.3-2.776.14-3.868C1045.586,1010.978,1045.975,1009.691,1045.465,1008.686Z" transform="translate(-822.015 -957.809)" fill="#1e1d1e"/>
              <path id="Path_691" data-name="Path 691" d="M1002.553,977.823c.447,1,1.073.822,2.07.805a16.581,16.581,0,0,1,2.635-.015c1.149.179,1.3.587,1.868-.769.456-1.093.066-1.158,1.29-1.334a21.067,21.067,0,0,1,2.865.01,19.3,19.3,0,0,1,4.938.477,4.578,4.578,0,0,1,5.009-1.978c1.092.356,1.562,1.4,2.5,1.936a17.39,17.39,0,0,1,1.678.95c.578-.41,1.16-.745,1.747-1.122.524-.338.982-.944,1.43-1.226.681-.429,2.223-.092,3.047-.092,2.089,0,4.864-.5,6.883-.027,1,.233,2.008,1.3,2.939,1.583a13.332,13.332,0,0,0,3.363.026c2.051,0,4.312-.123,5.671,1.685.3.4.916,2.18,1.58,1.95.6-.208.611-1.586.719-2.055.186-.809.647-1.427.88-2.211.266-.893.3-1.5.642-2.377a6.856,6.856,0,0,0,.56-3.1,3.135,3.135,0,0,0-1.494-2.8,9.25,9.25,0,0,0-4.978-1.915,86.862,86.862,0,0,0-12.754-2.493,104.34,104.34,0,0,0-19.313-.33,10.73,10.73,0,0,0-5.339,1.528c-1.948,1.17-4.006,1.61-6.032,2.636a8.852,8.852,0,0,0-5.5,7.37l.118-.374C1002.344,975.568,1002.087,976.776,1002.553,977.823Z" transform="translate(-826.82 -963.085)" fill="#1e1d1e"/>
              <path id="Path_692" data-name="Path 692" d="M983.715,1034.379c1.376.484,1.79,2.133,2.876,3,.8.638,1.727,1.075,2.487,1.776,1.1,1.012,2.022,2.255,3.162,3.185a8.047,8.047,0,0,0,1.853.891c.949.454,1.72,1.242,2.633,1.753a19.787,19.787,0,0,0,2.1,1.057,9.046,9.046,0,0,0,2.023.615c.035.142.068.283,2.212-.629-.212-.987-1.27-.845-2.043-1.144a14.045,14.045,0,0,1-4.03-2.019,24.66,24.66,0,0,1-3.392-3.285,11.845,11.845,0,0,0-4.337-3.455c-.628-.288-1.391-.224-2.048-.5a12.776,12.776,0,0,0-1.294-.629A9.566,9.566,0,0,0,983.715,1034.379Z" transform="translate(-828.947 -954.538)" fill="#1e1d1e"/>
              <path id="Path_693" data-name="Path 693" d="M1052.679,1044.2a9.859,9.859,0,0,0,2.9-.507c1.591-.617,3.273-.687,4.745-1.584,1.209-.738,2.081-1.924,3.374-2.642.922-.513,1.934-.72,2.914-1.271,1.1-.616,2.252-2.036,3.6-1.909-2.563-.13-5.143,1.129-7.514,1.868-1.83.571-2.8,1.954-4.209,3.169-1.02.88-1.569.674-2.788.9-.593.112-1.536.595-2.227.809-2.13.66-4.165,1.224-6.328,1.711A22.424,22.424,0,0,0,1052.679,1044.2Z" transform="translate(-821.343 -954.31)" fill="#1e1d1e"/>
              <path id="Path_694" data-name="Path 694" d="M972.309,1032.067h-.279c-.064.019-.121.052-.186.068Z" transform="translate(-830.37 -954.815)" fill="#1e1d1e"/>
              <path id="Path_695" data-name="Path 695" d="M976.553,1025.84a29.822,29.822,0,0,1-3.633,3.97c-.727.719-3.559,2.735-3.486,3.678h2.885a10.481,10.481,0,0,0,5.436-3.809c.875-1.158.872-2.86,2.083-3.719,1.11-.788,2.366-1.8,3.572-2.513a19.634,19.634,0,0,0,2.373-1.575c.554-.436,1.98-.768,2.1-1.465-2.282-.717-5.121.72-6.958,1.875A14.554,14.554,0,0,0,976.553,1025.84Z" transform="translate(-830.659 -956.236)" fill="#1e1d1e"/>
              <path id="Path_696" data-name="Path 696" d="M988.6,1043.3a10.918,10.918,0,0,0-5-.648,20.975,20.975,0,0,1-5.011-1.038,10.623,10.623,0,0,0-2.946-.542c-1.011.009-2.644.371-3.383-.529,2.067,2.119,2.718,1.969,3.192,2.083.371.089.471.43.81.51.838.2,1.775-.153,2.612.026a17.432,17.432,0,0,0,1.814.559,20.824,20.824,0,0,1,2.647.4c.816.2,1.345.439,2.084.658.487.143.869-.012,1.366.227.33.159.6.588.888.707.807.328,1.883.059,2.754.223a26.007,26.007,0,0,0,3.271.437c-.618-.734-1.662-.667-2.45-1.187A19.814,19.814,0,0,0,988.6,1043.3Z" transform="translate(-830.32 -953.799)" fill="#1e1d1e"/>
              <path id="Path_697" data-name="Path 697" d="M1073.89,1041.036a11.983,11.983,0,0,0-5.075.99,17.628,17.628,0,0,1-2.091,1.074,7.826,7.826,0,0,1-1.286.032,3.514,3.514,0,0,0-1.159.412,11.386,11.386,0,0,1-3.151.629c-1.348.111-2.62,1.185-3.953,1.094,1.967-.086,4.147.281,6.051-.13.364-.078.626-.37,1.159-.423a11.486,11.486,0,0,0,1.331-.031c.961-.207,1.936-.374,2.9-.6,2.151-.511,3.2-1.765,5.585-1.2,1.157.275,2.238.367,3.356.673.86.236,3.047-.426,3.192.645a23.783,23.783,0,0,0-.091-3.074C1078.7,1040.545,1075.962,1041.043,1073.89,1041.036Z" transform="translate(-820.14 -953.763)" fill="#1e1d1e"/>
              <path id="Path_698" data-name="Path 698" d="M1068.273,1022.506c.66.18,1.473-.209,2.136-.063,1,.222,1.067.844,1.7,1.5,1.192,1.235,3.038,1.682,4.346,2.8.915.782,3.975,2.221,3.975,3.647l1.583-.527a2.928,2.928,0,0,0,.262-2.636c-.114-.463-.625-2.768-1.464-1.145a20.413,20.413,0,0,1-3.018-.969c-1.157-.675-2.277-1.558-3.428-2.306a28.378,28.378,0,0,0-3.9-2.306c-1.436-.637-4.666-1.235-6.249-.568C1064.756,1020.817,1067.3,1022.239,1068.273,1022.506Z" transform="translate(-819.297 -956.304)" fill="#1e1d1e"/>
              <path id="Path_699" data-name="Path 699" d="M972.527,1018.044c.612-1.232,1.236-2.375,1.844-3.589a9.3,9.3,0,0,1,1.877-2.753,12.131,12.131,0,0,0,2.172-2.52c-1.81-.115-2.229-2.248-3.219-3.283-.913-.954-2.166-1.566-3.071-2.612a12.441,12.441,0,0,1-2-3.7c-1.138,1.412-1.147,1.322-1.147,1.217,0,6.892-.948,14.459,1.725,20.931C971.6,1021.382,972.076,1018.955,972.527,1018.044Z" transform="translate(-830.733 -958.709)" fill="#1e1d1e"/>
              <path id="Path_700" data-name="Path 700" d="M969.949,999.178a1.339,1.339,0,0,0,.044.467l.436-.544Z" transform="translate(-830.598 -958.767)" fill="#1e1d1e"/>
              <path id="Path_701" data-name="Path 701" d="M1077.423,1016.957a8.26,8.26,0,0,0,.771,2.13c.431.651,1.08,1,1.495,1.69.522-1.106-.109-2.627.2-3.837.291-1.151.971-1.9,1.006-3.2.036-1.318.434-2.346.492-3.64a14.607,14.607,0,0,1,.405-3.428,7.547,7.547,0,0,0,.027-3.421q-.218.391-.438.784l-1.581-2.11a32.521,32.521,0,0,0-5.892,7.205C1075.775,1009.054,1076.844,1015.087,1077.423,1016.957Z" transform="translate(-818.135 -958.428)" fill="#1e1d1e"/>
              <path id="Path_702" data-name="Path 702" d="M1052.889,1085.136a3.48,3.48,0,0,1-2.344.935c-2.326.09-4.346.531-6.726.5-1.31-.014-2.4.457-3.675.556-1.425.11-3.361.72-4.776.512,2.273,2.11,4.671,2.546,6.356,2.137.794-.193,1.113-.57,2.084-.553a7.739,7.739,0,0,0,2.608-.555c1.838-.445,3.967.371,5.828-.093a21.9,21.9,0,0,0,2.906-.995c.833-.352,1.509-1.144,2.356-1.42a8.45,8.45,0,0,0,2.532-.763c.643-.42,1.26-.805,1.964-1.182a8.95,8.95,0,0,0,2.374-1.852c1.009-1.036,2.193-1.768,3.2-2.78a17.85,17.85,0,0,0,3.632-4.912,29.2,29.2,0,0,1,1.732-2.827,18.455,18.455,0,0,1,1.7-2.934c1.192-1.362,2.672-2.652,2.933-4.454.063-.432.231-2.849-.1-3.133-.393-.335-1.378.307-1.694.532-.786.559-.923,1.179-1.509,1.946-.291.381-.8.621-1.067,1.016a14.188,14.188,0,0,0-.767,1.842c-.316.626-.546,1.215-.8,1.875a24,24,0,0,1-1.98,4.876,29.244,29.244,0,0,1-3.164,3.255,26,26,0,0,1-6.474,5.287,27.581,27.581,0,0,1-5.1,2.534A6.02,6.02,0,0,0,1052.889,1085.136Z" transform="translate(-822.755 -951.319)" fill="#1e1d1e"/>
              <path id="Path_703" data-name="Path 703" d="M1021.746,1107.051c-2.781-.69-5.637-.952-8.307-1.985-2.209-.856-4.468-1.561-6.678-2.4a39.446,39.446,0,0,1-4.824-1.97c-3.065-1.658-6.089-3.432-9.169-5.062-1.637-.866-3.1-1.9-4.667-2.861a15.062,15.062,0,0,1-3.157-2.905,56.7,56.7,0,0,1-4.061-5.519,8.1,8.1,0,0,1-1.583-2.637,8.889,8.889,0,0,0-1.889-2.664,20.008,20.008,0,0,1-1.7-2.346c-.4-.675-.691-2.29-1.569-.263.068,1.327,1.027,2.446,1.611,3.576.458.887.609,1.832,1,2.753a14.658,14.658,0,0,0,3.062,4.888c.975.83,1.832,1.522,2.78,2.392.659.6,1.28,1.25,1.965,1.832,2.175,1.85,4.084,4.175,6.461,5.785a72.686,72.686,0,0,0,10.562,5.671,36.044,36.044,0,0,1,4.463,2.635,11.492,11.492,0,0,0,3.422,1.455c2.111.645,4.242.469,6.353,1.04,1.851.5,3.69.713,5.54,1.134a18.637,18.637,0,0,0,4.494.593c1.223,0,2.445,0,3.667,0,1.306,0,6.014.737,6.275-.923-1.012-.7-1.915-.585-3.073-.775-1.942-.32-3.885-.608-5.837-.9A49.087,49.087,0,0,1,1021.746,1107.051Z" transform="translate(-830.094 -949.613)" fill="#1e1d1e"/>
              <path id="Path_704" data-name="Path 704" d="M1082.351,1076.807c-.6.12-1.514,2.48-1.792,3.052-.522,1.074-.822,2.221-1.3,3.308-.357.81-.831,1.58-1.252,2.346-.447.813-.76,1.6-1.24,2.385a39.736,39.736,0,0,1-14.8,14.358c-2.974,1.6-6.152,3.491-9.6,4.1a83.5,83.5,0,0,1-14.65,1.039,3.22,3.22,0,0,0,3.164,2.11,11.215,11.215,0,0,0,3.165-.41c.886-.231,1.761.065,2.637-.091.579-.1,1.006-.491,1.582-.584a15.2,15.2,0,0,0,1.582-.088c2.123-.542,4.231-.335,6.475-.4a16.6,16.6,0,0,0,6.708-1.991,45.6,45.6,0,0,0,4.76-3.294,27.8,27.8,0,0,0,4.35-3.549c.558-.576.875-1.283,1.412-1.845a22.687,22.687,0,0,0,1.992-2.111,33.8,33.8,0,0,0,4.247-6.59,49.566,49.566,0,0,0,2.623-6.436C1082.638,1081.312,1083.909,1076.5,1082.351,1076.807Z" transform="translate(-822.472 -949.453)" fill="#1e1d1e"/>
              <path id="Path_705" data-name="Path 705" d="M1085.173,1114.255c-1.181,1.3-1.916,2.815-3.3,3.969-1.046.875-2.337,1.174-3.551,1.9-1.175.7-2.295.718-3.542,1.362-1.358.7-2.519,1.838-3.886,2.469-2.207,1.019-4.7.456-7.071.569-2.67.128-4.1,3.041-6.856,3.2-1.426.08-1.953-.036-3.137.647-.879.506-1.817.966-2.664,1.448-.871.494-1.835.662-2.651,1.044-.875.41-1.123.836-2.1,1.068a11.713,11.713,0,0,1-3.137.526c-1.27-.008-2.54.01-3.81,0-1.68-.01-3.015.485-4.63.522a7.45,7.45,0,0,1-2.164-.113c-.588-.16-.881-.517-1.555-.411a14.675,14.675,0,0,1,.284,2.181,9.263,9.263,0,0,1,3.126-.026,21.946,21.946,0,0,0,3.212.537,22.332,22.332,0,0,0,2.868-.609c.854-.115,1.765.1,2.631.053a15.925,15.925,0,0,0,3.175-.7c1.055-.278,2.132-.231,3.175-.483.914-.221,1.7-.742,2.609-.966,2.712-.666,5.344-1.482,8.034-2.213,1.384-.376,2.744-1,4.112-1.346,1.078-.269,1.85-.028,2.857-.642.972-.592,1.736-1.516,2.688-2.135.742-.481,1.651-1.382,2.362-1.787.616-.349,1.379-.507,2.089-.83a14.09,14.09,0,0,1,1.622-.542c.247-.077.95-.349,1.16-.4,2.252-.489,4.954-.112,7.279-.118a7.73,7.73,0,0,1,3.562.532,17.363,17.363,0,0,1,1.7.755c.571.328.771,1.019,1.506,1.178.54-1.574.081-4.319.08-5.925a44.953,44.953,0,0,0-.5-8.1c-.289-1.531-1.634-1.327-2.53-.436a9.133,9.133,0,0,0-1.162,1.844A16.74,16.74,0,0,1,1085.173,1114.255Z" transform="translate(-823.263 -945.503)" fill="#1e1d1e"/>
              <path id="Path_706" data-name="Path 706" d="M1031.393,1131.972c-.031.009-.074.01-.1.02C1031.337,1132.053,1031.383,1132.1,1031.393,1131.972Z" transform="translate(-823.244 -942.838)" fill="#1e1d1e"/>
              <path id="Path_707" data-name="Path 707" d="M1120.521,1139.621c-4.88-1.012-9.641-2.333-14.586-2.855-2.889-.306-7.062-.53-9.285-2.653-1.433-1.369-2.9-1.906-4.5-2.913-.19.646-.216,1.309-2.187-1.176l-.427.1c.045,1.974-3.36,2.656-4.706,2.93-2.539.515-5.21,1.111-7.284,2.743a6.277,6.277,0,0,0-1.429,2.15,6.8,6.8,0,0,1-1.836,1.951,18.384,18.384,0,0,1-2.87,2.266c-1.361.793-2.583.8-4.033,1.171-3.367.86-7.274.437-10.788.4a27.919,27.919,0,0,0-5.525.935,20.608,20.608,0,0,1-4.767.091c2.61,1.085,5.893.753,8.66,1.214a40.981,40.981,0,0,0,7.074.921c2.454-.007,4.387-.869,6.846-1.053a5.252,5.252,0,0,0,2.756-.925c1.036-.569,1.775-1.5,3.047-1.737a5.214,5.214,0,0,0,1.7-.346c.632-.319,1.211-.782,1.865-1.094.585-.28,1.233-.458,1.811-.749a13.786,13.786,0,0,0,2.263-1.7,7.828,7.828,0,0,1,6.278-1.311c.769.2,1.249.866,1.877,1.287a18.484,18.484,0,0,0,2.124,1.04c4.69,2.283-3.04,4.848-5,5.578a36.6,36.6,0,0,0-10.082,5.547c-.671.578-3.7,3.214-2.7,4.272,1.851-.438,3.425-1.608,5.136-2.384a17.623,17.623,0,0,1,3.7-1c1.035-.225,1.812-.8,2.783-1.1q.667-.079,1.323-.221a2.013,2.013,0,0,1,.589-.558c1.809-.831,3.463-1.859,5.3-2.635,4.727-1.994,11.125-4.77,16.216-2.309-.677,1.628-2.351,2.562-3.273,4.04a26.486,26.486,0,0,0-1.485,3.159c-1.3,2.9-1.468,6.869-1.443,10.005.006.712-.373,2.484.083,3.081,1.275,1.666,1.649-1.052,1.768-1.777.41-2.515.644-4.885,1.86-7.164.666-1.249,1.38-2.437,2.109-3.63.819-1.337,1.458-3.078,2.741-4.088a9.3,9.3,0,0,1,1.709-.705,9.647,9.647,0,0,1,2.393-1.023c.964-.148,1.79-.341,2.754-.515a15.3,15.3,0,0,0,2.84-.8c2.131-.761,4.764-.131,6.973-.2a11.861,11.861,0,0,0,3.167-.557c.921-.278,2.484-.418,3.281-1.038C1136.022,1141.653,1121.533,1139.831,1120.521,1139.621Z" transform="translate(-821.444 -943.072)" fill="#1e1d1e"/>
              <path id="Path_708" data-name="Path 708" d="M1155.962,1147.572c.456-.1.419-.641,1.173-.41l-4.22-1.582c-.4,1.293-1.429.113-2.079-.027a21.116,21.116,0,0,0-3.677.022c-2.082-.039-3.241,1.461-4.908,2.511-1.788,1.124-3.434,1.8-4.23,3.81-.435,1.1-1.85,4.279.01,4.717a8.6,8.6,0,0,1,.488-1.993c.347-.544.494-.323.928-.7a32.377,32.377,0,0,0,2.948-2.935c.948-1.091.852-1.145,2.352-1.182a4.9,4.9,0,0,0,2.238-.664,20.725,20.725,0,0,1,2.122-.5c.382-.135.7-.687,1.16-.844a4.877,4.877,0,0,1,1.594-.1c.878-.009,1.758-.015,2.636,0A5.864,5.864,0,0,0,1155.962,1147.572Z" transform="translate(-810.559 -941.222)" fill="#1e1d1e"/>
              <path id="Path_709" data-name="Path 709" d="M1164.826,1147.462c-1.414,0-3.277-.3-4.644.105-.433.126-1.008.676-1.555.832a13.583,13.583,0,0,0-1.974.64,6.9,6.9,0,0,0-3.456,3.04c-.251.432-.651,1.552-1.074,2.466a38.372,38.372,0,0,1,4.509-3.1,5.891,5.891,0,0,1,4.121-1.344c1.182.011,2.365-.019,3.547,0a24.8,24.8,0,0,0,3.6-.614l.091-.439Z" transform="translate(-808.758 -940.994)" fill="#1e1d1e"/>
              <path id="Path_710" data-name="Path 710" d="M1151.261,1155.1c.3-.04.64-.624.964-1.325C1151.672,1154.272,1151.276,1154.74,1151.261,1155.1Z" transform="translate(-808.861 -940.224)" fill="#1e1d1e"/>
              <path id="Path_711" data-name="Path 711" d="M1007,1171.682a13.213,13.213,0,0,1,1.665-1.453c.522-.283,1.171-.343,1.721-.623,2.6-1.317,5.267-2.823,7.825-4.253,3.385-1.892,6.763-1.849,10.574-2.612,4.472-.895,9.071-2.231,13.667-2.137a13.944,13.944,0,0,0,5.105-.5c.987-.335,3.541-.324,4.141-1.211-1.215-.829-3.494-.383-4.92-.384a17,17,0,0,1-5.518-.645,12.364,12.364,0,0,0-3.4-.962c-.8-.033-1.624.029-2.429.025-1.874-.01-3.57.459-5.417.528-1.359.05-2.436.541-3.823.526a19.914,19.914,0,0,0-4.475.054c-1.941.459-3.86,1.749-5.8,2.36a22.388,22.388,0,0,0-2.912,1.017c-1.832.866-3.421,2.122-5.289,2.918a46.238,46.238,0,0,0-6.811,4.206c-1.876,1.236-3.9,2.44-5.949,3.7a19.844,19.844,0,0,1-4.756,2.112c-1.379.4-2.813.468-4.2.82-1.349.343-2.948,1.38-4.36,1.339-1.343-.037-2.678-.615-4.093-.607-.62,0-1.306.227-1.674-.25-.708-.917.334-4.242.435-5.176.256-2.382,1.54-2.288,3.132-3.655.849-.73,1.183-1.562,2.222-2.124.951-.514,2-.877,2.924-1.436.549-.33,1.117-1.061,1.784-1.13.805-.083,2.469.923,3.162,1.189a51.223,51.223,0,0,0,6.779,2.6c-.078-1.072-1.44-1.651-2.182-2.185-1.485-1.069-2.626-2.591-4.126-3.616-1.7-1.161-3.51-1.208-5.457-1.857-1.053-.35-2.3-1.207-3.412-1.356-.522-.069-1.106.172-1.615.05-.609-.145-.844-.449-1.52-.567a20.039,20.039,0,0,0-2.331.039,34.185,34.185,0,0,1-5.069-.555,3.966,3.966,0,0,1-1.549-.649,10.689,10.689,0,0,1-4.219-3.4,21.921,21.921,0,0,1-2.175-5.774c-.769-2.753-1.681-5.533-1.594-8.415a53.116,53.116,0,0,1,.485-7.345c.533-3.208,1.583-6.064,1.661-9.368a29.022,29.022,0,0,1,.484-4.039c.236-1.454.527-2.921.806-4.384.6-.283.682-1.433.805-2.079a15.8,15.8,0,0,1,1.3-4.894c1.616-2.941,1.4-5.509.911-8.617-.232-1.474,1.113-3.312,1.477-4.851.367-1.557,1.553-3.2,1.687-4.73,1.132.036.958,2.358,1.449,3.084.475.7.931.76,1.506,1.261a8.194,8.194,0,0,1,2.1,2.982c1.113,3.172.736,6.909,2.75,9.777.438.625.936.768,1.47,1.311a18.642,18.642,0,0,1,1.029,1.61,26.97,26.97,0,0,0,3.865,3.821c.13.119.244.252.368.377.108.506.223,1.012.376,1.521a28.908,28.908,0,0,0,1.978,4.625,18.191,18.191,0,0,1,1.86,3.89,8.052,8.052,0,0,0,1.167,2.774,76.482,76.482,0,0,0,5.391,7.1c1.96,2.417,4.275,4.106,4.146,7.453-.025.63.159,1.031-.5,1.2a6.652,6.652,0,0,1-1.195-.465q-.964-.121-1.931-.219a8.858,8.858,0,0,1-1.828-1.558c-1.482-1.281-3.187-2.394-4.768-3.537-1.673-1.207-3.415-2.3-5.094-3.5-1.159-.826-2.749-2.769-4.183-2.908-.488,1.7,1.576,3.474,2.562,4.623,1.6,1.867,4.376,3.064,6.342,4.561a40.037,40.037,0,0,1,5.627,5.031c1.594,1.776.484,4.326-1.912,4.791a18.38,18.38,0,0,1-3.233-.026c-1.612,0-3.223-.01-4.835-.02-1.436-.009-3.855-.421-5.024.574a73.065,73.065,0,0,1,24.258,2.479,20.328,20.328,0,0,0,5.211,1.2,7.55,7.55,0,0,1,2.6.5c1.645.588,4.55,1.065,6.287.438-.25-1.522-3.714-2.331-4.95-2.783a10.941,10.941,0,0,1-5.939-5.564c.623,0,1.414.9,1.977,1.214.692.381,1.426,1.038,2.115,1.346.937.417,2.267.243,3.307.617a14.553,14.553,0,0,0,2.8.571c.992.178,1.9.664,2.858.9q.781.138,1.57.217a10.531,10.531,0,0,1,1.715.861c1.21.333,5.406.212,6.06-1.11-.712-.6-2.035-.441-2.912-.764-.9-.33-1.688-.821-2.623-1.082-1.451-.405-2.914-.811-4.338-1.157a21.483,21.483,0,0,1-5.695-2.533,13.994,13.994,0,0,1-3.752-2.558c-.048-.2-.092-.406-.134-.609a3.666,3.666,0,0,0-.981-.512,11.9,11.9,0,0,1-1.144-1.042,20.66,20.66,0,0,0-2-1.329q-.529-.417-1.067-.821-.474-.092-.937-.222c-1.135-.878-2.065-2.875-2.717-4.078-.751-1.383-1.831-2.551-2.688-3.869-.43-.663-.769-1.759-1.558-1.956-1.042-3.073-1.89-2.775-3.034-3.653a8.817,8.817,0,0,1-2.347-3.39c-.293-.767-.627-1.519-.969-2.268.109-1.024-1.028-2.322-1.406-3.123-.824-1.749-1.441-3.589-2.3-5.325a17.111,17.111,0,0,1-1.533-5.03,89.041,89.041,0,0,0-2.521-12.02c-.219-.7-.524-1.405-.685-2.11-.122-.53.113-1.031-.076-1.595-.213-.634-.806-.933-.975-1.542a2.8,2.8,0,0,1-.028-.918c.054.063.1.124.156.188a18.5,18.5,0,0,1,1.993,3.352c.771,1.264,1.838,2.477,2.651,3.678.364.538.789,1.016,1.186,1.571.489.687.633,1.442,1.028,2.111a9.527,9.527,0,0,1,1.432,2.385,14.041,14.041,0,0,0,.72,2.373c.754,1.7,1.063,3.579,1.817,5.275,1.258,2.826,1.418,5.72,2.917,8.411a55.427,55.427,0,0,0,6.157,8.323c2.259,2.688,5.043,4.88,7.326,7.55,1.336,1.561,2.573,3.644,4.191,4.9a26.922,26.922,0,0,0,5.876,3.091c2.383,1.022,4.646,2.229,6.977,3.346a31.258,31.258,0,0,0,8.583,2.245,29.346,29.346,0,0,0,5.515.654c1.566-.063,1.433-.891.082-1.487a29.572,29.572,0,0,0-3.5-.643c-1.056-.282-2.156-.552-3.2-.887a79.781,79.781,0,0,1-8.037-3.6c-5.6-2.521-10.173-6.354-14.941-10.14a36.688,36.688,0,0,1-5.813-5.954c-.65-.8-3.085-2.983-3.072-4.219,1.943.04,4.351,2.684,5.892,3.743,2.065,1.417,4.209,2.714,6.286,4.11a47.835,47.835,0,0,0,5.522,3.467,13.236,13.236,0,0,1,2.132,1.114c.451.33.662.782,1.278.727.13-1.124-2.027-2.553-2.737-3.252-1.293-1.273-2.356-3.167-3.763-4.278-2.717-2.145-5.265-4.917-8.246-6.714-1.3-.784-2.844-1.232-4.1-2.047a23.259,23.259,0,0,1-3.267-3.182,29.552,29.552,0,0,1-6.857-9.629c-.979-2.376-2.447-4.689-3.051-7.205a31.311,31.311,0,0,0-1.393-5.625,64.276,64.276,0,0,0-3.447-6.22,48.915,48.915,0,0,1-3.044-6.656c-.7-1.751-1.588-3.448-2.254-5.218a28.646,28.646,0,0,0-.41-6.143c0-.016,0-.03-.007-.046,1.359-.8,1.167-3.192,1.575-4.415a8.794,8.794,0,0,1,1.877,1.24,20.381,20.381,0,0,1,1.2,2.314,6.91,6.91,0,0,1,.87,2.511c.234,1.1,1.282,7.031,3.051,6.063.61-.334.289-1.971.286-2.608a52.424,52.424,0,0,1,.555-5.3c.016-.179.01-.356.012-.534a23.832,23.832,0,0,0,1.073,2.878,31.939,31.939,0,0,0,1.627,4.393c1.146,2.217,3.2,4.136,4.639,6.168s3.475,3.454,4.9,5.422a12.686,12.686,0,0,0,2.492,2.429,25.181,25.181,0,0,0,2.626,2.051,34.442,34.442,0,0,0,7.131,2.771,37.334,37.334,0,0,0,10.151,1.831c1.925.069,3.7.533,5.658.527,1.493,0,2.985,0,4.478,0,3.29,0,6.6-.118,9.893.012a20.848,20.848,0,0,1-5.139-1.212c-1.457-.415-2.882-.462-4.326-.793-3.255-.749-6.734-.245-9.914-1.319-3.636-1.226-7.531-1.429-11.075-3.108q-1.268-.721-2.55-1.419a10.064,10.064,0,0,0-2.354-.7c-1.1-.535-1.93-1.446-3-2.038-2.259-1.254-4.163-2.1-5.827-4.191a29.34,29.34,0,0,1-2.982-4.6c-.811-1.551-2.065-2.789-2.922-4.347a22.4,22.4,0,0,1-1.575-4.644c-.533-1.713-1.827-2.822-2.016-4.746-.009-.093,0-.188,0-.282.052-.118.107-.227.155-.349a10.992,10.992,0,0,1,.486-1.49c.326-.355,1.042-.5,1.443-.765-.5-.982-.234-1.635-.523-2.723a4.887,4.887,0,0,0-.485-1.048c.031-.707-.6-1.495-.794-2.156-.231-.8-.645-1.609-.814-2.351-.092-.406.057-.89-.015-1.3-.058-.334-.428-.441-.513-.806-.116-.5.045-.977-.09-1.492-.09-.345-.488-.587-.5-1.084-.44-.054-1.379-.509-1.622-.513-.732-.01-.748.136-1.438.438-.805.353-1.657.261-2.207.931a6.071,6.071,0,0,0-1.325.658c-.834-.171-1.771,0-2.617-.129-1.344-.207-2.827-.636-4.138-.961a12.318,12.318,0,0,0-3.637-.507l-.239-1.43a6.233,6.233,0,0,0-5.434-3.754q-3.825-.808-7.561-1.978l-7.671-1.907a62.429,62.429,0,0,0-16.623-.312,96.711,96.711,0,0,0-21.471,3.105l-16.151,5.41a31.714,31.714,0,0,0-15.554,10.791q-3.482,1.885-2.927,5.4a128.227,128.227,0,0,0,21.531-5.221c2.9-1.009,5.57-2.346,8.36-3.592,3.556-1.587,7.458-1.591,11.166-2.318,2.288-.448,4.725-.335,7.045-.629,2.157-.274,4.494-.071,6.6-.485,1.758-.346,3.329-1.212,5.105-1.432,2.011-.25,3.985.105,5.967-.391a21.171,21.171,0,0,0,2.04-.716,13.834,13.834,0,0,1,3.962.521c2.469.53,5.062.534,7.487,1.047,1.932.408,3.272,3.819,4.245,5.419,1.468,2.415,1.767,3.655,1.1,6.288-.729,2.876-2.791,5.514-3.016,8.54-.172,2.318-.828,4.977.26,7.18-2.266,2.647-4.9,4.567-8.527,4.383-1.762-.09-3.175-1.4-4.651-2.239a12.4,12.4,0,0,0-5.322-1.745c2.169,1.995,2.473,4.379,2.516,7.153.028,1.739.544,3.351.534,5.1-.014,2.29-.7,4.043-1.115,6.333-.014.077-.031.155-.046.232-.436-1-1.96-1.773-2.536-2.65-1.03-1.565-1.277-3.82-2.091-5.514-.284-.591-.729-.912-1.084-1.526a17.764,17.764,0,0,1-.641-1.782,22.3,22.3,0,0,0-2.194-3.815c-1.254-1.735-2.428-3.583-4.533-4.346a9.768,9.768,0,0,0-2.979-.66,63.676,63.676,0,0,1-11.208-1.606,35.006,35.006,0,0,0-7.66-.486c-6.237-.029-12.342,2.847-17.759,5.707a10.253,10.253,0,0,1-2.309.661,23.048,23.048,0,0,0-5.213,2.6,28.127,28.127,0,0,0-5.058,4.508,11.064,11.064,0,0,0-1.766,2.037c-.684,1.09-.811,2.371-1.559,3.407-1.082,1.5-2.764,2.5-3.9,3.979-1.418,1.85,0,2.025,1.744,1.853.466-.046,1-.074,1.526-.131a3.682,3.682,0,0,1,.215,1.837c.027,1.176.749,2.465.585,3.612a23.659,23.659,0,0,0-.548,3.09,6.253,6.253,0,0,1-1.194,3.191c-.923-.417-1.089-.489-1.874.015-.534.343-.392.72-1.147.972-.691.229-1.267-.056-1.938.026-1.671.2-2.8,2.4-4.452,2.114.188-3.863.961-7.757,1.4-11.61.412-3.612,1.4-7.117,1.875-10.689-1.227.557-2.551,2.46-3.225,3.625-1.41,2.435-3.214,4.514-4.84,6.811-2.188,3.088-3.95,6.416-6.06,9.555-1.563,2.327-3.213,4.6-4.6,7.043-.561.99-.916,2.14-1.5,3.1-.325.536-.837.866-1.15,1.422-.89,1.579-.016,4.149.18,5.882.354,3.132.445,6.278.694,9.417a13.906,13.906,0,0,0,.5,3.5c.654-.173.623-.685.894-1.215a13.662,13.662,0,0,1,1.869-2.63c1.32-1.546,2.593-3.166,3.98-4.651.539-.577,5.969-6.169,5.9-3.189.733.019,2.488-2.547,3.051-3.228,1.234-1.5,2.186-2.329,4.267-2,.944.148.533-.176,1.031.5.291.394.3,1.171.623,1.632.867,1.243,2.693,2.157,3.774,3.328a40.252,40.252,0,0,0,7.706,6.679c1.506,1,3.108,1.906,4.542,3,1.557,1.188,2.439,2.867,3.622,4.4,1.382,1.791,10.583,10.37,11.384,4.466a11.585,11.585,0,0,0-.663-4.047c-.7-2.962-1.588-5.853-2.4-8.781-.648-2.336-1.29-4.673-2.082-6.95a49.436,49.436,0,0,0,6.72,4.4,14.283,14.283,0,0,0,4.691,1.7c1.075.164,2.19.078,3.261.262,3.08.529,6,2.333,8.9,3.455,2.245.87,4.173,1.064,6.369-.18,1.4-.794.945-1.632,1.015-3.084a31.554,31.554,0,0,1,1.14-5.334c.547-2.352,1.018-4.837,1.412-7.211.506-3.046-.017-6.131.515-9.192a17.831,17.831,0,0,0,.137-4.594c-.258-2.2-1.057-4.3-1.094-6.653-.025-1.562.014-3.131.019-4.693a7.119,7.119,0,0,0-.084-2.49,19.805,19.805,0,0,0-2.444-3.451c-.635-.835-1.071-1.714-2.226-1.479-1.083.22-1.253,1.494-1.64,2.4-1.068,2.5-.815,5.879-3.707,7.169-1.153.514-2.4.7-3.559,1.244-1.734.821-3.291,1.841-4.933,2.817-3.048,1.809-6.156,3.543-9.3,5.178a10.333,10.333,0,0,0-2.556,1.775c-1.274-1.035-3.978-.495-5.443-.495a15.624,15.624,0,0,1-4.064-.107,16.514,16.514,0,0,1-2.332-1.475c-.961-.536-2.235-.62-3.139-1.164-1.194-.718-1.623-2.336-2.17-3.516-.616-1.327-2.152-3.771-1.373-5.313l.446-.028c-.475-1.717-.61-1.551-.935-1.613a2.278,2.278,0,0,1-.19-1.121c.026-.023.048-.056.076-.077,1.44-1.15,3.241-1.316,4.681-2.361,1.625-1.178,2.93-2.783,4.587-3.943a33.274,33.274,0,0,1,6.119-3.152c1.3-.554,2.635-1.084,3.961-1.585,1.3-.49,2.912-.638,4.149-1.249a16.444,16.444,0,0,1,1.916-1.174,12.579,12.579,0,0,1,2.528-.125c.917-.107,1.749-.445,2.681-.505a22.061,22.061,0,0,0,2.295-.018c.6-.1,1.421-.578,2.113-.745a10.193,10.193,0,0,1,4.5-.007c2.006.372,4.051.527,6.063.862,2.058.343,3.156.517,4.543,2.125.76.88,1.4,1.859,2.2,2.7a10.461,10.461,0,0,1,2.572,3.148c.961,2.393,1.2,5.266,1.783,7.769a36.773,36.773,0,0,1,1.33,8.383c-.026,1.559.66,2.345,1.054,3.816.731,2.733.393,5.561.476,8.338a11.255,11.255,0,0,0,.567,2.972,18.071,18.071,0,0,1,.525,5.4c0,1.31-.363,3.188.373,4.357a10.288,10.288,0,0,0,1,1.234,49.017,49.017,0,0,1-.833,6.785c-.741,3.643-1.4,7.177-4.139,9.812a11.006,11.006,0,0,1-3.371,2.3c-2.3,1.085-3.494,2.718-5.053,4.667a5.957,5.957,0,0,1-3.135,2.073,41.311,41.311,0,0,1-6.764,1.361c-1.823.243-3.662.013-5.443.387-.261,1.186.706,1.772.174,2.784-.485.926-2.666,1.73-3.641,2.262a2.924,2.924,0,0,0-1.45,1.19,11.944,11.944,0,0,0-1.521,2.341c-.406,1.2-.62-.158,0,1.235.351.786,1.26,1.323,1.552,2.178.413,1.21.105,2.587.508,3.889a17.346,17.346,0,0,0,3.512,6.844c1.437,1.571,3.053,2.8,3.811,4.888.746,2.057.686,2.794,3.057,3.562a25.037,25.037,0,0,0,5.358,1.357c2.662.238,5.38.945,8.031,1.084,2.767.143,5.387.747,8.157.974,1,.083,7.183.345,8.154-.956.6-.807-.016-1.776-.367-2.558-.937-2.09-1.408-4.335-2.295-6.428-.48-1.136-1.624-2.369-1.934-3.485-.148-.531.086-1.036-.026-1.57-.1-.465-.391-.676-.5-1.076-.329-1.207-.4-2.878-1.105-3.982a12.726,12.726,0,0,0-2.929-2.6,32.093,32.093,0,0,0-3.916-2.044c-2.343-1.312-4.637-2.979-6.906-4.431.295-.633.468-1.371.816-1.958.153-.256.512-.375.69-.625.151-.21.029-.633.208-.82.989-1.036,2.9-1.564,4.114-2.33,1.148-.724,2.275-1.352,3.44-2.056.8-.48,1.456-1.04,2.295-1.457.239-.118.59.024.829-.119,1.774-1.053,2.917-3.344,3.614-5.214.39-1.044,1.016-2.154,1.348-3.179.29-.9.131-1.721.473-2.626.721-1.908.749-3.908,1.329-5.851.389-1.3.476-2.52.925-3.745.529-1.443.784-3.081,1.185-4.567a5.132,5.132,0,0,0,.393-1.672,2.448,2.448,0,0,0-.368-1.711c-.745-1.233-2.193-1.225-3.212-2.113-1-.87-.659-2.324-.633-3.559a20.8,20.8,0,0,1,1.053-5.7,16.612,16.612,0,0,0,1.055-5.379,21.928,21.928,0,0,1,.541-3.15c.514-4.908,3.4-9.276,5.828-13.658a14.807,14.807,0,0,1,2.518-3.431c1-.989,2.016-1.973,3.02-2.946a6.333,6.333,0,0,1,1.8-1.511c.669-.239,1.118-.112,1.713-.465.79-.467.9-1,1.319-1.766a7.921,7.921,0,0,0,1.308-2.543c.133.056.268.134.4.2q-.007.762-.016,1.526a40.069,40.069,0,0,0-.5,5.546c.036,3.077-.667,5.713-1.009,8.726-.325,2.854-.134,5.935-.689,8.762a17.9,17.9,0,0,0-.411,3.659,12.223,12.223,0,0,1,.011,1.595c-.081.592-.412.877-.495,1.349-.2,1.142-.449,1.909-.679,3.035a30.253,30.253,0,0,1-1.336,4.221,64.282,64.282,0,0,0-1.954,8.205,134.645,134.645,0,0,0-3.459,27.624,14.312,14.312,0,0,0,.674,4.746,27.66,27.66,0,0,1,.953,3.884c.327,2.043,1.255,3.994,1.563,6.017a21.925,21.925,0,0,1-.026,3.114,15.636,15.636,0,0,0,.515,5.593c.373,1.016.707,2.049,1.072,3.063.208.58.761.588.523,1.391l2.637,11.6v-2.86a9.8,9.8,0,0,0,.115,1.569c.393,2.295,1.753,1.981,4.2,1.853,4.42-.229,8.429-2.07,12.479-3.644a68.458,68.458,0,0,0,10.927-5.045c4.7-2.82,9.146-6.064,13.956-8.709A17.168,17.168,0,0,0,1007,1171.682Z" transform="translate(-845.514 -954.677)" fill="#1e1d1e"/>
              <path id="Path_712" data-name="Path 712" d="M1047.235,1148.836a1.44,1.44,0,0,0,.968.2A2.605,2.605,0,0,0,1047.235,1148.836Z" transform="translate(-821.332 -940.817)" fill="#1e1d1e"/>
              <path id="Path_713" data-name="Path 713" d="M1032.94,1153.823c3.876-1.1,7.421-3.552,11.453-4.055,1.28-.16,2.523-.488,3.776-.586,1.517-.119,3.152.023,4.667.013.472,0,1.128-.068,1.74-.032-.784-.437-1.423-1.4-2.2-1.591-1-.244-2.08-.058-3.151-.343-2.524-.671-4.5-1.468-7.089-.955-4.98.987-10.142,1.4-14.035,5.029-1.851,1.727-4.115,3.048-5.557,5.255a14.907,14.907,0,0,0-1.685,4.176,22.286,22.286,0,0,1-.945,3.215,35.43,35.43,0,0,1-2.125,3.477c-1.336,2.324-3.386,5.212-5.752,6.51-.777.427-1.82.686-2.659,1.1-.782.387-2.02,1.567-2.821,1.551-.687-1.651.3-3.863-.159-5.609-.45-.335-4.687,3.941-5.2,4.327-1.23.932-2.377,2-3.63,2.9-2.926,2.091-6.475,3.4-9.687,4.97l1.188-.226c-3.131,3.833-3.1,3.974-3.063,4.117.477.029.707.386,1.048.5.716.233,1.5.334,2.232.512a29.122,29.122,0,0,0,10.5.6c3.8-.506,7.32-2.849,10.146-5.3,2.476-2.148,3.988-4.542,5.911-7.079a38.689,38.689,0,0,0,2.346-3.374,16.285,16.285,0,0,0,1.4-2.92,48.166,48.166,0,0,1,2.652-4.727c.494-.932,1.006-1.778,1.594-2.714a22.7,22.7,0,0,1,2.06-2.724,7.565,7.565,0,0,0,1.118-2.21C1028.095,1155.33,1030.706,1154.459,1032.94,1153.823Z" transform="translate(-828.673 -941.143)" fill="#1e1d1e"/>
              <path id="Path_714" data-name="Path 714" d="M1030.528,1175.273c-1.324,1.6-2.681,3.123-4.145,4.589-.432.432-2.23,1.794-2.2,1.893-.471,1.644-1.587,2.772-1,3.688.8.031,1.974-1.359,2.656-1.814a18.34,18.34,0,0,0,3.626-2.783c1.249-1.369,2.6-2.556,3.923-3.847.793-.773,1.346-1.656,2.063-2.432a19.273,19.273,0,0,1,7-4.594,34.231,34.231,0,0,0,7.152-3.556c.879-.645,1.756-1.7,2.946-1.548-5.74.05-11.773,2.912-16.766,5.527A18.973,18.973,0,0,0,1030.528,1175.273Z" transform="translate(-824.234 -938.896)" fill="#1e1d1e"/>
              <path id="Path_715" data-name="Path 715" d="M869.067,1072.374c1.355-.067,3.231-1.2,4.5-1.731,1.181-.493,2.134-1.292,3.333-1.78,2.841-1.152,5.744-2.222,8.612-3.26,2.121-.767,4.505-1.251,6.694-1.83,2.36-.624,4.82-.553,7.175-1.026,2.037-.409,4.052-.76,6.129-1.056,2.819-.4,5.287-1.685,8.049-2.149a49.749,49.749,0,0,1,14.32.2,7.026,7.026,0,0,1,3.792,1.406,21.919,21.919,0,0,0,1.743,1.718,10.569,10.569,0,0,0,3.39,1.078c.549.113,1.1-.1,1.672.05a15.547,15.547,0,0,1,2.669,1.542c.784.4,4.7,1.208,5.154.2.338-.749-1.083-2.962-1.339-3.735-.5-1.494-.821-5.686.377-6.938,1.245-1.3,3.538-2.292,5.138-3.017,1.1-.5,3.122-1.512,2.466-2.9-1.056-2.235-4.727-.707-6.375-.51a20.61,20.61,0,0,0-2.289-.047c-.493.12-.673.405-1.128.57a20.226,20.226,0,0,1-3.675.92c-1.54.24-3.081-.045-4.614.164a28.51,28.51,0,0,1-2.974.5c-1.433.046-2.881-.02-4.317-.02-1.316,0-2.634-.019-3.95,0-1.249.017-2.2-.489-3.428-.531-2.193-.075-4.4.036-6.592.007a14.213,14.213,0,0,0-2.9.511c-1.336.233-2.783.662-4.136,1.006-1.432.363-2.741,1.177-4.174,1.543a29.4,29.4,0,0,0-3.447.76c-2.27.857-5.067.839-7.574,1.554a49.619,49.619,0,0,0-4.891,1.545,8.99,8.99,0,0,1-2.683.438c-1.533.189-2.883,1.781-4.3,2.492a21.268,21.268,0,0,0-3.662,2.449,5,5,0,0,1-2.323,1.412c-2.251,2.672-2.393,2.706-2.534,2.739C870.883,1067.621,865.213,1072.564,869.067,1072.374Z" transform="translate(-842.852 -952.911)" fill="#1e1d1e"/>
              <path id="Path_716" data-name="Path 716" d="M860.68,1136.932c-.1-2.549.927-6.915-.464-9.111-1.872.707-4.308,2.308-4.308,4.523,0,.67.333.828.441,1.326a10.016,10.016,0,0,1,.115,2.421v4.747c-.165.946.431,1.856.546,2.785a4.117,4.117,0,0,0,1.054,2.8,23.51,23.51,0,0,0,5.306,5.044c.872.593,2.339,1.814,3.451,1.426-.853-2.089-.8-4.277-1.98-6.222C862.988,1143.625,860.822,1140.624,860.68,1136.932Z" transform="translate(-844.268 -943.336)" fill="#1e1d1e"/>
              <path id="Path_717" data-name="Path 717" d="M889.8,1152.826a17.32,17.32,0,0,1-4.793-5.31,44.581,44.581,0,0,1-2.731-5.318,19.281,19.281,0,0,0-2.406-4.686,4.867,4.867,0,0,0-1.407-1.211,5.964,5.964,0,0,1-2.4-3.365,18.96,18.96,0,0,0-1.573-4.148,21.118,21.118,0,0,0-2.263-2.44c-1.129-1.232-2.632-1.821-3.42-3.293-1.122-2.1-1.587-.3-1.834,1.367-.178,1.2-1.038,3.711-.727,4.956.178.714,1.217,1.335,1.071,2.036-.159.03-.319.06,1.1,1.145.209,3.218,1.164,7.689,3.087,10.4,1.339,1.888,3.387,3.347,4.972,5.026a63.321,63.321,0,0,0,4.867,4.912,14.91,14.91,0,0,0,7.667,3.882c.747.122,1.449.016,2.2.157.9.169,1.543.631,2.491.373C894.416,1155.7,890.818,1153.666,889.8,1152.826Z" transform="translate(-843.037 -944.021)" fill="#1e1d1e"/>
            </g>
          </g>
        </g>
        <g id="Group_95" data-name="Group 95" transform="translate(986.593 975.091)">
          <g id="Group_94" data-name="Group 94" clip-path="url(#clip-path-2)">
            <g id="Group_93" data-name="Group 93" transform="translate(-136.16 -21.289)">
              <g id="Group_92" data-name="Group 92" clip-path="url(#clip-path)">
                <g id="Group_91" data-name="Group 91" transform="translate(-5.509 10.395)">
                  <path id="Path_719" data-name="Path 719" d="M1023.138,1001.674c0,2.8-.318,5.814-.036,8.6.179,1.767.619,3.317.723,5.115a40.436,40.436,0,0,0,.874,4.164c1.611-.243.261-18.976.609-21.366.57-3.924,1.354-7.632,1.346-11.627q0-2.462,0-4.925c.008-2.309-.05-3.088-2.813-2.109,0,2.155.035,4.311.017,6.466-.02,2.44-.738,4.631-.718,7.084C1023.165,995.94,1023.138,998.807,1023.138,1001.674Z" transform="translate(-824.239 -961.164)" fill="#1e1d1e"/>
                  <path id="Path_720" data-name="Path 720" d="M1015.747,1013.781a29.914,29.914,0,0,1,3.37,4.949c.563,1.076.879,3.888,2.009,4.313,1.1-.942.261-2.439-.193-3.556-.379-.934-.408-2.295-.839-3.085-.31-.568-.945-.9-1.269-1.51-.417-.781-.958-1.769-1.328-2.558a30.235,30.235,0,0,0-2.891-5.505c-1.178-1.589-2.262-2.2-2.745-4.281-.993-4.292-.3-8.873-1.318-13.164-.3-1.243.038-2.485-.216-3.7a13.366,13.366,0,0,1-.652-3.463c.028-1.319-.228-4.3-1.944-4.548-.053.206-.105.412-1.563,1.323.027,2.693.717,5.188.7,7.888-.016,2.566-.532,5.779-.035,8.283a18.453,18.453,0,0,1,.756,2.815c.05.926-.01,1.884-.016,2.813a7.933,7.933,0,0,0,1.672,5.3C1011.234,1008.871,1013.62,1011.2,1015.747,1013.781Z" transform="translate(-826.255 -961.336)" fill="#1e1d1e"/>
                  <path id="Path_721" data-name="Path 721" d="M1029.972,1022.638a12.86,12.86,0,0,1,2.457-5.378c.971-1.463,1.607-3.3,2.62-4.83a5.515,5.515,0,0,1,2.127-2.219,18.721,18.721,0,0,0,1.8-1.558,3.543,3.543,0,0,0,1.677-2.821c.268-1.381.681-2.883,1.057-4.235.674-2.426,1.83-4.667,1.777-7.188-.057-2.78.708-5.385.7-8.244,0-2.234.1-4.5.007-6.727-.119-2.762-2-4.841-4.221,1.753.026,3.984.374,8.2-.554,11.965-.215.875-.632,1.782-.8,2.524-.217.978.058,1.967-.216,2.948a7.066,7.066,0,0,0-.545,2.619,11.2,11.2,0,0,1-.158,3.007c-.82,3.084-3.9,4.558-5.761,7.182-1.177,1.66-1.34,4.084-1.8,6.01C1029.934,1018.332,1028.3,1022.355,1029.972,1022.638Z" transform="translate(-823.491 -961.44)" fill="#1e1d1e"/>
                  <path id="Path_722" data-name="Path 722" d="M1038.821,980.782l0-.012c0-.15,0-.3,0-.45Z" transform="translate(-822.341 -961.018)" fill="#1e1d1e"/>
                  <path id="Path_723" data-name="Path 723" d="M1020.4,997.9a18.747,18.747,0,0,1,.027-3.542c0-2.343-.026-4.689,0-7.032a15.824,15.824,0,0,0-.738-3.868c-.224-1.082.108-2.265-.12-3.36-.048-.229-.507-.477-.586-.823-.172-.755.141-1.369-.1-2.159a1.771,1.771,0,0,0-2.6-1.285c.088.747.551,1.261.677,2,.1.566-.138,1.119.017,1.691.13.479.542.68.681,1.242a13.9,13.9,0,0,1-.044,2.369c.061,1.3.59,2.24.737,3.489a31.255,31.255,0,0,1-.026,3.516c0,2.3-.433,5.137.14,7.365a41.316,41.316,0,0,0,1.813,4.271,13.876,13.876,0,0,1,.854,2.07A17.005,17.005,0,0,0,1020.4,997.9Z" transform="translate(-825.043 -961.581)" fill="#1e1d1e"/>
                  <path id="Path_724" data-name="Path 724" d="M1030.734,998.187a38.993,38.993,0,0,0,1.337-4.479,59.172,59.172,0,0,0-.02-7.062q0-3.351,0-6.7a15.993,15.993,0,0,0-.077-3.853c-3.669-1.513-2.251,8.752-2.54,10.256a9.954,9.954,0,0,0-.547,2.35,13.554,13.554,0,0,1-.513,3.165,11.782,11.782,0,0,0-.541,3.307c.009,1.183,0,2.365,0,3.548C1030.28,1001.338,1030.344,999.8,1030.734,998.187Z" transform="translate(-823.658 -961.544)" fill="#1e1d1e"/>
                  <path id="Path_725" data-name="Path 725" d="M1002.99,1012.9a6.023,6.023,0,0,0-.084,2.887c.424.622,2,.749,2.746.818.586.054,1.983.707,2.416.456,1.1-.638-.683-4.032-.861-4.583-.577-1.79-.328-3.786-1.157-5.367l-1.582.528a13.046,13.046,0,0,1-.04,2.906C1004.188,1011.523,1003.3,1011.968,1002.99,1012.9Z" transform="translate(-826.664 -957.807)" fill="#1e1d1e"/>
                  <path id="Path_726" data-name="Path 726" d="M1045.465,1008.686c-.28-.551-2.23-2.544-2.4-1.049v2.11c-1.619-.537-1.054,2-1.055,2.895a9.952,9.952,0,0,1-.475,3.882c.632.093,1.473-.422,2.173-.463.588-.032,1.349.224,1.9-.093,1.416-.814.3-2.776.14-3.868C1045.586,1010.978,1045.975,1009.691,1045.465,1008.686Z" transform="translate(-822.015 -957.809)" fill="#1e1d1e"/>
                  <path id="Path_727" data-name="Path 727" d="M1002.553,977.823c.447,1,1.073.822,2.07.805a16.581,16.581,0,0,1,2.635-.015c1.149.179,1.3.587,1.868-.769.456-1.093.066-1.158,1.29-1.334a21.067,21.067,0,0,1,2.865.01,19.3,19.3,0,0,1,4.938.477,4.578,4.578,0,0,1,5.009-1.978c1.092.356,1.562,1.4,2.5,1.936a17.39,17.39,0,0,1,1.678.95c.578-.41,1.16-.745,1.747-1.122.524-.338.982-.944,1.43-1.226.681-.429,2.223-.092,3.047-.092,2.089,0,4.864-.5,6.883-.027,1,.233,2.008,1.3,2.939,1.583a13.332,13.332,0,0,0,3.363.026c2.051,0,4.312-.123,5.671,1.685.3.4.916,2.18,1.58,1.95.6-.208.611-1.586.719-2.055.186-.809.647-1.427.88-2.211.266-.893.3-1.5.642-2.377a6.856,6.856,0,0,0,.56-3.1,3.135,3.135,0,0,0-1.494-2.8,9.25,9.25,0,0,0-4.978-1.915,86.862,86.862,0,0,0-12.754-2.493,104.34,104.34,0,0,0-19.313-.33,10.73,10.73,0,0,0-5.339,1.528c-1.948,1.17-4.006,1.61-6.032,2.636a8.852,8.852,0,0,0-5.5,7.37l.118-.374C1002.344,975.568,1002.087,976.776,1002.553,977.823Z" transform="translate(-826.82 -963.085)" fill="#1e1d1e"/>
                  <path id="Path_728" data-name="Path 728" d="M983.715,1034.379c1.376.484,1.79,2.133,2.876,3,.8.638,1.727,1.075,2.487,1.776,1.1,1.012,2.022,2.255,3.162,3.185a8.047,8.047,0,0,0,1.853.891c.949.454,1.72,1.242,2.633,1.753a19.787,19.787,0,0,0,2.1,1.057,9.046,9.046,0,0,0,2.023.615c.035.142.068.283,2.212-.629-.212-.987-1.27-.845-2.043-1.144a14.045,14.045,0,0,1-4.03-2.019,24.66,24.66,0,0,1-3.392-3.285,11.845,11.845,0,0,0-4.337-3.455c-.628-.288-1.391-.224-2.048-.5a12.776,12.776,0,0,0-1.294-.629A9.566,9.566,0,0,0,983.715,1034.379Z" transform="translate(-828.947 -954.538)" fill="#1e1d1e"/>
                  <path id="Path_729" data-name="Path 729" d="M1052.679,1044.2a9.859,9.859,0,0,0,2.9-.507c1.591-.617,3.273-.687,4.745-1.584,1.209-.738,2.081-1.924,3.374-2.642.922-.513,1.934-.72,2.914-1.271,1.1-.616,2.252-2.036,3.6-1.909-2.563-.13-5.143,1.129-7.514,1.868-1.83.571-2.8,1.954-4.209,3.169-1.02.88-1.569.674-2.788.9-.593.112-1.536.595-2.227.809-2.13.66-4.165,1.224-6.328,1.711A22.424,22.424,0,0,0,1052.679,1044.2Z" transform="translate(-821.343 -954.31)" fill="#1e1d1e"/>
                  <path id="Path_730" data-name="Path 730" d="M972.309,1032.067h-.279c-.064.019-.121.052-.186.068Z" transform="translate(-830.37 -954.815)" fill="#1e1d1e"/>
                  <path id="Path_731" data-name="Path 731" d="M976.553,1025.84a29.822,29.822,0,0,1-3.633,3.97c-.727.719-3.559,2.735-3.486,3.678h2.885a10.481,10.481,0,0,0,5.436-3.809c.875-1.158.872-2.86,2.083-3.719,1.11-.788,2.366-1.8,3.572-2.513a19.634,19.634,0,0,0,2.373-1.575c.554-.436,1.98-.768,2.1-1.465-2.282-.717-5.121.72-6.958,1.875A14.554,14.554,0,0,0,976.553,1025.84Z" transform="translate(-830.659 -956.236)" fill="#1e1d1e"/>
                  <path id="Path_732" data-name="Path 732" d="M988.6,1043.3a10.918,10.918,0,0,0-5-.648,20.975,20.975,0,0,1-5.011-1.038,10.623,10.623,0,0,0-2.946-.542c-1.011.009-2.644.371-3.383-.529,2.067,2.119,2.718,1.969,3.192,2.083.371.089.471.43.81.51.838.2,1.775-.153,2.612.026a17.432,17.432,0,0,0,1.814.559,20.824,20.824,0,0,1,2.647.4c.816.2,1.345.439,2.084.658.487.143.869-.012,1.366.227.33.159.6.588.888.707.807.328,1.883.059,2.754.223a26.007,26.007,0,0,0,3.271.437c-.618-.734-1.662-.667-2.45-1.187A19.814,19.814,0,0,0,988.6,1043.3Z" transform="translate(-830.32 -953.799)" fill="#1e1d1e"/>
                  <path id="Path_733" data-name="Path 733" d="M1073.89,1041.036a11.983,11.983,0,0,0-5.075.99,17.628,17.628,0,0,1-2.091,1.074,7.826,7.826,0,0,1-1.286.032,3.514,3.514,0,0,0-1.159.412,11.386,11.386,0,0,1-3.151.629c-1.348.111-2.62,1.185-3.953,1.094,1.967-.086,4.147.281,6.051-.13.364-.078.626-.37,1.159-.423a11.486,11.486,0,0,0,1.331-.031c.961-.207,1.936-.374,2.9-.6,2.151-.511,3.2-1.765,5.585-1.2,1.157.275,2.238.367,3.356.673.86.236,3.047-.426,3.192.645a23.783,23.783,0,0,0-.091-3.074C1078.7,1040.545,1075.962,1041.043,1073.89,1041.036Z" transform="translate(-820.14 -953.763)" fill="#1e1d1e"/>
                  <path id="Path_734" data-name="Path 734" d="M1068.273,1022.506c.66.18,1.473-.209,2.136-.063,1,.222,1.067.844,1.7,1.5,1.192,1.235,3.038,1.682,4.346,2.8.915.782,3.975,2.221,3.975,3.647l1.583-.527a2.928,2.928,0,0,0,.262-2.636c-.114-.463-.625-2.768-1.464-1.145a20.413,20.413,0,0,1-3.018-.969c-1.157-.675-2.277-1.558-3.428-2.306a28.378,28.378,0,0,0-3.9-2.306c-1.436-.637-4.666-1.235-6.249-.568C1064.756,1020.817,1067.3,1022.239,1068.273,1022.506Z" transform="translate(-819.297 -956.304)" fill="#1e1d1e"/>
                  <path id="Path_735" data-name="Path 735" d="M972.527,1018.044c.612-1.232,1.236-2.375,1.844-3.589a9.3,9.3,0,0,1,1.877-2.753,12.131,12.131,0,0,0,2.172-2.52c-1.81-.115-2.229-2.248-3.219-3.283-.913-.954-2.166-1.566-3.071-2.612a12.441,12.441,0,0,1-2-3.7c-1.138,1.412-1.147,1.322-1.147,1.217,0,6.892-.948,14.459,1.725,20.931C971.6,1021.382,972.076,1018.955,972.527,1018.044Z" transform="translate(-830.733 -958.709)" fill="#1e1d1e"/>
                  <path id="Path_736" data-name="Path 736" d="M969.949,999.178a1.339,1.339,0,0,0,.044.467l.436-.544Z" transform="translate(-830.598 -958.767)" fill="#1e1d1e"/>
                  <path id="Path_737" data-name="Path 737" d="M1077.423,1016.957a8.26,8.26,0,0,0,.771,2.13c.431.651,1.08,1,1.495,1.69.522-1.106-.109-2.627.2-3.837.291-1.151.971-1.9,1.006-3.2.036-1.318.434-2.346.492-3.64a14.607,14.607,0,0,1,.405-3.428,7.547,7.547,0,0,0,.027-3.421q-.218.391-.438.784l-1.581-2.11a32.521,32.521,0,0,0-5.892,7.205C1075.775,1009.054,1076.844,1015.087,1077.423,1016.957Z" transform="translate(-818.135 -958.428)" fill="#1e1d1e"/>
                  <path id="Path_738" data-name="Path 738" d="M1052.889,1085.136a3.48,3.48,0,0,1-2.344.935c-2.326.09-4.346.531-6.726.5-1.31-.014-2.4.457-3.675.556-1.425.11-3.361.72-4.776.512,2.273,2.11,4.671,2.546,6.356,2.137.794-.193,1.113-.57,2.084-.553a7.739,7.739,0,0,0,2.608-.555c1.838-.445,3.967.371,5.828-.093a21.9,21.9,0,0,0,2.906-.995c.833-.352,1.509-1.144,2.356-1.42a8.45,8.45,0,0,0,2.532-.763c.643-.42,1.26-.805,1.964-1.182a8.95,8.95,0,0,0,2.374-1.852c1.009-1.036,2.193-1.768,3.2-2.78a17.85,17.85,0,0,0,3.632-4.912,29.2,29.2,0,0,1,1.732-2.827,18.455,18.455,0,0,1,1.7-2.934c1.192-1.362,2.672-2.652,2.933-4.454.063-.432.231-2.849-.1-3.133-.393-.335-1.378.307-1.694.532-.786.559-.923,1.179-1.509,1.946-.291.381-.8.621-1.067,1.016a14.188,14.188,0,0,0-.767,1.842c-.316.626-.546,1.215-.8,1.875a24,24,0,0,1-1.98,4.876,29.244,29.244,0,0,1-3.164,3.255,26,26,0,0,1-6.474,5.287,27.581,27.581,0,0,1-5.1,2.534A6.02,6.02,0,0,0,1052.889,1085.136Z" transform="translate(-822.755 -951.319)" fill="#1e1d1e"/>
                  <path id="Path_739" data-name="Path 739" d="M1021.746,1107.051c-2.781-.69-5.637-.952-8.307-1.985-2.209-.856-4.468-1.561-6.678-2.4a39.446,39.446,0,0,1-4.824-1.97c-3.065-1.658-6.089-3.432-9.169-5.062-1.637-.866-3.1-1.9-4.667-2.861a15.062,15.062,0,0,1-3.157-2.905,56.7,56.7,0,0,1-4.061-5.519,8.1,8.1,0,0,1-1.583-2.637,8.889,8.889,0,0,0-1.889-2.664,20.008,20.008,0,0,1-1.7-2.346c-.4-.675-.691-2.29-1.569-.263.068,1.327,1.027,2.446,1.611,3.576.458.887.609,1.832,1,2.753a14.658,14.658,0,0,0,3.062,4.888c.975.83,1.832,1.522,2.78,2.392.659.6,1.28,1.25,1.965,1.832,2.175,1.85,4.084,4.175,6.461,5.785a72.686,72.686,0,0,0,10.562,5.671,36.044,36.044,0,0,1,4.463,2.635,11.492,11.492,0,0,0,3.422,1.455c2.111.645,4.242.469,6.353,1.04,1.851.5,3.69.713,5.54,1.134a18.637,18.637,0,0,0,4.494.593c1.223,0,2.445,0,3.667,0,1.306,0,6.014.737,6.275-.923-1.012-.7-1.915-.585-3.073-.775-1.942-.32-3.885-.608-5.837-.9A49.087,49.087,0,0,1,1021.746,1107.051Z" transform="translate(-830.094 -949.613)" fill="#1e1d1e"/>
                  <path id="Path_740" data-name="Path 740" d="M1082.351,1076.807c-.6.12-1.514,2.48-1.792,3.052-.522,1.074-.822,2.221-1.3,3.308-.357.81-.831,1.58-1.252,2.346-.447.813-.76,1.6-1.24,2.385a39.736,39.736,0,0,1-14.8,14.358c-2.974,1.6-6.152,3.491-9.6,4.1a83.5,83.5,0,0,1-14.65,1.039,3.22,3.22,0,0,0,3.164,2.11,11.215,11.215,0,0,0,3.165-.41c.886-.231,1.761.065,2.637-.091.579-.1,1.006-.491,1.582-.584a15.2,15.2,0,0,0,1.582-.088c2.123-.542,4.231-.335,6.475-.4a16.6,16.6,0,0,0,6.708-1.991,45.6,45.6,0,0,0,4.76-3.294,27.8,27.8,0,0,0,4.35-3.549c.558-.576.875-1.283,1.412-1.845a22.687,22.687,0,0,0,1.992-2.111,33.8,33.8,0,0,0,4.247-6.59,49.566,49.566,0,0,0,2.623-6.436C1082.638,1081.312,1083.909,1076.5,1082.351,1076.807Z" transform="translate(-822.472 -949.453)" fill="#1e1d1e"/>
                  <path id="Path_741" data-name="Path 741" d="M1085.173,1114.255c-1.181,1.3-1.916,2.815-3.3,3.969-1.046.875-2.337,1.174-3.551,1.9-1.175.7-2.295.718-3.542,1.362-1.358.7-2.519,1.838-3.886,2.469-2.207,1.019-4.7.456-7.071.569-2.67.128-4.1,3.041-6.856,3.2-1.426.08-1.953-.036-3.137.647-.879.506-1.817.966-2.664,1.448-.871.494-1.835.662-2.651,1.044-.875.41-1.123.836-2.1,1.068a11.713,11.713,0,0,1-3.137.526c-1.27-.008-2.54.01-3.81,0-1.68-.01-3.015.485-4.63.522a7.45,7.45,0,0,1-2.164-.113c-.588-.16-.881-.517-1.555-.411a14.675,14.675,0,0,1,.284,2.181,9.263,9.263,0,0,1,3.126-.026,21.946,21.946,0,0,0,3.212.537,22.332,22.332,0,0,0,2.868-.609c.854-.115,1.765.1,2.631.053a15.925,15.925,0,0,0,3.175-.7c1.055-.278,2.132-.231,3.175-.483.914-.221,1.7-.742,2.609-.966,2.712-.666,5.344-1.482,8.034-2.213,1.384-.376,2.744-1,4.112-1.346,1.078-.269,1.85-.028,2.857-.642.972-.592,1.736-1.516,2.688-2.135.742-.481,1.651-1.382,2.362-1.787.616-.349,1.379-.507,2.089-.83a14.09,14.09,0,0,1,1.622-.542c.247-.077.95-.349,1.16-.4,2.252-.489,4.954-.112,7.279-.118a7.73,7.73,0,0,1,3.562.532,17.363,17.363,0,0,1,1.7.755c.571.328.771,1.019,1.506,1.178.54-1.574.081-4.319.08-5.925a44.953,44.953,0,0,0-.5-8.1c-.289-1.531-1.634-1.327-2.53-.436a9.133,9.133,0,0,0-1.162,1.844A16.74,16.74,0,0,1,1085.173,1114.255Z" transform="translate(-823.263 -945.503)" fill="#1e1d1e"/>
                  <path id="Path_742" data-name="Path 742" d="M1031.393,1131.972c-.031.009-.074.01-.1.02C1031.337,1132.053,1031.383,1132.1,1031.393,1131.972Z" transform="translate(-823.244 -942.838)" fill="#1e1d1e"/>
                  <path id="Path_743" data-name="Path 743" d="M1120.521,1139.621c-4.88-1.012-9.641-2.333-14.586-2.855-2.889-.306-7.062-.53-9.285-2.653-1.433-1.369-2.9-1.906-4.5-2.913-.19.646-.216,1.309-2.187-1.176l-.427.1c.045,1.974-3.36,2.656-4.706,2.93-2.539.515-5.21,1.111-7.284,2.743a6.277,6.277,0,0,0-1.429,2.15,6.8,6.8,0,0,1-1.836,1.951,18.384,18.384,0,0,1-2.87,2.266c-1.361.793-2.583.8-4.033,1.171-3.367.86-7.274.437-10.788.4a27.919,27.919,0,0,0-5.525.935,20.608,20.608,0,0,1-4.767.091c2.61,1.085,5.893.753,8.66,1.214a40.981,40.981,0,0,0,7.074.921c2.454-.007,4.387-.869,6.846-1.053a5.252,5.252,0,0,0,2.756-.925c1.036-.569,1.775-1.5,3.047-1.737a5.214,5.214,0,0,0,1.7-.346c.632-.319,1.211-.782,1.865-1.094.585-.28,1.233-.458,1.811-.749a13.786,13.786,0,0,0,2.263-1.7,7.828,7.828,0,0,1,6.278-1.311c.769.2,1.249.866,1.877,1.287a18.484,18.484,0,0,0,2.124,1.04c4.69,2.283-3.04,4.848-5,5.578a36.6,36.6,0,0,0-10.082,5.547c-.671.578-3.7,3.214-2.7,4.272,1.851-.438,3.425-1.608,5.136-2.384a17.623,17.623,0,0,1,3.7-1c1.035-.225,1.812-.8,2.783-1.1q.667-.079,1.323-.221a2.013,2.013,0,0,1,.589-.558c1.809-.831,3.463-1.859,5.3-2.635,4.727-1.994,11.125-4.77,16.216-2.309-.677,1.628-2.351,2.562-3.273,4.04a26.486,26.486,0,0,0-1.485,3.159c-1.3,2.9-1.468,6.869-1.443,10.005.006.712-.373,2.484.083,3.081,1.275,1.666,1.649-1.052,1.768-1.777.41-2.515.644-4.885,1.86-7.164.666-1.249,1.38-2.437,2.109-3.63.819-1.337,1.458-3.078,2.741-4.088a9.3,9.3,0,0,1,1.709-.705,9.647,9.647,0,0,1,2.393-1.023c.964-.148,1.79-.341,2.754-.515a15.3,15.3,0,0,0,2.84-.8c2.131-.761,4.764-.131,6.973-.2a11.861,11.861,0,0,0,3.167-.557c.921-.278,2.484-.418,3.281-1.038C1136.022,1141.653,1121.533,1139.831,1120.521,1139.621Z" transform="translate(-821.444 -943.072)" fill="#1e1d1e"/>
                  <path id="Path_744" data-name="Path 744" d="M1155.962,1147.572c.456-.1.419-.641,1.173-.41l-4.22-1.582c-.4,1.293-1.429.113-2.079-.027a21.116,21.116,0,0,0-3.677.022c-2.082-.039-3.241,1.461-4.908,2.511-1.788,1.124-3.434,1.8-4.23,3.81-.435,1.1-1.85,4.279.01,4.717a8.6,8.6,0,0,1,.488-1.993c.347-.544.494-.323.928-.7a32.377,32.377,0,0,0,2.948-2.935c.948-1.091.852-1.145,2.352-1.182a4.9,4.9,0,0,0,2.238-.664,20.725,20.725,0,0,1,2.122-.5c.382-.135.7-.687,1.16-.844a4.877,4.877,0,0,1,1.594-.1c.878-.009,1.758-.015,2.636,0A5.864,5.864,0,0,0,1155.962,1147.572Z" transform="translate(-810.559 -941.222)" fill="#1e1d1e"/>
                  <path id="Path_745" data-name="Path 745" d="M1164.826,1147.462c-1.414,0-3.277-.3-4.644.105-.433.126-1.008.676-1.555.832a13.583,13.583,0,0,0-1.974.64,6.9,6.9,0,0,0-3.456,3.04c-.251.432-.651,1.552-1.074,2.466a38.372,38.372,0,0,1,4.509-3.1,5.891,5.891,0,0,1,4.121-1.344c1.182.011,2.365-.019,3.547,0a24.8,24.8,0,0,0,3.6-.614l.091-.439Z" transform="translate(-808.758 -940.994)" fill="#1e1d1e"/>
                  <path id="Path_746" data-name="Path 746" d="M1151.261,1155.1c.3-.04.64-.624.964-1.325C1151.672,1154.272,1151.276,1154.74,1151.261,1155.1Z" transform="translate(-808.861 -940.224)" fill="#1e1d1e"/>
                  <path id="Path_747" data-name="Path 747" d="M1007,1171.682a13.213,13.213,0,0,1,1.665-1.453c.522-.283,1.171-.343,1.721-.623,2.6-1.317,5.267-2.823,7.825-4.253,3.385-1.892,6.763-1.849,10.574-2.612,4.472-.895,9.071-2.231,13.667-2.137a13.944,13.944,0,0,0,5.105-.5c.987-.335,3.541-.324,4.141-1.211-1.215-.829-3.494-.383-4.92-.384a17,17,0,0,1-5.518-.645,12.364,12.364,0,0,0-3.4-.962c-.8-.033-1.624.029-2.429.025-1.874-.01-3.57.459-5.417.528-1.359.05-2.436.541-3.823.526a19.914,19.914,0,0,0-4.475.054c-1.941.459-3.86,1.749-5.8,2.36a22.388,22.388,0,0,0-2.912,1.017c-1.832.866-3.421,2.122-5.289,2.918a46.238,46.238,0,0,0-6.811,4.206c-1.876,1.236-3.9,2.44-5.949,3.7a19.844,19.844,0,0,1-4.756,2.112c-1.379.4-2.813.468-4.2.82-1.349.343-2.948,1.38-4.36,1.339-1.343-.037-2.678-.615-4.093-.607-.62,0-1.306.227-1.674-.25-.708-.917.334-4.242.435-5.176.256-2.382,1.54-2.288,3.132-3.655.849-.73,1.183-1.562,2.222-2.124.951-.514,2-.877,2.924-1.436.549-.33,1.117-1.061,1.784-1.13.805-.083,2.469.923,3.162,1.189a51.223,51.223,0,0,0,6.779,2.6c-.078-1.072-1.44-1.651-2.182-2.185-1.485-1.069-2.626-2.591-4.126-3.616-1.7-1.161-3.51-1.208-5.457-1.857-1.053-.35-2.3-1.207-3.412-1.356-.522-.069-1.106.172-1.615.05-.609-.145-.844-.449-1.52-.567a20.039,20.039,0,0,0-2.331.039,34.185,34.185,0,0,1-5.069-.555,3.966,3.966,0,0,1-1.549-.649,10.689,10.689,0,0,1-4.219-3.4,21.921,21.921,0,0,1-2.175-5.774c-.769-2.753-1.681-5.533-1.594-8.415a53.116,53.116,0,0,1,.485-7.345c.533-3.208,1.583-6.064,1.661-9.368a29.022,29.022,0,0,1,.484-4.039c.236-1.454.527-2.921.806-4.384.6-.283.682-1.433.805-2.079a15.8,15.8,0,0,1,1.3-4.894c1.616-2.941,1.4-5.509.911-8.617-.232-1.474,1.113-3.312,1.477-4.851.367-1.557,1.553-3.2,1.687-4.73,1.132.036.958,2.358,1.449,3.084.475.7.931.76,1.506,1.261a8.194,8.194,0,0,1,2.1,2.982c1.113,3.172.736,6.909,2.75,9.777.438.625.936.768,1.47,1.311a18.642,18.642,0,0,1,1.029,1.61,26.97,26.97,0,0,0,3.865,3.821c.13.119.244.252.368.377.108.506.223,1.012.376,1.521a28.908,28.908,0,0,0,1.978,4.625,18.191,18.191,0,0,1,1.86,3.89,8.052,8.052,0,0,0,1.167,2.774,76.482,76.482,0,0,0,5.391,7.1c1.96,2.417,4.275,4.106,4.146,7.453-.025.63.159,1.031-.5,1.2a6.652,6.652,0,0,1-1.195-.465q-.964-.121-1.931-.219a8.858,8.858,0,0,1-1.828-1.558c-1.482-1.281-3.187-2.394-4.768-3.537-1.673-1.207-3.415-2.3-5.094-3.5-1.159-.826-2.749-2.769-4.183-2.908-.488,1.7,1.576,3.474,2.562,4.623,1.6,1.867,4.376,3.064,6.342,4.561a40.037,40.037,0,0,1,5.627,5.031c1.594,1.776.484,4.326-1.912,4.791a18.38,18.38,0,0,1-3.233-.026c-1.612,0-3.223-.01-4.835-.02-1.436-.009-3.855-.421-5.024.574a73.065,73.065,0,0,1,24.258,2.479,20.328,20.328,0,0,0,5.211,1.2,7.55,7.55,0,0,1,2.6.5c1.645.588,4.55,1.065,6.287.438-.25-1.522-3.714-2.331-4.95-2.783a10.941,10.941,0,0,1-5.939-5.564c.623,0,1.414.9,1.977,1.214.692.381,1.426,1.038,2.115,1.346.937.417,2.267.243,3.307.617a14.553,14.553,0,0,0,2.8.571c.992.178,1.9.664,2.858.9q.781.138,1.57.217a10.531,10.531,0,0,1,1.715.861c1.21.333,5.406.212,6.06-1.11-.712-.6-2.035-.441-2.912-.764-.9-.33-1.688-.821-2.623-1.082-1.451-.405-2.914-.811-4.338-1.157a21.483,21.483,0,0,1-5.695-2.533,13.994,13.994,0,0,1-3.752-2.558c-.048-.2-.092-.406-.134-.609a3.666,3.666,0,0,0-.981-.512,11.9,11.9,0,0,1-1.144-1.042,20.66,20.66,0,0,0-2-1.329q-.529-.417-1.067-.821-.474-.092-.937-.222c-1.135-.878-2.065-2.875-2.717-4.078-.751-1.383-1.831-2.551-2.688-3.869-.43-.663-.769-1.759-1.558-1.956-1.042-3.073-1.89-2.775-3.034-3.653a8.817,8.817,0,0,1-2.347-3.39c-.293-.767-.627-1.519-.969-2.268.109-1.024-1.028-2.322-1.406-3.123-.824-1.749-1.441-3.589-2.3-5.325a17.111,17.111,0,0,1-1.533-5.03,89.041,89.041,0,0,0-2.521-12.02c-.219-.7-.524-1.405-.685-2.11-.122-.53.113-1.031-.076-1.595-.213-.634-.806-.933-.975-1.542a2.8,2.8,0,0,1-.028-.918c.054.063.1.124.156.188a18.5,18.5,0,0,1,1.993,3.352c.771,1.264,1.838,2.477,2.651,3.678.364.538.789,1.016,1.186,1.571.489.687.633,1.442,1.028,2.111a9.527,9.527,0,0,1,1.432,2.385,14.041,14.041,0,0,0,.72,2.373c.754,1.7,1.063,3.579,1.817,5.275,1.258,2.826,1.418,5.72,2.917,8.411a55.427,55.427,0,0,0,6.157,8.323c2.259,2.688,5.043,4.88,7.326,7.55,1.336,1.561,2.573,3.644,4.191,4.9a26.922,26.922,0,0,0,5.876,3.091c2.383,1.022,4.646,2.229,6.977,3.346a31.258,31.258,0,0,0,8.583,2.245,29.346,29.346,0,0,0,5.515.654c1.566-.063,1.433-.891.082-1.487a29.572,29.572,0,0,0-3.5-.643c-1.056-.282-2.156-.552-3.2-.887a79.781,79.781,0,0,1-8.037-3.6c-5.6-2.521-10.173-6.354-14.941-10.14a36.688,36.688,0,0,1-5.813-5.954c-.65-.8-3.085-2.983-3.072-4.219,1.943.04,4.351,2.684,5.892,3.743,2.065,1.417,4.209,2.714,6.286,4.11a47.835,47.835,0,0,0,5.522,3.467,13.236,13.236,0,0,1,2.132,1.114c.451.33.662.782,1.278.727.13-1.124-2.027-2.553-2.737-3.252-1.293-1.273-2.356-3.167-3.763-4.278-2.717-2.145-5.265-4.917-8.246-6.714-1.3-.784-2.844-1.232-4.1-2.047a23.259,23.259,0,0,1-3.267-3.182,29.552,29.552,0,0,1-6.857-9.629c-.979-2.376-2.447-4.689-3.051-7.205a31.311,31.311,0,0,0-1.393-5.625,64.276,64.276,0,0,0-3.447-6.22,48.915,48.915,0,0,1-3.044-6.656c-.7-1.751-1.588-3.448-2.254-5.218a28.646,28.646,0,0,0-.41-6.143c0-.016,0-.03-.007-.046,1.359-.8,1.167-3.192,1.575-4.415a8.794,8.794,0,0,1,1.877,1.24,20.381,20.381,0,0,1,1.2,2.314,6.91,6.91,0,0,1,.87,2.511c.234,1.1,1.282,7.031,3.051,6.063.61-.334.289-1.971.286-2.608a52.424,52.424,0,0,1,.555-5.3c.016-.179.01-.356.012-.534a23.832,23.832,0,0,0,1.073,2.878,31.939,31.939,0,0,0,1.627,4.393c1.146,2.217,3.2,4.136,4.639,6.168s3.475,3.454,4.9,5.422a12.686,12.686,0,0,0,2.492,2.429,25.181,25.181,0,0,0,2.626,2.051,34.442,34.442,0,0,0,7.131,2.771,37.334,37.334,0,0,0,10.151,1.831c1.925.069,3.7.533,5.658.527,1.493,0,2.985,0,4.478,0,3.29,0,6.6-.118,9.893.012a20.848,20.848,0,0,1-5.139-1.212c-1.457-.415-2.882-.462-4.326-.793-3.255-.749-6.734-.245-9.914-1.319-3.636-1.226-7.531-1.429-11.075-3.108q-1.268-.721-2.55-1.419a10.064,10.064,0,0,0-2.354-.7c-1.1-.535-1.93-1.446-3-2.038-2.259-1.254-4.163-2.1-5.827-4.191a29.34,29.34,0,0,1-2.982-4.6c-.811-1.551-2.065-2.789-2.922-4.347a22.4,22.4,0,0,1-1.575-4.644c-.533-1.713-1.827-2.822-2.016-4.746-.009-.093,0-.188,0-.282.052-.118.107-.227.155-.349a10.992,10.992,0,0,1,.486-1.49c.326-.355,1.042-.5,1.443-.765-.5-.982-.234-1.635-.523-2.723a4.887,4.887,0,0,0-.485-1.048c.031-.707-.6-1.495-.794-2.156-.231-.8-.645-1.609-.814-2.351-.092-.406.057-.89-.015-1.3-.058-.334-.428-.441-.513-.806-.116-.5.045-.977-.09-1.492-.09-.345-.488-.587-.5-1.084-.44-.054-1.379-.509-1.622-.513-.732-.01-.748.136-1.438.438-.805.353-1.657.261-2.207.931a6.071,6.071,0,0,0-1.325.658c-.834-.171-1.771,0-2.617-.129-1.344-.207-2.827-.636-4.138-.961a12.318,12.318,0,0,0-3.637-.507l-.239-1.43a6.233,6.233,0,0,0-5.434-3.754q-3.825-.808-7.561-1.978l-7.671-1.907a62.429,62.429,0,0,0-16.623-.312,96.711,96.711,0,0,0-21.471,3.105l-16.151,5.41a31.714,31.714,0,0,0-15.554,10.791q-3.482,1.885-2.927,5.4a128.227,128.227,0,0,0,21.531-5.221c2.9-1.009,5.57-2.346,8.36-3.592,3.556-1.587,7.458-1.591,11.166-2.318,2.288-.448,4.725-.335,7.045-.629,2.157-.274,4.494-.071,6.6-.485,1.758-.346,3.329-1.212,5.105-1.432,2.011-.25,3.985.105,5.967-.391a21.171,21.171,0,0,0,2.04-.716,13.834,13.834,0,0,1,3.962.521c2.469.53,5.062.534,7.487,1.047,1.932.408,3.272,3.819,4.245,5.419,1.468,2.415,1.767,3.655,1.1,6.288-.729,2.876-2.791,5.514-3.016,8.54-.172,2.318-.828,4.977.26,7.18-2.266,2.647-4.9,4.567-8.527,4.383-1.762-.09-3.175-1.4-4.651-2.239a12.4,12.4,0,0,0-5.322-1.745c2.169,1.995,2.473,4.379,2.516,7.153.028,1.739.544,3.351.534,5.1-.014,2.29-.7,4.043-1.115,6.333-.014.077-.031.155-.046.232-.436-1-1.96-1.773-2.536-2.65-1.03-1.565-1.277-3.82-2.091-5.514-.284-.591-.729-.912-1.084-1.526a17.764,17.764,0,0,1-.641-1.782,22.3,22.3,0,0,0-2.194-3.815c-1.254-1.735-2.428-3.583-4.533-4.346a9.768,9.768,0,0,0-2.979-.66,63.676,63.676,0,0,1-11.208-1.606,35.006,35.006,0,0,0-7.66-.486c-6.237-.029-12.342,2.847-17.759,5.707a10.253,10.253,0,0,1-2.309.661,23.048,23.048,0,0,0-5.213,2.6,28.127,28.127,0,0,0-5.058,4.508,11.064,11.064,0,0,0-1.766,2.037c-.684,1.09-.811,2.371-1.559,3.407-1.082,1.5-2.764,2.5-3.9,3.979-1.418,1.85,0,2.025,1.744,1.853.466-.046,1-.074,1.526-.131a3.682,3.682,0,0,1,.215,1.837c.027,1.176.749,2.465.585,3.612a23.659,23.659,0,0,0-.548,3.09,6.253,6.253,0,0,1-1.194,3.191c-.923-.417-1.089-.489-1.874.015-.534.343-.392.72-1.147.972-.691.229-1.267-.056-1.938.026-1.671.2-2.8,2.4-4.452,2.114.188-3.863.961-7.757,1.4-11.61.412-3.612,1.4-7.117,1.875-10.689-1.227.557-2.551,2.46-3.225,3.625-1.41,2.435-3.214,4.514-4.84,6.811-2.188,3.088-3.95,6.416-6.06,9.555-1.563,2.327-3.213,4.6-4.6,7.043-.561.99-.916,2.14-1.5,3.1-.325.536-.837.866-1.15,1.422-.89,1.579-.016,4.149.18,5.882.354,3.132.445,6.278.694,9.417a13.906,13.906,0,0,0,.5,3.5c.654-.173.623-.685.894-1.215a13.662,13.662,0,0,1,1.869-2.63c1.32-1.546,2.593-3.166,3.98-4.651.539-.577,5.969-6.169,5.9-3.189.733.019,2.488-2.547,3.051-3.228,1.234-1.5,2.186-2.329,4.267-2,.944.148.533-.176,1.031.5.291.394.3,1.171.623,1.632.867,1.243,2.693,2.157,3.774,3.328a40.252,40.252,0,0,0,7.706,6.679c1.506,1,3.108,1.906,4.542,3,1.557,1.188,2.439,2.867,3.622,4.4,1.382,1.791,10.583,10.37,11.384,4.466a11.585,11.585,0,0,0-.663-4.047c-.7-2.962-1.588-5.853-2.4-8.781-.648-2.336-1.29-4.673-2.082-6.95a49.436,49.436,0,0,0,6.72,4.4,14.283,14.283,0,0,0,4.691,1.7c1.075.164,2.19.078,3.261.262,3.08.529,6,2.333,8.9,3.455,2.245.87,4.173,1.064,6.369-.18,1.4-.794.945-1.632,1.015-3.084a31.554,31.554,0,0,1,1.14-5.334c.547-2.352,1.018-4.837,1.412-7.211.506-3.046-.017-6.131.515-9.192a17.831,17.831,0,0,0,.137-4.594c-.258-2.2-1.057-4.3-1.094-6.653-.025-1.562.014-3.131.019-4.693a7.119,7.119,0,0,0-.084-2.49,19.805,19.805,0,0,0-2.444-3.451c-.635-.835-1.071-1.714-2.226-1.479-1.083.22-1.253,1.494-1.64,2.4-1.068,2.5-.815,5.879-3.707,7.169-1.153.514-2.4.7-3.559,1.244-1.734.821-3.291,1.841-4.933,2.817-3.048,1.809-6.156,3.543-9.3,5.178a10.333,10.333,0,0,0-2.556,1.775c-1.274-1.035-3.978-.495-5.443-.495a15.624,15.624,0,0,1-4.064-.107,16.514,16.514,0,0,1-2.332-1.475c-.961-.536-2.235-.62-3.139-1.164-1.194-.718-1.623-2.336-2.17-3.516-.616-1.327-2.152-3.771-1.373-5.313l.446-.028c-.475-1.717-.61-1.551-.935-1.613a2.278,2.278,0,0,1-.19-1.121c.026-.023.048-.056.076-.077,1.44-1.15,3.241-1.316,4.681-2.361,1.625-1.178,2.93-2.783,4.587-3.943a33.274,33.274,0,0,1,6.119-3.152c1.3-.554,2.635-1.084,3.961-1.585,1.3-.49,2.912-.638,4.149-1.249a16.444,16.444,0,0,1,1.916-1.174,12.579,12.579,0,0,1,2.528-.125c.917-.107,1.749-.445,2.681-.505a22.061,22.061,0,0,0,2.295-.018c.6-.1,1.421-.578,2.113-.745a10.193,10.193,0,0,1,4.5-.007c2.006.372,4.051.527,6.063.862,2.058.343,3.156.517,4.543,2.125.76.88,1.4,1.859,2.2,2.7a10.461,10.461,0,0,1,2.572,3.148c.961,2.393,1.2,5.266,1.783,7.769a36.773,36.773,0,0,1,1.33,8.383c-.026,1.559.66,2.345,1.054,3.816.731,2.733.393,5.561.476,8.338a11.255,11.255,0,0,0,.567,2.972,18.071,18.071,0,0,1,.525,5.4c0,1.31-.363,3.188.373,4.357a10.288,10.288,0,0,0,1,1.234,49.017,49.017,0,0,1-.833,6.785c-.741,3.643-1.4,7.177-4.139,9.812a11.006,11.006,0,0,1-3.371,2.3c-2.3,1.085-3.494,2.718-5.053,4.667a5.957,5.957,0,0,1-3.135,2.073,41.311,41.311,0,0,1-6.764,1.361c-1.823.243-3.662.013-5.443.387-.261,1.186.706,1.772.174,2.784-.485.926-2.666,1.73-3.641,2.262a2.924,2.924,0,0,0-1.45,1.19,11.944,11.944,0,0,0-1.521,2.341c-.406,1.2-.62-.158,0,1.235.351.786,1.26,1.323,1.552,2.178.413,1.21.105,2.587.508,3.889a17.346,17.346,0,0,0,3.512,6.844c1.437,1.571,3.053,2.8,3.811,4.888.746,2.057.686,2.794,3.057,3.562a25.037,25.037,0,0,0,5.358,1.357c2.662.238,5.38.945,8.031,1.084,2.767.143,5.387.747,8.157.974,1,.083,7.183.345,8.154-.956.6-.807-.016-1.776-.367-2.558-.937-2.09-1.408-4.335-2.295-6.428-.48-1.136-1.624-2.369-1.934-3.485-.148-.531.086-1.036-.026-1.57-.1-.465-.391-.676-.5-1.076-.329-1.207-.4-2.878-1.105-3.982a12.726,12.726,0,0,0-2.929-2.6,32.093,32.093,0,0,0-3.916-2.044c-2.343-1.312-4.637-2.979-6.906-4.431.295-.633.468-1.371.816-1.958.153-.256.512-.375.69-.625.151-.21.029-.633.208-.82.989-1.036,2.9-1.564,4.114-2.33,1.148-.724,2.275-1.352,3.44-2.056.8-.48,1.456-1.04,2.295-1.457.239-.118.59.024.829-.119,1.774-1.053,2.917-3.344,3.614-5.214.39-1.044,1.016-2.154,1.348-3.179.29-.9.131-1.721.473-2.626.721-1.908.749-3.908,1.329-5.851.389-1.3.476-2.52.925-3.745.529-1.443.784-3.081,1.185-4.567a5.132,5.132,0,0,0,.393-1.672,2.448,2.448,0,0,0-.368-1.711c-.745-1.233-2.193-1.225-3.212-2.113-1-.87-.659-2.324-.633-3.559a20.8,20.8,0,0,1,1.053-5.7,16.612,16.612,0,0,0,1.055-5.379,21.928,21.928,0,0,1,.541-3.15c.514-4.908,3.4-9.276,5.828-13.658a14.807,14.807,0,0,1,2.518-3.431c1-.989,2.016-1.973,3.02-2.946a6.333,6.333,0,0,1,1.8-1.511c.669-.239,1.118-.112,1.713-.465.79-.467.9-1,1.319-1.766a7.921,7.921,0,0,0,1.308-2.543c.133.056.268.134.4.2q-.007.762-.016,1.526a40.069,40.069,0,0,0-.5,5.546c.036,3.077-.667,5.713-1.009,8.726-.325,2.854-.134,5.935-.689,8.762a17.9,17.9,0,0,0-.411,3.659,12.223,12.223,0,0,1,.011,1.595c-.081.592-.412.877-.495,1.349-.2,1.142-.449,1.909-.679,3.035a30.253,30.253,0,0,1-1.336,4.221,64.282,64.282,0,0,0-1.954,8.205,134.645,134.645,0,0,0-3.459,27.624,14.312,14.312,0,0,0,.674,4.746,27.66,27.66,0,0,1,.953,3.884c.327,2.043,1.255,3.994,1.563,6.017a21.925,21.925,0,0,1-.026,3.114,15.636,15.636,0,0,0,.515,5.593c.373,1.016.707,2.049,1.072,3.063.208.58.761.588.523,1.391l2.637,11.6v-2.86a9.8,9.8,0,0,0,.115,1.569c.393,2.295,1.753,1.981,4.2,1.853,4.42-.229,8.429-2.07,12.479-3.644a68.458,68.458,0,0,0,10.927-5.045c4.7-2.82,9.146-6.064,13.956-8.709A17.168,17.168,0,0,0,1007,1171.682Z" transform="translate(-845.514 -954.677)" fill="#1e1d1e"/>
                  <path id="Path_748" data-name="Path 748" d="M1047.235,1148.836a1.44,1.44,0,0,0,.968.2A2.605,2.605,0,0,0,1047.235,1148.836Z" transform="translate(-821.332 -940.817)" fill="#1e1d1e"/>
                  <path id="Path_749" data-name="Path 749" d="M1032.94,1153.823c3.876-1.1,7.421-3.552,11.453-4.055,1.28-.16,2.523-.488,3.776-.586,1.517-.119,3.152.023,4.667.013.472,0,1.128-.068,1.74-.032-.784-.437-1.423-1.4-2.2-1.591-1-.244-2.08-.058-3.151-.343-2.524-.671-4.5-1.468-7.089-.955-4.98.987-10.142,1.4-14.035,5.029-1.851,1.727-4.115,3.048-5.557,5.255a14.907,14.907,0,0,0-1.685,4.176,22.286,22.286,0,0,1-.945,3.215,35.43,35.43,0,0,1-2.125,3.477c-1.336,2.324-3.386,5.212-5.752,6.51-.777.427-1.82.686-2.659,1.1-.782.387-2.02,1.567-2.821,1.551-.687-1.651.3-3.863-.159-5.609-.45-.335-4.687,3.941-5.2,4.327-1.23.932-2.377,2-3.63,2.9-2.926,2.091-6.475,3.4-9.687,4.97l1.188-.226c-3.131,3.833-3.1,3.974-3.063,4.117.477.029.707.386,1.048.5.716.233,1.5.334,2.232.512a29.122,29.122,0,0,0,10.5.6c3.8-.506,7.32-2.849,10.146-5.3,2.476-2.148,3.988-4.542,5.911-7.079a38.689,38.689,0,0,0,2.346-3.374,16.285,16.285,0,0,0,1.4-2.92,48.166,48.166,0,0,1,2.652-4.727c.494-.932,1.006-1.778,1.594-2.714a22.7,22.7,0,0,1,2.06-2.724,7.565,7.565,0,0,0,1.118-2.21C1028.095,1155.33,1030.706,1154.459,1032.94,1153.823Z" transform="translate(-828.673 -941.143)" fill="#1e1d1e"/>
                  <path id="Path_750" data-name="Path 750" d="M1030.528,1175.273c-1.324,1.6-2.681,3.123-4.145,4.589-.432.432-2.23,1.794-2.2,1.893-.471,1.644-1.587,2.772-1,3.688.8.031,1.974-1.359,2.656-1.814a18.34,18.34,0,0,0,3.626-2.783c1.249-1.369,2.6-2.556,3.923-3.847.793-.773,1.346-1.656,2.063-2.432a19.273,19.273,0,0,1,7-4.594,34.231,34.231,0,0,0,7.152-3.556c.879-.645,1.756-1.7,2.946-1.548-5.74.05-11.773,2.912-16.766,5.527A18.973,18.973,0,0,0,1030.528,1175.273Z" transform="translate(-824.234 -938.896)" fill="#1e1d1e"/>
                  <path id="Path_751" data-name="Path 751" d="M869.067,1072.374c1.355-.067,3.231-1.2,4.5-1.731,1.181-.493,2.134-1.292,3.333-1.78,2.841-1.152,5.744-2.222,8.612-3.26,2.121-.767,4.505-1.251,6.694-1.83,2.36-.624,4.82-.553,7.175-1.026,2.037-.409,4.052-.76,6.129-1.056,2.819-.4,5.287-1.685,8.049-2.149a49.749,49.749,0,0,1,14.32.2,7.026,7.026,0,0,1,3.792,1.406,21.919,21.919,0,0,0,1.743,1.718,10.569,10.569,0,0,0,3.39,1.078c.549.113,1.1-.1,1.672.05a15.547,15.547,0,0,1,2.669,1.542c.784.4,4.7,1.208,5.154.2.338-.749-1.083-2.962-1.339-3.735-.5-1.494-.821-5.686.377-6.938,1.245-1.3,3.538-2.292,5.138-3.017,1.1-.5,3.122-1.512,2.466-2.9-1.056-2.235-4.727-.707-6.375-.51a20.61,20.61,0,0,0-2.289-.047c-.493.12-.673.405-1.128.57a20.226,20.226,0,0,1-3.675.92c-1.54.24-3.081-.045-4.614.164a28.51,28.51,0,0,1-2.974.5c-1.433.046-2.881-.02-4.317-.02-1.316,0-2.634-.019-3.95,0-1.249.017-2.2-.489-3.428-.531-2.193-.075-4.4.036-6.592.007a14.213,14.213,0,0,0-2.9.511c-1.336.233-2.783.662-4.136,1.006-1.432.363-2.741,1.177-4.174,1.543a29.4,29.4,0,0,0-3.447.76c-2.27.857-5.067.839-7.574,1.554a49.619,49.619,0,0,0-4.891,1.545,8.99,8.99,0,0,1-2.683.438c-1.533.189-2.883,1.781-4.3,2.492a21.268,21.268,0,0,0-3.662,2.449,5,5,0,0,1-2.323,1.412c-2.251,2.672-2.393,2.706-2.534,2.739C870.883,1067.621,865.213,1072.564,869.067,1072.374Z" transform="translate(-842.852 -952.911)" fill="#1e1d1e"/>
                  <path id="Path_752" data-name="Path 752" d="M860.68,1136.932c-.1-2.549.927-6.915-.464-9.111-1.872.707-4.308,2.308-4.308,4.523,0,.67.333.828.441,1.326a10.016,10.016,0,0,1,.115,2.421v4.747c-.165.946.431,1.856.546,2.785a4.117,4.117,0,0,0,1.054,2.8,23.51,23.51,0,0,0,5.306,5.044c.872.593,2.339,1.814,3.451,1.426-.853-2.089-.8-4.277-1.98-6.222C862.988,1143.625,860.822,1140.624,860.68,1136.932Z" transform="translate(-844.268 -943.336)" fill="#1e1d1e"/>
                  <path id="Path_753" data-name="Path 753" d="M889.8,1152.826a17.32,17.32,0,0,1-4.793-5.31,44.581,44.581,0,0,1-2.731-5.318,19.281,19.281,0,0,0-2.406-4.686,4.867,4.867,0,0,0-1.407-1.211,5.964,5.964,0,0,1-2.4-3.365,18.96,18.96,0,0,0-1.573-4.148,21.118,21.118,0,0,0-2.263-2.44c-1.129-1.232-2.632-1.821-3.42-3.293-1.122-2.1-1.587-.3-1.834,1.367-.178,1.2-1.038,3.711-.727,4.956.178.714,1.217,1.335,1.071,2.036-.159.03-.319.06,1.1,1.145.209,3.218,1.164,7.689,3.087,10.4,1.339,1.888,3.387,3.347,4.972,5.026a63.321,63.321,0,0,0,4.867,4.912,14.91,14.91,0,0,0,7.667,3.882c.747.122,1.449.016,2.2.157.9.169,1.543.631,2.491.373C894.416,1155.7,890.818,1153.666,889.8,1152.826Z" transform="translate(-843.037 -944.021)" fill="#1e1d1e"/>
                </g>
              </g>
            </g>
          </g>
        </g>
      </g>
    </g>
  </g>
</svg>
