<svg xmlns="http://www.w3.org/2000/svg" width="492" height="492" viewBox="0 0 492 492">
  <g id="Group_54" data-name="Group 54" transform="translate(-714 -369)">
    <circle id="Ellipse_14" data-name="Ellipse 14" cx="246" cy="246" r="246" transform="translate(714 369)" fill="#bb8598"/>
    <g id="Group_40" data-name="Group 40" transform="translate(326.789 -206.83)">
      <path id="Path_104" data-name="Path 104" d="M532.173,890.2c-26.9-14.1-61.047-62.576-33.756-109.887,39.57-68.589,13.107-78.931,11.23-94.979-3.356-28.795,19.824-29.869,30.03-20.415,47.336,43.867,21.686,80.836,7.233,128.144-12.873,42.151,34.192,50.174,41.56,74.6-5.924,20.513-27.97,35.854-56.3,22.536Zm0,0" transform="translate(0 81.436)" fill="#f8c575"/>
      <path id="Path_105" data-name="Path 105" d="M502.239,663.287c-20.712,21.761,8.9,39.522,3.182,66.194,10.974-4.948,34.808-8.6,46.979-1.652,7.738-32.328-32.2-83.4-50.161-64.541Zm0,0" transform="translate(13.816 80.624)" fill="#eb9a53"/>
      <path id="Path_106" data-name="Path 106" d="M547.465,705.726c-17.255-4.825-33.892-13.2-42.533-17.515-4.01,10.528-8.541,16.848-12.661,25.5,12.649,12.936,22.03,17.417,45.248,21.294a241,241,0,0,0,9.947-29.278Zm0,0" transform="translate(8.394 143.236)" fill="#eb9a53"/>
      <path id="Path_107" data-name="Path 107" d="M488.548,714.61c7.776,4.272,44.249,2.247,57.454-5.887,1.877,7.555,6.6,15.009,10.146,18.33-9.5,12.924-40.546,27.857-58.727,19.6-6.12-10.528-9.688-27.635-8.873-32.043Zm0,0" transform="translate(0.106 187.537)" fill="#eb9a53"/>
      <path id="Path_108" data-name="Path 108" d="M499.855,755.573c24.946-.739,42.571-20.093,50.063-35.807,7.334,3.593,9.467,8.38,14.614,15.391,1.839,18.576-10.923,27.957-30.46,31.56-7.58,1.15-28.845-3.814-34.217-11.144Zm0,0" transform="translate(24.776 211.387)" fill="#eb9a53"/>
      <path id="Path_109" data-name="Path 109" d="M594.361,864.3c-9.11,2.471-17.2,2.926-30.46-.714-7.58,5.419-63.84,12.206-47.991-20.971-23.341-27.686-18.317-117.107,2-135.56,68.526-20.144,126.624-18.058,198.424.714,18.317,17.243,23.338,106.68,0,134.366,15.846,33.178-37.585,27.2-45.163,21.771a80.281,80.281,0,0,1-30.6-.417c-13.047,4.184-37.174,5.258-46.212.812Zm0,0" transform="translate(26.026 153.15)" fill="#dabc8a"/>
      <path id="Path_110" data-name="Path 110" d="M625.253,1016.021c8.629,9.207,27.686,5.333,37.968-.714,6.813-4,8.086-13.318,2.051-28,16.984-32.8,38.508-94.755,39.187-128.119.531-26.179-9.726-56.023-17.2-85.213,18.055-46.916,10.652-77.885-4.815-102.939.828-11.7,3.236-30.119-3.122-48.657-17.824,6.035-29.945,21.5-41.93,26.807-10.6-3.046-20.365-4.974-31.474-4.825a103.11,103.11,0,0,0-29.781,4.319c-12-5.293-25.07-20.759-42.894-26.795-6.354,18.538-3.95,36.953-3.122,48.654-14.5,29.86-23.834,56.977-6.74,101.014-7.467,29.2-18.453,61.713-17.922,87.892.679,33.364,22.207,95.324,39.19,128.119-6.035,14.677-4.765,24,2.048,28,10.282,6.048,29.326,9.921,37.955.714,26.5-28.277-12.194-104,18.921-104.149s-4.8,75.613,21.685,103.89Zm0,0" transform="translate(36.827 0)" fill="#ffd289"/>
      <path id="Path_111" data-name="Path 111" d="M544.5,657.867c-.641-18.652,27.894-20.355,29.61-2.212,1.754,18.516-29.114,16.69-29.61,2.212Zm0,0" transform="translate(121.165 45.426)" fill="#fff"/>
      <path id="Path_112" data-name="Path 112" d="M554.989,644.024c-11.059.531-13.145,19.426,1.652,18.169,11.8-1,9.653-18.712-1.652-18.169Zm0,0" transform="translate(124.694 47.776)" fill="#2b1100"/>
      <path id="Path_113" data-name="Path 113" d="M550.724,658.027c.654-18.652-27.885-20.355-29.613-2.209-1.751,18.513,29.117,16.687,29.613,2.209Zm0,0" transform="translate(70.529 45.772)" fill="#fff"/>
      <path id="Path_114" data-name="Path 114" d="M532.523,644.184c11.072.531,13.157,19.426-1.652,18.169-11.8-1-9.653-18.712,1.652-18.169Zm0,0" transform="translate(74.707 48.122)" fill="#2b1100"/>
      <path id="Path_115" data-name="Path 115" d="M530.694,636.949c5.9,6.629,4.863,12.222,1.975,18.788-3.134-4.174-5.776-11.306-1.975-18.788Zm0,0" transform="translate(87.324 32.522)" fill="#f1ab6d"/>
      <path id="Path_116" data-name="Path 116" d="M545.52,678.109c3.779-30.735-14-28.021-15.12-46.992-2.506,28.068,12.38,21.553,15.12,46.992Zm0,0" transform="translate(90.136 19.926)" fill="#f1ab6d"/>
      <path id="Path_117" data-name="Path 117" d="M547.879,636.793c-5.9,6.629-4.85,12.219-1.975,18.788,3.135-4.174,5.776-11.309,1.975-18.788Zm0,0" transform="translate(119.238 32.185)" fill="#f1ab6d"/>
      <path id="Path_118" data-name="Path 118" d="M539.732,677.95c-3.788-30.732,14-28.017,15.107-46.989,2.506,28.068-12.38,21.562-15.107,46.989Zm0,0" transform="translate(109.76 19.589)" fill="#f1ab6d"/>
      <path id="Path_119" data-name="Path 119" d="M539.409,630.809c-5.037,12.01-3.8,30.315.654,44.347,3.763-14.491,4.269-32.251-.654-44.347Zm0,0" transform="translate(103.147 19.261)" fill="#f1ab6d"/>
      <path id="Path_120" data-name="Path 120" d="M544.685,645.005c-10.974,4.051-18.526,27.218-35.326,26.612,9.751-4.961,18.453-28.251,35.326-26.612Zm0,0" transform="translate(45.302 49.743)" fill="#f1ab6d"/>
      <path id="Path_121" data-name="Path 121" d="M553.935,662.219c-15.565,3.826-26.119-1.58-43.6-5.207,16.835,13.751,26.969,17.8,43.6,5.207Zm0,0" transform="translate(47.421 75.853)" fill="#f1ab6d"/>
      <path id="Path_122" data-name="Path 122" d="M575.428,698.851c-7.346,8.332-23.044,8.38-30.328-.038C503.136,692.4,547.7,645.6,559.5,646s60.9,45.311,15.925,52.854Zm0,0" transform="translate(84.409 52.059)" fill="#fff6e7"/>
      <path id="Path_123" data-name="Path 123" d="M554.582,646.128c10.961,4.048,18.526,27.228,35.314,26.608-9.738-4.961-18.453-28.251-35.314-26.608Zm0,0" transform="translate(142.973 52.167)" fill="#f1ab6d"/>
      <path id="Path_124" data-name="Path 124" d="M550.98,663.34c15.565,3.839,26.119-1.58,43.6-5.207-16.835,13.751-26.969,17.812-43.6,5.207Zm0,0" transform="translate(135.194 78.274)" fill="#f1ab6d"/>
      <path id="Path_125" data-name="Path 125" d="M534.48,650.254c5.95-2.569,12.086-3.011,17.739.382-2.977,8.528-13.688,7.688-17.739-.382Zm0,0" transform="translate(99.558 56.84)" fill="#ff8080"/>
      <path id="Path_126" data-name="Path 126" d="M511.543,670.3c13.8,26.823,50.149,34.277,80.536,29.784,30.378,4.421,66.725-3.036,80.526-29.857-10.876,6.775-59.678,27.856-80.526,21.872-20.858,6.06-69.663-15.022-80.536-21.8Zm0,0" transform="translate(50.019 104.386)" fill="#f1ab6d"/>
      <path id="Path_127" data-name="Path 127" d="M509.352,681.091c24.374,12.415,60.058,27.041,86.792,28.09,26.722-2.37,62.418-17,86.783-29.411-13.331,26.659-50.234,45.728-86.783,40.593-36.558,6.455-73.452-12.627-86.792-39.273Zm0,0" transform="translate(45.287 125.005)" fill="#f1ab6d"/>
      <path id="Path_128" data-name="Path 128" d="M564.133,729.435c-14.3-2.383-46.594-12.194-56.481-19.29.348,6.256,2.692,17.12,6.456,22.513,9.331,6.9,36.969.505,50.025-3.223Zm0,0" transform="translate(41.616 190.608)" fill="#f1ab6d"/>
      <path id="Path_129" data-name="Path 129" d="M553.877,723.492c-4.417.386-16.6,3.631-31.092,1.223,12.851,9.233,17.884,13.48,32.722,15.947-.123-6.111-1.2-12.971-1.63-17.17Zm0,0" transform="translate(74.299 219.434)" fill="#f1ab6d"/>
      <path id="Path_130" data-name="Path 130" d="M607.429,699.779c-8.247-1.359-38.337,21.474-57.113,27.733,12.086,9.059,41.807,5.713,50.174,5.713a185.808,185.808,0,0,0,6.939-33.446Zm0,0" transform="translate(133.76 168.093)" fill="#f1ab6d"/>
      <path id="Path_131" data-name="Path 131" d="M540.85,718.328c10.885,1.7,24.327,2.471,34.261.815-11.331,12.961-20.4,13.6-34.312,15.922a128.316,128.316,0,0,1,.05-16.737Zm0,0" transform="translate(112.667 208.281)" fill="#f1ab6d"/>
      <path id="Path_132" data-name="Path 132" d="M505.883,702.833c1.839-5.406,19.613-1.852,35.487.79-12.108,8.961-19.885,15-32.659,17.129-1-4-3.665-12.639-2.828-17.919Zm0,0" transform="translate(37.448 168.718)" fill="#f1ab6d"/>
      <path id="Path_133" data-name="Path 133" d="M552.062,641.76c6.6-6.749,19.429-19.278,24.674-18.191,3.789,2.8,2.332,18.156,2.421,27.092-2.209,1.036-5.9,5.1-9.3,8.9a34.682,34.682,0,0,0-13.761-6.468c.752-4.566-.357-8.44-4.038-11.331Zm0,0" transform="translate(137.531 3.482)" fill="#ffd5d5"/>
      <path id="Path_134" data-name="Path 134" d="M541.373,641.462c-6.6-6.753-19.43-19.281-24.662-18.207-3.8,2.815-2.344,18.169-2.43,27.1,2.221,1.036,5.9,5.1,9.306,8.9a34.722,34.722,0,0,1,13.751-6.481c-.755-4.553.357-8.43,4.035-11.318Zm0,0" transform="translate(55.49 2.807)" fill="#ffd5d5"/>
      <path id="Path_135" data-name="Path 135" d="M535.284,648.441a2,2,0,0,0-1.109,3.024c1.789,2.3,5.195,7.1,10.822,6.926,5.666-.174,9.381-5.261,10.664-6.531a1.89,1.89,0,1,0-2.616-2.7c-1.864,1.839-4.825,5.305-8.12,5.406-3.346.111-5.988-3.074-7.814-5.406a1.891,1.891,0,0,0-1.826-.717Zm0,0" transform="translate(98.15 57.281)" fill="#2b1100"/>
      <path id="Path_136" data-name="Path 136" d="M538.431,650.337a1.936,1.936,0,0,0-1.593,1.988l.234,10.589a1.914,1.914,0,0,0,3.826-.086l-.246-10.591a1.99,1.99,0,0,0-2.221-1.912Zm0,0" transform="translate(104.643 61.361)" fill="#2b1100"/>
      <path id="Path_137" data-name="Path 137" d="M555.878,653.752a1.869,1.869,0,0,0-1.346.79c-3.814,5.551-7.688,12.317-11.464,15.846-1.89,1.766-3.545,2.654-5.1,2.629s-3.381-.926-5.653-3.738a1.894,1.894,0,1,0-2.948,2.379c2.689,3.334,5.564,5.049,8.516,5.1s5.542-1.469,7.814-3.58c3.924-3.678,7.28-9.258,10.5-14.168,3.355,4.838,7.059,10.269,11.233,13.922,2.4,2.123,5,3.728,7.874,3.988s5.836-1.074,8.282-3.9a1.982,1.982,0,0,0-.111-2.778,1.96,1.96,0,0,0-2.752.31c-1.9,2.2-3.372,2.689-5.011,2.544-1.656-.148-3.656-1.185-5.741-3.024-4.171-3.668-8.49-10.133-12.257-15.527a1.96,1.96,0,0,0-1.839-.79Zm0,0" transform="translate(87.665 68.772)" fill="#2b1100"/>
    </g>
  </g>
</svg>
