<svg xmlns="http://www.w3.org/2000/svg" width="492" height="492" viewBox="0 0 492 492">
  <g id="Group_114" data-name="Group 114" transform="translate(-714 -369)">
    <path id="Path_432" data-name="Path 432" d="M246,0C381.862,0,492,110.138,492,246S381.862,492,246,492,0,381.862,0,246,110.138,0,246,0Z" transform="translate(714 369)" fill="#be92d1"/>
    <g id="Group_113" data-name="Group 113" transform="translate(-562.08 431.849)">
      <path id="Path_1033" data-name="Path 1033" d="M1363.56,239.869l3.589-.279c2.145-.187,4.291-.351,6.482-.514a19.506,19.506,0,0,0,2.843-1.7c-.3,1.608.49,3.777.187,5.385,1.118-1.049,3.357-1.352,4.639-2.821,1.7,3.077,4.966,4.733,7.74,2.914.373.676.653,1.493,1.1,2.145a5.994,5.994,0,0,0,5.083-4.5c3.381,3.4,7.134,5.082,9.372-.21.256.676,1.4,2.005,1.749,3.079.071-.654.466-2.005.629-2.8a10.389,10.389,0,0,1,8.486,2.308c2.191-1.935,2.914-5.082,3.8-7.881,2.332,1.422,4.243,1.935,5.316,4.687.606-2.191,2.284-4.011,3.147-5.922.373,2.657,2.424,3.5,3.45,5.339,3.333-2.891,6.5-9.092,9.838-2.518,5.712-2.355,11.89-10.282,15.62-2.238.325-.956,2.214-2.821,2.494-4.523,1.142,1.049,3.521,1.4,4.383,2.005.746-5.549,4.594-16.995,8.51-20.1.069,2.448,1.352,4.709,1.888,6.971,1.421-2.1,1.818-5.246,2.89-7.764.934.932,3.708,1.632,4.547,2.308.279-1.725,1.235-3.591,1.1-5.385.4-.046.815-.07,1.235-.094,1.422-7.133,5.222-8.835,8.02-14.5-1.422,4.523-1.025,9.838-.722,14.549,1.213-.3,1.305-1.12,2.028-2.122.07.21.139,1.911.326,1.911,1.655-7.484,3.567-15.806,11.424-18.417-3.125,7.881-2.984,16.646-.561,24.829.722-.629,1.981-1.281,2.8-2.121a16.545,16.545,0,0,0,2.518,6.947c1.632-2.448,3.777-5.432,6.854-6.295-.466,4.221,1,5.456,2.425,7.693a36.789,36.789,0,0,1,4.522,2.238c1.608,1.213,1.8,4.267,3.264,5.643.723-1.305,3.311-3.055,3.893-4.989,2.356,1.586,3.823,4.336,5.386,6.551.7-.932,2.448-1.679,3.124-2.821a53.589,53.589,0,0,0,10.165,10.607c.256-.722,1.352-1.981,1.679-3.17,1.281.886,4.593,1.352,5.944,2.145a25.583,25.583,0,0,1,1.7-2.332c.629,1.376,3.147,3.4,3.707,4.733.349-1.189,1.562-2.472,1.911-3.753,3.311,3.216,6.646,9.441,9.116,2.121,2.869,2.75,6.178,6.248,9.955,7.81.49-.91,1.259-1.679,1.679-2.355.979,1.422,3.545,2.635,4.687,4.08.7-1.259,3.007-2.728,3.707-3.847.022,1.283,1.259,3.218,1.072,5.013,3.662-1.237,7.368-3.079,10.679-4.29-.234.955-.351,2-.629,2.984,3.87-.7,9.955-3.147,12.354-6.272.514.817,1.727,1.515,2.31,2.821,1.188-1.677,3.916-2.936,5.339-4.2.442.676.676,1.491,1.072,2.214,2.1-1.935,3.823-5.082,5.922-7.53,1.281,2.635,1.562,6.271,3.24,8.51a67.113,67.113,0,0,0,7.973-11.727c.7.955,3.124,2.238,3.683,3.007,2.472-3.17,3.4-7.576,6.063-10.07.512,1.421,1.84,2.47,2.331,3.636,2.4-2.891,3.73-6.715,6.434-9.279,1.586,1.772,3.5,4.011,5.2,5.619.442-3.916,2.635-6.5,6.271-4.756.327-1.283,1.213-2.076,1.656-3.147,1.1,1.142,3.753,1.7,4.592,2.355.093-2.448.979-4.943,1-7.367a37.4,37.4,0,0,1,6.9,2.7c-1.655-5.315-1.655-11.331-2.238-16.855-2.915-3.357-7.322-5.968-9.233-10.351,2.1,1.374,3.543.559,5.782.606-.537-2.54-2.215-5.129-3.171-7.344,6.109-.117,5.363-5.408,2.052-8.719a3.208,3.208,0,0,1,1.259-.863c-.722-2.984-2.752-5.478-4.429-7.857,9.278-1.072-1.7-13.1-3.054-18.44-.42-1.749-1.305-4.384-1.679-6.9-5.036-3.963-8.742-2.633-13.288-4.709a7.429,7.429,0,0,1-1.283-.676,50.457,50.457,0,0,0-4.266-3.38,33.25,33.25,0,0,0-4.78-4.126c-15.247-10-39.679-12.729-57.259-13.756-35.412-2.074-71.2,6.761-106.052,3.381,1.025,2.424.21,5.664.746,7.857-2.845-.583-5.643,1.445-7.927,1.562.373,1.376.42,3.521.7,4.522-6.458,2.076-13.2,1.7-17.695,4.314a60.982,60.982,0,0,0-4.943,4.057c-3.94,3.216-7.693,6.9-11.634,10.211-6.9,5.8-15.013,10.561-22.4,15.34-9.511,6.154-20.959,13.474-28.606,23.1-5.827,7.322-20.842,21.052-22.45,28.933a9.363,9.363,0,0,1,1.539.42c-5.2,5.082-.514,7.623-1.632,10.863-1.259,3.707-3.94,7.088-5.665,10.585v.024A14.793,14.793,0,0,0,1363.56,239.869Z" transform="translate(6.845 24.557)" fill="#e5e0d9"/>
      <path id="Path_1034" data-name="Path 1034" d="M1375.136,219.531c-.653.815-1.353,2.938-2.169,4.033,1.539-.607,2.448-.444,4.173-.537-.115,2.472,1.329,4.546,1.422,6.668,1.447-1.049,5.246-1.166,6.668-2.052.3,1.12.186,2.052.537,3.194,3.985.28,8.159.046,12.146.373.093.652.21,1.305.3,1.957,8.579-1.538,17.112.863,26.811.42a.905.905,0,0,1-.559.98c5.058.955,9.954.815,14.291-2.308a24.71,24.71,0,0,1,1.1,3.287c2.984-1.539,24.083-.629,26.018,1.12,13.054-3.194,29.282-2.169,44.015-2.169,30.285,0,60.219-1.166,90.433-1.166,13.1,0,27.884,1,40.028-.256,8.813-.932,26.625-3.823,30.309-13.569,7.693-2.587,8.369-8.882,8.3-17.485,1-.232,1.842-.069,2.821-.349.117-4.1.071-8.416.3-12.543.979-.208,1.772-.186,2.657-.4-.3-.7-.561-1.422-.793-2.145a37.4,37.4,0,0,0-6.9-2.7c-.024,2.424-.91,4.919-1,7.367-.839-.653-3.5-1.213-4.592-2.355-.444,1.072-1.329,1.865-1.656,3.147-3.636-1.749-5.829.839-6.271,4.756-1.7-1.608-3.614-3.847-5.2-5.619-2.7,2.564-4.033,6.388-6.434,9.279-.49-1.166-1.818-2.215-2.331-3.636-2.659,2.494-3.591,6.9-6.063,10.07-.559-.769-2.984-2.052-3.683-3.007a67.113,67.113,0,0,1-7.973,11.727c-1.679-2.239-1.959-5.875-3.24-8.51-2.1,2.448-3.823,5.6-5.922,7.53-.4-.722-.629-1.538-1.072-2.214-1.422,1.259-4.15,2.518-5.339,4.2-.583-1.305-1.8-2-2.31-2.821-2.4,3.125-8.485,5.573-12.354,6.272.279-.98.4-2.029.629-2.984-3.311,1.211-7.017,3.053-10.679,4.29.188-1.8-1.049-3.731-1.072-5.013-.7,1.12-3.008,2.588-3.707,3.847-1.142-1.445-3.708-2.657-4.687-4.08-.42.676-1.188,1.445-1.679,2.355-3.777-1.562-7.086-5.06-9.955-7.81-2.47,7.32-5.8,1.1-9.116-2.121-.349,1.281-1.562,2.564-1.911,3.753-.559-1.329-3.077-3.357-3.707-4.733a25.583,25.583,0,0,0-1.7,2.332c-1.352-.793-4.663-1.259-5.944-2.145-.327,1.189-1.422,2.448-1.679,3.17a53.589,53.589,0,0,1-10.165-10.607c-.676,1.142-2.425,1.888-3.124,2.821-1.563-2.215-3.031-4.965-5.386-6.551-.582,1.935-3.17,3.684-3.893,4.989-1.469-1.376-1.656-4.43-3.264-5.643a36.789,36.789,0,0,0-4.522-2.238c-1.422-2.238-2.891-3.473-2.425-7.693-3.077.863-5.222,3.847-6.854,6.295a16.545,16.545,0,0,1-2.518-6.947c-.817.839-2.076,1.491-2.8,2.121-2.424-8.183-2.564-16.948.561-24.829-7.857,2.611-9.769,10.934-11.424,18.417-.187,0-.256-1.7-.326-1.911-.723,1-.815,1.818-2.028,2.122-.3-4.711-.7-10.025.722-14.549-2.8,5.665-6.6,7.368-8.02,14.5-.42.024-.839.048-1.235.094.139,1.794-.817,3.66-1.1,5.385-.839-.676-3.614-1.376-4.547-2.308-1.072,2.518-1.469,5.665-2.89,7.764-.537-2.262-1.82-4.523-1.888-6.971-3.917,3.1-7.764,14.547-8.51,20.1-.862-.607-3.24-.956-4.383-2.005-.28,1.7-2.169,3.567-2.494,4.523-3.73-8.044-9.909-.117-15.62,2.238-3.333-6.574-6.5-.373-9.838,2.518-1.027-1.842-3.077-2.681-3.45-5.339-.863,1.911-2.542,3.731-3.147,5.922-1.073-2.752-2.984-3.264-5.316-4.687-.886,2.8-1.608,5.946-3.8,7.881a10.389,10.389,0,0,0-8.486-2.308c-.163.793-.559,2.145-.629,2.8-.349-1.073-1.493-2.4-1.749-3.079-2.238,5.292-5.991,3.614-9.372.21a5.994,5.994,0,0,1-5.083,4.5c-.442-.652-.722-1.469-1.1-2.145-2.774,1.82-6.037.163-7.74-2.914-1.281,1.469-3.521,1.772-4.639,2.821.3-1.608-.49-3.777-.187-5.385a19.506,19.506,0,0,1-2.843,1.7h.046c-.722,1.213-1.166,5.409-1.888,6.622C1370.893,218.855,1373.294,219.788,1375.136,219.531Z" transform="translate(9.583 51.097)" fill="#beb9b2"/>
      <path id="Path_1035" data-name="Path 1035" d="M1543.156,223.48c3.725-.085,6.679-1.8,7.214-7.278s2.677-9.227,3.768-9.741c1.093-.535-.279,3.189,0,6.4.3,3.21-1.349,11.238,7.728,10.574,9.119-.664,6.979-12.972,6.872-16.226-.085-3.233,2.761,4.58,3.318,8.692.512,4.089,1.861,9.8,8.284,6.593,6.187-3.1,2.527-12.5,2.269-13.165a.067.067,0,0,1-.021-.043,35.572,35.572,0,0,0-4.924-6.058c-10.7-10.7-35.322,0-35.322,0a38.184,38.184,0,0,0-4.966,6.808c-.043.129-.087.279-.129.429C1533.524,221.425,1539.389,223.565,1543.156,223.48Z" transform="translate(92.886 68.967)" fill="#e5e0d9"/>
      <path id="Path_1036" data-name="Path 1036" d="M1560.476,228.416c27.788,0,29.05-11.646,22.606-21.728.258.664,3.918,10.061-2.269,13.165-6.423,3.21-7.771-2.5-8.284-6.593-.558-4.111-3.4-11.924-3.318-8.692.106,3.254,2.247,15.562-6.872,16.226-9.077.664-7.428-7.364-7.728-10.574-.279-3.212,1.093-6.936,0-6.4-1.091.514-3.233,4.26-3.768,9.741s-3.489,7.193-7.214,7.278c-3.768.085-9.633-2.055-5.908-13.016.042-.15.085-.3.129-.429C1532.2,217.305,1533.312,228.416,1560.476,228.416Z" transform="translate(92.413 71.608)" fill="#beb9b2"/>
      <path id="Path_1037" data-name="Path 1037" d="M1500.663,224.649c-3.725-.085-6.68-1.8-7.215-7.278s-2.676-9.227-3.767-9.741c-1.093-.535.277,3.189,0,6.4-.3,3.21,1.347,11.238-7.728,10.574-9.12-.664-6.98-12.972-6.872-16.226.085-3.233-2.762,4.58-3.318,8.692-.514,4.089-1.863,9.8-8.284,6.593-6.187-3.1-2.527-12.5-2.269-13.165a.067.067,0,0,0,.021-.043,35.5,35.5,0,0,1,4.924-6.058c10.7-10.7,35.321,0,35.321,0a38.266,38.266,0,0,1,4.967,6.808c.043.129.085.279.129.429C1510.3,222.594,1504.43,224.734,1500.663,224.649Z" transform="translate(54.9 69.55)" fill="#e5e0d9"/>
      <path id="Path_1038" data-name="Path 1038" d="M1484.449,229.585c-27.786,0-29.05-11.646-22.6-21.728-.258.664-3.918,10.061,2.269,13.165,6.421,3.21,7.77-2.5,8.284-6.593.556-4.111,3.4-11.924,3.318-8.692-.108,3.254-2.248,15.562,6.872,16.226,9.075.664,7.428-7.364,7.728-10.574.277-3.212-1.093-6.936,0-6.4,1.091.514,3.231,4.26,3.767,9.741s3.49,7.193,7.215,7.278c3.766.085,9.633-2.055,5.908-13.016-.043-.15-.085-.3-.129-.429C1512.728,218.474,1511.615,229.585,1484.449,229.585Z" transform="translate(54.266 72.192)" fill="#beb9b2"/>
      <path id="Path_1039" data-name="Path 1039" d="M1349.895,215.289c1.129.565,2.6.112,3.809.367a18.677,18.677,0,0,0,7.251,14.135c.255,0,3.81-1.326,3.979-1.41.084,1.721.225,3.555.479,5.247,3.386-.9,8.576.255,11.935-1.043.507,1.749,1.862,3.78,2.229,5.3,1.692-1.214,4.994-1.553,6.827-2.879,1.806,6.236,6.969,7.563,12.725,4.657,5.982,5.812,34.254,5.67,44.354,4.062,13.656-2.172,35.127-5.106,47.23-14.078-.31-.565-.62-1.157-.874-1.722-7.731-2.651-13.741-5.615-18.48-13.711-.649,1.833-1.5,3.47-2.06,5.417-.65-1.439-3.528-4.006-4.261-6.829-.734,1.214-4.43,4.035-5.333,5.7-.733-1.1-2.2-2.906-3.075-4.147-8.6,4.4-15.574-.537-23.727,6.658-3.218-4.682-5.447-4.994-9.988-.986-.255-1.355-2.23-4.2-2.569-5.784-4.992,1.129-10.129,3.582-15.489,3.949-1.383-4.741-3.33-3.894-5.615-6.772-.169,1.241.055,2.737-.424,3.894-4.712-.9-9.564-4.4-13.994-7.053-.7.959-.733,1.692-1.468,2.792-6.292.057-11.257-3.414-11.6-9.394-4.57-.932-8.1-2.765-12.1-4.063,6.377-5.614,3.161-9.96-1.043-14.276-.2,3.019-1.806,4.739-4.543,7.082-.7,6.123.169,4.176-4.233,8.464C1351.532,203.609,1351.165,210.381,1349.895,215.289Z" transform="translate(0 61.411)" fill="#1a1513"/>
      <path id="Path_1040" data-name="Path 1040" d="M1355.806,189.474c4.2,4.317,7.421,8.662,1.043,14.276,4.008,1.3,7.534,3.131,12.1,4.063.339,5.98,5.3,9.451,11.6,9.394.734-1.1.763-1.833,1.468-2.792,4.43,2.651,9.282,6.15,13.994,7.053.479-1.157.255-2.653.424-3.894,2.284,2.878,4.231,2.031,5.615,6.772,5.36-.367,10.5-2.821,15.489-3.949.339,1.58,2.314,4.429,2.569,5.784,4.542-4.008,6.77-3.7,9.988.986,8.153-7.194,15.123-2.257,23.727-6.658.875,1.241,2.343,3.047,3.075,4.147.9-1.665,4.6-4.486,5.333-5.7.733,2.822,3.611,5.39,4.261,6.829.564-1.947,1.411-3.584,2.06-5.417,4.739,8.1,10.749,11.06,18.48,13.711a66.681,66.681,0,0,1-4.486-10.749c2.031-.7,4.147-2.51,5.558-3.047-3.188-2.906-5.219-6.151-9.874-7.392.535-9.564-13.092-11.455-17.325-19.242-4.6-.537-8.888-2.088-13.627-1.863-4.035-7.251-15.378-3.1-22.629-2.765-.339-1.325-.141-2.51-.394-3.865a52.955,52.955,0,0,1-17.974,1.016c.169-1.918-.62-4.486-.337-6.32-4.12,2.116-8.324,2.116-12.529,3.725-4.768.31-6.263-.112-8.182.818-1.016-1.3-3.949-4.6-4.288-5.3-.2-3.216-1.665-5.869-2.708-8.1-2.4,5.531-4.29,4.12-7.027,5.728-3.1,6.01-8.69,10.157-15.743,8.492A14.825,14.825,0,0,1,1355.806,189.474Z" transform="translate(2.808 55.26)" fill="#2c1f1a"/>
      <path id="Path_1041" data-name="Path 1041" d="M1466.585,160.522c-4.622,7.236,1.15,21.664,7.077,27.977,7.26,7.732,20.447,3.9,27.886,12.218.068-.609.157-1.195.225-1.8,7.011,1.962,17.539,5.952,23.693,1.263a112.844,112.844,0,0,0,27.007,0c6.156,4.688,16.683.7,23.693-1.263.069.61.159,1.2.226,1.8,7.439-8.318,20.626-4.486,27.885-12.218,5.929-6.313,11.7-20.74,7.079-27.977,1.872.045,4.014-1.127,5.478-1.172-.925-3.991-3.426-7.822-4.306-12.106,3.314-2.391,2.007-6.7-.022-10.325,1.4-.067,2.909-.384,4.306-.339-.045-4.26-1.8-8.408-4.057-12.2.474-.292,2.412-.856,2.908-1.06-3.742-9.76,4.643-10.82-6.65-19.093,2.457.045,4.486-1.308,6.673-1.556-2.615-6.718-16.208-13.3-15.532-19.883-8,.541-5.163-6-8.251-7.822-3.652-2.119-9.9-2.705-14.247-3.855-5.839-1.511-18.666-8.792-25.676-7.552.382-.97.9-2.344,1.4-3.359-4.576,1.578-9.31,3.065-14.225,3.269l-.18.361-.18-.361c-4.914-.2-9.649-1.691-14.225-3.269.5,1.015,1.015,2.389,1.4,3.359-7.011-1.24-19.838,6.042-25.676,7.552-4.351,1.15-10.6,1.736-14.248,3.855-3.089,1.826-.249,8.363-8.251,7.822.676,6.583-12.918,13.165-15.532,19.883,2.187.247,4.215,1.6,6.673,1.556-11.295,8.273-2.908,9.333-6.65,19.093.5.2,2.434.767,2.908,1.06-2.254,3.787-4.012,7.936-4.057,12.2,1.4-.045,2.908.271,4.3.339-2.028,3.63-3.336,7.935-.022,10.325-.878,4.284-3.381,8.114-4.3,12.106C1462.571,159.4,1464.713,160.567,1466.585,160.522Zm24.8-11.181c-4.441-.79-9.378-1.174-13.481-2.119,3.156-6.47,16.863-12.557,14.788-18.351,3.968-2.185,5.14-5.162,3.382-8.814,7.236-.112,14.609-12.241,13.594-19.206.991-.609,3.02-.226,4.147-.361a12.03,12.03,0,0,1,.361-4.216c5.049,1.939,9.693-.135,14.27.88.18-1.329.247-2.683.36-3.967,3.81,3.629,6.786,5.387,10.168,5.613,3.381-.226,6.356-1.984,10.166-5.613.113,1.284.181,2.638.361,3.967,4.576-1.015,9.22,1.06,14.27-.88a12.03,12.03,0,0,1,.361,4.216c1.127.135,3.155-.247,4.147.361-1.015,6.965,6.358,19.093,13.594,19.206-1.76,3.653-.586,6.629,3.381,8.814-2.074,5.794,11.632,11.881,14.789,18.351-4.1.946-9.041,1.329-13.482,2.119a42.877,42.877,0,0,1-1.4,13.233c-6.515-1.127-9.176,4.282-10.145,10.054-4.733-2.1-8.161,1.442-9.942,5.952-4.215-1.8-7.056,2.073-9.039,6.56-5.094-4.6-11.272.541-17.065.2-5.794.339-11.971-4.8-17.065-.2-1.984-4.487-4.825-8.365-9.039-6.56-1.782-4.51-5.208-8.049-9.943-5.952-.968-5.772-3.628-11.181-10.144-10.054A42.884,42.884,0,0,1,1491.383,149.341Z" transform="translate(55.5)" fill="#e5e0d9"/>
      <path id="Path_1042" data-name="Path 1042" d="M1485.794,138.365a42.884,42.884,0,0,0,1.4,13.233c6.515-1.127,9.176,4.282,10.144,10.054,4.735-2.1,8.161,1.442,9.943,5.952,4.215-1.8,7.055,2.073,9.039,6.56,5.094-4.6,11.271.541,17.065.2,5.793.339,11.971-4.8,17.065-.2,1.983-4.487,4.825-8.365,9.039-6.56,1.781-4.51,5.208-8.049,9.942-5.952.97-5.772,3.63-11.181,10.145-10.054a42.877,42.877,0,0,0,1.4-13.233c4.441-.79,9.378-1.174,13.482-2.119-3.156-6.47-16.863-12.557-14.789-18.351-3.967-2.185-5.141-5.162-3.381-8.814-7.236-.112-14.609-12.241-13.594-19.206-.992-.609-3.02-.226-4.147-.361a12.03,12.03,0,0,0-.361-4.216c-5.05,1.939-9.694-.135-14.27.88-.18-1.329-.249-2.683-.361-3.967-3.81,3.629-6.785,5.387-10.166,5.613-3.381-.226-6.358-1.984-10.168-5.613-.113,1.284-.18,2.638-.36,3.967-4.578-1.015-9.221,1.06-14.27-.88a12.03,12.03,0,0,0-.361,4.216c-1.127.135-3.156-.247-4.147.361,1.015,6.965-6.358,19.093-13.594,19.206,1.758,3.653.586,6.629-3.382,8.814,2.074,5.794-11.632,11.881-14.788,18.351C1476.416,137.192,1481.353,137.576,1485.794,138.365Z" transform="translate(61.089 10.976)" fill="#1a1513"/>
      <path id="Path_1043" data-name="Path 1043" d="M1561.51,103.732c-1.4-.369-2.9.168-4.231-.394-.811-.754.43-2.248-.328-3.053-.971-.2-2.142.088-3.049-.325.9-1.935.531-5.36,1.971-7.557-1.927.351-4.573-.612-6.533-.283,1.258-1.917,1.13-4.46,2.9-6.476-3.587.4-10.82-3.813-16.413-5.2,3.026-3.363,14.186-15.841,26.948-16.866,11.506-.925,9.188,29.8.141,44.357C1561.283,107.482,1560.615,106.29,1561.51,103.732Z" transform="translate(92.769 1.671)" fill="#1a1513"/>
      <path id="Path_1044" data-name="Path 1044" d="M1507.793,122c0,4.69,5.433,6.2,7.891,6.2s7.89-1.511,7.89-6.2c0-4.711-7.89-3.945-7.89-3.945S1507.793,117.286,1507.793,122Z" transform="translate(78.787 28.831)" fill="#1a1818"/>
      <path id="Path_1045" data-name="Path 1045" d="M1522.453,113.832s1.5-6.2,7.328-6.2,9.126,5.453,9.126,5.453-1.613,6.2-6.872,6.763A8.928,8.928,0,0,1,1522.453,113.832Z" transform="translate(86.1 23.654)" fill="#1e7ec3"/>
      <path id="Path_1046" data-name="Path 1046" d="M1527.9,108.634s3.906,3.258,0,9.519C1527.9,118.153,1524.1,114.833,1527.9,108.634Z" transform="translate(87.973 24.156)" fill="#1a1818"/>
      <circle id="Ellipse_22" data-name="Ellipse 22" cx="1.885" cy="1.885" r="1.885" transform="translate(1612.123 132.213)" fill="#fff"/>
      <path id="Path_1047" data-name="Path 1047" d="M1476.17,103.732c1.4-.369,2.9.168,4.229-.394.811-.754-.429-2.248.33-3.053.97-.2,2.142.088,3.048-.325-.9-1.935-.531-5.36-1.972-7.557,1.929.351,4.573-.612,6.535-.283-1.258-1.917-1.13-4.46-2.9-6.476,3.587.4,10.821-3.813,16.413-5.2-3.025-3.363-14.185-15.841-26.947-16.866-11.506-.925-9.189,29.8-.141,44.357C1476.4,107.482,1477.063,106.29,1476.17,103.732Z" transform="translate(58.494 1.671)" fill="#1a1513"/>
      <path id="Path_1048" data-name="Path 1048" d="M1505.417,134.747s8.431,2.254,11.452-5.523c3.02,7.777,11.452,5.523,11.452,5.523-10.709,0-9.964-11.069-9.964-11.069h-2.977S1516.126,134.747,1505.417,134.747Z" transform="translate(77.602 31.66)" fill="#1a1818"/>
      <path id="Path_1049" data-name="Path 1049" d="M1509.137,113.832s-1.5-6.2-7.326-6.2-9.126,5.453-9.126,5.453,1.611,6.2,6.872,6.763A8.927,8.927,0,0,0,1509.137,113.832Z" transform="translate(71.252 23.654)" fill="#1e7ec3"/>
      <path id="Path_1050" data-name="Path 1050" d="M1499.359,108.634s-3.906,3.258,0,9.519C1499.359,118.153,1503.155,114.833,1499.359,108.634Z" transform="translate(73.714 24.156)" fill="#1a1818"/>
      <circle id="Ellipse_23" data-name="Ellipse 23" cx="1.885" cy="1.885" r="1.885" transform="translate(1573.049 132.213)" fill="#fff"/>
    </g>
  </g>
</svg>
