<svg xmlns="http://www.w3.org/2000/svg" width="492" height="492" viewBox="0 0 492 492">
  <g id="Group_59" data-name="Group 59" transform="translate(-130 -249)">
    <g id="Component_1_2" data-name="Component 1 – 2" transform="translate(130 249)">
      <g id="Group_53" data-name="Group 53">
        <circle id="Ellipse_7" data-name="Ellipse 7" cx="246" cy="246" r="246" fill="#709683"/>
      </g>
    </g>
    <g id="Group_64" data-name="Group 64" transform="translate(220.542 -124.912)">
      <path id="Path_303" data-name="Path 303" d="M217.107,669.24c26.156-1.474,55.973-82.649,13.619-94.75,3.545-17.612,7.9-41.282-1.866-67.6-39.475-13.758-110.553-19.961-148.707,1.656-7.863,25.075-3.51,48.747.035,66.359-42.354,12.1-12.537,93.276,13.631,94.75,8.957,2.29,19.64,1.173,25.34.737,9.036,2.9,22,.368,22,.368,5.043.551,18.043,1.966,26.548,1.656s14.807-.068,21.771-1.288c7.471.8,21.712,1.933,27.63-1.889Zm0,0" transform="translate(0 144.024)" fill="#b9b9b9"/>
      <path id="Path_304" data-name="Path 304" d="M153.067,814.712c4.262,4.341,16.487,6.366,24.085.816,6.322-4.627,5.054-18.868-2.163-21.745-2.072-25.2,30.76-81.983,40.029-135.94,6.3-36.713-24.247-85.988-22.025-107.933,6.714-22.437,10.766-41.523-.056-66.321,5.883-18.927-.242-58.7-5.676-62.065-5.965-3.719-25.237,20.353-34.067,38.337-10.866-1.164-16.348-.784-26.537.139-9.947-18.582-29.219-42.643-35.181-38.936-5.435,3.372-11.547,43.135-5.676,62.062-10.822,24.81-6.77,43.9-.056,66.324C87.975,571.4,60.692,619.035,66.988,655.76c9.269,53.958,42.1,112.477,40.029,137.676-7.218,2.868-8.485,17.12-2.151,21.748,7.586,5.538,19.814,3.513,24.073-.816,23.53-23.958-11.583-144.908,12.066-143.839,24.279,1.117-11.468,120.237,12.063,144.183Zm0,0" transform="translate(13.775 0.485)" fill="#f2f2f2"/>
      <path id="Path_305" data-name="Path 305" d="M70.973,513.489c3.51,5.455,20.377,3.451,27.412-2.178,13.227-1.323,27.721-23.9,26.581-27.064-3.154-10.339,3.684-14.68,6.2-24.821-4.951.368-9.59.035-13.413.519-6.3-14.577-27.4-41.62-34.975-39.272-7,3.525-11.606,44.323-6.31,62.525-7,14.76-5.93,19.743-5.491,30.292Zm0,0" transform="translate(22.732 0.185)" fill="#c0643d"/>
      <path id="Path_306" data-name="Path 306" d="M91.928,433.8c-1.565,5.066,6.136,19.743,14.574,25.408,19.941,7.241,21.839,27.02,43.185,28.046.884-8.588-2.983-22.254-6.552-29.69-19.676-14.138-31.821-20.527-51.208-23.763Zm0,0" transform="translate(63.783 26.028)" fill="#c0643d"/>
      <path id="Path_307" data-name="Path 307" d="M88.269,459.864c.554,3.914-1.541,12.157,2.591,13.089,2.178-2.844,3.787-5.974,5.791-8.68,3.431.139,2.706,8.624,7.621,9.254,2.234.221,4.2-10.692,7.61-8.161,4.663,15.909,26.41,13.032,38.016,18.836,5.641-13.3,2.473-60.489-7.011-63.7-3.3-1.37-23.66,18.558-33.1,39.8a105.55,105.55,0,0,0-21.518-.436Zm0,0" transform="translate(56.952 0)" fill="#56473c"/>
      <path id="Path_308" data-name="Path 308" d="M72.66,449.719c6.493-1.232,13.124-7.654,22.817-4.892-.808,3.039-11.294,6.183-8.691,12.767,1.771,3.985,9.52,4.409,14.942,7.035-7.309,9.222-12.688,17.141-29.334,19.319-3.442-12.814-2.535-23.728.265-34.229Zm0,0" transform="translate(21.805 46.166)" fill="#56473c"/>
      <path id="Path_309" data-name="Path 309" d="M98.695,450.926c3.985-9.4,19.767-31.072,23.3-29.563,5.4,2.151,6.216,27.674,6.216,37a33.242,33.242,0,0,0-8.426,14.68,39.438,39.438,0,0,0-16.027-9.785c-1.152-4.642-2.048-9.8-5.066-12.331Zm0,0" transform="translate(77.357 1.662)" fill="#ffd5d5"/>
      <path id="Path_310" data-name="Path 310" d="M104.111,451.622c-3.993-9.393-18.591-31.072-24.96-30.035-6.814.967-5.744,28.862-5.744,38.187a33.293,33.293,0,0,1,8.429,14.665,39.408,39.408,0,0,1,16.024-9.773c1.152-4.651,3.224-10.51,6.251-13.044Zm0,0" transform="translate(27.998 2.174)" fill="#ffd5d5"/>
      <path id="Path_311" data-name="Path 311" d="M92.6,454.688a1.8,1.8,0,0,0-1.323,1.762l-.083,6.781a1.769,1.769,0,1,0,3.537,0l.08-6.781a1.85,1.85,0,0,0-2.21-1.762Zm0,0" transform="translate(62.753 66.605)" fill="#2b1100"/>
      <path id="Path_312" data-name="Path 312" d="M111.051,456.373a1.844,1.844,0,0,0-1.323,2.428c.713,1.842.5,2.821.15,3.383a2.468,2.468,0,0,1-2.06,1.037,5.766,5.766,0,0,1-5.756-4.271,1.865,1.865,0,0,0-3.386.068,5.488,5.488,0,0,1-5.455,4.421,2.6,2.6,0,0,1-2.063-1.105c-.389-.6-.61-1.553-.068-3.316a1.773,1.773,0,0,0-3.4-1.026,7.43,7.43,0,0,0,.516,6.334A6.16,6.16,0,0,0,93,466.906a8.654,8.654,0,0,0,7.451-3.616,9.215,9.215,0,0,0,7.654,3.466,5.934,5.934,0,0,0,4.789-2.647c1.061-1.715,1.129-4.041.15-6.563a1.826,1.826,0,0,0-1.992-1.173Zm0,0" transform="translate(55.054 69.93)" fill="#2b1100"/>
      <path id="Path_313" data-name="Path 313" d="M97.265,458.9c-5.181-11.294,13.654-24.279,20.032-10.015,6.652,14.872-16.59,17.545-20.032,10.015Zm0,0" transform="translate(72.837 43.182)" fill="#bbc22d"/>
      <path id="Path_314" data-name="Path 314" d="M104.176,444c-8.842.463-7.966,13.4.3,13.056,10.062-.416,8.565-13.5-.3-13.056Zm0,0" transform="translate(75.814 45.864)" fill="#2b1100"/>
      <path id="Path_315" data-name="Path 315" d="M100.632,458.946c5.166-11.294-13.666-24.279-20.044-10.017-6.655,14.863,16.6,17.536,20.044,10.017Zm0,0" transform="translate(39.78 43.273)" fill="#bbc22d"/>
      <path id="Path_316" data-name="Path 316" d="M88.051,444.047c8.83.451,7.954,13.389-.309,13.056-10.062-.416-8.568-13.516.309-13.056Zm0,0" transform="translate(42.47 45.955)" fill="#2b1100"/>
      <path id="Path_317" data-name="Path 317" d="M90,453.882c3.177-1.989,8.243-1.312,10.315-.265-.068,3.363-2.384,5.137-5.158,6.516-2.82-1.53-3.926-3.787-5.158-6.251Zm0,0" transform="translate(60.426 62.645)" fill="#ff8080"/>
      <path id="Path_318" data-name="Path 318" d="M90.767,452.582a1.851,1.851,0,0,0-1.4,2.5,15.559,15.559,0,0,0,2.658,4.052,12.8,12.8,0,0,0,3.752,3.165,1.81,1.81,0,0,0,1.406.082c3.4-1.2,5.308-4.686,6.552-7.221a1.77,1.77,0,1,0-3.168-1.553,13.473,13.473,0,0,1-4.052,4.869,11.169,11.169,0,0,1-1.842-1.621,13.7,13.7,0,0,1-2.06-3.168,1.824,1.824,0,0,0-1.842-1.105Zm0,0" transform="translate(58.911 62.448)" fill="#2b1100"/>
    </g>
  </g>
</svg>
