<svg id="emTzBMVrIXU1" xmlns="http://www.w3.org/2000/svg" xmlns:xlink="http://www.w3.org/1999/xlink" viewBox="0 0 682 682" shape-rendering="geometricPrecision" text-rendering="geometricPrecision"><g id="emTzBMVrIXU2" transform="matrix(1 0 0 1 -166 -262)"><circle id="emTzBMVrIXU3" r="341" transform="matrix(1 0 0 1 507 603)" fill="rgb(226,142,131)" stroke="none" stroke-width="1" stroke-miterlimit="1"/><g id="emTzBMVrIXU4" transform="matrix(1 0 0 1 171.46800231933594 273.00519043652338)"><g id="emTzBMVrIXU5" transform="matrix(1 0 0 1 151.60200500488281 315.34298706054688)"><path id="emTzBMVrIXU6" d="M467.041000,423.163000C464.991000,417.102000,471.490000,405.463000,471.527000,399.353000C471.588000,389.168000,468.961000,378.901000,466.019000,369.225000C460.919000,352.459000,454.155000,334.782000,444.529000,320.018000C424.162000,288.782000,419.409000,283.135000,418.706000,275.406000L239.557000,271.893000C238.857000,281.027000,228.619000,297.635000,214.366000,317.910000C202.973000,334.116000,193.893000,352.575000,189.266000,371.888000C186.895000,381.788000,185.695000,392.104000,186.792000,402.264000C187.445000,408.301000,194.867000,421.372000,190.492000,425.934000C188.346000,428.170000,185.213000,429.076000,182.302000,430.141000C170.811000,434.347000,160.641000,442.582000,155.078000,453.480000C148.602000,466.164000,150.878000,477.280000,154.678000,490.121000C157.078000,498.246000,158.752000,505.849000,163.362000,513.155000C171.302000,525.740000,183.927000,534.055000,197.862000,538.715000C237.862000,552.090000,286.581000,542.489000,325.272000,528.673000C342.154000,522.644000,463.081000,514.527000,479.129000,506.542000C490.199000,501.034000,494.748000,489.642000,494.321000,477.769000C494.102000,471.718000,491.910000,466.349000,491.128000,460.451000C490.244000,453.778000,491.514000,446.712000,488.451000,440.451000C486.408000,436.276000,482.810000,433.417000,479.002000,430.931000C476.220000,429.115000,469.349000,427.101000,467.602000,424.349000C467.368264,423.977513,467.179920,423.579337,467.041000,423.163000Z" transform="matrix(1 0 0 1 -150.99000549316406 -271.89199829101563)" fill="rgb(250,199,92)" stroke="none" stroke-width="1" stroke-miterlimit="1"/><path id="emTzBMVrIXU7" d="M262.282000,396.126000C268.605000,400.341000,274.928000,402.449000,281.251000,400.341000C281.251000,404.556000,283.359000,408.770000,281.251000,412.986000C279.143000,415.094000,274.928000,417.201000,272.820000,419.309000C264.389000,436.170000,281.777000,456.720000,296.531000,460.935000C309.177000,463.043000,319.188000,461.463000,331.831000,455.135000C338.154000,450.920000,346.585000,446.704000,350.800000,440.381000C355.717000,418.602000,347.638000,404.552000,344.477000,401.741000C376.091000,401.741000,392.602000,372.941000,384.171000,345.541000C384.171000,316.385000,375.717000,296.552000,365.554000,275.461000L255.430000,277.569000C234.356000,317.615000,213.772000,374.781000,262.282000,396.126000Z" transform="matrix(1 0 0 1 -132.26499938964844 -271.07199096679688)" fill="rgb(255,255,255)" stroke="none" stroke-width="1" stroke-miterlimit="1"/><path id="emTzBMVrIXU8" style="mix-blend-mode:multiply;isolation:isolate" d="M409.680000,299.680000C410.696000,298.327000,411.707000,297.041000,412.714000,295.780000C403.104000,281.180000,404.100000,281.117000,403.580000,275.407000L224.431000,271.894000C224.078000,276.486000,221.314000,282.967000,216.844000,290.852000C258.856000,356.200000,362.833000,359.711000,409.680000,299.680000Z" transform="matrix(1 0 0 1 -135.86399841308594 -271.89199829101563)" fill="rgb(241,190,167)" stroke="none" stroke-width="1" stroke-miterlimit="1"/><path id="emTzBMVrIXU9" style="mix-blend-mode:multiply;isolation:isolate" d="M406.566000,410.446000C418.150000,408.834000,430.446000,409.673000,441.761000,411.415000C441.528204,410.804449,441.340042,410.177802,441.198000,409.540000C439.618000,402.023000,445.048000,394.840000,445.098000,385.912000C445.159000,375.727000,442.532000,365.460000,439.590000,355.784000C437.013884,347.176082,433.991802,338.707977,430.536000,330.414000C447.954000,371.914000,401.867000,427.600000,302.878000,415.614000C284.384000,413.373000,275.909000,406.128000,279.245000,403.252000C274.004000,404.110000,269.024000,407.467000,267.070000,412.404000C265.116000,417.341000,266.812000,423.704000,271.413000,426.357000C269.254000,425.114000,266.208000,430.244000,266.060000,431.707000C265.754000,434.739000,269.049000,438.607000,271.080000,440.448000C280.570680,448.882644,293.479681,452.354710,305.921000,449.819000C313.659000,448.174000,320.697000,444.271000,327.716000,440.619000C349.467147,429.311643,372.202668,420.008238,395.641000,412.824000C399.213847,411.742886,402.867037,410.947712,406.566000,410.446000Z" transform="matrix(1 0 0 1 -124.56400299072266 -258.45098876953125)" fill="rgb(241,190,167)" stroke="none" stroke-width="1" stroke-miterlimit="1"/><path id="emTzBMVrIXU10" style="mix-blend-mode:multiply;isolation:isolate" d="M152.619000,430.800000C151.553114,437.306971,151.468508,443.936949,152.368000,450.469000C159.142000,501.758000,202.996000,510.191000,248.083000,504.814000C243.264000,497.467000,239.811000,476.280000,238.683000,467.232000C193.716000,473.557000,156.163000,452.590000,152.619000,430.800000Z" transform="matrix(1 0 0 1 -150.81500244140625 -235.39300537109375)" fill="rgb(241,190,167)" stroke="none" stroke-width="1" stroke-miterlimit="1"/><path id="emTzBMVrIXU11" style="mix-blend-mode:multiply;isolation:isolate" d="M278.765000,435.856000L278.873000,435.897000C279.064512,435.842118,279.259212,435.799037,279.456000,435.768000C281.352257,435.513725,283.218821,436.407932,284.209000,438.045000C284.257000,438.116000,284.294000,438.170000,284.337000,438.236000C284.491000,438.312000,284.637000,438.397000,284.791000,438.475000C287.464523,434.973122,288.349274,430.423609,287.183000,426.175000C286.850000,424.811000,285.958000,401.362000,289.783000,400.666000C271.997000,411.758000,239.410000,405.609000,220.001000,393.689000C188.091000,374.089000,186.111000,345.374000,191.949000,335.120000C184.049000,346.490000,181.129000,359.689000,180.081000,373.427000C179.464000,381.527000,178.681000,402.775000,184.881000,408.812000C190.113000,413.903000,200.438000,407.319000,206.768000,406.580000C219.643000,405.080000,232.850000,408.470000,244.524000,413.739000C250.145000,416.276000,252.695000,418.977000,258.289000,421.571000C266.127000,425.208000,273.517000,429.272000,278.765000,435.856000Z" transform="matrix(1 0 0 1 -144.40299987792969 -257.36898803710938)" fill="rgb(241,190,167)" stroke="none" stroke-width="1" stroke-miterlimit="1"/></g><path id="emTzBMVrIXU12" d="M186.628000,427.239000C184.982632,427.239662,183.487212,426.283062,182.798000,424.789000C169.390000,395.738000,177.711000,355.169000,205.056000,316.271000C215.207000,301.831000,228.784000,281.571000,229.494000,272.355000C229.558729,270.815441,230.458418,269.433905,231.840294,268.752103C233.222169,268.070302,234.865961,268.196913,236.127126,269.082291C237.388291,269.967670,238.065802,271.470688,237.894000,273.002000C237.207000,281.942000,229.694000,295.883000,211.949000,321.121000C186.349000,357.531000,178.313000,394.966000,190.449000,421.258000C191.052707,422.562508,190.949471,424.084819,190.175171,425.295878C189.400871,426.506936,188.062429,427.239509,186.625000,427.239000Z" transform="matrix(1 0 0 1 6.47300004959106 42.66400146484375)" fill="rgb(104,11,11)" stroke="none" stroke-width="1" stroke-miterlimit="1"/><path id="emTzBMVrIXU13" d="M417.822000,427.510000C416.369289,427.509536,415.019151,426.761204,414.248850,425.529536C413.478549,424.297868,413.396611,422.756388,414.032000,421.450000C421.580000,405.935000,416.763000,360.766000,391.778000,322.450000C387.927000,316.540000,384.634000,311.550000,381.822000,307.287000C369.316000,288.330000,365.955000,283.237000,365.288000,275.918000C365.076475,273.598404,366.785404,271.546525,369.105000,271.335000C371.424596,271.123475,373.476475,272.832404,373.688000,275.152000C374.161000,280.363000,377.276000,285.083000,388.862000,302.646000C391.682000,306.919000,394.981000,311.923000,398.845000,317.846000C424.145000,356.646000,431.152000,405.535000,421.616000,425.140000C420.909085,426.590957,419.436003,427.511148,417.822000,427.510000Z" transform="matrix(1 0 0 1 49.82899856567383 43.31999969482422)" fill="rgb(104,11,11)" stroke="none" stroke-width="1" stroke-miterlimit="1"/><path id="emTzBMVrIXU14" d="M468.275000,403.437000C496.061000,410.947000,516.380000,450.659000,496.061000,492.050000C475.785000,533.350000,429.975000,541.614000,381.914000,534.855000C328.859000,527.395000,318,525.055000,278.281000,529.598000C225.713000,535.606000,199.060000,481.055000,245.238000,447.743000C261.124000,436.284000,276.620000,433.770000,292.224000,434.054000C322.597000,434.609000,351.136000,449.590000,368.395000,456.004000C396.480000,466.439000,454.304000,469.972000,469.025000,438.732000C473.220000,429.830000,476.536000,419.208000,468.275000,403.437000Z" transform="matrix(1 0 0 1 16.80500030517578 73.66500091552734)" fill="rgb(250,199,92)" stroke="none" stroke-width="1" stroke-miterlimit="1"/><path id="emTzBMVrIXU15" style="mix-blend-mode:multiply;isolation:isolate" d="M468.339000,403.437000C471.748000,409.944000,472.039000,405.427000,472.257000,410.423000C475.164000,412.770000,479.716000,409.271000,482.490000,412.046000C486.997000,416.552000,492.357000,421.622000,494.610000,428.380000C505.874000,468.932000,473.010000,511.632000,417.049000,507.058000C362.980000,504.805000,340.168000,483.743000,283.849000,499.514000C259.083000,507.769000,223.249000,493.191000,226.861000,466.972000C209.079000,497.999000,235.279000,534.522000,278.349000,529.600000C318.068000,525.060000,328.927000,527.400000,381.982000,534.857000C430.043000,541.615000,475.852000,533.357000,496.129000,492.052000C516.444000,450.659000,496.125000,410.947000,468.339000,403.437000Z" transform="matrix(1 0 0 1 16.74200057983398 73.66500091552734)" fill="rgb(241,190,167)" stroke="none" stroke-width="1" stroke-miterlimit="1"/><path id="emTzBMVrIXU16" d="M411.400000,541.983000C401.620791,541.941140,391.856417,541.217048,382.178000,539.816000L371.278000,538.276000C327.643000,532.088000,315.914000,530.422000,279.608000,534.576000C248.187000,538.167000,227.255000,521.362000,220.457000,503.113000C214.402000,486.863000,217.331000,463.076000,243.709000,445.052000C282.728000,418.388000,328.355000,435.469000,355.618000,445.673000C361.454000,447.857000,366.493000,449.743000,370.631000,450.936000C389.331000,456.329000,410.625000,458.486000,427.605000,456.696000C442.105000,455.172000,460.945000,450.037000,468.396000,434.222000C470.643000,429.457000,474.896000,417.266000,465.945000,406.994000C464.726760,405.594637,464.566526,403.563336,465.550294,401.990274C466.534062,400.417211,468.430577,399.672168,470.222000,400.155000C484.311000,403.963000,496.382000,414.960000,503.341000,430.329000C512.171000,449.823000,511.206000,473.284000,500.692000,494.697000C485.373000,525.905000,454.774000,541.983000,411.400000,541.983000ZM312.939000,523.838000C329.514000,523.838000,344.612000,525.979000,372.466000,529.929000L383.351000,531.469000C421.707000,536.869000,471.902000,534.221000,493.128000,490.982000C502.528000,471.838000,503.450000,450.999000,495.664000,433.805000C492.014964,425.496156,486.129488,418.364344,478.664000,413.205000C480.806000,420.857000,479.964000,429.449000,476.024000,437.816000C468.801000,453.144000,452.362000,462.572000,428.484000,465.082000C410.479000,466.971000,387.978000,464.713000,368.294000,459.038000C363.844000,457.754000,358.662000,455.815000,352.662000,453.570000C325.267000,443.316000,283.869000,427.819000,248.462000,452.014000C229.755000,464.798000,222.050000,483.249000,228.354000,500.170000C234.006000,515.342000,251.747000,529.270000,278.648000,526.199000C290.022715,524.752869,301.471425,523.964557,312.937000,523.838000Z" transform="matrix(1 0 0 1 15.95699977874756 72.87699890136719)" fill="rgb(104,11,11)" stroke="none" stroke-width="1" stroke-miterlimit="1"/><path id="emTzBMVrIXU17" d="M295.940000,442.981000C293.778541,442.977901,291.969551,441.340674,291.751544,439.190235C291.533536,437.039795,292.977139,435.072827,295.094000,434.636000C306.513000,432.286000,322.731000,423.925000,339.900000,415.074000C359.718000,404.859000,380.208000,394.296000,395.911000,391.796000C406.290000,390.141000,441.268000,386.136000,455.435000,403.838000C456.401256,405.011476,456.660991,406.614246,456.114786,408.032822C455.568581,409.451397,454.301020,410.466101,452.797285,410.688537C451.293550,410.910972,449.786505,410.306694,448.853000,409.107000C442.953000,401.733000,426.301000,395.496000,397.236000,400.123000C382.868000,402.408000,362.989000,412.656000,343.765000,422.566000C326.065000,431.690000,309.347000,440.308000,296.795000,442.893000C296.513822,442.951897,296.227280,442.981389,295.940000,442.981000Z" transform="matrix(1 0 0 1 32.93700027465820 70.62699890136719)" fill="rgb(104,11,11)" stroke="none" stroke-width="1" stroke-miterlimit="1"/><path id="emTzBMVrIXU18" d="M227.300000,521.228000C209.652000,521.228000,191.400000,515.966000,177.283000,506.313000C161.261000,495.355000,151.471000,479.559000,148.972000,460.629000C146.402000,441.171000,151.514000,423.261000,163.364000,410.203000C176.492000,395.738000,196.642000,388.226000,220.131000,389.029000C249.552000,390.043000,272.679000,405.799000,291.261000,418.461000C301.194000,425.228000,309.774000,431.074000,317.403000,433.536000C318.859780,433.979058,319.964352,435.173371,320.292497,436.660257C320.620642,438.147142,320.121341,439.695419,318.986354,440.710462C317.851366,441.725504,316.257160,442.049494,314.816000,441.558000C306.032000,438.726000,296.987000,432.558000,286.516000,425.428000C267.911000,412.751000,246.824000,398.382000,219.844000,397.454000C198.873000,396.717000,181.044000,403.268000,169.610000,415.869000C159.453000,427.060000,155.092000,442.569000,157.333000,459.525000C159.511000,476.013000,168.056000,489.785000,182.046000,499.353000C199.262000,511.128000,224.369000,515.731000,244.522000,510.804000C245.989214,510.433575,247.542394,510.878293,248.591210,511.969125C249.640026,513.059957,250.023425,514.629399,249.595684,516.080939C249.167943,517.532479,247.994746,518.643223,246.522000,518.991000C240.226934,520.501293,233.773658,521.252306,227.300000,521.228000Z" transform="matrix(1 0 0 1 0 70.34200286865234)" fill="rgb(104,11,11)" stroke="none" stroke-width="1" stroke-miterlimit="1"/><path id="emTzBMVrIXU19" d="M378.208000,116.284000C344.962000,105.154000,294.859000,109.607000,272.003000,116.284000C272.003000,116.284000,253.343000,94.024000,234.603000,86.840000C230.565830,85.400637,226.063819,86.308502,222.900000,89.200000C210.320000,100.152000,183.100000,150.791000,183.787000,220.909000C184.887000,333.309000,274.522000,350.385000,332.702000,350.385000C390.882000,350.385000,463.406000,319.223000,463.600000,225.727000C463.756000,153.012000,447.443000,112.840000,429.272000,91.465000C425.900000,87.500000,417.691000,86.390000,413.200000,88.759000C404.434000,93.378000,389.765000,102.449000,378.208000,116.284000Z" transform="matrix(1 0 0 1 8.14099979400635 0.78700000047684)" fill="rgb(250,199,92)" stroke="none" stroke-width="1" stroke-miterlimit="1"/><path id="emTzBMVrIXU20" d="M345.277000,216.149000C336.570000,208.022000,332.716000,200.449000,321.368000,198.849000C318.178000,198.400000,315.434000,198.804000,311.432000,200.798000C302.390000,205.305000,299.953000,212.807000,292.426000,218.646000C286.468000,223.268000,278.338000,223.160000,270.268000,220.934000C258.447000,217.673000,244.994000,221.587000,233.793000,227.334000C211.612000,238.715000,191.493000,261.834000,213.222000,287.207000C244.886000,318.107000,292.395000,324.534000,328.077000,324.534000C371.320000,324.534000,422.463000,307.295000,445.969000,260.068000C445.457000,258.068000,443.781000,260.509000,443.128000,258.498000C442.043000,231.787000,416.045000,220.725000,394.387000,218.308000C382.449000,216.975000,376.140000,216.215000,364.871000,219.822000C357.916000,222.045000,350.511000,221.033000,345.277000,216.149000Z" transform="matrix(1 0 0 1 12.76200008392334 26.63599967956543)" fill="rgb(255,255,255)" stroke="none" stroke-width="1" stroke-miterlimit="1"/><path id="emTzBMVrIXU21" style="mix-blend-mode:multiply;isolation:isolate" d="M351.216000,300.352000C246.823000,313.912000,200.090000,262.140000,183.782000,195.733000C183.459000,309.626000,277.965000,325.209000,332.697000,325.209000C385.239000,325.209000,470.526000,283.658000,465.103000,196.846000C461.848000,230.234000,436.900000,289.222000,351.216000,300.352000Z" transform="matrix(1 0 0 1 8.14299964904785 25.95899963378906)" fill="rgb(241,190,167)" stroke="none" stroke-width="1" stroke-miterlimit="1"/><g id="emTzBMVrIXU22" transform="matrix(1 0 0 1 222.55999755859375 104.32199859619141)"><path id="emTzBMVrIXU23" d="M212.122000,134.507000C215.290000,117.441000,223.522000,106.683000,227.322000,103.715000C234.523587,107.890710,240.608804,113.745720,245.059000,120.781000C249.509196,127.816280,229.859000,134.507000,212.122000,134.507000Z" transform="matrix(1 0 0 1 -207.90699768066406 -99.49900054931641)" fill="rgb(221,121,54)" stroke="none" stroke-width="1" stroke-miterlimit="1"/><path id="emTzBMVrIXU24" d="M212.909000,139.510000C211.656408,139.510281,210.468612,138.953309,209.667787,137.990154C208.866962,137.027000,208.536121,135.757504,208.765000,134.526000C212.245000,115.778000,221.243000,104.516000,225.515000,101.181000C226.807821,100.168489,228.571687,100.000967,230.032000,100.752000C237.902541,105.264625,244.551325,111.631914,249.400000,119.300000C250.509416,121.035714,250.202450,123.318932,248.674000,124.700000C248,125.300000,232.048000,139.510000,212.909000,139.510000ZM228.692000,109.810000C225.736000,113.188000,221.125000,120.142000,218.292000,130.622000C227.756000,129.055000,235.975000,123.812000,240.134000,120.738000C236.924701,116.511237,233.062257,112.822977,228.692000,109.812000Z" transform="matrix(1 0 0 1 -208.69400024414063 -100.28600311279297)" fill="rgb(104,11,11)" stroke="none" stroke-width="1" stroke-miterlimit="1"/></g><g id="emTzBMVrIXU25" transform="matrix(1 0 0 1 399.64700317382813 103.17400360107422)"><path id="emTzBMVrIXU26" d="M356.132000,116.129000C361.958000,109.437000,372.140000,103.399000,377.209000,102.781000C377.209000,102.781000,387.045000,113.739000,387.045000,132.288000C387.045000,132.288000,367.373000,128.073000,356.132000,116.129000Z" transform="matrix(1 0 0 1 -351.91799926757813 -98.56500244140625)" fill="rgb(221,121,54)" stroke="none" stroke-width="1" stroke-miterlimit="1"/><path id="emTzBMVrIXU27" d="M387.832000,137.291000C387.535144,137.290486,387.239171,137.258643,386.949000,137.196000C386.093000,137.013000,365.849000,132.559000,353.849000,119.806000C352.363998,118.229089,352.315578,115.783454,353.737000,114.149000C359.894000,107.075000,370.989000,100.176000,377.483000,99.383000C378.849582,99.213892,380.212256,99.725408,381.130000,100.752000C381.576000,101.252000,392.045000,113.140000,392.045000,133.075000C392.044448,135.402652,390.157652,137.289448,387.830000,137.290000ZM362.937000,116.806000C369.476000,122.306000,377.879000,125.670000,383.281000,127.422000C382.507357,120.597786,380.123950,114.054901,376.327000,108.332000C371.404267,110.355397,366.872827,113.223165,362.937000,116.806000Z" transform="matrix(1 0 0 1 -352.70498657226563 -99.35199737548828)" fill="rgb(104,11,11)" stroke="none" stroke-width="1" stroke-miterlimit="1"/></g><path id="emTzBMVrIXU28" d="M204.906000,239.100000C198.658000,239.974000,192.427000,241.023000,186.248000,242.292000C182.938000,242.971000,179.693000,243.859000,176.404000,244.621000C174.304000,245.108000,171.664000,245.572000,169.662000,244.446000C168.506217,243.776812,167.697708,242.639002,167.445980,241.327407C167.194252,240.015812,167.524081,238.659526,168.350000,237.610000C169.850000,235.772000,172.584000,234.880000,174.792000,234.359000C181.898044,232.852744,189.153621,232.167921,196.416000,232.318000C199.189000,232.318000,202.939000,231.961000,205.578000,232.962000C206.920787,233.490848,207.743424,234.853061,207.586361,236.287665C207.429297,237.722269,206.331405,238.874219,204.906000,239.100000Z" transform="matrix(1 0 0 1 4.37200021743774 34.34799957275391)" fill="rgb(104,11,11)" stroke="none" stroke-width="1" stroke-miterlimit="1"/><path id="emTzBMVrIXU29" d="M210.748000,252.946000C204.039000,255.292000,197.556000,258.271000,191.115000,261.260000C187.515000,262.930000,184.037000,264.804000,180.497000,266.586000C178.573620,267.669427,176.483434,268.425408,174.312000,268.823000C172.723934,269.116088,171.111742,268.449673,170.194117,267.120832C169.276491,265.791991,169.224375,264.048272,170.061000,262.667000C171.679000,260.034000,174.967000,258.282000,177.654000,257.002000C184.786184,253.662675,192.170774,250.891405,199.739000,248.714000C202.785000,247.814000,206.446000,246.438000,209.665000,246.491000C211.257222,246.537229,212.594632,247.702669,212.858199,249.273606C213.121766,250.844543,212.237950,252.382654,210.748000,252.946000Z" transform="matrix(1 0 0 1 4.84600019454956 37.61600112915039)" fill="rgb(104,11,11)" stroke="none" stroke-width="1" stroke-miterlimit="1"/><path id="emTzBMVrIXU30" d="M216.334000,265.200000C211.460000,268.176000,206.899000,271.586000,202.334000,275.017000C199.657000,277.031000,197.075000,279.156000,194.491000,281.290000C193.431000,282.165000,192.366000,283.034000,191.285000,283.882000C190.796000,284.266000,189.072000,285.139000,188.901000,285.643000C188.919693,285.564249,188.902876,285.481261,188.855000,285.416000C186.441000,290.588000,178.961000,286.579000,181.391000,281.471000C183.780000,276.448000,189.300000,273,193.711000,269.961000C198.952993,266.232879,204.517423,262.980296,210.338000,260.242000C212.244000,259.381000,214.604000,258.030000,216.573000,259.461000C217.491842,260.149370,218.012434,261.246331,217.964663,262.393432C217.916892,263.540534,217.306895,264.590411,216.334000,265.200000Z" transform="matrix(1 0 0 1 7.48500013351440 40.45199966430664)" fill="rgb(104,11,11)" stroke="none" stroke-width="1" stroke-miterlimit="1"/><path id="emTzBMVrIXU31" d="M397.461000,231.021000C403.731000,229.815000,410.375000,230.974000,416.461000,232.621000C419.991171,233.571168,423.450876,234.766059,426.815000,236.197000C429.115000,237.180000,431.884000,238.554000,433.232000,240.774000C433.941669,241.980739,434.029171,243.454726,433.467257,244.736951C432.905343,246.019176,431.762270,246.953884,430.394000,247.250000C428.123000,247.714000,425.688000,246.512000,423.707000,245.584000C417.455894,242.574465,410.836637,240.398865,404.019000,239.113000C402.286767,238.793923,400.527145,238.647539,398.766000,238.676000C397.692533,238.774714,396.620554,238.472252,395.757000,237.827000C394.612439,236.867820,394.116084,235.339282,394.478772,233.890660C394.841459,232.442039,395.999502,231.327708,397.461000,231.021000Z" transform="matrix(1 0 0 1 56.50899887084961 33.94900131225586)" fill="rgb(104,11,11)" stroke="none" stroke-width="1" stroke-miterlimit="1"/><path id="emTzBMVrIXU32" d="M393.613000,246.362000C400.663834,247.895222,407.546670,250.118603,414.162000,253C417.915752,254.556458,421.581858,256.316403,425.144000,258.272000C427.554000,259.622000,430.881000,261.564000,431.827000,264.385000C432.291086,265.879665,431.909677,267.508444,430.830225,268.641661C429.750773,269.774878,428.142441,270.234944,426.627000,269.844000C424.355000,269.353000,422.403000,267.883000,420.474000,266.670000C413.750978,262.634424,406.717047,259.141033,399.439000,256.223000C396.798000,255.103000,393.739000,254.377000,391.230000,253.002000C387.742000,251.089000,389.657000,245.541000,393.613000,246.362000Z" transform="matrix(1 0 0 1 55.37200164794922 37.56800079345703)" fill="rgb(104,11,11)" stroke="none" stroke-width="1" stroke-miterlimit="1"/><path id="emTzBMVrIXU33" d="M384.967000,260.887000L386.527000,261.330000C387.035000,261.479000,387.812000,261.803000,388.616000,262.113000C389.495000,262.444000,390.164000,262.813000,391.072000,263.213000C395.102706,265.236508,398.983894,267.545036,402.686000,270.121000C406.686000,272.874000,410.531000,275.791000,413.386000,278.193000C414.605502,279.219992,415.735564,280.348716,416.764000,281.567000C416.980000,281.820000,417.151000,282.067000,417.309000,282.267000C417.489000,282.508000,417.737000,282.904000,417.875000,283.136000C418.175000,283.654000,418.303000,283.936000,418.303000,283.936000C419.322794,286.028883,418.452883,288.552206,416.360000,289.572000C414.267117,290.591794,411.743794,289.721883,410.724000,287.629000C410.698646,287.657654,410.680478,287.691932,410.671000,287.729000C410.644000,287.739000,410.721000,287.836000,410.641000,287.772000C410.530000,287.678000,410.391000,287.580000,410.260000,287.451000C410.040000,287.215000,409.560000,286.851000,409.109000,286.419000C408.658000,285.987000,408.053000,285.480000,407.459000,284.919000C404.995000,282.648000,401.440000,279.695000,397.781000,276.937000C394.508687,274.389677,391.085450,272.042400,387.530000,269.908000C386.851000,269.535000,386.118000,269.073000,385.661000,268.870000C385.140000,268.625000,384.790000,268.390000,384.321000,268.208000L382.800000,267.641000L382.757000,267.625000C380.970205,266.957641,380.028141,264.999434,380.621871,263.186842C381.215600,261.374250,383.133644,260.352893,384.969000,260.872000Z" transform="matrix(1 0 0 1 53.31200027465820 40.89300155639648)" fill="rgb(104,11,11)" stroke="none" stroke-width="1" stroke-miterlimit="1"/><g id="emTzBMVrIXU34" transform="matrix(1 0 0 1 235.68699645996094 227.01600646972656)"><path id="emTzBMVrIXU35" d="M229.366000,202.082000C232.582000,206.299000,236.121000,209.490000,241.166000,211.410000C246.929213,213.533238,253.154185,214.082074,259.200000,213C262.134023,212.508535,264.972206,211.557525,267.610000,210.182000C269.983387,208.782382,272.200321,207.133007,274.223000,205.262000C277.091000,202.838000,281.165000,200.453000,284.354000,203.956000C288.020000,207.982000,283.786000,213.619000,280.738000,216.522000C276.306379,220.603482,270.937529,223.530385,265.106000,225.044000C253.249748,228.229766,240.604559,226.386618,230.151000,219.949000C225.606000,217.049000,220.703000,212.589000,219.511000,207.088000C218.282000,201.435000,225.500000,197.477000,229.366000,202.082000Z" transform="matrix(1 0 0 1 -219.36900329589844 -200.06300354003906)" fill="rgb(104,11,11)" stroke="none" stroke-width="1" stroke-miterlimit="1"/><path id="emTzBMVrIXU36" d="M332.875000,202.706000C336.810000,206.095000,340.494000,209.490000,345.436000,211.406000C349.887848,213.146816,354.664350,213.901162,359.436000,213.617000C365.159577,213.256361,370.615780,211.066028,375,207.369000C377.929000,204.869000,381.520000,200.002000,385.985000,201.142000C388.736742,201.866401,390.535414,204.505988,390.203000,207.332000C389.939000,209.432000,388.363000,211.215000,387.103000,212.804000C382.924062,217.790118,377.504686,221.586648,371.391000,223.811000C361.351289,227.485008,350.289415,227.198968,340.453000,223.011000C334.346000,220.494000,327.876000,216.211000,324.781000,210.195000C323.651000,207.995000,323.353000,205.586000,324.981000,203.508000C325.915571,202.346070,327.276801,201.607129,328.760306,201.456410C330.243811,201.305692,331.725842,201.755769,332.875000,202.706000Z" transform="matrix(1 0 0 1 -195.37300109863281 -199.85499572753906)" fill="rgb(104,11,11)" stroke="none" stroke-width="1" stroke-miterlimit="1"/></g><g id="emTzBMVrIXU37" transform="matrix(1 0 0 1 252.01699829101563 183.20599365234375)"><path id="emTzBMVrIXU38" d="M309.718000,237.127000C310.642000,251.027000,302.818000,266.296000,287.568000,267.076000C281.557567,267.463424,275.634483,265.481166,271.068000,261.554000C268.645215,259.485911,266.883860,256.751203,266.003000,253.690000C265.680754,252.235612,266.175346,250.721086,267.293847,249.737195C268.412349,248.753305,269.977585,248.455904,271.379000,248.961000C272.779000,249.496000,273.310000,250.661000,274.073000,251.761000C275.152060,253.290521,276.508940,254.603642,278.073000,255.632000C280.862000,257.469000,283.932000,257.932000,287.194000,258.043000C286.560000,258.036000,288.194000,257.927000,288.265000,257.919000C290.371464,257.707514,292.382490,256.934255,294.088000,255.680000C297.588000,253.101000,299.507000,248.768000,300.543000,244.661000C301.019642,242.857939,301.288061,241.006189,301.343000,239.142000C301.366000,237.722000,301.156000,236.388000,301.982000,235.117000C302.993917,233.640202,304.822916,232.956079,306.555611,233.406275C308.288306,233.856471,309.552953,235.344399,309.718000,237.127000Z" transform="matrix(1 0 0 1 -225.01199340820313 -148.63200378417969)" fill="rgb(104,11,11)" stroke="none" stroke-width="1" stroke-miterlimit="1"/><path id="emTzBMVrIXU39" d="M303.558000,241.177000C303.950000,245.609000,305.577000,250.401000,308.798000,253.484000C311.818609,256.178616,315.815949,257.509737,319.849000,257.164000C323.526087,256.919034,326.981936,255.320080,329.549000,252.676000C331.406000,250.729000,333.100000,247.442000,336.284000,249.024000C340.584000,251.161000,337.340000,257.070000,335.222000,259.566000C332.027963,263.162229,327.676773,265.528144,322.922000,266.254000C313.102891,268.066039,303.245594,263.286056,298.588000,254.454000C296.621000,250.659000,294.878000,245.207000,295.419000,240.809000C296.044000,235.691000,303.275000,236.067000,303.558000,241.177000Z" transform="matrix(1 0 0 1 -218.25700378417969 -147.73500061035156)" fill="rgb(104,11,11)" stroke="none" stroke-width="1" stroke-miterlimit="1"/><path id="emTzBMVrIXU40" d="M303.009000,221.500000C286.074000,221.575000,280.523000,225.623000,281.562000,231.184000C282.634000,236.918000,293.406000,244.514000,302.444000,243.872000C310.976000,243.267000,322.510000,238.263000,323.328000,229.972000C324.038000,222.784000,313.435000,221.459000,303.009000,221.500000Z" transform="matrix(1 0 0 1 -221.44299316406250 -151.32899475097656)" fill="rgb(104,11,11)" stroke="none" stroke-width="1" stroke-miterlimit="1"/><path id="emTzBMVrIXU41" d="M254.977000,164.454000C237.310000,164.946000,231.587000,173.117000,232.807000,178.892000C234.066000,184.847000,240.251000,191.324000,254.875000,190.365000C263.780000,189.781000,274.914000,185.178000,276.350000,176.606000C277.853000,167.639000,265.851000,164.151000,254.977000,164.454000Z" transform="matrix(1 0 0 1 -232.64999389648438 -164.43600463867188)" fill="rgb(255,255,255)" stroke="none" stroke-width="1" stroke-miterlimit="1"/><path id="emTzBMVrIXU42" d="M347.600000,164.454000C365.267000,164.946000,370.990000,173.117000,369.769000,178.892000C368.510000,184.847000,362.324000,191.324000,347.701000,190.365000C338.796000,189.781000,327.663000,185.178000,326.226000,176.606000C324.720000,167.639000,336.722000,164.151000,347.600000,164.454000Z" transform="matrix(1 0 0 1 -211.18699645996094 -164.43600463867188)" fill="rgb(255,255,255)" stroke="none" stroke-width="1" stroke-miterlimit="1"/></g><path id="emTzBMVrIXU43" d="M325.700000,355.500000C291.274000,355.500000,246.946000,348.727000,216.433000,319.390000C192.904000,296.766000,180.765000,263.910000,180.353000,221.734000C179.672000,151.934000,206.433000,99.413000,220.913000,86.806000C225.253754,82.886754,231.405590,81.688479,236.900000,83.692000C253,89.865000,268.600000,106.062000,274.031000,112.092000C300.709000,102.427000,344.041000,99.965000,374.978000,112.033000C380.454000,105.957000,396.007000,89.847000,412.054000,83.694000C417.545794,81.689979,423.695448,82.885050,428.037000,86.800000C442.960000,99.793000,469.282000,157.605000,468.608000,226.551000C468.408000,318.590000,398.744000,353.451000,333.608000,355.377000C331.045000,355.458000,328.400000,355.500000,325.700000,355.500000ZM231.578000,91.145000C229.681883,91.178981,227.861583,91.895455,226.451000,93.163000C213.415000,104.512000,188.140000,155.416000,188.787000,221.650000C189.176000,261.477000,200.444000,292.316000,222.280000,313.311000C253.075000,342.919000,299.680000,347.956000,333.362000,346.955000C352.421000,346.391000,388.778000,342.129000,418.128000,319.897000C445.943000,298.831000,460.091000,267.410000,460.178000,226.505000C460.863000,156.457000,433.500000,102.740000,422.499000,93.162000C420.508126,91.297727,417.651795,90.682553,415.070000,91.562000C397.554000,98.277000,379.570000,119.562000,379.392000,119.778000C378.194517,121.204890,376.202975,121.677576,374.492000,120.941000C344.746000,108.130000,299.354000,110.988000,274.353000,120.983000C272.662225,121.659993,270.727855,121.173879,269.558000,119.778000C269.377000,119.564000,251.358000,98.263000,233.879000,91.562000C233.144058,91.283085,232.364081,91.141733,231.578000,91.145000Z" transform="matrix(1 0 0 1 7.35400009155273 0)" fill="rgb(104,11,11)" stroke="none" stroke-width="1" stroke-miterlimit="1"/></g></g><script><![CDATA[!function(t,n){"object"==typeof exports&&"undefined"!=typeof module?module.exports=n():"function"==typeof define&&define.amd?define(n):(t="undefined"!=typeof globalThis?globalThis:t||self).__SVGATOR_PLAYER__=n()}(this,(function(){"use strict";function t(n){return(t="function"==typeof Symbol&&"symbol"==typeof Symbol.iterator?function(t){return typeof t}:function(t){return t&&"function"==typeof Symbol&&t.constructor===Symbol&&t!==Symbol.prototype?"symbol":typeof t})(n)}function n(t,n){if(!(t instanceof n))throw new TypeError("Cannot call a class as a function")}function e(t,n){for(var e=0;e<n.length;e++){var r=n[e];r.enumerable=r.enumerable||!1,r.configurable=!0,"value"in r&&(r.writable=!0),Object.defineProperty(t,r.key,r)}}function r(t,n,r){return n&&e(t.prototype,n),r&&e(t,r),t}function i(t){return(i=Object.setPrototypeOf?Object.getPrototypeOf:function(t){return t.__proto__||Object.getPrototypeOf(t)})(t)}function o(t,n){return(o=Object.setPrototypeOf||function(t,n){return t.__proto__=n,t})(t,n)}function u(t,n){return!n||"object"!=typeof n&&"function"!=typeof n?function(t){if(void 0===t)throw new ReferenceError("this hasn't been initialised - super() hasn't been called");return t}(t):n}function a(t){var n=function(){if("undefined"==typeof Reflect||!Reflect.construct)return!1;if(Reflect.construct.sham)return!1;if("function"==typeof Proxy)return!0;try{return Boolean.prototype.valueOf.call(Reflect.construct(Boolean,[],(function(){}))),!0}catch(t){return!1}}();return function(){var e,r=i(t);if(n){var o=i(this).constructor;e=Reflect.construct(r,arguments,o)}else e=r.apply(this,arguments);return u(this,e)}}function l(t,n,e){return(l="undefined"!=typeof Reflect&&Reflect.get?Reflect.get:function(t,n,e){var r=function(t,n){for(;!Object.prototype.hasOwnProperty.call(t,n)&&null!==(t=i(t)););return t}(t,n);if(r){var o=Object.getOwnPropertyDescriptor(r,n);return o.get?o.get.call(e):o.value}})(t,n,e||t)}var f=Math.abs;function s(t){return t}function c(t,n,e){var r=1-e;return 3*e*r*(t*r+n*e)+e*e*e}function h(){var t=arguments.length>0&&void 0!==arguments[0]?arguments[0]:0,n=arguments.length>1&&void 0!==arguments[1]?arguments[1]:0,e=arguments.length>2&&void 0!==arguments[2]?arguments[2]:1,r=arguments.length>3&&void 0!==arguments[3]?arguments[3]:1;return t<0||t>1||e<0||e>1?null:f(t-n)<=1e-5&&f(e-r)<=1e-5?s:function(i){if(i<=0)return t>0?i*n/t:0===n&&e>0?i*r/e:0;if(i>=1)return e<1?1+(i-1)*(r-1)/(e-1):1===e&&t<1?1+(i-1)*(n-1)/(t-1):1;for(var o,u=0,a=1;u<a;){var l=c(t,e,o=(u+a)/2);if(f(i-l)<1e-5)break;l<i?u=o:a=o}return c(n,r,o)}}function v(){return 1}function y(t){return 1===t?1:0}function d(){var t=arguments.length>0&&void 0!==arguments[0]?arguments[0]:1,n=arguments.length>1&&void 0!==arguments[1]?arguments[1]:0;if(1===t){if(0===n)return y;if(1===n)return v}var e=1/t;return function(t){return t>=1?1:(t+=n*e)-t%e}}function g(t){var n=arguments.length>1&&void 0!==arguments[1]?arguments[1]:2;if(Number.isInteger(t))return t;var e=Math.pow(10,n);return Math.round(t*e)/e}var p=Math.PI/180;function m(t,n,e){return t>=.5?e:n}function b(t,n,e){return 0===t||n===e?n:t*(e-n)+n}function w(t,n,e){var r=b(t,n,e);return r<=0?0:r}function x(t,n,e){return 0===t?n:1===t?e:{x:b(t,n.x,e.x),y:b(t,n.y,e.y)}}function k(t,n,e){var r=function(t,n,e){return Math.round(b(t,n,e))}(t,n,e);return r<=0?0:r>=255?255:r}function A(t,n,e){return 0===t?n:1===t?e:{r:k(t,n.r,e.r),g:k(t,n.g,e.g),b:k(t,n.b,e.b),a:b(t,null==n.a?1:n.a,null==e.a?1:e.a)}}function _(t,n,e){if(0===t)return n;if(1===t)return e;var r=n.length;if(r!==e.length)return m(t,n,e);for(var i=[],o=0;o<r;o++)i.push(A(t,n[o],e[o]));return i}function S(t,n){for(var e=[],r=0;r<t;r++)e.push(n);return e}function O(t,n){if(--n<=0)return t;var e=(t=Object.assign([],t)).length;do{for(var r=0;r<e;r++)t.push(t[r])}while(--n>0);return t}var M,j=function(){function t(e){n(this,t),this.list=e,this.length=e.length}return r(t,[{key:"setAttribute",value:function(t,n){for(var e=this.list,r=0;r<this.length;r++)e[r].setAttribute(t,n)}},{key:"removeAttribute",value:function(t){for(var n=this.list,e=0;e<this.length;e++)n[e].removeAttribute(t)}},{key:"style",value:function(t,n){for(var e=this.list,r=0;r<this.length;r++)e[r].style[t]=n}}]),t}(),F=/-./g,P=function(t,n){return n.toUpperCase()};function B(t){return"function"==typeof t?t:m}function I(t){return t?"function"==typeof t?t:Array.isArray(t)?function(t){var n=arguments.length>1&&void 0!==arguments[1]?arguments[1]:s;if(!Array.isArray(t))return n;switch(t.length){case 1:return d(t[0])||n;case 2:return d(t[0],t[1])||n;case 4:return h(t[0],t[1],t[2],t[3])||n}return n}(t,null):function(t,n){var e=arguments.length>2&&void 0!==arguments[2]?arguments[2]:s;switch(t){case"linear":return s;case"steps":return d(n.steps||1,n.jump||0)||e;case"bezier":case"cubic-bezier":return h(n.x1||0,n.y1||0,n.x2||0,n.y2||0)||e}return e}(t.type,t.value,null):null}function E(t,n,e){var r=arguments.length>3&&void 0!==arguments[3]&&arguments[3],i=n.length-1;if(t<=n[0].t)return r?[0,0,n[0].v]:n[0].v;if(t>=n[i].t)return r?[i,1,n[i].v]:n[i].v;var o,u=n[0],a=null;for(o=1;o<=i;o++){if(!(t>n[o].t)){a=n[o];break}u=n[o]}return null==a?r?[i,1,n[i].v]:n[i].v:u.t===a.t?r?[o,1,a.v]:a.v:(t=(t-u.t)/(a.t-u.t),u.e&&(t=u.e(t)),r?[o,t,e(t,u.v,a.v)]:e(t,u.v,a.v))}function R(t,n){var e=arguments.length>2&&void 0!==arguments[2]?arguments[2]:null;return t&&t.length?"function"!=typeof n?null:("function"!=typeof e&&(e=null),function(r){var i=E(r,t,n);return null!=i&&e&&(i=e(i)),i}):null}function q(t,n){return t.t-n.t}function T(n,e,r,i,o){var u,a="@"===r[0],l="#"===r[0],f=M[r],s=m;switch(a?(u=r.substr(1),r=u.replace(F,P)):l&&(r=r.substr(1)),t(f)){case"function":if(s=f(i,o,E,I,r,a,e,n),l)return s;break;case"string":s=R(i,B(f));break;case"object":if((s=R(i,B(f.i),f.f))&&"function"==typeof f.u)return f.u(e,s,r,a,n)}return s?function(t,n,e){var r=arguments.length>3&&void 0!==arguments[3]&&arguments[3];if(r)return t instanceof j?function(r){return t.style(n,e(r))}:function(r){return t.style[n]=e(r)};if(Array.isArray(n)){var i=n.length;return function(r){var o=e(r);if(null==o)for(var u=0;u<i;u++)t[u].removeAttribute(n);else for(var a=0;a<i;a++)t[a].setAttribute(n,o)}}return function(r){var i=e(r);null==i?t.removeAttribute(n):t.setAttribute(n,i)}}(e,r,s,a):null}function N(n,e,r,i){if(!i||"object"!==t(i))return null;var o=null,u=null;return Array.isArray(i)?u=function(t){if(!t||!t.length)return null;for(var n=0;n<t.length;n++)t[n].e&&(t[n].e=I(t[n].e));return t.sort(q)}(i):(u=i.keys,o=i.data||null),u?T(n,e,r,u,o):null}function C(t,n,e){if(!e)return null;var r=[];for(var i in e)if(e.hasOwnProperty(i)){var o=N(t,n,i,e[i]);o&&r.push(o)}return r.length?r:null}function z(t,n){if(!n.duration||n.duration<0)return null;var e=function(t,n){if(!n)return null;var e=[];if(Array.isArray(n))for(var r=n.length,i=0;i<r;i++){var o=n[i];if(2===o.length){var u=null;if("string"==typeof o[0])u=t.getElementById(o[0]);else if(Array.isArray(o[0])){u=[];for(var a=0;a<o[0].length;a++)if("string"==typeof o[0][a]){var l=t.getElementById(o[0][a]);l&&u.push(l)}u=u.length?1===u.length?u[0]:new j(u):null}if(u){var f=C(t,u,o[1]);f&&(e=e.concat(f))}}}else for(var s in n)if(n.hasOwnProperty(s)){var c=t.getElementById(s);if(c){var h=C(t,c,n[s]);h&&(e=e.concat(h))}}return e.length?e:null}(t,n.elements);return e?function(t,n){var e=arguments.length>2&&void 0!==arguments[2]?arguments[2]:1/0,r=arguments.length>3&&void 0!==arguments[3]?arguments[3]:1,i=arguments.length>4&&void 0!==arguments[4]&&arguments[4],o=arguments.length>5&&void 0!==arguments[5]?arguments[5]:1,u=t.length,a=r>0?n:0;i&&e%2==0&&(a=n-a);var l=null;return function(f,s){var c=f%n,h=1+(f-c)/n;s*=r,i&&h%2==0&&(s=-s);var v=!1;if(h>e)c=a,v=!0,-1===o&&(c=r>0?0:n);else if(s<0&&(c=n-c),c===l)return!1;l=c;for(var y=0;y<u;y++)t[y](c);return v}}(e,n.duration,n.iterations||1/0,n.direction||1,!!n.alternate,n.fill||1):null}var L=function(){function t(e,r){var i=arguments.length>2&&void 0!==arguments[2]?arguments[2]:{};n(this,t),this._id=0,this._running=!1,this._rollingBack=!1,this._animations=e,this.duration=r.duration,this.alternate=r.alternate,this.fill=r.fill,this.iterations=r.iterations,this.direction=i.direction||1,this.speed=i.speed||1,this.fps=i.fps||100,this.offset=i.offset||0,this.rollbackStartOffset=0}return r(t,[{key:"_rollback",value:function(){var t=this,n=1/0,e=null;this.rollbackStartOffset=this.offset,this._rollingBack||(this._rollingBack=!0,this._running=!0);this._id=window.requestAnimationFrame((function r(i){if(t._rollingBack){null==e&&(e=i);var o=i-e,u=t.rollbackStartOffset-o,a=Math.round(u*t.speed);if(a>t.duration&&n!=1/0){var l=!!t.alternate&&a/t.duration%2>1,f=a%t.duration;a=(f+=l?t.duration:0)||t.duration}var s=t.fps?1e3/t.fps:0,c=Math.max(0,a);if(c<n-s){t.offset=c,n=c;for(var h=t._animations,v=h.length,y=0;y<v;y++)h[y](c,t.direction)}var d=!1;if(t.iterations>0&&-1===t.fill){var g=t.iterations*t.duration,p=g==a;a=p?0:a,t.offset=p?0:t.offset,d=a>g}a>0&&t.offset>=a&&!d?t._id=window.requestAnimationFrame(r):t.stop()}}))}},{key:"_start",value:function(){var t=this,n=arguments.length>0&&void 0!==arguments[0]?arguments[0]:0,e=-1/0,r=null,i={},o=function o(u){t._running=!0,null==r&&(r=u);var a=Math.round((u-r+n)*t.speed),l=t.fps?1e3/t.fps:0;if(a>e+l&&!t._rollingBack){t.offset=a,e=a;for(var f=t._animations,s=f.length,c=0,h=0;h<s;h++)i[h]?c++:(i[h]=f[h](a,t.direction),i[h]&&c++);if(c===s)return void t._stop()}t._id=window.requestAnimationFrame(o)};this._id=window.requestAnimationFrame(o)}},{key:"_stop",value:function(){this._id&&window.cancelAnimationFrame(this._id),this._running=!1,this._rollingBack=!1}},{key:"play",value:function(){!this._rollingBack&&this._running||(this._rollingBack=!1,this.rollbackStartOffset>this.duration&&(this.offset=this.rollbackStartOffset-(this.rollbackStartOffset-this.offset)%this.duration,this.rollbackStartOffset=0),this._start(this.offset))}},{key:"stop",value:function(){this._stop(),this.offset=0,this.rollbackStartOffset=0;var t=this.direction,n=this._animations;window.requestAnimationFrame((function(){for(var e=0;e<n.length;e++)n[e](0,t)}))}},{key:"reachedToEnd",value:function(){return this.iterations>0&&this.offset>=this.iterations*this.duration}},{key:"restart",value:function(){this._stop(),this.offset=0,this._start()}},{key:"pause",value:function(){this._stop()}},{key:"reverse",value:function(){this.direction=-this.direction}}],[{key:"build",value:function(n,e){return(n=function(t,n){if(M=n,!t||!t.root||!Array.isArray(t.animations))return null;for(var e=document.getElementsByTagName("svg"),r=!1,i=0;i<e.length;i++)if(e[i].id===t.root&&!e[i].svgatorAnimation){(r=e[i]).svgatorAnimation=!0;break}if(!r)return null;var o=t.animations.map((function(t){return z(r,t)})).filter((function(t){return!!t}));return o.length?{element:r,animations:o,animationSettings:t.animationSettings,options:t.options||void 0}:null}(n,e))?{el:n.element,options:n.options||{},player:new t(n.animations,n.animationSettings,n.options)}:null}}]),t}();!function(){for(var t=0,n=["ms","moz","webkit","o"],e=0;e<n.length&&!window.requestAnimationFrame;++e)window.requestAnimationFrame=window[n[e]+"RequestAnimationFrame"],window.cancelAnimationFrame=window[n[e]+"CancelAnimationFrame"]||window[n[e]+"CancelRequestAnimationFrame"];window.requestAnimationFrame||(window.requestAnimationFrame=function(n){var e=Date.now(),r=Math.max(0,16-(e-t)),i=window.setTimeout((function(){n(e+r)}),r);return t=e+r,i},window.cancelAnimationFrame=window.clearTimeout)}();var D=/\.0+$/g;function Q(t){return Number.isInteger(t)?t+"":t.toFixed(6).replace(D,"")}function U(t){var n=arguments.length>1&&void 0!==arguments[1]?arguments[1]:" ";return t&&t.length?t.map(Q).join(n):""}function V(t){return t?null==t.a||t.a>=1?"rgb("+t.r+","+t.g+","+t.b+")":"rgba("+t.r+","+t.g+","+t.b+","+t.a+")":"transparent"}var $={f:null,i:function(t,n,e){return 0===t?n:1===t?e:{x:w(t,n.x,e.x),y:w(t,n.y,e.y)}},u:function(t,n){return function(e){var r=n(e);t.setAttribute("rx",Q(r.x)),t.setAttribute("ry",Q(r.y))}}},G={f:null,i:function(t,n,e){return 0===t?n:1===t?e:{width:w(t,n.width,e.width),height:w(t,n.height,e.height)}},u:function(t,n){return function(e){var r=n(e);t.setAttribute("width",Q(r.width)),t.setAttribute("height",Q(r.height))}}},H=Math.sin,Y=Math.cos,Z=Math.acos,J=Math.asin,K=Math.tan,W=Math.atan2,X=Math.PI/180,tt=180/Math.PI,nt=Math.sqrt,et=function(){function t(){var e=arguments.length>0&&void 0!==arguments[0]?arguments[0]:1,r=arguments.length>1&&void 0!==arguments[1]?arguments[1]:0,i=arguments.length>2&&void 0!==arguments[2]?arguments[2]:0,o=arguments.length>3&&void 0!==arguments[3]?arguments[3]:1,u=arguments.length>4&&void 0!==arguments[4]?arguments[4]:0,a=arguments.length>5&&void 0!==arguments[5]?arguments[5]:0;n(this,t),this.m=[e,r,i,o,u,a],this.i=null,this.w=null,this.s=null}return r(t,[{key:"determinant",get:function(){var t=this.m;return t[0]*t[3]-t[1]*t[2]}},{key:"isIdentity",get:function(){if(null===this.i){var t=this.m;this.i=1===t[0]&&0===t[1]&&0===t[2]&&1===t[3]&&0===t[4]&&0===t[5]}return this.i}},{key:"point",value:function(t,n){var e=this.m;return{x:e[0]*t+e[2]*n+e[4],y:e[1]*t+e[3]*n+e[5]}}},{key:"translateSelf",value:function(){var t=arguments.length>0&&void 0!==arguments[0]?arguments[0]:0,n=arguments.length>1&&void 0!==arguments[1]?arguments[1]:0;if(!t&&!n)return this;var e=this.m;return e[4]+=e[0]*t+e[2]*n,e[5]+=e[1]*t+e[3]*n,this.w=this.s=this.i=null,this}},{key:"rotateSelf",value:function(){var t=arguments.length>0&&void 0!==arguments[0]?arguments[0]:0;if(t%=360){var n=H(t*=X),e=Y(t),r=this.m,i=r[0],o=r[1];r[0]=i*e+r[2]*n,r[1]=o*e+r[3]*n,r[2]=r[2]*e-i*n,r[3]=r[3]*e-o*n,this.w=this.s=this.i=null}return this}},{key:"scaleSelf",value:function(){var t=arguments.length>0&&void 0!==arguments[0]?arguments[0]:1,n=arguments.length>1&&void 0!==arguments[1]?arguments[1]:1;if(1!==t||1!==n){var e=this.m;e[0]*=t,e[1]*=t,e[2]*=n,e[3]*=n,this.w=this.s=this.i=null}return this}},{key:"skewSelf",value:function(t,n){if(n%=360,(t%=360)||n){var e=this.m,r=e[0],i=e[1],o=e[2],u=e[3];t&&(t=K(t*X),e[2]+=r*t,e[3]+=i*t),n&&(n=K(n*X),e[0]+=o*n,e[1]+=u*n),this.w=this.s=this.i=null}return this}},{key:"resetSelf",value:function(){var t=arguments.length>0&&void 0!==arguments[0]?arguments[0]:1,n=arguments.length>1&&void 0!==arguments[1]?arguments[1]:0,e=arguments.length>2&&void 0!==arguments[2]?arguments[2]:0,r=arguments.length>3&&void 0!==arguments[3]?arguments[3]:1,i=arguments.length>4&&void 0!==arguments[4]?arguments[4]:0,o=arguments.length>5&&void 0!==arguments[5]?arguments[5]:0,u=this.m;return u[0]=t,u[1]=n,u[2]=e,u[3]=r,u[4]=i,u[5]=o,this.w=this.s=this.i=null,this}},{key:"recomposeSelf",value:function(){var t=arguments.length>0&&void 0!==arguments[0]?arguments[0]:null,n=arguments.length>1&&void 0!==arguments[1]?arguments[1]:null,e=arguments.length>2&&void 0!==arguments[2]?arguments[2]:null,r=arguments.length>3&&void 0!==arguments[3]?arguments[3]:null,i=arguments.length>4&&void 0!==arguments[4]?arguments[4]:null;return this.isIdentity||this.resetSelf(),t&&(t.x||t.y)&&this.translateSelf(t.x,t.y),n&&this.rotateSelf(n),e&&(e.x&&this.skewSelf(e.x,0),e.y&&this.skewSelf(0,e.y)),!r||1===r.x&&1===r.y||this.scaleSelf(r.x,r.y),i&&(i.x||i.y)&&this.translateSelf(i.x,i.y),this}},{key:"decompose",value:function(){var t=arguments.length>0&&void 0!==arguments[0]?arguments[0]:0,n=arguments.length>1&&void 0!==arguments[1]?arguments[1]:0,e=this.m,r=e[0]*e[0]+e[1]*e[1],i=[[e[0],e[1]],[e[2],e[3]]],o=nt(r);if(0===o)return{origin:{x:e[4],y:e[5]},translate:{x:t,y:n},scale:{x:0,y:0},skew:{x:0,y:0},rotate:0};i[0][0]/=o,i[0][1]/=o;var u=e[0]*e[3]-e[1]*e[2]<0;u&&(o=-o);var a=i[0][0]*i[1][0]+i[0][1]*i[1][1];i[1][0]-=i[0][0]*a,i[1][1]-=i[0][1]*a;var l=nt(i[1][0]*i[1][0]+i[1][1]*i[1][1]);if(0===l)return{origin:{x:e[4],y:e[5]},translate:{x:t,y:n},scale:{x:o,y:0},skew:{x:0,y:0},rotate:0};i[1][0]/=l,i[1][1]/=l,a/=l;var f=0;return i[1][1]<0?(f=Z(i[1][1])*tt,i[0][1]<0&&(f=360-f)):f=J(i[0][1])*tt,u&&(f=-f),a=W(a,nt(i[0][0]*i[0][0]+i[0][1]*i[0][1]))*tt,u&&(a=-a),{origin:{x:e[4],y:e[5]},translate:{x:t,y:n},scale:{x:o,y:l},skew:{x:a,y:0},rotate:f}}},{key:"toString",value:function(){return null===this.s&&(this.s="matrix("+this.m.map(it).join(" ")+")"),this.s}}]),t}(),rt=/\.0+$/;function it(t){return Number.isInteger(t)?t:t.toFixed(14).replace(rt,"")}Object.freeze({M:2,L:2,Z:0,H:1,V:1,C:6,Q:4,T:2,S:4,A:7});var ot={},ut=null;function at(n){var e=function(){if(ut)return ut;if("object"!==("undefined"==typeof document?"undefined":t(document))||!document.createElementNS)return{};var n=document.createElementNS("http://www.w3.org/2000/svg","svg");return n&&n.style?(n.style.position="absolute",n.style.opacity="0.01",n.style.zIndex="-9999",n.style.left="-9999px",n.style.width="1px",n.style.height="1px",ut={svg:n}):{}}().svg;if(!e)return function(t){return null};var r=document.createElementNS(e.namespaceURI,"path");r.setAttributeNS(null,"d",n),r.setAttributeNS(null,"fill","none"),r.setAttributeNS(null,"stroke","none"),e.appendChild(r);var i=r.getTotalLength();return function(t){var n=r.getPointAtLength(i*t);return{x:n.x,y:n.y}}}function lt(t){return ot[t]?ot[t]:ot[t]=at(t)}function ft(t,n,e,r){if(!t||!r)return!1;var i=["M",t.x,t.y];if(n&&e&&(i.push("C"),i.push(n.x),i.push(n.y),i.push(e.x),i.push(e.y)),n?!e:e){var o=n||e;i.push("Q"),i.push(o.x),i.push(o.y)}return n||e||i.push("L"),i.push(r.x),i.push(r.y),i.join(" ")}function st(t,n,e,r){var i=arguments.length>4&&void 0!==arguments[4]?arguments[4]:1,o=ft(t,n,e,r),u=lt(o);try{return u(i)}catch(t){return null}}function ct(t,n,e,r){var i=1-r;return i*i*t+2*i*r*n+r*r*e}function ht(t,n,e,r){return 2*(1-r)*(n-t)+2*r*(e-n)}function vt(t,n,e,r){var i=arguments.length>4&&void 0!==arguments[4]&&arguments[4],o=st(t,n,null,e,r);return o||(o={x:ct(t.x,n.x,e.x,r),y:ct(t.y,n.y,e.y,r)}),i&&(o.a=yt(t,n,e,r)),o}function yt(t,n,e,r){return Math.atan2(ht(t.y,n.y,e.y,r),ht(t.x,n.x,e.x,r))}function dt(t,n,e,r,i){var o=i*i;return i*o*(r-t+3*(n-e))+3*o*(t+e-2*n)+3*i*(n-t)+t}function gt(t,n,e,r,i){var o=1-i;return 3*(o*o*(n-t)+2*o*i*(e-n)+i*i*(r-e))}function pt(t,n,e,r,i){var o=arguments.length>5&&void 0!==arguments[5]&&arguments[5],u=st(t,n,e,r,i);return u||(u={x:dt(t.x,n.x,e.x,r.x,i),y:dt(t.y,n.y,e.y,r.y,i)}),o&&(u.a=mt(t,n,e,r,i)),u}function mt(t,n,e,r,i){return Math.atan2(gt(t.y,n.y,e.y,r.y,i),gt(t.x,n.x,e.x,r.x,i))}function bt(t,n,e){return t+(n-t)*e}function wt(t,n,e){var r=arguments.length>3&&void 0!==arguments[3]&&arguments[3],i={x:bt(t.x,n.x,e),y:bt(t.y,n.y,e)};return r&&(i.a=xt(t,n)),i}function xt(t,n){return Math.atan2(n.y-t.y,n.x-t.x)}function kt(t,n,e){var r=arguments.length>3&&void 0!==arguments[3]&&arguments[3];if(_t(n)){if(St(e))return vt(n,e.start,e,t,r)}else if(_t(e)){if(n.end)return vt(n,n.end,e,t,r)}else{if(n.end)return e.start?pt(n,n.end,e.start,e,t,r):vt(n,n.end,e,t,r);if(e.start)return vt(n,e.start,e,t,r)}return wt(n,e,t,r)}function At(t,n,e){var r=kt(t,n,e,!0);return r.a=function(t){var n=arguments.length>1&&void 0!==arguments[1]&&arguments[1];return n?t+Math.PI:t}(r.a)/p,r}function _t(t){return!t.type||"corner"===t.type}function St(t){return null!=t.start&&!_t(t)}var Ot=new et;var Mt={f:Q,i:b},jt={f:Q,i:function(t,n,e){var r=b(t,n,e);return r<=0?0:r>=1?1:r}};function Ft(t,n,e,r,i,o,u,a){return n=function(t,n,e){for(var r,i,o,u=t.length-1,a={},l=0;l<=u;l++)(r=t[l]).e&&(r.e=n(r.e)),r.v&&"g"===(i=r.v).t&&i.r&&(o=e.getElementById(i.r))&&(a[i.r]=o.querySelectorAll("stop"));return a}(t,r,a),function(r){var i,o=e(r,t,Pt);return o?"c"===o.t?V(o.v):"g"===o.t?(n[o.r]&&function(t,n){for(var e=0,r=t.length;e<r;e++)t[e].setAttribute("stop-color",V(n[e]))}(n[o.r],o.v),(i=o.r)?"url(#"+i+")":"none"):"none":"none"}}function Pt(t,n,e){if(0===t)return n;if(1===t)return e;if(n&&e){var r=n.t;if(r===e.t)switch(n.t){case"c":return{t:r,v:A(t,n.v,e.v)};case"g":if(n.r===e.r)return{t:r,v:_(t,n.v,e.v),r:n.r}}}return m(t,n,e)}var Bt={fill:Ft,"fill-opacity":jt,stroke:Ft,"stroke-opacity":jt,"stroke-width":Mt,"stroke-dashoffset":{f:Q,i:b},"stroke-dasharray":{f:function(t){var n=arguments.length>1&&void 0!==arguments[1]?arguments[1]:" ";return t&&t.length>0&&(t=t.map((function(t){return Math.floor(1e4*t)/1e4}))),U(t,n)},i:function(t,n,e){var r,i,o,u=n.length,a=e.length;if(u!==a)if(0===u)n=S(u=a,0);else if(0===a)a=u,e=S(u,0);else{var l=(o=(r=u)*(i=a)/function(t,n){for(var e;n;)e=n,n=t%n,t=e;return t||1}(r,i))<0?-o:o;n=O(n,Math.floor(l/u)),e=O(e,Math.floor(l/a)),u=a=l}for(var f=[],s=0;s<u;s++)f.push(g(w(t,n[s],e[s]),6));return f}},opacity:jt,transform:function(n,e,r,i){if(!(n=function(n,e){if(!n||"object"!==t(n))return null;var r=!1;for(var i in n)n.hasOwnProperty(i)&&(n[i]&&n[i].length?(n[i].forEach((function(t){t.e&&(t.e=e(t.e))})),r=!0):delete n[i]);return r?n:null}(n,i)))return null;var o=function(t,i,o){var u=arguments.length>3&&void 0!==arguments[3]?arguments[3]:null;return n[t]?r(i,n[t],o):e&&e[t]?e[t]:u};return e&&e.a&&n.o?function(t){var e=r(t,n.o,At);return Ot.recomposeSelf(e,o("r",t,b,0)+e.a,o("k",t,x),o("s",t,x),o("t",t,x)).toString()}:function(t){return Ot.recomposeSelf(o("o",t,kt,null),o("r",t,b,0),o("k",t,x),o("s",t,x),o("t",t,x)).toString()}},r:Mt,"#size":G,"#radius":$,_:function(t,n){if(Array.isArray(t))for(var e=0;e<t.length;e++)this[t[e]]=n;else this[t]=n}};return function(t){!function(t,n){if("function"!=typeof n&&null!==n)throw new TypeError("Super expression must either be null or a function");t.prototype=Object.create(n&&n.prototype,{constructor:{value:t,writable:!0,configurable:!0}}),n&&o(t,n)}(u,t);var e=a(u);function u(){return n(this,u),e.apply(this,arguments)}return r(u,null,[{key:"build",value:function(t){var n=l(i(u),"build",this).call(this,t,Bt);if(!n)return null;n.el,n.options;var e=n.player;return function(t,n,e){t.play()}(e),e}}]),u}(L)}));
__SVGATOR_PLAYER__.build({"root":"emTzBMVrIXU1","animations":[{"duration":2000,"direction":1,"iterations":0,"fill":1,"alternate":false,"speed":1,"elements":{"emTzBMVrIXU4":{"transform":{"keys":{"o":[{"t":0,"v":{"x":171.46800231933594,"y":273.0051904365234,"type":"corner"}},{"t":1000,"v":{"x":171.46800231933594,"y":224.45869243652345,"type":"corner"}},{"t":2000,"v":{"x":171.46800231933594,"y":272.9939742265233,"type":"corner"}}]}}}}}],"options":{"start":"load","font":"embed","exportedIds":"unique","svgFormat":"animated","title":"landing-cat"},"animationSettings":{"duration":2000,"direction":1,"iterations":0,"fill":1,"alternate":false,"speed":1}})]]></script></svg>