<svg xmlns="http://www.w3.org/2000/svg" width="682" height="682" viewBox="0 0 682 682">
  <g id="Group_50" data-name="Group 50" transform="translate(-166 -262)">
    <circle id="Ellipse_7" data-name="Ellipse 7" cx="341" cy="341" r="341" transform="translate(166 262)" fill="#e28e83"/>
    <g id="Group_11" data-name="Group 11" transform="translate(171.468 254.213)">
      <g id="Group_1" data-name="Group 1" transform="translate(151.602 315.343)">
        <path id="Path_1" data-name="Path 1" d="M467.041,423.163c-2.05-6.061,4.449-17.7,4.486-23.81.061-10.185-2.566-20.452-5.508-30.128-5.1-16.766-11.864-34.443-21.49-49.207-20.367-31.236-25.12-36.883-25.823-44.612l-179.149-3.513c-.7,9.134-10.938,25.742-25.191,46.017-11.393,16.206-20.473,34.665-25.1,53.978-2.371,9.9-3.571,20.216-2.474,30.376.653,6.037,8.075,19.108,3.7,23.67-2.146,2.236-5.279,3.142-8.19,4.207-11.491,4.206-21.661,12.441-27.224,23.339-6.476,12.684-4.2,23.8-.4,36.641,2.4,8.125,4.074,15.728,8.684,23.034,7.94,12.585,20.565,20.9,34.5,25.56,40,13.375,88.719,3.774,127.41-10.042,16.882-6.029,137.809-14.146,153.857-22.131,11.07-5.508,15.619-16.9,15.192-28.773-.219-6.051-2.411-11.42-3.193-17.318-.884-6.673.386-13.739-2.677-20-2.043-4.175-5.641-7.034-9.449-9.52-2.782-1.816-9.653-3.83-11.4-6.582A5.49,5.49,0,0,1,467.041,423.163Z" transform="translate(-150.99 -271.892)" fill="#fac75c"/>
        <path id="Path_2" data-name="Path 2" d="M262.282,396.126c6.323,4.215,12.646,6.323,18.969,4.215,0,4.215,2.108,8.429,0,12.645-2.108,2.108-6.323,4.215-8.431,6.323-8.431,16.861,8.957,37.411,23.711,41.626,12.646,2.108,22.657.528,35.3-5.8,6.323-4.215,14.754-8.431,18.969-14.754,4.917-21.779-3.162-35.829-6.323-38.64,31.614,0,48.125-28.8,39.694-56.2,0-29.156-8.454-48.989-18.617-70.08l-110.124,2.108C234.356,317.615,213.772,374.781,262.282,396.126Z" transform="translate(-132.265 -271.072)" fill="#fff"/>
        <path id="Path_3" data-name="Path 3" d="M409.68,299.68c1.016-1.353,2.027-2.639,3.034-3.9-9.61-14.6-8.614-14.663-9.134-20.373l-179.149-3.513c-.353,4.592-3.117,11.073-7.587,18.958C258.856,356.2,362.833,359.711,409.68,299.68Z" transform="translate(-135.864 -271.892)" fill="#f1bea7" style="mix-blend-mode: multiply;isolation: isolate"/>
        <path id="Path_4" data-name="Path 4" d="M406.566,410.446c11.584-1.612,23.88-.773,35.195.969a13.5,13.5,0,0,1-.563-1.875c-1.58-7.517,3.85-14.7,3.9-23.628.061-10.185-2.566-20.452-5.508-30.128a259.13,259.13,0,0,0-9.054-25.37c17.418,41.5-28.669,97.186-127.658,85.2-18.494-2.241-26.969-9.486-23.633-12.362-5.241.858-10.221,4.215-12.175,9.152s-.258,11.3,4.343,13.953c-2.159-1.243-5.205,3.887-5.353,5.35-.306,3.032,2.989,6.9,5.02,8.741a40.325,40.325,0,0,0,34.841,9.371c7.738-1.645,14.776-5.548,21.795-9.2a403.859,403.859,0,0,1,67.925-27.795A70.385,70.385,0,0,1,406.566,410.446Z" transform="translate(-124.564 -258.451)" fill="#f1bea7" style="mix-blend-mode: multiply;isolation: isolate"/>
        <path id="Path_5" data-name="Path 5" d="M152.619,430.8a65.988,65.988,0,0,0-.251,19.669c6.774,51.289,50.628,59.722,95.715,54.345-4.819-7.347-8.272-28.534-9.4-37.582C193.716,473.557,156.163,452.59,152.619,430.8Z" transform="translate(-150.815 -235.393)" fill="#f1bea7" style="mix-blend-mode: multiply;isolation: isolate"/>
        <path id="Path_6" data-name="Path 6" d="M278.765,435.856l.108.041a4.871,4.871,0,0,1,.583-.129,4.808,4.808,0,0,1,4.753,2.277c.048.071.085.125.128.191.154.076.3.161.454.239a14.113,14.113,0,0,0,2.392-12.3c-.333-1.364-1.225-24.813,2.6-25.509-17.786,11.092-50.373,4.943-69.782-6.977-31.91-19.6-33.89-48.315-28.052-58.569-7.9,11.37-10.82,24.569-11.868,38.307-.617,8.1-1.4,29.348,4.8,35.385,5.232,5.091,15.557-1.493,21.887-2.232,12.875-1.5,26.082,1.89,37.756,7.159,5.621,2.537,8.171,5.238,13.765,7.832C266.127,425.208,273.517,429.272,278.765,435.856Z" transform="translate(-144.403 -257.369)" fill="#f1bea7" style="mix-blend-mode: multiply;isolation: isolate"/>
      </g>
      <path id="Path_7" data-name="Path 7" d="M186.628,427.239a4.216,4.216,0,0,1-3.83-2.45c-13.408-29.051-5.087-69.62,22.258-108.518,10.151-14.44,23.728-34.7,24.438-43.916a4.215,4.215,0,1,1,8.4.647c-.687,8.94-8.2,22.881-25.945,48.119-25.6,36.41-33.636,73.845-21.5,100.137a4.212,4.212,0,0,1-3.824,5.981Z" transform="translate(6.473 42.664)" fill="#680b0b"/>
      <path id="Path_8" data-name="Path 8" d="M417.822,427.51a4.216,4.216,0,0,1-3.79-6.06c7.548-15.515,2.731-60.684-22.254-99-3.851-5.91-7.144-10.9-9.956-15.163-12.506-18.957-15.867-24.05-16.534-31.369a4.216,4.216,0,0,1,8.4-.766c.473,5.211,3.588,9.931,15.174,27.494,2.82,4.273,6.119,9.277,9.983,15.2,25.3,38.8,32.307,87.689,22.771,107.294A4.217,4.217,0,0,1,417.822,427.51Z" transform="translate(49.829 43.32)" fill="#680b0b"/>
      <path id="Path_9" data-name="Path 9" d="M468.275,403.437c27.786,7.51,48.105,47.222,27.786,88.613-20.276,41.3-66.086,49.564-114.147,42.805-53.055-7.46-63.914-9.8-103.633-5.257-52.568,6.008-79.221-48.543-33.043-81.855,15.886-11.459,31.382-13.973,46.986-13.689,30.373.555,58.912,15.536,76.171,21.95,28.085,10.435,85.909,13.968,100.63-17.272C473.22,429.83,476.536,419.208,468.275,403.437Z" transform="translate(16.805 73.665)" fill="#fac75c"/>
      <path id="Path_10" data-name="Path 10" d="M468.339,403.437c3.409,6.507,3.7,1.99,3.918,6.986,2.907,2.347,7.459-1.152,10.233,1.623,4.507,4.506,9.867,9.576,12.12,16.334,11.264,40.552-21.6,83.252-77.561,78.678-54.069-2.253-76.881-23.315-133.2-7.544-24.766,8.255-60.6-6.323-56.988-32.542-17.782,31.027,8.418,67.55,51.488,62.628,39.719-4.54,50.578-2.2,103.633,5.257,48.061,6.758,93.87-1.5,114.147-42.805C516.444,450.659,496.125,410.947,468.339,403.437Z" transform="translate(16.742 73.665)" fill="#f1bea7" style="mix-blend-mode: multiply;isolation: isolate"/>
      <path id="Path_11" data-name="Path 11" d="M411.4,541.983a210.251,210.251,0,0,1-29.222-2.167l-10.9-1.54c-43.635-6.188-55.364-7.854-91.67-3.7-31.421,3.591-52.353-13.214-59.151-31.463-6.055-16.25-3.126-40.037,23.252-58.061,39.019-26.664,84.646-9.583,111.909.621,5.836,2.184,10.875,4.07,15.013,5.263,18.7,5.393,39.994,7.55,56.974,5.76,14.5-1.524,33.34-6.659,40.791-22.474,2.247-4.765,6.5-16.956-2.451-27.228a4.216,4.216,0,0,1,4.277-6.839c14.089,3.808,26.16,14.805,33.119,30.174,8.83,19.494,7.865,42.955-2.649,64.368C485.373,525.905,454.774,541.983,411.4,541.983Zm-98.461-18.145c16.575,0,31.673,2.141,59.527,6.091l10.885,1.54c38.356,5.4,88.551,2.752,109.777-40.487,9.4-19.144,10.322-39.983,2.536-57.177a48.983,48.983,0,0,0-17-20.6c2.142,7.652,1.3,16.244-2.64,24.611-7.223,15.328-23.662,24.756-47.54,27.266-18.005,1.889-40.506-.369-60.19-6.044-4.45-1.284-9.632-3.223-15.632-5.468-27.395-10.254-68.793-25.751-104.2-1.556-18.707,12.784-26.412,31.235-20.108,48.156,5.652,15.172,23.393,29.1,50.294,26.029A297.95,297.95,0,0,1,312.937,523.838Z" transform="translate(15.957 72.877)" fill="#680b0b"/>
      <path id="Path_12" data-name="Path 12" d="M295.94,442.981a4.216,4.216,0,0,1-.846-8.345c11.419-2.35,27.637-10.711,44.806-19.562,19.818-10.215,40.308-20.778,56.011-23.278,10.379-1.655,45.357-5.66,59.524,12.042a4.216,4.216,0,1,1-6.582,5.269c-5.9-7.374-22.552-13.611-51.617-8.984-14.368,2.285-34.247,12.533-53.471,22.443-17.7,9.124-34.418,17.742-46.97,20.327A4.143,4.143,0,0,1,295.94,442.981Z" transform="translate(32.937 70.627)" fill="#680b0b"/>
      <path id="Path_13" data-name="Path 13" d="M227.3,521.228c-17.648,0-35.9-5.262-50.017-14.915-16.022-10.958-25.812-26.754-28.311-45.684-2.57-19.458,2.542-37.368,14.392-50.426,13.128-14.465,33.278-21.977,56.767-21.174,29.421,1.014,52.548,16.77,71.13,29.432,9.933,6.767,18.513,12.613,26.142,15.075a4.215,4.215,0,1,1-2.587,8.022c-8.784-2.832-17.829-9-28.3-16.13-18.605-12.677-39.692-27.046-66.672-27.974-20.971-.737-38.8,5.814-50.234,18.415-10.157,11.191-14.518,26.7-12.277,43.656,2.178,16.488,10.723,30.26,24.713,39.828,17.216,11.775,42.323,16.378,62.476,11.451a4.214,4.214,0,1,1,2,8.187A81.088,81.088,0,0,1,227.3,521.228Z" transform="translate(0 70.342)" fill="#680b0b"/>
      <path id="Path_14" data-name="Path 14" d="M378.208,116.284c-33.246-11.13-83.349-6.677-106.205,0,0,0-18.66-22.26-37.4-29.444A11.582,11.582,0,0,0,222.9,89.2c-12.58,10.952-39.8,61.591-39.113,131.709,1.1,112.4,90.735,129.476,148.915,129.476S463.406,319.223,463.6,225.727c.156-72.715-16.157-112.887-34.328-134.262C425.9,87.5,417.691,86.39,413.2,88.759,404.434,93.378,389.765,102.449,378.208,116.284Z" transform="translate(8.141 0.787)" fill="#fac75c"/>
      <path id="Path_15" data-name="Path 15" d="M345.277,216.149c-8.707-8.127-12.561-15.7-23.909-17.3-3.19-.449-5.934-.045-9.936,1.949-9.042,4.507-11.479,12.009-19.006,17.848-5.958,4.622-14.088,4.514-22.158,2.288-11.821-3.261-25.274.653-36.475,6.4-22.181,11.381-42.3,34.5-20.571,59.873,31.664,30.9,79.173,37.327,114.855,37.327,43.243,0,94.386-17.239,117.892-64.466-.512-2-2.188.441-2.841-1.57-1.085-26.711-27.083-37.773-48.741-40.19-11.938-1.333-18.247-2.093-29.516,1.514C357.916,222.045,350.511,221.033,345.277,216.149Z" transform="translate(12.762 26.636)" fill="#fff"/>
      <path id="Path_16" data-name="Path 16" d="M351.216,300.352C246.823,313.912,200.09,262.14,183.782,195.733c-.323,113.893,94.183,129.476,148.915,129.476,52.542,0,137.829-41.551,132.406-128.363C461.848,230.234,436.9,289.222,351.216,300.352Z" transform="translate(8.143 25.959)" fill="#f1bea7" style="mix-blend-mode: multiply;isolation: isolate"/>
      <g id="Group_2" data-name="Group 2" transform="translate(222.56 104.322)">
        <path id="Path_17" data-name="Path 17" d="M212.122,134.507c3.168-17.066,11.4-27.824,15.2-30.792a51.635,51.635,0,0,1,17.737,17.066S229.859,134.507,212.122,134.507Z" transform="translate(-207.907 -99.499)" fill="#dd7936"/>
        <path id="Path_18" data-name="Path 18" d="M212.909,139.51a4.214,4.214,0,0,1-4.144-4.984c3.48-18.748,12.478-30.01,16.75-33.345a4.206,4.206,0,0,1,4.517-.429A55.686,55.686,0,0,1,249.4,119.3a4.217,4.217,0,0,1-.726,5.4C248,125.3,232.048,139.51,212.909,139.51Zm15.783-29.7c-2.956,3.378-7.567,10.332-10.4,20.812,9.464-1.567,17.683-6.81,21.842-9.884A49.946,49.946,0,0,0,228.692,109.812Z" transform="translate(-208.694 -100.286)" fill="#680b0b"/>
      </g>
      <g id="Group_3" data-name="Group 3" transform="translate(399.647 103.174)">
        <path id="Path_19" data-name="Path 19" d="M356.132,116.129c5.826-6.692,16.008-12.73,21.077-13.348,0,0,9.836,10.958,9.836,29.507C387.045,132.288,367.373,128.073,356.132,116.129Z" transform="translate(-351.918 -98.565)" fill="#dd7936"/>
        <path id="Path_20" data-name="Path 20" d="M387.832,137.291a4.219,4.219,0,0,1-.883-.095c-.856-.183-21.1-4.637-33.1-17.39a4.216,4.216,0,0,1-.112-5.657c6.157-7.074,17.252-13.973,23.746-14.766a4.2,4.2,0,0,1,3.647,1.369c.446.5,10.915,12.388,10.915,32.323a4.216,4.216,0,0,1-4.215,4.215Zm-24.895-20.485c6.539,5.5,14.942,8.864,20.344,10.616a43.366,43.366,0,0,0-6.954-19.09A45.7,45.7,0,0,0,362.937,116.806Z" transform="translate(-352.705 -99.352)" fill="#680b0b"/>
      </g>
      <path id="Path_21" data-name="Path 21" d="M204.906,239.1c-6.248.874-12.479,1.923-18.658,3.192-3.31.679-6.555,1.567-9.844,2.329-2.1.487-4.74.951-6.742-.175a4.607,4.607,0,0,1-1.312-6.836c1.5-1.838,4.234-2.73,6.442-3.251a94.833,94.833,0,0,1,21.624-2.041c2.773,0,6.523-.357,9.162.644A3.2,3.2,0,0,1,204.906,239.1Z" transform="translate(4.372 34.348)" fill="#680b0b"/>
      <path id="Path_22" data-name="Path 22" d="M210.748,252.946c-6.709,2.346-13.192,5.325-19.633,8.314-3.6,1.67-7.078,3.544-10.618,5.326a19.908,19.908,0,0,1-6.185,2.237,4.1,4.1,0,0,1-4.251-6.156c1.618-2.633,4.906-4.385,7.593-5.665a149.687,149.687,0,0,1,22.085-8.288c3.046-.9,6.707-2.276,9.926-2.223A3.336,3.336,0,0,1,210.748,252.946Z" transform="translate(4.846 37.616)" fill="#680b0b"/>
      <path id="Path_23" data-name="Path 23" d="M216.334,265.2c-4.874,2.976-9.435,6.386-14,9.817-2.677,2.014-5.259,4.139-7.843,6.273-1.06.875-2.125,1.744-3.206,2.592-.489.384-2.213,1.257-2.384,1.761a.276.276,0,0,0-.046-.227c-2.414,5.172-9.894,1.163-7.464-3.945,2.389-5.023,7.909-8.471,12.32-11.51a108.053,108.053,0,0,1,16.627-9.719c1.906-.861,4.266-2.212,6.235-.781A3.483,3.483,0,0,1,216.334,265.2Z" transform="translate(7.485 40.452)" fill="#680b0b"/>
      <path id="Path_24" data-name="Path 24" d="M397.461,231.021c6.27-1.206,12.914-.047,19,1.6a78.732,78.732,0,0,1,10.354,3.576c2.3.983,5.069,2.357,6.417,4.577a4.363,4.363,0,0,1-2.838,6.476c-2.271.464-4.706-.738-6.687-1.666a79.245,79.245,0,0,0-19.688-6.471,26.623,26.623,0,0,0-5.253-.437,4.36,4.36,0,0,1-3.009-.849A3.9,3.9,0,0,1,397.461,231.021Z" transform="translate(56.509 33.949)" fill="#680b0b"/>
      <path id="Path_25" data-name="Path 25" d="M393.613,246.362A109.981,109.981,0,0,1,414.162,253a111.808,111.808,0,0,1,10.982,5.272c2.41,1.35,5.737,3.292,6.683,6.113a4.316,4.316,0,0,1-5.2,5.459c-2.272-.491-4.224-1.961-6.153-3.174a147.592,147.592,0,0,0-21.035-10.447c-2.641-1.12-5.7-1.846-8.209-3.221C387.742,251.089,389.657,245.541,393.613,246.362Z" transform="translate(55.372 37.568)" fill="#680b0b"/>
      <path id="Path_26" data-name="Path 26" d="M384.967,260.887l1.56.443c.508.149,1.285.473,2.089.783.879.331,1.548.7,2.456,1.1a94.814,94.814,0,0,1,11.614,6.908c4,2.753,7.845,5.67,10.7,8.072a28.154,28.154,0,0,1,3.378,3.374c.216.253.387.5.545.7.18.241.428.637.566.869.3.518.428.8.428.8a4.215,4.215,0,0,1-7.579,3.693.241.241,0,0,0-.053.1c-.027.01.05.107-.03.043-.111-.094-.25-.192-.381-.321-.22-.236-.7-.6-1.151-1.032s-1.056-.939-1.65-1.5c-2.464-2.271-6.019-5.224-9.678-7.982a102.949,102.949,0,0,0-10.251-7.029c-.679-.373-1.412-.835-1.869-1.038-.521-.245-.871-.48-1.34-.662l-1.521-.567-.043-.016a3.556,3.556,0,0,1,2.212-6.753Z" transform="translate(53.312 40.893)" fill="#680b0b"/>
      <g id="Group_4" data-name="Group 4" transform="translate(235.687 227.016)">
        <path id="Path_27" data-name="Path 27" d="M229.366,202.082c3.216,4.217,6.755,7.408,11.8,9.328A34.556,34.556,0,0,0,259.2,213a28.3,28.3,0,0,0,8.41-2.818,38.654,38.654,0,0,0,6.613-4.92c2.868-2.424,6.942-4.809,10.131-1.306,3.666,4.026-.568,9.663-3.616,12.566a36.676,36.676,0,0,1-15.632,8.522,44.593,44.593,0,0,1-34.955-5.095c-4.545-2.9-9.448-7.36-10.64-12.861C218.282,201.435,225.5,197.477,229.366,202.082Z" transform="translate(-219.369 -200.063)" fill="#680b0b"/>
        <path id="Path_28" data-name="Path 28" d="M332.875,202.706c3.935,3.389,7.619,6.784,12.561,8.7a33.048,33.048,0,0,0,14,2.211A26.753,26.753,0,0,0,375,207.369c2.929-2.5,6.52-7.367,10.985-6.227a5.711,5.711,0,0,1,4.218,6.19c-.264,2.1-1.84,3.883-3.1,5.472a37.012,37.012,0,0,1-15.712,11.007,42.07,42.07,0,0,1-30.938-.8c-6.107-2.517-12.577-6.8-15.672-12.816-1.13-2.2-1.428-4.609.2-6.687A5.573,5.573,0,0,1,332.875,202.706Z" transform="translate(-195.373 -199.855)" fill="#680b0b"/>
      </g>
      <g id="Group_5" data-name="Group 5" transform="translate(252.017 183.206)">
        <path id="Path_29" data-name="Path 29" d="M309.718,237.127c.924,13.9-6.9,29.169-22.15,29.949a23.033,23.033,0,0,1-16.5-5.522,16.246,16.246,0,0,1-5.065-7.864,4.087,4.087,0,0,1,5.376-4.729c1.4.535,1.931,1.7,2.694,2.8a14.94,14.94,0,0,0,4,3.871c2.789,1.837,5.859,2.3,9.121,2.411-.634-.007,1-.116,1.071-.124a11.822,11.822,0,0,0,5.823-2.239c3.5-2.579,5.419-6.912,6.455-11.019a24.408,24.408,0,0,0,.8-5.519c.023-1.42-.187-2.754.639-4.025A4.249,4.249,0,0,1,309.718,237.127Z" transform="translate(-225.012 -148.632)" fill="#680b0b"/>
        <path id="Path_30" data-name="Path 30" d="M303.558,241.177c.392,4.432,2.019,9.224,5.24,12.307a14.713,14.713,0,0,0,11.051,3.68,14.9,14.9,0,0,0,9.7-4.488c1.857-1.947,3.551-5.234,6.735-3.652,4.3,2.137,1.056,8.046-1.062,10.542a20.611,20.611,0,0,1-12.3,6.688,22.827,22.827,0,0,1-24.334-11.8c-1.967-3.795-3.71-9.247-3.169-13.645C296.044,235.691,303.275,236.067,303.558,241.177Z" transform="translate(-218.257 -147.735)" fill="#680b0b"/>
        <path id="Path_31" data-name="Path 31" d="M303.009,221.5c-16.935.075-22.486,4.123-21.447,9.684,1.072,5.734,11.844,13.33,20.882,12.688,8.532-.605,20.066-5.609,20.884-13.9C324.038,222.784,313.435,221.459,303.009,221.5Z" transform="translate(-221.443 -151.329)" fill="#680b0b"/>
        <path id="Path_32" data-name="Path 32" d="M254.977,164.454c-17.667.492-23.39,8.663-22.17,14.438,1.259,5.955,7.444,12.432,22.068,11.473,8.905-.584,20.039-5.187,21.475-13.759C277.853,167.639,265.851,164.151,254.977,164.454Z" transform="translate(-232.65 -164.436)" fill="#fff"/>
        <path id="Path_33" data-name="Path 33" d="M347.6,164.454c17.667.492,23.39,8.663,22.169,14.438-1.259,5.955-7.445,12.432-22.068,11.473-8.905-.584-20.038-5.187-21.475-13.759C324.72,167.639,336.722,164.151,347.6,164.454Z" transform="translate(-211.187 -164.436)" fill="#fff"/>
      </g>
      <path id="Path_34" data-name="Path 34" d="M325.7,355.5c-34.426,0-78.754-6.773-109.267-36.11-23.529-22.624-35.668-55.48-36.08-97.656-.681-69.8,26.08-122.321,40.56-134.928A15.786,15.786,0,0,1,236.9,83.692c16.1,6.173,31.7,22.37,37.131,28.4,26.678-9.665,70.01-12.127,100.947-.059,5.476-6.076,21.029-22.186,37.076-28.339A15.786,15.786,0,0,1,428.037,86.8c14.923,12.993,41.245,70.805,40.571,139.751-.2,92.039-69.864,126.9-135,128.826C331.045,355.458,328.4,355.5,325.7,355.5ZM231.578,91.145a7.882,7.882,0,0,0-5.127,2.018c-13.036,11.349-38.311,62.253-37.664,128.487.389,39.827,11.657,70.666,33.493,91.661,30.795,29.608,77.4,34.645,111.082,33.644,19.059-.564,55.416-4.826,84.766-27.058,27.815-21.066,41.963-52.487,42.05-93.392.685-70.048-26.678-123.765-37.679-133.343a7.385,7.385,0,0,0-7.429-1.6c-17.516,6.715-35.5,28-35.678,28.216a4.219,4.219,0,0,1-4.9,1.163c-29.746-12.811-75.138-9.953-100.139.042a4.213,4.213,0,0,1-4.795-1.205c-.181-.214-18.2-21.515-35.679-28.216A6.41,6.41,0,0,0,231.578,91.145Z" transform="translate(7.354)" fill="#680b0b"/>
    </g>
  </g>
</svg>
