<svg xmlns="http://www.w3.org/2000/svg" width="492" height="492" viewBox="0 0 492 492">
  <g id="Group_57" data-name="Group 57" transform="translate(-1266 -369)">
    <g id="Group_63" data-name="Group 63">
      <path id="Path_302" data-name="Path 302" d="M246,0C381.862,0,492,110.138,492,246S381.862,492,246,492,0,381.862,0,246,110.138,0,246,0Z" transform="translate(1266 369)" fill="#e5e1c8"/>
      <g id="Group_74" data-name="Group 74" transform="translate(877.976 23.447)">
        <path id="Path_346" data-name="Path 346" d="M603.924,657.558C564,635.844,639.3,577.844,612.25,540.5c-1.053,6.605-5.749,8.07-9.038,12.259,12.965-24.215.591-65.136-20.716-77.177,1.995,4.048.637,7.525.873,11.26-8.257-20.393-21.164-33.27-42.956-38.46,3.61,3.421,4.182,7.223,3.6,9.741-14.464-10.255-24.529-18.077-44.172-13.476,6.69,1.6,5.987,4.1,10.094,7.335-11.785-2.956-24.054.467-42.311,15.2,5.627,5.428,12.7,9.1,22.067,15.13-4.418-.046-10.32-.085-13.427-.827,6.119,11.006,16.877,17.926,26.439,22.478-5.3.589-10.075-.657-13.011-.922,8.554,21.733,31.333,18.977,36.058,39.182-2.88-9.179-13.164-10.111-18.609-9.751,10.34,9.6,8.087,20.767,10.1,35.555a29.594,29.594,0,0,0-5.883-10.094,49.557,49.557,0,0,0,7.744,46.274c-7.632-2.4-9.238-6.187-10.6-9.437-2.557,21.582,5.939,33.672,16.962,42.338-4.912,1.54-4.713-.608-7.279-.942,1.778,10.987,11.462,19.712,21.023,21.984-5.294,1.946-11.756,1.834-15.425.085,9.846,11.014,23.626,20.432,38.413,17.03,21.128,4.189,48.972,10.2,41.72-17.707Zm0,0" transform="translate(0 60.144)" fill="#4c3323"/>
        <path id="Path_347" data-name="Path 347" d="M561.4,657.466c-15.909.333-35.153.779-44.286-13.41-1.16,4.068.589,4.535,5.693,10.722-15.369-6.311-22.706-18.551-24.748-35.47.294,3.014-2.576,7.394-3.394,12.746-6.576-8.221-4.3-20.633,3.061-39.27-3.859,4.287-5.844,4.915-8.544,12.982-4.9-10.863,10.311-31.2,15.777-42.177-2.367,2.966-9.124,7.328-8.649,13.126-5.219-10.445,10.226-32.628,16.867-40.8-2.535,2.024-9.931,6.292-11.347,11.71-6.472-14.532,19.264-43.5,20.31-46.255,42.661-19.208,127.967-19.264,177.07-.856.761,4.725,26.563,33.083,20.091,47.6-1.416-5.408-8.81-9.676-11.347-11.7,6.644,8.172,22.086,30.356,16.87,40.79.474-5.8-6.282-10.16-8.649-13.116,5.464,10.968,20.67,31.314,15.775,42.177-2.7-8.068-4.683-8.7-8.542-12.992,7.355,18.636,9.637,31.059,3.058,39.28-.818-5.36-3.686-9.742-3.391-12.753-2.044,16.926-9.381,29.166-24.748,35.467,5.1-6.177,6.851-6.644,5.693-10.712-9.133,14.189-28.378,13.734-44.286,13.41-13.05,1.72-27.361-.2-33.937-.647-7.063,1.55-20.055,1.321-34.253-1.416-11.792,2.956-21.393,2.112-30.144,1.559Zm0,0" transform="translate(29.516 122.523)" fill="#42291a"/>
        <path id="Path_348" data-name="Path 348" d="M529.906,526.276c-2.063,25-7.367,57.9,3.411,79.452,9.8,4,36.912,2.9,54.9,2.6,5.532-28.093,5.009-55.225,1.664-83.576-20.66-4.846-38.443-3.885-59.976,1.521Zm0,0" transform="translate(84.751 172.362)" fill="#be9b83"/>
        <path id="Path_349" data-name="Path 349" d="M528.658,508.753c-1.426,30.45,2.413,64.2,21.478,79.449.153-2.6,1.426-5.007,2.148-7.515,2.044,4.464,4.922,7.394,6.442,9.664,19.437-17.449,28.256-54.865,23.616-82.671-16.8-4-38.623-6.464-53.685,1.073Zm0,0" transform="translate(87.071 146.939)" fill="#d5c2b2"/>
        <path id="Path_350" data-name="Path 350" d="M584.46,756.648c-.389,21.356-12.449,26.3-34.136,24.264-14.094-1.321-12.479-16.507-8.656-26.249-2.007-11.148-6.778-32.312-11.795-50.4-12.393-44.685-29.005-78.128-21-95.786-4.856,7.583-5.265,4.1-9.1,14.369-1.54-9.6,1.577-25.212,12.011-36.5-3.372,1.625-8.705,5.484-10.445,10.513-.684-14.3,8.041-24.872,17.184-36.389-4.116.749-11.272,5.481-14,12.172-1.976-11.252,9.732-25.147,14.417-30.533-1.749-.7-5.389,2.869-9.381,5.854,5.2-13.247,1.1-64.433,27.181-97.575.608-16.743,6.141-33.28,19.254-49.057,10.853,21.1,23.884,41.143,24.205,41.664,6.265-.949,22.9-1.852,31.134-.445,1.606.455,13.763-20.016,24.624-41.124,13.106,15.777,18.648,32.314,19.256,49.057,26.923,40.3,21.2,85.086,27.426,100.521-3.516-3.09-3.489-2.09-8.554-4.134,4.686,5.389,13.05,13.1,11.072,24.356-2.727-6.691-4.846-9.255-10.474-10.766,9.143,11.517,14.342,20.68,13.658,34.983-1.74-5.029-7.073-8.888-10.444-10.513,10.435,11.291,14.215,25.176,12.678,34.764-3.849-10.262-4.258-6.785-9.114-14.359,8.012,17.648-3.849,54.342-16.242,99.027-5.019,18.086-11.89,39.25-13.894,50.4,3.82,9.741,5.435,24.928-8.659,26.249-21.687,2.034-34.8-2.907-35.192-24.264-.569-31.638,14.666-94.361-10.749-94.417s-11.688,62.684-12.259,94.322Zm0,0" transform="translate(45.523 0)" fill="#624a3b"/>
        <path id="Path_351" data-name="Path 351" d="M546.96,449.37c-5.314-17.716,9.265-29.168,23.5-15.284.847,15.121-11.024,19.113-23.5,15.284Zm0,0" transform="translate(112.078 38.09)" fill="#ffcf00"/>
        <path id="Path_352" data-name="Path 352" d="M552.53,430.082c-6.625,1.776-6.89,14.578,3.306,12.7,9.827-1.8,4.61-14.817-3.306-12.7Zm0,0" transform="translate(114.918 40.871)" fill="#2b1100"/>
        <path id="Path_353" data-name="Path 353" d="M545.764,449.229c4.562-17.923-10.5-28.747-24.13-14.255-.19,15.14,11.831,18.617,24.13,14.255Zm0,0" transform="translate(77.388 38.563)" fill="#ffcf00"/>
        <path id="Path_354" data-name="Path 354" d="M532.736,430.335c6.7,1.482,7.515,14.264-2.756,12.839-9.895-1.38-5.245-14.607,2.756-12.839Zm0,0" transform="translate(81.312 41.331)" fill="#2b1100"/>
        <path id="Path_355" data-name="Path 355" d="M533.758,419.481c-.761,11.167,5.216,2.907,9.35,22.923,2.158-21.67-1.034-15.121-9.35-22.923Zm0,0" transform="translate(94.668 26.012)" fill="#220e01"/>
        <path id="Path_356" data-name="Path 356" d="M535.554,423.09c4.019,5.608,1.9,8.381-2,11.2-3.46-4.211-2.387-9.038,2-11.2Zm0,0" transform="translate(91.522 31.183)" fill="#220e01"/>
        <path id="Path_357" data-name="Path 357" d="M550.621,419.262c.749,11.167-5.219,2.9-9.352,22.913-2.158-21.658,1.027-15.111,9.352-22.913Zm0,0" transform="translate(104.587 25.698)" fill="#220e01"/>
        <path id="Path_358" data-name="Path 358" d="M546.548,422.871c-4.019,5.6-1.89,8.384,2.014,11.2,3.46-4.211,2.387-9.048-2.014-11.2Zm0,0" transform="translate(109.998 30.869)" fill="#220e01"/>
        <path id="Path_359" data-name="Path 359" d="M541.694,431.676c-7.649,13.41-31.02,11.118-35.163,32.38,8.051-12.459,34.659-12.328,35.163-32.38Zm0,0" transform="translate(55.749 43.486)" fill="#220e01"/>
        <path id="Path_360" data-name="Path 360" d="M520.842,435.278c2.479,9.712,8.486,12.172,13.761,17.351-8.895.608-17.135-7.27-13.761-17.351Zm0,0" transform="translate(75.148 48.647)" fill="#220e01"/>
        <path id="Path_361" data-name="Path 361" d="M557.168,431.77c7.649,13.408,31.02,11.109,35.153,32.368-8.048-12.459-34.659-12.325-35.153-32.368Zm0,0" transform="translate(128.308 43.621)" fill="#220e01"/>
        <path id="Path_362" data-name="Path 362" d="M565.878,435.367c-2.491,9.724-8.5,12.184-13.773,17.354,8.9.608,17.145-7.26,13.773-17.354Zm0,0" transform="translate(121.053 48.775)" fill="#220e01"/>
        <path id="Path_363" data-name="Path 363" d="M520.441,471.14c-2.859,1.426-14.415,20.463-9.6,34.907,2.708-6.253,5.579-7.593,9.6-9.6-6.481,14.255-1.243,25.193,8.724,33.158-.151-5.323,3.718-8.364,6.1-11.337-3.669,16.583,11.024,28.005,17.459,33.156a42.845,42.845,0,0,1,6.112-14.833c1.3,11.936,11.233,18.237,22.39,26.173,11.167-6.2,21.1-12.488,22.4-24.424a43.038,43.038,0,0,1,6.112,14.824c6.433-5.141,21.125-16.563,17.446-33.158,2.387,2.985,6.255,6.017,6.112,11.347,9.96-7.973,15.206-18.9,8.724-33.156,4.012,2,6.89,3.345,9.6,9.6,4.82-14.447-6.737-33.482-9.6-34.907-27.057-20.291-89.514-24.091-121.58-1.749Zm0,0" transform="translate(60.266 78.283)" fill="#fff3e9"/>
        <path id="Path_364" data-name="Path 364" d="M640.216,457.049c7.09.637,14.2,12.1,20.366,22.069-4.637-.647-8.62-1.54-13.247-2.311.616,4.078-2.139,8.316-2.311,8.649-6.024.219-13.057-4.807-17.855-8.649-1.436,5.362-5.019,8.479-7.491,10.948-2.328-3.525-4.9-5.426-7.489-7.489-4.827,3.535-7.449,9.211-12.668,10.948a86.314,86.314,0,0,0-9.8-7.489,77.027,77.027,0,0,0-5.618,12.384,100.071,100.071,0,0,0-5.615-12.963,88.394,88.394,0,0,0-9.79,7.489c-5.216-1.74-7.839-7.413-12.678-10.948-2.574,2.073-5.151,3.963-7.489,7.489-2.469-2.469-6.043-5.579-7.489-10.938-4.79,3.829-11.831,8.858-17.858,8.639-.161-.333-2.917-4.572-2.3-8.639-4.627.771-8.62,1.654-13.247,2.3,6.167-9.958,13.466-21.239,20.556-21.877,14.323-11.965,102.107-13.77,112.019.389Zm0,0" transform="translate(57.34 65.516)" fill="#e2b392"/>
        <path id="Path_365" data-name="Path 365" d="M625.831,465.976c-19.948-23.312-41.939-25.83-52.867-25.765s-33.112,1.435-57.089,25.908c29.842-2.786,36.788,12.479,56.709,13.172s23.4-16.1,53.247-13.315Zm0,0" transform="translate(69.138 55.715)" fill="#f5dfcf"/>
        <path id="Path_366" data-name="Path 366" d="M539.978,442.228a1.554,1.554,0,0,0-1.2,1.5v6.141a1.507,1.507,0,1,0,3.014,0v-6.141a1.573,1.573,0,0,0-1.817-1.5Zm0,0" transform="translate(101.961 58.565)" fill="#2b1100"/>
        <path id="Path_367" data-name="Path 367" d="M549.95,444.769a1.58,1.58,0,0,0-1.255,1.445.534.534,0,0,1,0,.124,9.234,9.234,0,0,1-8.7,8.522,5.211,5.211,0,0,1-4.382-1.377c-.827-1-1.177-2.671-.066-5.579a1.508,1.508,0,1,0-2.822-1.063c-1.35,3.535-1.066,6.547.569,8.515a8.013,8.013,0,0,0,6.89,2.508,12.762,12.762,0,0,0,10.026-6.386,11.741,11.741,0,0,0,2.5,3.192,13.358,13.358,0,0,0,7.649,3.26,8.956,8.956,0,0,0,7.2-2.319c1.8-1.864,2.358-4.846,1.246-8.335a1.515,1.515,0,0,0-2.881.941c.893,2.793.4,4.323-.56,5.323a5.985,5.985,0,0,1-4.761,1.377,10.547,10.547,0,0,1-5.951-2.5,8.431,8.431,0,0,1-2.944-6.082v-.124a1.58,1.58,0,0,0-1.759-1.445Zm0,0" transform="translate(92.047 62.221)" fill="#2b1100"/>
        <path id="Path_368" data-name="Path 368" d="M552.375,443.979c17.619-2.489,20.167,14.817,33.567,20.415-20.281-2.139-20.081-15.6-33.567-20.415Zm0,0" transform="translate(121.44 60.767)" fill="#220e01"/>
        <path id="Path_369" data-name="Path 369" d="M546.229,443.884C528.6,441.4,524.9,458.71,511.5,464.309c20.281-2.139,21.24-15.595,34.725-20.424Zm0,0" transform="translate(62.875 60.634)" fill="#220e01"/>
        <path id="Path_370" data-name="Path 370" d="M530.146,466.579a1.533,1.533,0,0,0-1.253,1.253c-.4,1.995.664,4.1,2.822,6.141s5.52,3.876,10.454,4.693a1.505,1.505,0,1,0,.5-2.946c-4.438-.74-7.243-2.375-8.895-3.944a5.887,5.887,0,0,1-1.939-3.382,1.582,1.582,0,0,0-1.693-1.815Zm0,0" transform="translate(87.673 93.48)" fill="#e0ccbb"/>
        <path id="Path_371" data-name="Path 371" d="M550.6,467.626a1.549,1.549,0,0,0-1.131,1.557c.075,2.491-.827,6-6.452,9.087a1.5,1.5,0,1,0,1.443,2.632c6.406-3.525,8.126-8.4,8.021-11.841a1.573,1.573,0,0,0-1.881-1.435Zm0,0" transform="translate(106.81 94.941)" fill="#e0ccbb"/>
        <path id="Path_372" data-name="Path 372" d="M553.365,466.271a1.536,1.536,0,0,0-1.255,1.255c-.73,4.143-1.6,6.423-4.447,8.323a1.514,1.514,0,1,0,1.693,2.511c3.61-2.413,4.922-5.863,5.7-10.274a1.576,1.576,0,0,0-1.691-1.815Zm0,0" transform="translate(113.759 93.036)" fill="#e0ccbb"/>
        <path id="Path_373" data-name="Path 373" d="M525.836,465.661a1.564,1.564,0,0,0-1.187,1.871c1.017,3.878,4.791,7.508,9.209,9.342a1.508,1.508,0,1,0,1.131-2.766c-3.6-1.482-6.766-4.932-7.394-7.326a1.565,1.565,0,0,0-1.759-1.122Zm0,0" transform="translate(81.643 92.145)" fill="#e0ccbb"/>
        <path id="Path_374" data-name="Path 374" d="M557.987,463.948a1.557,1.557,0,0,0-1.311,1.567c.037,4.8-3.231,7.469-6.265,11.405a1.5,1.5,0,1,0,2.377,1.815c2.776-3.584,6.946-7.119,6.89-13.276a1.574,1.574,0,0,0-1.691-1.511Zm0,0" transform="translate(118.09 89.715)" fill="#e0ccbb"/>
        <path id="Path_375" data-name="Path 375" d="M547.453,441.027a11.443,11.443,0,0,1-5.134,6.642,21.843,21.843,0,0,1-5.311-6.832,14.283,14.283,0,0,1,10.445.19Zm0,0" transform="translate(99.42 55.328)" fill="#c54171"/>
        <path id="Path_376" data-name="Path 376" d="M537.621,439.939A1.567,1.567,0,0,0,536.555,442a13.622,13.622,0,0,0,2.881,4.45,9.221,9.221,0,0,0,1.881,1.5,3.562,3.562,0,0,0,2.318.628,3.633,3.633,0,0,0,1.939-.876,11.607,11.607,0,0,0,1.569-1.567,13.144,13.144,0,0,0,2.5-4.136,1.5,1.5,0,1,0-2.812-1,11.208,11.208,0,0,1-1.949,3.194,7.953,7.953,0,0,1-1.187,1.122c-.324.255-.6.341-.372.314.143-.01-.095-.039-.436-.248a6.635,6.635,0,0,1-1.255-1.063,11.422,11.422,0,0,1-2.319-3.45,1.545,1.545,0,0,0-1.691-.932Zm0,0" transform="translate(98.618 55.219)" fill="#2b1100"/>
        <path id="Path_377" data-name="Path 377" d="M524.479,512.109c-8.535.38,3.953,3.744,8.656,5.389-1.367,1.177-3.676,1.538-3.895,2.289,6.605,4.287,13.78,4.114,17.1,5.768-4.591,2.387-11.785,1.949-15.052,2.491a10.621,10.621,0,0,1,1.834,3.705c-7.386-1.5-12.766-5.693-16.49-8.668v4.335c-3.934-3.156-5.863-7.053-8.467-10.313a187.218,187.218,0,0,1-5.559-22.9c3.705,3.659,7.27,8.668,9.189,10.588,3.525,3.031,10.007,4.637,12.688,7.318Zm0,0" transform="translate(50.119 133.082)" fill="#220e01"/>
        <path id="Path_378" data-name="Path 378" d="M552.611,517.094c-3.26,2.662-10.719,1.445-15.653,1.645,1.808,2.632,4.934,1.54,5.533,3.326-4.552.654-10.425.124-15.444,1.435,2.518,1.226,5.313,1.036,6.367,2.08-4.562,1.511-9.369,2.1-13.607,3.508,7.934,1.311,11.537,2.243,21.05.255-.143,1.455-5.683,4.457-4.447,3.012,2.832,1.3,10.065.637,15.6-.37.533-3.28.323-8.715.6-14.892Zm0,0" transform="translate(74.77 165.883)" fill="#220e01"/>
        <path id="Path_379" data-name="Path 379" d="M516.661,544.949c3.423,3.413,16.661,4.849,29.482,7.6-2.511-2-5.922-2.338-9.486-5.379a21.76,21.76,0,0,0,5.978-.834c-11.308-4.99-15.755-6.5-20.013-8.021.958-1.292,2.479-1.046,3.715-2.073-4.238-1.377-8.63-4.039-12.8-4.732,1.122,5.854,1.474,9.1,3.126,13.437Zm0,0" transform="translate(65.785 186.543)" fill="#220e01"/>
        <path id="Path_380" data-name="Path 380" d="M575.084,503.348c4.457.808,6.148,1.416,7.878,1.674-6.53,3.316-16.5,7.489-23.407,11.233,6.622-.769,10.036-.494,13.3-1.491-1.513,3.25-4.5,5.949-4.9,7.613a46.883,46.883,0,0,0,19.111-9.323c-2.338,5.141,4.372,2.744,8.659-2.263.1-3.516,2.472-9.627,2.148-18.931-6.654,6.547-16.442,9.189-22.789,11.488Zm0,0" transform="translate(131.728 129.725)" fill="#220e01"/>
        <path id="Path_381" data-name="Path 381" d="M544.336,512.348c7.793,5.824,14.807,8.866,25.745,8.866-1.615,1.978-4.163,1.854-5.569,2.482,6.406,1.255,11.946,2.537,20.422.618-1.8,1.8-2.479,2.871-4.533,3.078,2.881,1.723,9.048.637,13.819.637-7.878,4.477-8.62,6.615-17.6,6.615a27.857,27.857,0,0,1,3.917,3.022,157.108,157.108,0,0,1-19.6-5.095c.827-1.024,2.063,2.024,4.134,4.5a42.8,42.8,0,0,1-18.094-8.192c-.771-5.219-1.387-10.863-2.642-16.527Zm0,0" transform="translate(109.921 159.083)" fill="#220e01"/>
        <path id="Path_382" data-name="Path 382" d="M556.191,540.345c3.09-.474,6.4-1.246,8.031-1.436-1.654-1.036-4.591-1.148-6.177-2.28,9.666-1.389,14.892-.893,20.415-3.508a50.179,50.179,0,0,1-2.786,11.063c-5.369-2.08-12.583.114-19.483-3.839Zm0,0" transform="translate(126.908 188.849)" fill="#220e01"/>
        <path id="Path_383" data-name="Path 383" d="M518.626,547.176c1.474-1.842,9.094.487,15,2.452l14.855,3.1c4.189,1.416,8.552,1.976,12.374,4.742-2.472,9.389-7.576,13.152-14.238,15.062-7.992,2.015-16.062,1.131-21.726.19-9.608-3.153-12.42-12.7-6.262-25.546Zm0,0" transform="translate(68.402 208.027)" fill="#fff3e9"/>
        <path id="Path_384" data-name="Path 384" d="M571.477,551.5c-4.705,1.234-6.749,1.662-13.286,3.705-5.209.465-11.71,2.9-13.953,3.27,1.265,4.552,4.552,8.352,9.068,11.965,7.459,4.562,24.565,3.4,30.353,1.443,8.459-5.53,7.613-14.493,3.669-25.353-4.732,1.207-10.53,3.2-15.85,4.97Zm0,0" transform="translate(109.78 208.06)" fill="#fff3e9"/>
        <path id="Path_385" data-name="Path 385" d="M556.661,440.662c-1.615-2.423-4.372-7.194-7.462-8.515,6.292-10.768,13.087-20.775,15.624-28.4,8.744,11.442,12.25,22.363,14.2,34.071a30.177,30.177,0,0,0-9.941,7.462c-3.725-1.55-7.812-3.555-12.42-4.62Zm0,0" transform="translate(116.889 3.47)" fill="#ffd5d5"/>
        <path id="Path_386" data-name="Path 386" d="M539.025,440.443c1.618-2.423,4.372-7.194,7.462-8.515-6.292-10.766-13.087-20.775-15.624-28.4-8.744,11.444-12.25,22.363-14.2,34.071a30.18,30.18,0,0,1,9.941,7.462c3.725-1.55,7.812-3.555,12.42-4.62Zm0,0" transform="translate(70.269 3.157)" fill="#ffd5d5"/>
        <path id="Path_387" data-name="Path 387" d="M539.552,407.66c-2.545.192-20.383,4.686-26.439,11.644,7.184-6.491,24.205-9.647,27.828-9.951-.533-.523-.657-1.579-1.389-1.693Zm0,0" transform="translate(65.181 9.073)" fill="#fff3e9"/>
        <path id="Path_388" data-name="Path 388" d="M540.869,410.34c-2.547.18-20.376,4.676-26.438,11.632,7.194-6.491,24.215-9.647,27.825-9.951-.533-.511-.654-1.577-1.387-1.681Zm0,0" transform="translate(67.068 12.913)" fill="#fff3e9"/>
        <path id="Path_389" data-name="Path 389" d="M541.928,412.961c-7.44,1.939-22.636,10.549-26.01,17.1,8.031-8.525,20.327-13.43,27.236-15.529a5.012,5.012,0,0,1-1.226-1.569Zm0,0" transform="translate(69.2 16.669)" fill="#fff3e9"/>
        <path id="Path_390" data-name="Path 390" d="M554.955,407.664c2.547.19,20.385,4.686,26.438,11.642-7.194-6.491-24.215-9.644-27.828-9.948.533-.513.657-1.579,1.389-1.693Zm0,0" transform="translate(123.146 9.079)" fill="#fff3e9"/>
        <path id="Path_391" data-name="Path 391" d="M553.637,410.344c2.537.18,20.376,4.676,26.441,11.641-7.2-6.5-24.217-9.656-27.828-9.96.533-.513.657-1.577,1.387-1.681Zm0,0" transform="translate(121.261 12.919)" fill="#fff3e9"/>
        <path id="Path_392" data-name="Path 392" d="M552.23,412.965c7.44,1.939,22.636,10.549,26.01,17.1-8.031-8.522-20.327-13.427-27.236-15.527a5.013,5.013,0,0,0,1.226-1.569Zm0,0" transform="translate(119.475 16.675)" fill="#fff3e9"/>
      </g>
    </g>
  </g>
</svg>
