<svg xmlns="http://www.w3.org/2000/svg" width="492" height="492" viewBox="0 0 492 492">
  <g id="Group_61" data-name="Group 61" transform="translate(-714 -369)">
    <circle id="Ellipse_14" data-name="Ellipse 14" cx="246" cy="246" r="246" transform="translate(714 369)" fill="#ce4e7b"/>
    <g id="Group_60" data-name="Group 60" transform="translate(497.452 377.883)">
      <path id="Path_260" data-name="Path 260" d="M527.163,277.306c36.728,4.265,52.565-6.863,39.451-47.807,3.754-19.735,6.012-72.9-10.17-99.524-56.961-15.142-128.254-13.937-187.88-3.405-18.407,27.595-13.97,81.845-10.219,101.565-13.111,40.959,3.24,57.31,45.405,49.78,10.244,2.9,23.737.333,31.419-.609,14.952,1.912,47.629,4.755,59.535,2.032,11.89-2.726,20.76-1.328,32.46-2.032Zm0,0" transform="translate(0 146.062)" fill="#ccc"/>
      <path id="Path_261" data-name="Path 261" d="M430.372,419.773c-4.947,8.784-21.216,5.856-33.01,4.589-8.426-.909-7.722-15.766-1.579-24.538-6.346-19.637-41.758-91.456-37.012-127.81,4.742-36.251,24.56-84.082,21.393-94.622-6.563-20.582-12.214-46.35,4.265-81.763,0-12.967,4.519-33.681,15.035-47.544,5.942-.967,21.145,19.172,27.766,30.6,4.672,2.175,11.474-1.937,24.2-1.83s21.5,5.428,25.349,2.582c7.052-12.321,22.253-32.46,28.195-31.493,10.516,13.863,13.169,34.577,13.169,47.544,16.482,35.412,10.651,62.521,3.335,80.83-5,12.37,20.319,58.372,25.052,94.622,4.755,36.358-23.318,107.268-29.666,126.9,6.144,8.772,6.838,25.79-1.576,26.7-11.8,1.267-26.484,3.442-32.1-4.923C458.613,383,485.792,307.4,452.2,309.17s-2.2,75.775-21.824,110.6Zm0,0" transform="translate(9.077 0.404)" fill="#f2f2f2"/>
      <path id="Path_262" data-name="Path 262" d="M454.828,130.716c2.163,4.553,11.676,7.086,21.714,18.024,7.34,8.007,20.643,19.658,39.1,17.746,8.4-31,.8-54.14-7-69.748-.18-14.763-3.479-35.917-12.991-49.028-9.837.921-22.684,21.956-30.575,31.8-6.93-.229-14.579-2.4-22.969-2.653s-14.521.906-23.749,1.505c-4.577-7.374-21.393-30.3-28.66-30.333-7.065,7.42-15.072,27.8-15.228,47.339-7.805,15.824-15.405,37.566-8.711,68.065,21.727,3.17,35.544-9.62,41.639-16.73,8.809-10.268,18.716-12.275,20.448-17.128.838-11.749,5.009-37.744,14.261-45.142,9.237,6.633,11.89,34.528,12.728,46.277Zm0,0" transform="translate(19.055)" fill="#1a1a1a"/>
      <path id="Path_263" data-name="Path 263" d="M400.386,78.8c-5,8.83-9.788,7.374-13.937.691,3.384-1.876,11.235-1.447,13.937-.691Zm0,0" transform="translate(66.983 62.701)" fill="#ff8080"/>
      <path id="Path_264" data-name="Path 264" d="M394.126,84.993c-4.1-14.065,21.907-25.6,24.789-4.8,2.126,15.43-21.9,14.726-24.789,4.8Zm0,0" transform="translate(81.895 43.523)" fill="#cad92c"/>
      <path id="Path_265" data-name="Path 265" d="M402.3,70.647c-8.855.214-8.891,12.728,0,13.218,10.137.563,9.038-13.456,0-13.218Zm0,0" transform="translate(85.915 47.234)" fill="#2b1100"/>
      <path id="Path_266" data-name="Path 266" d="M400.3,84.988c4.1-14.068-21.907-25.6-24.786-4.807-2.139,15.43,21.895,14.726,24.786,4.807Zm0,0" transform="translate(44.181 43.507)" fill="#cad92c"/>
      <path id="Path_267" data-name="Path 267" d="M384.372,70.639c8.858.214,8.891,12.728,0,13.218-10.121.563-9.023-13.456,0-13.218Zm0,0" transform="translate(47.906 47.217)" fill="#2b1100"/>
      <path id="Path_268" data-name="Path 268" d="M387.623,78.324a1.993,1.993,0,0,0-1.42,2.689c1.781,3.993,5.174,6.288,8.653,6.3s6.789-2.365,8.163-6.465a1.892,1.892,0,1,0-3.561-1.205c-.958,2.867-2.763,3.895-4.6,3.895s-3.91-1.16-5.2-4.051a1.963,1.963,0,0,0-2.035-1.16Zm0,0" transform="translate(66.154 62.73)" fill="#2b1100"/>
      <path id="Path_269" data-name="Path 269" d="M389.987,79.967a1.959,1.959,0,0,0-1.649,1.973l.168,7.768a1.89,1.89,0,1,0,3.776-.107l-.168-7.768a1.958,1.958,0,0,0-2.127-1.866Zm0,0" transform="translate(70.868 66.405)" fill="#2b1100"/>
      <path id="Path_270" data-name="Path 270" d="M398.056,82.508a2.02,2.02,0,0,0-1.04.431,15.636,15.636,0,0,1-4.482,3.118c-1.349.468-2.809.493-5.26-.535a1.889,1.889,0,1,0-1.423,3.5,10.749,10.749,0,0,0,7.879.6,14.818,14.818,0,0,0,4.66-2.9,14.6,14.6,0,0,0,4.388,2.858,10.976,10.976,0,0,0,7.937-.609,1.9,1.9,0,1,0-1.484-3.5c-2.451,1.028-3.849,1.016-5.2.551a15.87,15.87,0,0,1-4.54-3.072,1.943,1.943,0,0,0-1.435-.431Zm0,0" transform="translate(63.337 71.645)" fill="#2b1100"/>
      <path id="Path_271" data-name="Path 271" d="M398.633,75.171c2.665-6.731,13.793-20.677,22.623-26.331,4.865,3,10.746,26.879,10.687,33.729-3.17.955-5.452,4.73-6.575,6.991-5.449-4.005-11.042-4.938-15.225-6.575-4.112-4.614-7.735-6.918-11.51-7.814Zm0,0" transform="translate(92.077 2.325)" fill="#c88989"/>
      <path id="Path_272" data-name="Path 272" d="M402.035,75.37c-2.665-6.719-13.79-20.677-22.623-26.331-4.865,3-10.745,26.891-10.7,33.742,3.179.942,5.449,4.733,6.584,6.991,5.449-4.005,11.045-4.935,15.228-6.587,4.112-4.6,7.732-6.918,11.507-7.814Zm0,0" transform="translate(30.457 2.735)" fill="#c88989"/>
    </g>
  </g>
</svg>
