<svg id="Group_53" data-name="Group 53" xmlns="http://www.w3.org/2000/svg" width="492" height="492" viewBox="0 0 492 492">
  <circle id="Ellipse_7" data-name="Ellipse 7" cx="246" cy="246" r="246" fill="#85bbbb"/>
  <g id="Group_39" data-name="Group 39" transform="translate(-88.174 -395.471)">
    <path id="Path_90" data-name="Path 90" d="M328.654,699.4C219.7,654.159,262.13,453.771,228.611,468.5c-14.287,6.268-34.429,216.015,76.872,261.719,20.729,3.459,22.941-11.735,23.17-30.821Zm0,0" transform="translate(0 64.783)" fill="#1d1d1d"/>
    <path id="Path_91" data-name="Path 91" d="M338.461,663.761c9.251,3.431,20.687,4.365,30.265,1.069,34.55,2.9,40.721-26.317,33.383-43.736,12.248-36.151,6.866-72.139-3.678-89.489-39.391-23.931-126.7-28.855-161.861-2.077-11.9,17.079-17.284,53.07-5.018,89.222-7.355,17.415-4.8,49.7,29.747,46.813,7.664,1.507,23.021.555,32.963-.406,12.859,3.244,32.314,1,44.2-1.4Zm0,0" transform="translate(18.03 172.917)" fill="#1a1a1a"/>
    <path id="Path_92" data-name="Path 92" d="M326.25,753.37c2.969,17.812-10.474,59.932,4.977,80.689,4.91,6.577,18.478,9.713,28.785,1.979,8.262-6.2,6.161-12.752.993-24.809,5.233-32.845,27.712-79.536,29.668-107.481,3.879-55.849-27.636-88.569-19.833-118.111,13.252-28.49,12.613-44.795,5.952-73.459,4.966-17,1.153-64.746-9.929-70.486-9.307-2.521-35.054,34.863-36.735,42.69-2.091,2.538-6-2.334-20.062-2.049-14.082.3-19.09,5.063-20.43,2.5-2.66-8.314-28.421-45.7-37.728-43.177-11.081,5.737-14.881,53.487-9.928,70.486-6.647,28.661-7.286,44.969,5.97,73.455,7.786,29.546-23.726,61.409-19.833,117.247,1.941,27.942,25.962,76.438,28.785,109.2-4.383,11.408-7.272,18.624.99,24.823,10.311,7.734,23.889,4.6,28.786-1.979,15.464-20.757,5.088-64.6,8.057-82.422,11.141,8.967,21.3,6.536,31.515.906Zm0,0" transform="translate(25.915 0)" fill="#333"/>
    <path id="Path_93" data-name="Path 93" d="M256.494,476.189c-1.639-17.1,24.2-19.885,25.111-1.722.8,16.318-23.753,15.874-25.111,1.722Zm0,0" transform="translate(96.726 50.735)" fill="#8bd2f8"/>
    <path id="Path_94" data-name="Path 94" d="M265.2,463.309c-9.387-.069-10.825,15.777.868,15.152s8.519-15.1-.868-15.152Zm0,0" transform="translate(99.96 53.849)" fill="#2b1100"/>
    <path id="Path_95" data-name="Path 95" d="M264.419,476.137c1.643-17.107-24.2-19.888-25.108-1.722-.8,16.318,23.754,15.87,25.108,1.722Zm0,0" transform="translate(54.373 50.599)" fill="#8bd2f8"/>
    <path id="Path_96" data-name="Path 96" d="M249.079,463.254c9.387-.066,10.825,15.777-.868,15.152s-8.519-15.1.868-15.152Zm0,0" transform="translate(57.777 53.713)" fill="#2b1100"/>
    <path id="Path_97" data-name="Path 97" d="M249.785,472.958c4.07-1.615,8.939-2.184,13.69.34-3.907,5.952-8.616,6.237-13.69-.34Zm0,0" transform="translate(80.321 74.288)"/>
    <path id="Path_98" data-name="Path 98" d="M250.74,471.459a2.255,2.255,0,0,0-1.167,3.57c2.157,2.535,3.973,5.06,7.963,6.619a2.233,2.233,0,0,0,1.615,0c3.66-1.438,6.022-4.775,7.595-6.619a2.153,2.153,0,0,0-3.216-2.865,23.314,23.314,0,0,1-5.372,4.831c-2.129-1.111-3.337-2.538-5.275-4.831a2.179,2.179,0,0,0-2.143-.705Zm0,0" transform="translate(78.567 73.86)" fill="#2b1100"/>
    <path id="Path_99" data-name="Path 99" d="M252.842,473.08a2.235,2.235,0,0,0-1.611,2.24l.444,8.314a2.156,2.156,0,1,0,4.3-.271l-.448-8.22a2.251,2.251,0,0,0-2.688-2.063Zm0,0" transform="translate(83.883 77.868)" fill="#2b1100"/>
    <path id="Path_100" data-name="Path 100" d="M262.822,475.69a2.123,2.123,0,0,0-.625.271c-2.507,1.587-5.3,3.566-7.338,4.285a3.5,3.5,0,0,1-2.049.271c-.351-.122-.719-.309-1.167-1.518a2.142,2.142,0,1,0-4.014,1.424,6.573,6.573,0,0,0,3.744,4.112,7.2,7.2,0,0,0,4.924-.177c2.618-.924,4.952-2.712,7.067-4.112a34.031,34.031,0,0,0,7.057,4.032,7.284,7.284,0,0,0,4.924.257,6.592,6.592,0,0,0,3.757-4.112,2.154,2.154,0,0,0-4.032-1.518c-.444,1.2-.8,1.49-1.153,1.611a3.536,3.536,0,0,1-2.059-.271c-2.021-.705-4.831-2.712-7.341-4.285a2.123,2.123,0,0,0-1.695-.271Zm0,0" transform="translate(74.528 84.294)" fill="#2b1100"/>
    <path id="Path_101" data-name="Path 101" d="M308.794,485.59c-23.087,7.963-44.045,7.23-66.673.49,1.316,20.687,24.052,42.2,35.04,43.489,10.078,1.167,30.657-19.249,31.633-43.979Zm0,0" transform="translate(61.37 108.944)" fill="#ccc"/>
    <path id="Path_102" data-name="Path 102" d="M259.414,477.673c2.66-8.029,22.913-37.874,28.435-34.727,7.147,5.074,11.04,33.564,8.6,48.282-1.695.92-6.185,6.063-7.935,10.9a27.4,27.4,0,0,0-13.564-8.6c-3.351-5.82-7.067-12.412-15.534-15.86Zm0,0" transform="translate(104.131 2.924)" fill="#c88989"/>
    <path id="Path_103" data-name="Path 103" d="M270.229,477.841c-2.66-8.029-22.927-37.874-28.435-34.713-7.161,5.06-11.054,33.547-8.6,48.267,1.695.934,6.171,6.063,7.935,10.9a27.3,27.3,0,0,1,13.551-8.585c3.365-5.834,7.081-12.429,15.548-15.874Zm0,0" transform="translate(37.481 3.368)" fill="#c88989"/>
  </g>
</svg>
