<svg xmlns="http://www.w3.org/2000/svg" width="492" height="492" viewBox="0 0 492 492">
  <g id="Group_59" data-name="Group 59" transform="translate(-130 -249)">
    <g id="Group_76" data-name="Group 76">
      <g id="Component_1_2" data-name="Component 1 – 2" transform="translate(130 249)">
        <g id="Group_53" data-name="Group 53">
          <circle id="Ellipse_7" data-name="Ellipse 7" cx="246" cy="246" r="246" fill="#fff"/>
        </g>
      </g>
      <g id="Group_79" data-name="Group 79" transform="translate(151.748 86.107)">
        <path id="Path_458" data-name="Path 458" d="M153.345,433.821c-32.609-11.194,15.506-50.608.384-68.788-.225,5.638-3.937,5.487-5.52,7.7,9.865-16.909,2.515-40.9-10.06-50.767.942,6.613.31,9.063-2.162,14.243,1.583-20.032-10.071-43.137-28.135-41.959l1.885,4.14c-9.6-14.607-18.717-18.043-32.4-17.152,5.726,1.614,2.644,2.846,4.89,5.266-11.964-7.994-23.382-18.248-34.771-3.767,5.052-.216,6.7.888,9.7,2.309-16.566.449-27.966,8.263-27.141,21.007,4-7.254,5.737-4.279,9.15-3.97-12.06,6.367-15.443,15.763-15.046,21.843,5.972-6.282,6.9-2.014,9.1-.3-7.115-1.016-9.279,2.794-12.221,6.528,11.827-2.964,16.909-.888,22.421,5.748-2.386.266-4.5,1.657-6.742,2.493,6.238,5.9,10.241,11.419,15.55,15.591-6.378-1.658-10.435-.31-15.369.846,8.189,4.194,11.709,9.953,17.295,15.2-7.159-2.857-8.509-2.655-13.838-.427,7.512,2.556,11.536,15.473,12.284,17.27-4.868.375-5.361-3.329-7.5-4.655,1.863,11.5,4.613,21.5,9.717,29.782-5.991,2-4.945-.331-7.1-2.92-.074,23.832,12.873,24.656,24.379,33.689a61.261,61.261,0,0,0-7.364-.107c6.808,8.484,13.186,9.287,21.895,11.353a47.8,47.8,0,0,0-5.671,3.167c9.408,3.855,17.668,2.194,26.346,2.986-2.909,2.729-3.712,3.468-5.265,4.9,11.783,3.307,22.848,3.307,31.217-3.638,5.137,2.109,7.052-2.342,9.342-3.1,10.616-4.857,11.5-13,10.756-24.505Zm0,0" transform="translate(0 60.256)" fill="#a96f2b"/>
        <path id="Path_459" data-name="Path 459" d="M36.667,338.4c2.246-.836,4.356-2.227,6.742-2.493-5.512-6.635-10.594-8.712-22.421-5.748,2.942-3.734,5.107-7.545,12.221-6.528-2.194-1.712-3.123-5.981-9.1.3-.4-6.079,2.986-15.476,15.046-21.843-3.414-.31-5.148-3.285-9.15,3.97-.825-12.744,10.575-20.558,27.141-21.007-3-1.422-4.646-2.526-9.7-2.309,11.388-14.481,22.807-4.227,34.771,3.767-2.246-2.419.836-3.652-4.89-5.266,15.4-3.115,26.067,6.945,32.426,16.972-2.323.964-6.871-1.756-8.98-.877,2.816.608,4.238,3.852,4.441,4.334-4.139-.493-8.153,2.364-10.808,4,2.74.085,4.323,2.866,4.687,3.307-5.5,2.888-12.586,4.9-17.646,6.087a19.267,19.267,0,0,1,.888,10.06c-4.5-3.134-8.391-6.26-13.227-4.238,3.679,3.34,2.8,7.342,2.493,10.66a17.6,17.6,0,0,0-10-3.038c1.425,4.589.441,7.317-.395,10.849-3.255-.973-4.805-1.573-7.364-2.181.814,2.567-.512,3.668-1.23,5.178-6.89.74-10.509-.578-15.955-3.959Zm0,0" transform="translate(0 60.256)" fill="#713e00"/>
        <path id="Path_460" data-name="Path 460" d="M232.218,574.069c9.106,0,15.495-.888,23.456-.493,5.191,1.723,12.317.868,18.087,1.605,11.986-1.989,15.185-9.106,22.248-19.476-.751,4.507-1.082,4.986-4.868,9.043,10.391-1.723,16.788-6.164,18.084-16.684,6.923-3.468,9.9-10.112,11.131-18.78,1.241,3.712,2.931,6.419,2.085,11.824,5-6.249,13.2-15.837,7.652-27.127,4.794-5.994,9.408-13.827,4.871-24.347,3.027,2.43,4.879,3.756,4.868,9.043,6.827-8.542,3.071-22.6-4.868-28.522,3.8-11.375,1.422-23.541-8.348-31.3,2.419,1.937,4.718,2.29,6.956,6.956,2.493-14.95-5.545-25.075-16.695-32,1.69.975,3.531-.268,4.868,2.783,1.929-11.569-6.9-21.191-16-29.2,3.178,1.583,5.745,2.386,6.956,6.26,2.011-12.062-3.63-21.544-15.3-23.651-1.5-9.01-2.934-17.24-12.512-22.955,3.649,1.83,4.09-3.34,6.945,3.479,2.227-13.3-6.731-23.073-16.681-30.607,3.937,1.315,9.169,3.819,11.824,8.348,2.482-14.953-8.057-27.837-22.259-30.607,6.238-1.038,10.336.321,16,4.172-4.12-12.361-12.755-17.443-25.738-21.563,0-11.868-1.274-28.519-9.041-38.247-8.337,6.668-21.191,15.057-25.418,25.8-7.832-3.918-14.8-2.29-26.593.085-11.8-3.583-18.769-5.211-26.6-1.293-2.353-8.134-16.331-19.147-24.667-25.8-7.769,9.725-9.041,26.379-9.041,38.247-12.983,4.118-21.607,9.2-25.727,21.563,5.649-3.863,9.75-5.213,15.988-4.175-14.2,2.772-24.741,15.657-22.248,30.607,2.644-4.537,7.887-7.03,11.824-8.347-9.964,7.534-18.909,17.306-16.695,30.607,2.857-6.816,3.307-1.658,6.956-3.477-9.588,5.715-11.021,13.942-12.52,22.952-11.676,2.109-17.314,11.591-15.3,23.64,1.211-3.863,3.778-4.665,6.956-6.26-9.1,8.016-17.925,17.648-16,29.215,1.34-3.049,3.181-1.819,4.871-2.781-11.142,6.923-19.188,17.046-16.695,32,2.235-4.665,4.537-5.019,6.956-6.956-9.769,7.759-12.136,19.917-8.347,31.3-7.939,5.918-11.7,19.98-4.868,28.519,0-5.285,1.841-6.624,4.868-9.043-4.537,10.52.077,18.355,4.871,24.347-5.545,11.29,2.652,20.878,7.652,27.119-.847-5.405.844-8.1,2.085-11.827,1.23,8.679,4.205,15.325,11.131,18.782,1.293,10.528,7.693,14.961,18.084,16.692-3.786-4.055-4.12-4.548-4.868-9.041,7.074,10.369,10.262,17.476,22.259,19.476,6.753,2.772,12.884,3.126,18.076,1.392,7.961-.4,13.846,0,22.955,0,14.5-.964,27.245,3.071,38.428-1.477,11.172,5.756,23.426-.781,37.916.181Zm0,0" transform="translate(42.128)" fill="#c68335"/>
        <path id="Path_461" data-name="Path 461" d="M123.126,331.532C82.033,327.058,77.3,349.84,65.094,376.97c2.419-4.827,2.92-7.964,10.38-10.383-5.457,10.939-9.139,19.188-1.3,32.448.268-.715-2.279-7.78,3.9-10.38-3.211,9.632,5.085,35.058,10.572,38.387,7.92-.8,12.972-1.318,18.536-.386,10.134-1.2,23.018,1.115,31.891-.364,5.509,2.614,18.352.195,19.508.323,1.156.512,25.212-.312,30.724-2.923,8.871,1.477,8.4.408,18.544,1.605a64.939,64.939,0,0,1,18.525-.482c5.49-3.326,15.922-25.886,12.712-35.516,6.175,2.589,3.619,9.662,3.885,10.38,7.846-13.26,4.175-21.511-1.293-32.447,7.468,2.419,7.972,5.553,10.38,10.38-12.21-27.127-12.832-52.159-58.772-45.439-13.709-9.438-25.064-3.049-35.08,2.279-10.016-5.961-21.371-12.361-35.08-2.92Zm0,0" transform="translate(76.726 149.458)" fill="#ca9c66"/>
        <path id="Path_462" data-name="Path 462" d="M71.988,341.586C73.221,361.3,92.14,379.94,95.274,400.5c-8.432,8.764-7.758,28.155,3.885,29.322,11.356,1.145,25.845,3.811,32.48-4.6,20.76-26.325-11.975-85.653,2.888-94.77-18.246-11.462-48.668-5.972-62.539,11.139Zm0,0" transform="translate(88.718 145.417)" fill="#c68335"/>
        <path id="Path_463" data-name="Path 463" d="M167.88,340.662c-1.222,19.714-17.229,35.445-20.366,56,8.421,8.764,7.758,28.144-3.885,29.322-11.353,1.145-25.842,3.811-32.478-4.6-20.76-26.325,9.063-82.743-5.8-91.861,17.366-9.073,51.526-.685,62.528,11.139Zm0,0" transform="translate(143.568 147.645)" fill="#c68335"/>
        <path id="Path_464" data-name="Path 464" d="M96.492,277.645c-5.608-6.945-6.539-14.81-5.222-23.125,4.857,6.422,7.994,14.435,5.222,23.125Zm0,0" transform="translate(121.34 23.837)" fill="#713e00"/>
        <path id="Path_465" data-name="Path 465" d="M105.2,284.333c2.953-19.766-16.791-21.478-5.03-33.012C81,261.4,105.342,269.353,105.2,284.333Zm0,0" transform="translate(124.935 18.272)" fill="#713e00"/>
        <path id="Path_466" data-name="Path 466" d="M100.679,251.524c-3.531,10.251-3.071,17.369,0,25.736,3.608-7.994,2.879-16.276,0-25.736Zm0,0" transform="translate(134.316 18.626)" fill="#713e00"/>
        <path id="Path_467" data-name="Path 467" d="M106.327,277.68c5.608-6.956,6.539-14.81,5.222-23.125-4.857,6.422-7.994,14.435-5.222,23.125Zm0,0" transform="translate(146.648 23.898)" fill="#713e00"/>
        <path id="Path_468" data-name="Path 468" d="M101.364,284.368c-2.942-19.763,16.8-21.487,5.041-33.012,19.177,10.079-5.17,18.032-5.041,33.012Zm0,0" transform="translate(139.293 18.333)" fill="#713e00"/>
        <path id="Path_469" data-name="Path 469" d="M70.512,286.056c15.966,3.285,20.234-22.848,32.072-19.026-13.794-7.224-23.437,19.026-32.072,19.026Zm0,0" transform="translate(86.151 43.411)" fill="#946224"/>
        <path id="Path_470" data-name="Path 470" d="M111.787,273.039c-9.073,11.013-28.1,10.156-39.916,5.405,16.073.074,29.289-.1,39.916-5.405Zm0,0" transform="translate(88.515 56.052)" fill="#946224"/>
        <path id="Path_471" data-name="Path 471" d="M150.044,286.456c-15.977,3.3-20.248-22.845-32.083-19.026,13.8-7.213,23.437,19.026,32.083,19.026Zm0,0" transform="translate(168.692 44.112)" fill="#946224"/>
        <path id="Path_472" data-name="Path 472" d="M113.742,273.442c9.076,11.01,28.092,10.156,39.916,5.413-16.073.066-29.289-.1-39.916-5.413Zm0,0" transform="translate(161.352 56.753)" fill="#946224"/>
        <path id="Path_473" data-name="Path 473" d="M135.575,273.166c0-3.94.94-1.789,1.112-5.222,1.679-10.04-4.323-15.55-5.222-25-3.877,3.1-20.067,16.243-20.517,22.013,6.517-1.841,10.649,2.846,14.555,5.97,3.926.879,5.98,2.238,10.071,2.238Zm0,0" transform="translate(156.494 3.704)" fill="#ffd5d5"/>
        <path id="Path_474" data-name="Path 474" d="M79.972,272.689c0-3.937-.942-1.786-1.123-5.222-1.668-10.038,4.334-15.55,5.222-25,3.874,3.1,20.076,16.246,20.517,22.013-6.517-1.841-10.638,2.846-14.544,5.972-3.929.877-5.994,2.236-10.071,2.236Zm0,0" transform="translate(100.147 2.874)" fill="#ffd5d5"/>
        <path id="Path_475" data-name="Path 475" d="M113.722,248.779c6.293-3.211,28.905,4.463,34.4,13.12-7.865-9.589-23.982-13.281-34.6-12.1-.364-.8-.288-.641.2-1.016Zm0,0" transform="translate(160.569 12.552)" fill="#f9f9f9"/>
        <path id="Path_476" data-name="Path 476" d="M144.884,254.459c-7.287-6.348-27.738-7.15-30.124-5.556-.718-.866-.792-1.625.364-1.989,5.339-1.1,25.242,1.753,29.76,7.545Zm0,0" transform="translate(162.209 10.201)" fill="#f9f9f9"/>
        <path id="Path_477" data-name="Path 477" d="M113.286,249.654c6.591-.951,21.939,4.518,26,12.638-5.361-8.561-19.207-12.06-26-11.191-.931-.633-1.005-1.145-.011-1.447Zm0,0" transform="translate(159.293 15.186)" fill="#f9f9f9"/>
        <path id="Path_478" data-name="Path 478" d="M107.715,248.724c-6.293-3.211-28.905,4.463-34.4,13.109,7.865-9.577,23.982-13.279,34.6-12.1.364-.8.3-.63-.2-1.005Zm0,0" transform="translate(91.035 12.457)" fill="#f9f9f9"/>
        <path id="Path_479" data-name="Path 479" d="M73.9,254.395c7.287-6.345,27.749-7.137,30.135-5.542.707-.868.784-1.638-.373-1.992-5.342-1.112-25.245,1.756-29.763,7.534Zm0,0" transform="translate(92.048 10.103)" fill="#f9f9f9"/>
        <path id="Path_480" data-name="Path 480" d="M101.09,249.409c-6.591-.962-21.949,4.507-26,12.627,5.35-8.561,19.21-12.049,26-11.191.931-.622.994-1.137,0-1.436Zm0,0" transform="translate(94.107 14.757)" fill="#f9f9f9"/>
        <path id="Path_481" data-name="Path 481" d="M179.41,282.312c9.158,1.745,53.882,12.339,45.266,38.162a10.029,10.029,0,0,0-8.4-7.117c9.791,9.578,15.879,20.259,11.643,32.982-1.457-3.926-5.085-5.222-5.822-5.811,9.673,11.43,2.8,23.492-2.592,34.278.342-4.389-3.093-7.748-5.178-10.347-.666,15.131-3.608,21.766-13.58,29.749.567-4.613-1.134-6.142-2.592-9.054-3.071,11.849-6.805,16.824-14.873,23.286-.342-5.137-2.194-6.986-3.874-10.347-4.592,7.737-8.767,11.268-14.876,16.158-.118-4.57.888-8.561-.652-11.632-.74,6.389-5.77,9.8-14.375,15.763-8.591-5.479-13.632-8.882-14.372-15.281-1.529,3.071-.523,7.074-.641,11.643-6.12-4.89-10.284-8.421-14.876-16.169-1.69,3.37-3.531,5.211-3.885,10.347-8.068-6.452-11.791-11.44-14.873-23.286-1.457,2.912-3.148,4.441-2.592,9.054-9.972-7.972-12.906-14.618-13.58-29.752-2.085,2.614-5.509,5.961-5.167,10.35-5.394-10.777-12.276-22.837-2.592-34.278-.748.6-4.364,1.885-5.822,5.822-4.246-12.734,1.841-23.415,11.643-32.982a10.011,10.011,0,0,0-8.41,7.106c-8.6-25.823,36.119-36.406,45.277-38.151,10.939-5.8,21.232,6.2,29.889,1.69,8.66,4.013,18.963-7.972,29.9-2.183Zm0,0" transform="translate(84.802 69.381)" fill="#e7ac68"/>
        <path id="Path_482" data-name="Path 482" d="M107.144,282.657c-3.863,3.8-14.733,5.137-13.953,12.287,3.455-2.088,6.665-1.145,11.8-1.723-13.013,5.833-24.527,9.92-22.473,26.431,3.1-9.01,10.649-5.553,14.651-8.753-4.068,7.008-18.352,9.953-16.963,22.867,4.315-4.441,12.983-3.605,14.169-5.4C86.383,339.728,84.17,346.919,88.9,357.59c1.4-4.816,4.238-8.808,10.586-11.9-2.463,7.159.534,12.586,6.794,21.177.792-3.9-.1-9.95,3.7-12.638,2,7.865,6.485,15.133,19.851,22.119,13.355-8.411,17.837-15.665,19.84-23.541,3.8,2.7,2.92,8.731,3.712,12.638,6.263-8.594,9.257-14.007,6.786-21.18,6.356,3.093,9.183,7.1,10.583,11.9,4.742-10.657,2.526-17.859-5.479-29.215,1.2,1.786,9.868.953,14.18,5.405,1.381-12.928-12.9-15.859-16.961-22.881,4,3.211,11.545-.247,14.648,8.756,2.055-16.514-9.46-20.591-22.473-26.434,5.126.578,8.347-.364,11.8,1.734.781-7.158-10.093-8.5-13.966-12.3-9.824,1.658-17.6,2.877-22.675,3.937-5.074.353-12.854-.855-22.689-2.515Zm0,0" transform="translate(102.853 70.31)" fill="#f4cb9d"/>
        <path id="Path_483" data-name="Path 483" d="M116.856,269.737c-15.057-.375-47.192,38.6-13.75,34.79,6.753,9.641,20.407,9.662,26.862,1.123,34.735,3.605,1.948-35.551-13.112-35.913Zm0,0" transform="translate(117.336 50.303)" fill="#e7ac68"/>
        <path id="Path_484" data-name="Path 484" d="M96.39,270.737c-.408,1.647,6.58,6.485,7.1,6.654,3.981-.438,4.9-3.7,6.709-5.959-4.1-2.5-10.542-1.948-13.8-.7Zm0,0" transform="translate(131.137 50.202)" fill="#c54171"/>
        <path id="Path_485" data-name="Path 485" d="M105.964,266.229c8.079-3.627,16.062-2.663,23.982,1.027,6.046,20.955-26.571,20.782-23.982-1.027Zm0,0" transform="translate(147.567 40.239)" fill="#97c14d"/>
        <path id="Path_486" data-name="Path 486" d="M113.537,264.723c-6.4.46-8.465,11.43.162,12.029,9.769.685,7.821-12.607-.162-12.029Zm0,0" transform="translate(151.295 41.554)" fill="#2b1100"/>
        <path id="Path_487" data-name="Path 487" d="M97.409,269.8a1.847,1.847,0,0,0-1.186,2.74,37.06,37.06,0,0,0,7.191,7.246,1.812,1.812,0,0,0,2.151,0,44.211,44.211,0,0,0,7.137-7.033,1.758,1.758,0,1,0-2.74-2.2,42.5,42.5,0,0,1-5.468,5.424,35.739,35.739,0,0,1-5.424-5.372,1.8,1.8,0,0,0-1.66-.8Zm0,0" transform="translate(130.406 50.408)" fill="#2b1100"/>
        <path id="Path_488" data-name="Path 488" d="M100.092,272.484a1.8,1.8,0,0,0-1.616,1.723l-.268,6.216a1.745,1.745,0,1,0,3.487.107l.268-6.216a1.809,1.809,0,0,0-1.871-1.83Zm0,0" transform="translate(134.327 55.079)" fill="#2b1100"/>
        <path id="Path_489" data-name="Path 489" d="M112.6,274.765a1.8,1.8,0,0,0-1.455,1.444c-.7,4.422-4.389,9.109-8.369,11.7a12.431,12.431,0,0,1-5.586,2.151c-1.531.1-2.408-.225-3.115-1.337a1.74,1.74,0,1,0-2.942,1.819,6.764,6.764,0,0,0,6.271,3.008,15.21,15.21,0,0,0,7.243-2.687,24.169,24.169,0,0,0,8.219-9.062,24.191,24.191,0,0,0,8.21,9.331,15.3,15.3,0,0,0,7.3,2.74,6.792,6.792,0,0,0,6.282-3.008,1.745,1.745,0,1,0-2.956-1.819c-.7,1.112-1.583,1.436-3.112,1.337a12.375,12.375,0,0,1-5.586-2.14c-3.972-2.633-7.717-7.372-8.424-11.975a1.806,1.806,0,0,0-1.978-1.5Zm0,0" transform="translate(121.442 59.025)" fill="#2b1100"/>
        <path id="Path_490" data-name="Path 490" d="M108.137,265.966c-8.09-3.627-16.073-2.655-23.993,1.038-6.046,20.941,26.582,20.782,23.993-1.038Zm0,0" transform="translate(108.561 39.787)" fill="#97c14d"/>
        <path id="Path_491" data-name="Path 491" d="M92.587,264.465c6.4.46,8.476,11.419-.151,12.029-9.78.685-7.821-12.607.151-12.029Zm0,0" transform="translate(112.799 41.105)" fill="#2b1100"/>
        <path id="Path_492" data-name="Path 492" d="M74.868,334.957c-.074.589,3.811,5.63,7.309,8.432-1.937-2.718.4-2.762.556-3.939a34.838,34.838,0,0,0,11.816,4.5c-1.583-1.337-1.671-2.909-2.257-3.929,5.509,3.361,10.819,3.726,16.309,2.805-7.279-3.446-11.838-8.819-17.435-10.682-1.036,2.644.74,3.66,1.126,5.619-3.586-2.846-7.953-4.537-11.238-6.186,5.991,7.043-.964,2.507-6.186,3.383Zm0,0" transform="translate(93.726 157.878)" fill="#946224"/>
        <path id="Path_493" data-name="Path 493" d="M105.471,341.426c-.471,1.359-4.268,5.682-10.69,6.753,8.915.449-.534,3.926-7.309,5.063,2.077,1.142,3.586.715,5.63,1.123-3.052,2.825-5.715,3.4-9,4.493,7.928.43,13.227-1.83,18.555-4.493l-2.246-1.123v-.57c5.97-1.348,6.945-2.855,8.432-7.306-7.043.3,2.622,3.06-3.372-3.94Zm0,0" transform="translate(109.791 175.017)" fill="#946224"/>
        <path id="Path_494" data-name="Path 494" d="M145.384,331.781c-.3,2.967-4.142,5.578-12.372,6.742,3.038-.951,2.666-4.794,2.814-5.049-3.679,5.745-8.347,4.279-14.051,6.183a30.363,30.363,0,0,0,1.682-5.06c-3.693,5.222-8.263,7-13.5,7.865,4.249,2.449,10.325.866,12.939,0,4.29,2.931,7.309.748,11.235-.556,1.671,4.526-.652,1.959-1.123,3.37,8.145-1.926,12.372-6.4,12.372-13.5Zm0,0" transform="translate(154.775 158.238)" fill="#946224"/>
        <path id="Path_495" data-name="Path 495" d="M110.3,352.169a100.143,100.143,0,0,0,9.556-5.63c.4,2.331-.729,2.526-1.123,3.937,4.014-1.252,5.542-2.77,7.865-3.937,1.863,2.386-.427,3.885-.556,5.06,5.885-2.729,7.674-5.789,10.679-9.556-.578,7.46-4.227,12.136-12.369,13.5-2.729-1.219.438-2.172.567-2.814-3.97,4.676-6.967,5.928-11.249,4.5-.844-1.8,1.564-2.342,2.249-3.381-4.142,3.808-6.624,4.161-10.682,2.814,2.825-2.515,2.825-.288,5.063-4.493Zm0,0" transform="translate(146.566 176.09)" fill="#946224"/>
        <path id="Path_496" data-name="Path 496" d="M157.169,298.017c2,5.008-4.687,5.983-8.487,7.876,2.794-.877,4.153,1.841,5.457,2.419-4.975,2.835-10.668,5.339-14.542,7.276,2.323.567,4.452,1.285,6.057,1.819-6.624,4.591-11,6.112-16.963,9.087,9.109,3.553,20.506.074,26.659-4.849a25.683,25.683,0,0,1-6.668-4.238c8.808.74,12.3-2.331,14.544-9.1-2.419,1.219-4.613,0-6.057,0,7.726-3.351,10.038-3.211,7.276-11.5-1.252,4.131-2.46-.4-7.276,1.208Zm0,0" transform="translate(187.357 97.402)" fill="#946224"/>
        <path id="Path_497" data-name="Path 497" d="M62.539,295.039c-5.093,4.591-5.756,11.366-.608,13.933-.762-2.578,1.893-4.249,2.427-5.457.57,6.805,4.186,9.673,10.3,12.725-3.145-3.564-1.3-4.539-.6-6.657,1.507,7.449,5.233,11.7,10.9,14.542A45.184,45.184,0,0,1,78.9,307.153l-1.819,2.43c-1.926-5.093-3.435-7.876-4.846-12.125-4.09,3.244-3.148,4.934-3.641,7.876a34.768,34.768,0,0,0-6.057-10.3Zm0,0" transform="translate(65.046 94.323)" fill="#946224"/>
      </g>
    </g>
  </g>
</svg>
