<svg xmlns="http://www.w3.org/2000/svg" width="296" height="296" viewBox="0 0 296 296">
  <g id="Group_117" data-name="Group 117" transform="translate(-200 -415)">
    <circle id="Ellipse_18" data-name="Ellipse 18" cx="148" cy="148" r="148" transform="translate(200 415)" fill="#dbdbdb"/>
    <g id="Group_48" data-name="Group 48" transform="translate(-1528.024 -450.127)">
      <g id="Group_12" data-name="Group 12" transform="translate(1800.183 989.253)">
        <path id="Path_35" data-name="Path 35" d="M1931.621,1949.1l-39.171.377-39.172-.377c0,.723-14.116,57.891-22.906,94.613a31.661,31.661,0,0,0,30.793,39.03h62.568a31.662,31.662,0,0,0,30.793-39.03C1945.737,2006.994,1931.621,1949.827,1931.621,1949.1Z" transform="translate(-1826.875 -1946.488)" fill="#fff"/>
        <path id="Path_36" data-name="Path 36" d="M1915.8,1956.291c-4.289-17.586-8-32.8-8.277-34.235a2.616,2.616,0,0,0-2.593-2.275h-.026l-39.145.376-39.146-.376a2.617,2.617,0,0,0-2.619,2.275c-.277,1.439-3.986,16.647-8.276,34.23-4.561,18.7-10.238,41.972-14.58,60.113a34.277,34.277,0,0,0,33.335,42.255h62.569a34.277,34.277,0,0,0,33.336-42.255C1926.037,1998.261,1920.361,1974.99,1915.8,1956.291Zm-8.255-33.9Zm0,0v0Zm0,0v0Zm-83.573-.007Zm0,0v0Zm0,0v0Zm95.876,119.974a28.883,28.883,0,0,1-22.805,11.055h-62.569a29.045,29.045,0,0,1-28.249-35.805c4.339-18.129,10.015-41.4,14.575-60.091,2.381-9.763,4.438-18.2,5.932-24.366,1-4.137,1.6-6.614,1.952-8.127l37.049.355h.051l37.05-.355c.354,1.513.95,3.992,1.952,8.13,1.494,6.169,3.55,14.6,5.933,24.368,4.56,18.694,10.234,41.959,14.573,60.086A28.882,28.882,0,0,1,1919.848,2042.367Z" transform="translate(-1800.183 -1919.781)" fill="#7a073c"/>
      </g>
      <path id="Path_37" data-name="Path 37" d="M2088.909,2454.224c-9.989-4.638-28.186-14.628-39.005-31.511l-22.656,18.817c-.418,23.4,18.278,49.524,31.335,48.372,7.058-.624,15.86-7.262,18.483-11.208C2079.253,2475.405,2092.493,2455.888,2088.909,2454.224Z" transform="translate(-206.805 -1388.602)" fill="#fcdbc0"/>
      <path id="Path_38" data-name="Path 38" d="M2175.847,2643.992c-19.445,0-35.208,20.294-35.208,45.33a54.378,54.378,0,0,0,6.547,26.331h50.36c4.121-7.421,13.508-16.511,13.508-26.331C2211.054,2664.286,2195.292,2643.992,2175.847,2643.992Z" transform="translate(-310.089 -1590.144)" fill="#fcdbc0"/>
      <path id="Path_39" data-name="Path 39" d="M1939.458,1983.034c-4.653-19.074-8.328-34.14-8.328-34.5a.056.056,0,0,0-.017-.04.048.048,0,0,0-.039-.016l-39.171.376-39.171-.376a.057.057,0,0,0-.056.056c0,.36-3.674,15.424-8.327,34.5-4.561,18.7-10.237,41.968-14.577,60.1a31.716,31.716,0,0,0,30.846,39.1h62.569a31.716,31.716,0,0,0,30.846-39.1C1949.695,2025,1944.019,2001.731,1939.458,1983.034ZM1948,2070.09a31.429,31.429,0,0,1-24.815,12.031h-62.569a31.6,31.6,0,0,1-30.737-38.962c4.34-18.135,10.016-41.4,14.577-60.1,4.712-19.316,8.149-33.408,8.323-34.467l39.122.376,39.122-.376c.175,1.059,3.612,15.154,8.324,34.472,4.561,18.7,10.236,41.964,14.575,60.1A31.423,31.423,0,0,1,1948,2070.09Z" transform="translate(-26.146 -956.665)" fill="#ea1111"/>
      <path id="Path_40" data-name="Path 40" d="M2057.487,2024.577l-40.761-.392c-1.369,5.685-3.533,14.56-6.066,24.952,10.806,2.95,25.364,4.191,41.36,4.191,22.245,0,41.778-6.933,49.777-14.3-1.462-6.006-2.7-11.111-3.6-14.843Z" transform="translate(-191.703 -1025.62)" fill="#fcdbc0"/>
      <g id="Group_13" data-name="Group 13" transform="translate(1818.518 989.253)">
        <path id="Path_41" data-name="Path 41" d="M2079.693,1949.48l-39.172-.377c0,.287-2.222,9.461-5.453,22.719,10.364,3.161,23.442,4.826,39.458,4.826,21.344,0,37.468-2.955,48.9-8.47-2.745-11.268-4.567-18.816-4.567-19.075Z" transform="translate(-2032.453 -1946.488)" fill="#ffc23b"/>
        <path id="Path_42" data-name="Path 42" d="M2094.744,1922.056a2.617,2.617,0,0,0-2.594-2.275h-.024l-39.146.377-39.146-.377a2.615,2.615,0,0,0-2.618,2.275c-.262,1.344-3.728,15.567-5.4,22.441a2.616,2.616,0,0,0,1.778,3.121c10.747,3.278,24.279,4.939,40.222,4.939a167.359,167.359,0,0,0,28.619-2.206,82.405,82.405,0,0,0,21.419-6.522,2.616,2.616,0,0,0,1.406-2.974C2097.974,1935.58,2094.987,1923.308,2094.744,1922.056Zm-83.551.341v0Zm0,0v0Zm0-.006Zm.03-.37Zm36.591,25.309c-14.26,0-26.462-1.354-36.325-4.03,2.6-10.675,3.83-15.764,4.412-18.264l37.054.356H2053l37.052-.356c.518,2.224,1.551,6.5,3.609,14.962C2082.5,1944.861,2067.088,1947.326,2047.815,1947.326Zm46.952-24.929v0Zm0,0v0Zm0-.006h0Z" transform="translate(-2005.74 -1919.781)" fill="#7a073c"/>
      </g>
      <path id="Path_43" data-name="Path 43" d="M1915.8,1956.291c-4.289-17.586-8-32.8-8.277-34.235a2.616,2.616,0,0,0-2.593-2.275h-.026l-39.145.376-39.146-.376a2.617,2.617,0,0,0-2.619,2.275c-.277,1.439-3.986,16.647-8.276,34.23-4.561,18.7-10.238,41.972-14.58,60.113a34.277,34.277,0,0,0,33.335,42.255h62.569a34.277,34.277,0,0,0,33.336-42.255C1926.037,1998.261,1920.361,1974.99,1915.8,1956.291Zm-8.255-33.9Zm0,0v0Zm0,0v0Zm-83.573-.007Zm0,0v0Zm0,0v0Zm95.876,119.974a28.883,28.883,0,0,1-22.805,11.055h-62.569a29.045,29.045,0,0,1-28.249-35.805c4.339-18.129,10.015-41.4,14.575-60.091,2.381-9.763,4.438-18.2,5.932-24.366,1-4.137,1.6-6.614,1.952-8.127l37.049.355h.051l37.05-.355c.354,1.513.95,3.992,1.952,8.13,1.494,6.169,3.55,14.6,5.933,24.368,4.56,18.694,10.234,41.959,14.573,60.086A28.882,28.882,0,0,1,1919.848,2042.367Z" transform="translate(0 -930.528)" fill="#7a073c"/>
      <g id="Group_14" data-name="Group 14" transform="translate(1860.307 898.127)">
        <path id="Path_44" data-name="Path 44" d="M2552.737,927.893c-13.249-5.184-49.156,31.683-49.156,31.683l42.052,36.483,14.955,5.3S2558.789,930.26,2552.737,927.893Z" transform="translate(-2500.966 -924.783)" fill="#ffc23b"/>
        <path id="Path_45" data-name="Path 45" d="M2532.4,913.339a70.365,70.365,0,0,0-1.781-8.992c-.942-3.259-2.029-4.917-3.633-5.545-6.521-2.552-17.036,2.124-32.141,14.3a254.873,254.873,0,0,0-19.841,18,2.614,2.614,0,0,0,.159,3.8l42.051,36.483a2.605,2.605,0,0,0,.841.49l14.956,5.3a2.615,2.615,0,0,0,3.487-2.532c0-.178-.466-18.036-1.662-35.952C2534.13,928.124,2533.31,919.6,2532.4,913.339ZM2520.266,967.1l-39.555-34.318c3.2-3.149,9.942-9.6,17.449-15.641a100.816,100.816,0,0,1,15.826-10.832c5.9-3.076,9.084-3.243,10.758-2.752.375.629,1.525,3.216,2.767,12.612.827,6.266,1.573,14.546,2.22,24.612.788,12.278,1.233,24.266,1.423,30.177Z" transform="translate(-2474.26 -898.128)" fill="#7a073c"/>
      </g>
      <g id="Group_15" data-name="Group 15" transform="translate(1803.263 898.127)">
        <path id="Path_46" data-name="Path 46" d="M1871.882,927.893c-6.052,2.368-7.852,73.465-7.852,73.465l14.956-5.3,42.052-36.483S1885.131,922.708,1871.882,927.893Z" transform="translate(-1861.415 -924.783)" fill="#ffc23b"/>
        <path id="Path_47" data-name="Path 47" d="M1876.361,913.1c-15.1-12.172-25.617-16.849-32.14-14.3-1.6.627-2.69,2.286-3.633,5.545a70.578,70.578,0,0,0-1.78,8.991c-.913,6.259-1.732,14.786-2.437,25.345-1.2,17.917-1.658,35.775-1.662,35.953a2.615,2.615,0,0,0,3.489,2.531l14.956-5.3a2.62,2.62,0,0,0,.84-.49l42.051-36.483a2.615,2.615,0,0,0,.16-3.8A255.032,255.032,0,0,0,1876.361,913.1Zm-25.422,54-10.887,3.858c.191-5.912.636-17.9,1.423-30.177.646-10.066,1.393-18.347,2.221-24.612,1.24-9.4,2.39-11.983,2.766-12.612,1.675-.492,4.854-.324,10.758,2.752a100.827,100.827,0,0,1,15.827,10.832c7.506,6.046,14.249,12.493,17.449,15.642Z" transform="translate(-1834.708 -898.127)" fill="#7a073c"/>
      </g>
      <g id="Group_16" data-name="Group 16" transform="translate(1803.262 898.522)">
        <path id="Path_48" data-name="Path 48" d="M1970.223,932.024c-4.308-1.48-16.069,14.684-22.718,24.483-7.062-1.824-15.755-2.859-26.457-2.859s-19.394,1.035-26.457,2.859c-6.648-9.8-18.41-25.963-22.718-24.483s-6.445,37.176-7.328,58.255a140.421,140.421,0,0,0-.523,15.21c0,21.553,17.281,34.273,57.025,34.273s57.025-12.72,57.025-34.273a140.239,140.239,0,0,0-.523-15.21C1976.668,969.2,1974.542,933.51,1970.223,932.024Z" transform="translate(-1861.407 -929.31)" fill="#fff"/>
        <path id="Path_49" data-name="Path 49" d="M1951.071,926.791a151.944,151.944,0,0,0-2.153-15.294c-1.169-5.535-2.445-7.973-4.551-8.7-2.588-.89-5.191.863-6.923,2.26a50.786,50.786,0,0,0-6.4,6.534c-4,4.718-8.241,10.622-11.381,15.192a129.278,129.278,0,0,0-50.637,0c-3.14-4.57-7.378-10.473-11.38-15.192a50.782,50.782,0,0,0-6.4-6.534c-1.732-1.4-4.334-3.149-6.922-2.26-2.107.724-3.383,3.163-4.552,8.7a151.8,151.8,0,0,0-2.153,15.294c-1.2,11.958-1.959,26.455-2.382,36.542a134.729,134.729,0,0,0-.53,14.471v.934c0,11.979,4.988,21.208,14.825,27.429a56.885,56.885,0,0,0,18.6,7.078,145.544,145.544,0,0,0,52.441,0,56.9,56.9,0,0,0,18.595-7.078c9.838-6.222,14.825-15.45,14.825-27.429V977.8a135.151,135.151,0,0,0-.53-14.47C1953.031,953.246,1952.274,938.749,1951.071,926.791Zm-8.909-19.342Zm-95.641,0ZM1948.752,977.8v.938a27.927,27.927,0,0,1-3.016,13.222,26.164,26.164,0,0,1-9.375,9.786c-9.075,5.739-23.213,8.649-42.019,8.649s-32.944-2.91-42.02-8.649a26.187,26.187,0,0,1-9.376-9.786,27.93,27.93,0,0,1-3.015-13.222V977.8a128.006,128.006,0,0,1,.509-13.991c.005-.057.01-.115.012-.172.394-9.4,1.094-23.026,2.195-34.59.581-6.089,1.218-11.046,1.894-14.734a27.98,27.98,0,0,1,1.683-6.351c1.489.711,6.684,4.379,19.5,23.261a2.616,2.616,0,0,0,2.818,1.064,121.312,121.312,0,0,1,51.607,0,2.616,2.616,0,0,0,2.818-1.064c12.811-18.883,18.007-22.551,19.5-23.261a27.983,27.983,0,0,1,1.682,6.351c.677,3.688,1.314,8.645,1.894,14.734,1.1,11.563,1.8,25.192,2.194,34.59,0,.058.007.115.013.172A128.3,128.3,0,0,1,1948.752,977.8Z" transform="translate(-1834.7 -902.559)" fill="#7a073c"/>
      </g>
      <path id="Path_50" data-name="Path 50" d="M1921.049,1698.081c-38.33,0-55.765-11.831-56.959-32-.079,2.773-.066,5.488-.066,8.077,0,21.553,17.281,34.273,57.025,34.273s57.026-12.72,57.026-34.273c0-2.589.013-5.3-.066-8.077C1976.815,1686.251,1959.379,1698.081,1921.049,1698.081Z" transform="translate(-58.146 -699.454)" fill="#fcdbc0"/>
      <path id="Path_51" data-name="Path 51" d="M2789.527,932.194l-.013-.009a1.166,1.166,0,0,0-.294-.157h0l-.114-.034c-4.4-1.163-16.013,14.8-22.6,24.516q-1.559-.4-3.225-.752c-.641,2.593,4.455,1.9,8.09,3.118,2.784.934,4.019,4.839,5.308,1.116,3.927-11.336,9.294-25.039,13.066-27.609a1.866,1.866,0,0,0-.161-.147C2789.563,932.222,2789.545,932.207,2789.527,932.194Z" transform="translate(-877.141 -30.791)" fill="#fcdbc0"/>
      <path id="Path_52" data-name="Path 52" d="M1959.777,956.509c-6.589-9.712-18.2-25.68-22.6-24.516l-.113.034h0a1.165,1.165,0,0,0-.294.157l-.013.01c-.018.013-.035.028-.055.043a2.1,2.1,0,0,0-.159.147c3.771,2.569,9.139,16.273,13.065,27.609,1.29,3.723,2.525-.182,5.307-1.117,3.635-1.22,8.732-.525,8.091-3.118Q1961.337,956.107,1959.777,956.509Z" transform="translate(-124.193 -30.791)" fill="#fcdbc0"/>
      <path id="Path_53" data-name="Path 53" d="M1951.071,926.791a151.944,151.944,0,0,0-2.153-15.294c-1.169-5.535-2.445-7.973-4.551-8.7-2.588-.89-5.191.863-6.923,2.26a50.786,50.786,0,0,0-6.4,6.534c-4,4.718-8.241,10.622-11.381,15.192a129.278,129.278,0,0,0-50.637,0c-3.14-4.57-7.378-10.473-11.38-15.192a50.782,50.782,0,0,0-6.4-6.534c-1.732-1.4-4.334-3.149-6.922-2.26-2.107.724-3.383,3.163-4.552,8.7a151.8,151.8,0,0,0-2.153,15.294c-1.2,11.958-1.959,26.455-2.382,36.542a134.729,134.729,0,0,0-.53,14.471v.934c0,11.979,4.988,21.208,14.825,27.429a56.885,56.885,0,0,0,18.6,7.078,145.544,145.544,0,0,0,52.441,0,56.9,56.9,0,0,0,18.595-7.078c9.838-6.222,14.825-15.45,14.825-27.429V977.8a135.151,135.151,0,0,0-.53-14.47C1953.031,953.246,1952.274,938.749,1951.071,926.791Zm-8.909-19.342Zm-95.641,0ZM1948.752,977.8v.938a27.927,27.927,0,0,1-3.016,13.222,26.164,26.164,0,0,1-9.375,9.786c-9.075,5.739-23.213,8.649-42.019,8.649s-32.944-2.91-42.02-8.649a26.187,26.187,0,0,1-9.376-9.786,27.93,27.93,0,0,1-3.015-13.222V977.8a128.006,128.006,0,0,1,.509-13.991c.005-.057.01-.115.012-.172.394-9.4,1.094-23.026,2.195-34.59.581-6.089,1.218-11.046,1.894-14.734a27.98,27.98,0,0,1,1.683-6.351c1.489.711,6.684,4.379,19.5,23.261a2.616,2.616,0,0,0,2.818,1.064,121.312,121.312,0,0,1,51.607,0,2.616,2.616,0,0,0,2.818-1.064c12.811-18.883,18.007-22.551,19.5-23.261a27.983,27.983,0,0,1,1.682,6.351c.677,3.688,1.314,8.645,1.894,14.734,1.1,11.563,1.8,25.192,2.194,34.59,0,.058.007.115.013.172A128.3,128.3,0,0,1,1948.752,977.8Z" transform="translate(-31.438 -4.036)" fill="#7a073c"/>
      <g id="Group_20" data-name="Group 20" transform="translate(1901.826 960.665)">
        <g id="Group_17" data-name="Group 17" transform="translate(0 10.746)">
          <path id="Path_54" data-name="Path 54" d="M2999.8,1750.016c-3.917-.526-14.2-2.043-14.32,1.906-.385,12.29-4.3,33.621-16.4,40.821l9.871,34.449c20.275-6,32.819-38.269,35.142-59.044.8-7.165.385-12.962-1.347-15.842C3009.095,1746.234,3004.5,1750.644,2999.8,1750.016Z" transform="translate(-2966.465 -1746.438)" fill="#fff"/>
          <path id="Path_55" data-name="Path 55" d="M2982.566,1719.884a13.411,13.411,0,0,0-5.453.416,11.183,11.183,0,0,1-3.675.427l-.386-.052a67.869,67.869,0,0,0-7.335-.689c-3.855-.092-6.37.474-7.919,1.785a4.5,4.5,0,0,0-1.642,3.372,81.376,81.376,0,0,1-3.68,21.587,44,44,0,0,1-4.69,10.206,21.2,21.2,0,0,1-6.754,6.862,2.615,2.615,0,0,0,2.674,4.494,26.324,26.324,0,0,0,8.472-8.514,49.183,49.183,0,0,0,5.27-11.423,86.857,86.857,0,0,0,3.925-22.7,10.818,10.818,0,0,1,4.266-.445,63.9,63.9,0,0,1,6.713.643l.392.052a15.437,15.437,0,0,0,5.5-.5,9.481,9.481,0,0,1,3.35-.383c.545.1,1.287.415,2.2,1.934.509.847,2.087,4.375.989,14.2a102.466,102.466,0,0,1-10.56,34.143,62.2,62.2,0,0,1-10.144,14.538,29.462,29.462,0,0,1-12.583,8.146,2.615,2.615,0,1,0,1.485,5.016,34.584,34.584,0,0,0,14.854-9.522,67.449,67.449,0,0,0,11.025-15.755,108.011,108.011,0,0,0,11.119-35.985c.63-5.634.847-13.24-1.7-17.48A8.428,8.428,0,0,0,2982.566,1719.884Z" transform="translate(-2939.754 -1719.742)" fill="#7a073c"/>
        </g>
        <g id="Group_18" data-name="Group 18" transform="translate(0 10.746)">
          <path id="Path_56" data-name="Path 56" d="M2999.8,1750.016c-3.917-.526-14.2-2.043-14.32,1.906-.385,12.29-4.3,33.621-16.4,40.821l9.871,34.449c20.275-6,32.819-38.269,35.142-59.044.8-7.165.385-12.962-1.347-15.842C3009.095,1746.234,3004.5,1750.644,2999.8,1750.016Z" transform="translate(-2966.465 -1746.438)" fill="#fff"/>
          <path id="Path_57" data-name="Path 57" d="M2982.566,1719.884a13.411,13.411,0,0,0-5.453.416,11.183,11.183,0,0,1-3.675.427l-.386-.052a67.869,67.869,0,0,0-7.335-.689c-3.855-.092-6.37.474-7.919,1.785a4.5,4.5,0,0,0-1.642,3.372,81.376,81.376,0,0,1-3.68,21.587,44,44,0,0,1-4.69,10.206,21.2,21.2,0,0,1-6.754,6.862,2.615,2.615,0,0,0,2.674,4.494,26.324,26.324,0,0,0,8.472-8.514,49.183,49.183,0,0,0,5.27-11.423,86.857,86.857,0,0,0,3.925-22.7,10.818,10.818,0,0,1,4.266-.445,63.9,63.9,0,0,1,6.713.643l.392.052a15.437,15.437,0,0,0,5.5-.5,9.481,9.481,0,0,1,3.35-.383c.545.1,1.287.415,2.2,1.934.509.847,2.087,4.375.989,14.2a102.466,102.466,0,0,1-10.56,34.143,62.2,62.2,0,0,1-10.144,14.538,29.462,29.462,0,0,1-12.583,8.146,2.615,2.615,0,1,0,1.485,5.016,34.584,34.584,0,0,0,14.854-9.522,67.449,67.449,0,0,0,11.025-15.755,108.011,108.011,0,0,0,11.119-35.985c.63-5.634.847-13.24-1.7-17.48A8.428,8.428,0,0,0,2982.566,1719.884Z" transform="translate(-2939.754 -1719.742)" fill="#7a073c"/>
        </g>
        <path id="Path_58" data-name="Path 58" d="M3158.639,1749.077c-2.615-.186-5.466,1.333-8.354.945-3.916-.524-14.2-2.042-14.321,1.906a86.319,86.319,0,0,1-1.663,14.1,16.568,16.568,0,0,0,10.913,3.633c4.993,0,11.417-4.1,12.308-8.563C3157.521,1761.1,3160.546,1750.02,3158.639,1749.077Z" transform="translate(-3116.948 -1735.701)" fill="#fcdbc0"/>
        <g id="Group_19" data-name="Group 19" transform="translate(10.657 0)">
          <path id="Path_59" data-name="Path 59" d="M3106.985,1628.59c-8.669,0-18.432,2.444-18.432,11.376,0,6.283,7.027,11.376,15.7,11.376a79.8,79.8,0,0,0,9.778-.5l8.884,7.585c.956-5.185.778-16.106.778-18.462C3123.689,1633.683,3115.654,1628.59,3106.985,1628.59Z" transform="translate(-3085.938 -1625.975)" fill="#fff"/>
          <path id="Path_60" data-name="Path 60" d="M3099.6,1613.26a10.592,10.592,0,0,0-1.816-5.858,15.464,15.464,0,0,0-4.45-4.363,24.1,24.1,0,0,0-13.053-3.77c-3.788,0-9.225.452-13.618,2.606-4.861,2.382-7.43,6.32-7.43,11.386a11.291,11.291,0,0,0,1.589,5.746,14.541,14.541,0,0,0,4.088,4.416,21.62,21.62,0,0,0,12.634,3.83,80.21,80.21,0,0,0,10.17-.529,2.615,2.615,0,1,0-.785-5.172,71.946,71.946,0,0,1-9.385.469,16.369,16.369,0,0,1-9.564-2.834c-2.269-1.644-3.516-3.748-3.516-5.927,0-3.058,1.429-5.184,4.5-6.689,2.765-1.355,6.679-2.072,11.316-2.072a18.747,18.747,0,0,1,10.154,2.893c3.423,2.28,3.934,4.655,3.934,5.868,0,.25,0,.595.005,1.018.02,3.438.071,12.57-.742,16.97a2.615,2.615,0,1,0,5.144.95c.9-4.886.851-14.04.828-17.949C3099.6,1613.837,3099.6,1613.5,3099.6,1613.26Z" transform="translate(-3059.23 -1599.268)" fill="#7a073c"/>
        </g>
        <path id="Path_61" data-name="Path 61" d="M2958.574,1826.555a2.617,2.617,0,0,0-2.9,2.3,73.5,73.5,0,0,1-4.508,18.723c-2.643,6.518-6.054,11.055-10.138,13.487a2.615,2.615,0,1,0,2.674,4.5c5.088-3.028,9.23-8.416,12.312-16.016a78.77,78.77,0,0,0,4.857-20.1A2.615,2.615,0,0,0,2958.574,1826.555Z" transform="translate(-2939.754 -1806.267)" fill="#7a073c"/>
      </g>
      <path id="Path_62" data-name="Path 62" d="M3192.426,1778.035c-.519-.49-1.165-2.837-1.33-4.829a2.616,2.616,0,0,0-5.214.42,24.42,24.42,0,0,0,.468,3,9.958,9.958,0,0,0,2.484,5.214,2.615,2.615,0,1,0,3.591-3.8Z" transform="translate(-1262.094 -794.837)" fill="#7a073c"/>
      <path id="Path_63" data-name="Path 63" d="M3291.768,1771.014c-.76-.644-1.495-3.327-1.679-5.331a2.616,2.616,0,0,0-5.21.467,23.905,23.905,0,0,0,.567,3.267c.65,2.635,1.613,4.462,2.937,5.587a2.616,2.616,0,0,0,3.385-3.989Z" transform="translate(-1352.259 -788.007)" fill="#7a073c"/>
      <g id="Group_21" data-name="Group 21" transform="translate(1828.158 943.177)">
        <path id="Path_64" data-name="Path 64" d="M2123.181,1403.207a9.84,9.84,0,0,0-9.235,6.486,2.052,2.052,0,0,0,3.86,1.392,5.712,5.712,0,0,1,10.907.519,2.052,2.052,0,0,0,3.977-1.012A9.8,9.8,0,0,0,2123.181,1403.207Z" transform="translate(-2113.824 -1403.207)" fill="#7a073c"/>
        <path id="Path_65" data-name="Path 65" d="M2690.044,1403.207a9.841,9.841,0,0,0-9.235,6.486,2.052,2.052,0,0,0,3.862,1.392,5.712,5.712,0,0,1,10.906.519,2.051,2.051,0,1,0,3.976-1.012A9.8,9.8,0,0,0,2690.044,1403.207Z" transform="translate(-2630.125 -1403.207)" fill="#7a073c"/>
      </g>
      <g id="Group_24" data-name="Group 24" transform="translate(1813.096 963.025)">
        <g id="Group_22" data-name="Group 22" transform="translate(0 0)">
          <circle id="Ellipse_10" data-name="Ellipse 10" cx="9.219" cy="9.219" r="9.219" transform="translate(0 13.038) rotate(-45)" fill="#f96446"/>
        </g>
        <g id="Group_23" data-name="Group 23" transform="translate(73.538 0)">
          <circle id="Ellipse_11" data-name="Ellipse 11" cx="9.219" cy="9.219" r="9.219" transform="translate(0 13.038) rotate(-45)" fill="#f96446"/>
        </g>
      </g>
      <g id="Group_30" data-name="Group 30" transform="translate(1847.421 952.484)">
        <g id="Group_26" data-name="Group 26" transform="translate(7.795 0)">
          <g id="Group_25" data-name="Group 25">
            <path id="Path_66" data-name="Path 66" d="M2440.52,1523.128c-4,0-8.011,1.357-7.752,4.185.185,1.979,1.9,2.562,4.266,3.208,1.218.332,1.986,2,3.486,2s2.268-1.672,3.487-2c2.372-.646,4.083-1.229,4.265-3.208C2448.533,1524.485,2444.517,1523.128,2440.52,1523.128Z" transform="translate(-2431.366 -1521.739)" fill="#7a073c"/>
            <path id="Path_67" data-name="Path 67" d="M2426.333,1507.551c-3.576,0-6.59.964-8.063,2.58a4.09,4.09,0,0,0,.879,6.272,12.385,12.385,0,0,0,3.333,1.272,3.257,3.257,0,0,1,.856.628,3.861,3.861,0,0,0,5.991,0,3.234,3.234,0,0,1,.856-.628,12.41,12.41,0,0,0,3.332-1.272,4.089,4.089,0,0,0,.879-6.272C2432.922,1508.515,2429.908,1507.551,2426.333,1507.551ZM2432.7,1513c-.085.915-.723,1.307-3.248,2a4.953,4.953,0,0,0-1.963,1.226c-.513.453-.848.728-1.157.728s-.643-.275-1.156-.728a4.963,4.963,0,0,0-1.963-1.226c-2.526-.689-3.164-1.08-3.249-2a1.215,1.215,0,0,1,.359-1c.913-1,3.327-1.673,6.009-1.673s5.1.673,6.009,1.673A1.219,1.219,0,0,1,2432.7,1513Z" transform="translate(-2417.18 -1507.551)" fill="#7a073c"/>
          </g>
          <path id="Path_68" data-name="Path 68" d="M2511.148,1536.256a.848.848,0,0,0,0,1.7c3.214,0,5.276.635,5.661,1.742a.847.847,0,1,0,1.6-.555C2517.749,1537.226,2515.3,1536.256,2511.148,1536.256Z" transform="translate(-2501.995 -1533.696)" fill="#e2e6f3"/>
        </g>
        <g id="Group_29" data-name="Group 29" transform="translate(0 9.397)">
          <g id="Group_27" data-name="Group 27">
            <path id="Path_69" data-name="Path 69" d="M2346.308,1612.927a1.389,1.389,0,0,0-1.122,1.613,6.174,6.174,0,0,1-2.789,6.038,9,9,0,0,1-6.673.712,5.219,5.219,0,0,1-3.292-2.666,1.389,1.389,0,0,0-2.5,1.206,7.872,7.872,0,0,0,4.987,4.12,11.66,11.66,0,0,0,8.889-.975,8.5,8.5,0,0,0,3.5-4.083,8.709,8.709,0,0,0,.614-4.841A1.391,1.391,0,0,0,2346.308,1612.927Z" transform="translate(-2329.791 -1612.905)" fill="#7a073c"/>
            <path id="Path_70" data-name="Path 70" d="M2520.631,1617.976a1.39,1.39,0,0,0-1.855.648,5.219,5.219,0,0,1-3.292,2.666,8.994,8.994,0,0,1-6.673-.712,6.173,6.173,0,0,1-2.79-6.039,1.389,1.389,0,1,0-2.735-.49,8.7,8.7,0,0,0,.614,4.842,8.5,8.5,0,0,0,3.5,4.082,11.669,11.669,0,0,0,8.889.976,7.875,7.875,0,0,0,4.987-4.119A1.39,1.39,0,0,0,2520.631,1617.976Z" transform="translate(-2487.706 -1612.906)" fill="#7a073c"/>
          </g>
          <g id="Group_28" data-name="Group 28" transform="translate(11.068 12.561)">
            <path id="Path_71" data-name="Path 71" d="M2461.59,1754.457a2.921,2.921,0,0,0-3.849,0,7.466,7.466,0,0,1-1.157.837,9.785,9.785,0,0,1-2.705,1.055c.592,1.814,2.957,3.17,5.786,3.17s5.194-1.356,5.787-3.17a9.791,9.791,0,0,1-2.705-1.055A7.541,7.541,0,0,1,2461.59,1754.457Z" transform="translate(-2453.879 -1753.733)" fill="#fcdbc0"/>
          </g>
        </g>
      </g>
      <g id="Group_32" data-name="Group 32" transform="translate(1853.219 1013.14)">
        <circle id="Ellipse_12" data-name="Ellipse 12" cx="9.542" cy="9.542" r="9.542" transform="translate(0.143 4.96)" fill="#fcdbc0"/>
        <g id="Group_31" data-name="Group 31" transform="translate(0 0)">
          <circle id="Ellipse_13" data-name="Ellipse 13" cx="8.051" cy="8.051" r="8.051" transform="translate(0 3.699) rotate(-13.283)" fill="#ffc23b"/>
          <path id="Path_72" data-name="Path 72" d="M2407.045,2190.413a9.433,9.433,0,1,0,9.434,9.433A9.443,9.443,0,0,0,2407.045,2190.413Zm0,16.1a6.668,6.668,0,1,1,6.669-6.668A6.675,6.675,0,0,1,2407.045,2206.514Z" transform="translate(-2397.362 -2190.161)" fill="#7a073c"/>
        </g>
        <path id="Path_73" data-name="Path 73" d="M2494.263,2250a.891.891,0,0,0,0,1.783,2.338,2.338,0,0,1,2.334,2.336.892.892,0,0,0,1.784,0A4.123,4.123,0,0,0,2494.263,2250Z" transform="translate(-2484.579 -2244.433)" fill="#fff"/>
      </g>
      <path id="Path_74" data-name="Path 74" d="M2299.869,1177.63a112.575,112.575,0,0,0-23.7-2.206,115.828,115.828,0,0,0-22.25,1.906,19.052,19.052,0,0,0,34.588,5.1,6.33,6.33,0,0,0,11.413-4.479C2299.9,1177.842,2299.887,1177.736,2299.869,1177.63Z" transform="translate(-413.262 -252.564)" fill="#ffc23b"/>
      <path id="Path_75" data-name="Path 75" d="M2085.171,1158.019a47.545,47.545,0,0,0-17.8-8.712c-7.761-2.126-17.216-3.2-28.1-3.2a110.558,110.558,0,0,0-26.853,2.875,50.14,50.14,0,0,0-17.533,7.864,2.615,2.615,0,1,0,3.107,4.208,44.99,44.99,0,0,1,15.715-7,105.405,105.405,0,0,1,25.564-2.714c10.419,0,19.409,1.015,26.72,3.019a42.382,42.382,0,0,1,15.855,7.707,2.616,2.616,0,0,0,3.323-4.04Z" transform="translate(-176.37 -225.857)" fill="#7a073c"/>
      <g id="Group_33" data-name="Group 33" transform="translate(1835.833 1059.959)">
        <path id="Path_76" data-name="Path 76" d="M2243.914,2728c-15.764,0-28.542,16.453-28.542,36.748,0,10.9,3.687,20.692,9.541,27.421h38c5.854-6.729,9.54-16.521,9.54-27.421C2272.457,2744.453,2259.678,2728,2243.914,2728Z" transform="translate(-2213.99 -2726.617)" fill="#ffc23b"/>
        <path id="Path_77" data-name="Path 77" d="M2241.567,2715.556a24.2,24.2,0,0,0-23.54,0,30.6,30.6,0,0,0-9.5,8.241c-5.578,7.181-8.65,16.71-8.65,26.833a46.849,46.849,0,0,0,2.654,15.737,38.9,38.9,0,0,0,7.226,12.591,1.385,1.385,0,0,0,1.043.476h38a1.381,1.381,0,0,0,1.042-.476,38.88,38.88,0,0,0,7.227-12.591,46.9,46.9,0,0,0,2.654-15.737c0-10.123-3.072-19.652-8.651-26.833A30.614,30.614,0,0,0,2241.567,2715.556Zm12.9,49.886a36.4,36.4,0,0,1-6.3,11.227h-36.727a36.364,36.364,0,0,1-6.3-11.227,44.116,44.116,0,0,1-2.495-14.812c0-19.5,12.183-35.365,27.16-35.365s27.159,15.864,27.159,35.365A44.116,44.116,0,0,1,2254.462,2765.443Z" transform="translate(-2199.873 -2712.501)" fill="#7a073c"/>
      </g>
      <path id="Path_78" data-name="Path 78" d="M2768.488,3117.791a.893.893,0,0,0-.892.893,35.8,35.8,0,0,1-.291,4.549.89.89,0,0,0,.77,1,.657.657,0,0,0,.115.008.891.891,0,0,0,.883-.778,37.339,37.339,0,0,0,.307-4.778A.894.894,0,0,0,2768.488,3117.791Z" transform="translate(-880.854 -2021.682)" fill="#fff"/>
      <path id="Path_79" data-name="Path 79" d="M2372.087,3363.433" transform="translate(-520.893 -2245.415)" fill="none" stroke="#fff" stroke-linecap="round" stroke-linejoin="round" stroke-width="20"/>
      <path id="Path_80" data-name="Path 80" d="M2630.317,2831.592a.892.892,0,1,0-.919,1.529c5.445,3.271,9.565,9.413,11.3,16.848a.891.891,0,0,0,.868.689.84.84,0,0,0,.2-.023.891.891,0,0,0,.665-1.071C2640.591,2841.661,2636.173,2835.112,2630.317,2831.592Z" transform="translate(-754.859 -1760.895)" fill="#fff"/>
      <g id="Group_34" data-name="Group 34" transform="translate(1817.826 1031.496)">
        <path id="Path_81" data-name="Path 81" d="M2049.975,2422.714l-22.657,18.817c3.84,15.361,21.89,38.4,34.946,37.25,7.058-.623,11.535-5.06,14.159-9.006a8.525,8.525,0,0,0-.9-10.54C2068.062,2451.261,2052.581,2433.714,2049.975,2422.714Z" transform="translate(-2024.701 -2420.098)" fill="#fff"/>
        <path id="Path_82" data-name="Path 82" d="M2050.722,2430.734c-3.814-4.075-9.414-10.318-14.422-16.918-5.829-7.682-9.458-14.049-10.492-18.417a2.615,2.615,0,0,0-5.09,1.205c2.686,11.338,17.56,28.491,26.186,37.706a5.885,5.885,0,0,1,.629,7.3,19.492,19.492,0,0,1-4.77,5.077,14.76,14.76,0,0,1-7.44,2.772c-2.49.22-5.538-.744-8.815-2.788a46.756,46.756,0,0,1-9.921-8.767c-6.378-7.255-11.655-16.569-13.444-23.726a2.615,2.615,0,0,0-5.074,1.27c2.006,8.027,7.6,17.955,14.589,25.91a52,52,0,0,0,11.082,9.75c3.849,2.4,7.492,3.613,10.85,3.613q.6,0,1.193-.054c6.5-.572,12.066-4.087,16.106-10.163a11.136,11.136,0,0,0-1.166-13.776Z" transform="translate(-1997.989 -2393.385)" fill="#7a073c"/>
      </g>
      <path id="Path_83" data-name="Path 83" d="M2393.269,2954.621c-.006,0-.686-.185-2.057-1.7a18.976,18.976,0,0,1-1.475-1.856A2.616,2.616,0,0,0,2385.4,2954a24.424,24.424,0,0,0,1.882,2.38,9.973,9.973,0,0,0,4.725,3.319,2.588,2.588,0,0,0,.631.077,2.615,2.615,0,0,0,.627-5.154Z" transform="translate(-532.614 -1868.784)" fill="#7a073c"/>
      <path id="Path_84" data-name="Path 84" d="M2466.766,2891.624c-.692-.172-2.409-1.9-3.532-3.552A2.615,2.615,0,0,0,2458.9,2891a24.04,24.04,0,0,0,1.881,2.381,9.969,9.969,0,0,0,4.726,3.319,2.615,2.615,0,1,0,1.258-5.077Z" transform="translate(-599.556 -1811.406)" fill="#7a073c"/>
      <g id="Group_35" data-name="Group 35" transform="translate(1823.738 1086.138)">
        <path id="Path_85" data-name="Path 85" d="M2123.5,3061.186l-5.727-1.663v0a24.192,24.192,0,0,0-24.192-24.192l8.121,36.757h27.766v-2.066C2129.471,3065.626,2127.3,3062.353,2123.5,3061.186Z" transform="translate(-2090.97 -3032.71)" fill="#fff"/>
        <path id="Path_86" data-name="Path 86" d="M2097.566,3031.98a.233.233,0,0,1-.038-.012l-3.913-1.135A26.81,26.81,0,0,0,2066.878,3006a2.616,2.616,0,0,0,0,5.231,21.576,21.576,0,0,1,21.578,21.567v.013a2.615,2.615,0,0,0,1.885,2.513l5.705,1.658c1.476.46,3.886,1.815,4.089,5.775H2075a2.615,2.615,0,1,0,0,5.23h27.766a2.615,2.615,0,0,0,2.616-2.615v-2.065a12.614,12.614,0,0,0-2.007-7.084A10.694,10.694,0,0,0,2097.566,3031.98Z" transform="translate(-2064.263 -3006.004)" fill="#7a073c"/>
      </g>
      <g id="Group_36" data-name="Group 36" transform="translate(1878.057 1087.162)">
        <path id="Path_87" data-name="Path 87" d="M2714.277,3069.987v0l-5.726,1.664c-3.792,1.167-5.968,4.439-5.968,8.829v2.066h13.49l15.408-35.732A24.2,24.2,0,0,0,2714.277,3069.987Z" transform="translate(-2699.967 -3044.203)" fill="#fff"/>
        <path id="Path_88" data-name="Path 88" d="M2704.019,3017.6a26.824,26.824,0,0,0-18.994,23.692l-3.912,1.138-.04.011a10.681,10.681,0,0,0-5.805,4.246,12.615,12.615,0,0,0-2.009,7.084v2.065a2.616,2.616,0,0,0,2.617,2.616h13.489a2.615,2.615,0,0,0,0-5.23h-10.86c.2-3.962,2.615-5.317,4.09-5.776l5.7-1.657a2.618,2.618,0,0,0,1.887-2.512v-.02a21.382,21.382,0,0,1,4.341-12.967,21.749,21.749,0,0,1,11-7.68,2.615,2.615,0,0,0-1.508-5.009Z" transform="translate(-2673.26 -3017.49)" fill="#7a073c"/>
      </g>
    </g>
  </g>
</svg>
