<svg xmlns="http://www.w3.org/2000/svg" width="492" height="492" viewBox="0 0 492 492">
  <g id="Group_56" data-name="Group 56" transform="translate(-714 -369)">
    <g id="Group_61" data-name="Group 61">
      <path id="Path_432" data-name="Path 432" d="M246,0C381.862,0,492,110.138,492,246S381.862,492,246,492,0,381.862,0,246,110.138,0,246,0Z" transform="translate(714 369)" fill="#dbe7ff"/>
      <g id="Group_77" data-name="Group 77" transform="translate(773.685 406.718)">
        <path id="Path_418" data-name="Path 418" d="M171.624,257.105c-58.314-16.33-62.613-78.143-58.583-103.863,9.938-63.472-24.082-87.968-29.4-89.152-10.565-7.105-22.751-14.548-35.264-4.677.047.271,4.329,1.688,8.137,4.965-9.111-1.821-23.252,1.486-25.16,10.8,3.912-1.89,7.8-.444,11.076-.146-7.473,1.5-13.467,3.8-15.975,12.216,4.455-2.69,7.374-1.562,10.661,1.271-4.173-1.5-8.048-.318-10.187,3.144a38.925,38.925,0,0,1,7.238,6.777c-2.621-2.2-3.317-1.032-5.254.106,7.51,5.35,7.288,15.086,9.227,20.061-2.69-2.266-5.091-2.547-7.3-3,5.39,6.5,2.142,19.79,7.493,23.107-3.2-2.312-3.818-.965-5.456-.79,5.128,4.02,4.963,14.652,6.8,17.806-7.112-1.552-2.485,12.4.57,16.059-3.788,8.4-1.5,15.753,3.075,23.581-9.361,6.846,6.826,20.775,6.757,28.66,14.356,32.633,18.144,72.553,90.011,71.041,23.223-1.409,39.516-23.176,31.532-37.964Zm0,0" transform="translate(0 52.581)" fill="#76604f"/>
        <path id="Path_419" data-name="Path 419" d="M197.113,296.18c8.8.309,15.377.126,27.514,1.629,68.281,6.932,68.763-81.4,45.454-109.7,1.108-23.879-3.374-46.794-15.434-67.6-60.646-55.759-141.2-37.134-180.57-.039-13.265,19.945-17.747,42.862-16.629,66.739-23.319,28.3-20.284,116.637,48,109.7,12.966,4.8,22.5,2.584,27.31-.3,20.728,3.1,43.709,1.841,64.358-.434Zm0,0" transform="translate(26.22 97.616)" fill="#e2d3a5"/>
        <path id="Path_420" data-name="Path 420" d="M129.559,280.137c-12.147,19.607,6.767,86.963-11.49,113.639-3.981,5.822-16,3.008-25.219,2.68-10.94-.385-7.433-17.835-2.939-23.618C75.922,322.9,64.15,294.829,63.947,267.672,50.2,226.431,57.316,163.211,66.156,141.405c0-23.588,5.387-50.745,16.821-76.638.723-17.951,6.246-42.5,13.218-44.634,3.576-1.1,26.182,23.82,29.1,33.529,13.534-2.971,25.777-2.594,39.5-.474,2.594-9.832,24.689-35.639,29.615-34.077,6.249,1.984,11.125,23.117,13.208,44.632,11.444,25.905,18.9,53.881,18.9,77.469,8.84,21.806,18.134,85.036,4.388,126.277-.2,27.157-11.984,55.229-25.972,105.154,4.5,5.795,8.011,23.243-2.929,23.63-9.218.318-21.239,3.132-25.229-2.69-18.257-26.675.664-94.022-11.481-113.639-3.075-4.946-4.292-7.895-17.875-7.8s-14.8,3.035-17.872,7.991Zm0,0" transform="translate(43.724 0.309)" fill="#fff3d1"/>
        <path id="Path_421" data-name="Path 421" d="M156.731,52.977c2.932-11.444,26.049-35.937,30.135-34.04,7.075,3.144,11.49,21.574,13.786,45.725,9.052,20.264,11.646,29.585,15.57,48.343-10.72,17.46-29.886,20.775-45.686,5.881-3.151-3.722-4.906-17.093-20.688-22.287.7-13.892-4.252-39.921-11.982-38.985s-12.687,25.5-11.984,39.4c-15.78,4.04-16.811,18.47-19.163,22.287-13.583,13.8-36.248,7.954-45.446-7.981,1.612-13.739,5.535-25.982,13.805-46.243,2.3-24.151,6.345-41.858,13.43-45,4.087-1.908,26.828,22.307,29.758,33.751,4.677-1.841,14.575-2.236,19.6-2.438s14.19-.252,18.865,1.589Zm0,0" transform="translate(51.112 0)" fill="#8a6e58"/>
        <path id="Path_422" data-name="Path 422" d="M87.133,42.69c-14.442.7-13.623,21.6.9,20.735,15.762-.935,13.023-21.411-.9-20.735Zm0,0" transform="translate(73.773 34.995)" fill="#8bd6d6"/>
        <path id="Path_423" data-name="Path 423" d="M84.715,44.34c-8.909.676-8.312,12.956.9,12.621,9.487-.348,8.319-13.314-.9-12.621Zm0,0" transform="translate(76.191 37.402)" fill="#2b1100"/>
        <path id="Path_424" data-name="Path 424" d="M93.4,55.567a1.536,1.536,0,0,0-1.157,1.476V65.91a1.481,1.481,0,1,0,2.942,0V57.043A1.551,1.551,0,0,0,93.4,55.567Zm0,0" transform="translate(96.566 53.882)" fill="#2b1100"/>
        <path id="Path_425" data-name="Path 425" d="M97.858,59.1a1.509,1.509,0,0,0-.945.627,27.755,27.755,0,0,1-3.151,3.884A5.541,5.541,0,0,1,90.879,65.4a1.481,1.481,0,1,0,.106,2.939c1.957-.077,3.509-1.271,4.877-2.621a24.053,24.053,0,0,0,2.362-2.882,35.375,35.375,0,0,0,2.882,3.2c1.525,1.37,2.969,2.6,4.936,2.515a1.48,1.48,0,1,0-.153-2.939,9.709,9.709,0,0,1-2.786-1.784,36.621,36.621,0,0,1-3.778-4.2,1.514,1.514,0,0,0-1.466-.521Zm0,0" transform="translate(92.218 59.063)" fill="#2b1100"/>
        <path id="Path_426" data-name="Path 426" d="M110.679,42.807c14.44.7,13.62,21.6-.906,20.735-15.762-.933-13.026-21.409.906-20.735Zm0,0" transform="translate(106.564 35.167)" fill="#8bd6d6"/>
        <path id="Path_427" data-name="Path 427" d="M108.218,44.458c8.907.664,8.309,12.956-.906,12.618-9.487-.348-8.322-13.314.906-12.618Zm0,0" transform="translate(109.025 37.575)" fill="#2b1100"/>
        <path id="Path_428" data-name="Path 428" d="M90.141,54.928c4.953-2.13,7.431-1.974,12.754-.222-1.6,1.244-3.887,3.808-6.518,5.844-2.285-1.582-4.684-2.942-6.236-5.622Zm0,0" transform="translate(93.487 50.684)" fill="#ff8080"/>
        <path id="Path_429" data-name="Path 429" d="M103.33,53.608a1.505,1.505,0,0,0-.925.365c-1.456,1.128-3.354,2.882-5.178,4.262a38.637,38.637,0,0,1-5.185-3.954,1.487,1.487,0,0,0-2.1,2.1,40.507,40.507,0,0,0,6.547,4.993,1.5,1.5,0,0,0,1.6-.057c2.438-1.649,4.83-3.963,6.17-4.995a1.56,1.56,0,0,0-.925-2.717Zm0,0" transform="translate(92.588 51.041)" fill="#2b1100"/>
        <path id="Path_430" data-name="Path 430" d="M102.906,47.408c2.209-6.982,18.24-27.7,22.25-26.954,4.83,1.927,9.4,21.15,9.4,31.967-2.09,2.169-5.782,5.553-5.639,9.4-5.8-3.314-8.993-4.028-15.037-4.385-2.759-3.9-5.207-6.458-10.972-10.025Zm0,0" transform="translate(112.224 2.351)" fill="#ffd5d5"/>
        <path id="Path_431" data-name="Path 431" d="M100.463,47.919c-2.209-6.979-18.24-27.695-22.25-26.954-4.83,1.93-9.4,21.152-9.4,31.967,2.083,2.169,5.775,5.553,5.642,9.4,5.792-3.317,8.983-4.03,15.037-4.385,2.759-3.9,5.207-6.458,10.972-10.027Zm0,0" transform="translate(62.178 3.101)" fill="#ffd5d5"/>
      </g>
    </g>
  </g>
</svg>
