<svg xmlns="http://www.w3.org/2000/svg" width="492" height="492" viewBox="0 0 492 492">
  <g id="Group_59" data-name="Group 59" transform="translate(-130 -249)">
    <g id="Group_76" data-name="Group 76">
      <g id="Component_1_2" data-name="Component 1 – 2" transform="translate(130 249)">
        <g id="Group_53" data-name="Group 53">
          <circle id="Ellipse_7" data-name="Ellipse 7" cx="246" cy="246" r="246" fill="#88bfef"/>
        </g>
      </g>
      <g id="Group_85" data-name="Group 85" transform="translate(-627.786 5.585)">
        <path id="Path_627" data-name="Path 627" d="M997.1,434.8s17.335-30.867,9.921-54.534-40.2-24.732-46.117-51.289,18.243-45.79,39.771-37.378,11.693,23.574,0,19.587-19.659.555-18.066,12.36,25.7,23.489,35.16,32.519,16.7,43.024,7.844,69.819S993.533,455.107,997.1,434.8Z" transform="translate(33.939)" fill="#6a636e"/>
        <path id="Path_628" data-name="Path 628" d="M936.091,431.851s.037,56.026-2.746,58.827-7.94,12.132,1.374,15.408,24.254,0,24.254,0S981.3,406.64,936.091,431.851Z" transform="translate(8.105 116.606)" fill="#322e35"/>
        <path id="Path_629" data-name="Path 629" d="M972.573,442.573s5.135,44.354,4.193,47.157-7.347,12.139,2.626,14.474,24.593,0,24.593,0l-6.218-65.364Z" transform="translate(44.55 125.96)" fill="#322e35"/>
        <path id="Path_630" data-name="Path 630" d="M1073.913,490.062a82.729,82.729,0,0,1-7.133,13c-2.95-5.827-7.844-9.152-13.446-7.732-20.544,5.266-31.413-9.076-29.021-19.983,2.353-10.905,13.445-28.162,13.445-28.162s-82.134-16.957-85.346,0c-3.212,16.921,9.749,33.467,6.723,47.474s-19.347-4.632-19.347-4.632c-.71-1.755-1.457-3.548-2.205-5.3a61.907,61.907,0,0,1-2.987-9.377v-.037c-6.461-26.107-6.684-71.862-6.684-71.862,7.132-68.8,64.765-59.165,90.127-60.022,25.324-.822,42.8,15.949,47.771,26.817C1070.74,381.072,1091.656,450.06,1073.913,490.062Z" transform="translate(6.855 45.397)" fill="#6a636e"/>
        <path id="Path_631" data-name="Path 631" d="M1061.344,459c-19.386,29.32-51.805,37.051-80.38,32.346a64.346,64.346,0,0,1-8.291-1.9c-23.2-6.985-30.74-25.025-38.322-43.476,0,0,16.321,18.637,19.347,4.632s-9.935-30.553-6.723-47.474c3.212-16.957,85.346,0,85.346,0s-11.092,17.256-13.445,28.162c-2.392,10.907,8.477,25.25,29.021,19.983C1053.5,449.85,1058.394,453.174,1061.344,459Z" transform="translate(12.291 89.456)" fill="#4e4854"/>
        <path id="Path_632" data-name="Path 632" d="M929.425,400.2s15.178,37.393,26.353,49.043,67.258-1.123,67.258-1.123S1042,432.417,1047.9,418.41s4.169-42.77,4.169-42.77Z" transform="translate(8.133 72.62)" fill="#4e4854"/>
        <path id="Path_633" data-name="Path 633" d="M1028,561.676v.112c-1.979,16.882-16.994,13.483-16.994,13.483a8.535,8.535,0,0,0,3.138-5.6c.485-3.736-3.138-9.226-3.138-9.226.411,9.226-3.435,12.737-12.288,12.737-8.89,0-8.18-12.737-8.18-12.737-4.892,7.358-1.643,12.475-1.643,12.475a18.9,18.9,0,0,1-9.338,2.353c-5.6,0-6.985-11.466-6.985-11.466a28.588,28.588,0,0,1,.9-3.362,20.841,20.841,0,0,1,8.589-10.384s7.134-3.437,8.069-5.6,5.938-70.669,6.236-78.737c.3-8.1,4.035-18.488,7.619-25.586a45.619,45.619,0,0,0,8.89-4.929c13.035-9.338,25.211-28.014,27.079-11.468,1.868,16.585-11.206,60.957-16.546,100.175C1018.328,561.191,1026.882,547.857,1028,561.676Z" transform="translate(44.55 107.648)" fill="#6a636e"/>
        <path id="Path_634" data-name="Path 634" d="M980.765,546.572c-1.532,6.463-13.97,7.583-14.193,2.764-.225-5.117-1.158-7.693-3.736-9.225-2.576-1.569,0,.823,0,3.623s-.225,7.732-5.379,8.18c-5.117.448-7.918-3.288-7.693-8.18s-.71-4.892-2.093.262c-1.418,5.117,0,6.76,0,6.76s-1.866,6.985-9.338,3.474c-7.208-3.362-3.024-13.223-2.762-13.895l.037-.037c3.885-4.6,8.741-4.3,7.732-10.795-1.457-9.338-11.8-114.557-11.8-114.557a61.907,61.907,0,0,0,2.987,9.377c4.446,10.607,8.368,21.4,14.792,30.365a.12.12,0,0,0,.037.076c.524,1.195,8.814,20.99,9.039,30.328.262,9.637,4.444,45.121,4.444,45.121l11.953,4.332a1.984,1.984,0,0,1,.262.225A18.744,18.744,0,0,1,980.765,546.572Z" transform="translate(9.915 105.795)" fill="#6a636e"/>
        <path id="Path_635" data-name="Path 635" d="M999.691,506.071a7.711,7.711,0,0,1-1.307.448h-4.968A37.177,37.177,0,0,0,999.691,506.071Z" transform="translate(62.141 182.703)" fill="#1a1818"/>
        <path id="Path_636" data-name="Path 636" d="M1028.356,498.478c.113,7.394-4.444,16.059-10.832,17.068a37.164,37.164,0,0,1-6.275.448H984.917c-12.736,0-13.559-10.457-12.1-17.778,0,0,1.383,11.466,6.985,11.466a18.9,18.9,0,0,0,9.338-2.353s-3.249-5.117,1.643-12.475c0,0-.71,12.737,8.18,12.737,8.853,0,12.7-3.511,12.288-12.737,0,0,3.623,5.49,3.138,9.226a8.535,8.535,0,0,1-3.138,5.6s15.016,3.4,16.994-13.483A21.444,21.444,0,0,1,1028.356,498.478Z" transform="translate(44.308 173.237)" fill="#322e35"/>
        <path id="Path_637" data-name="Path 637" d="M999.643,429.612c-3.585,7.1-7.321,17.481-7.619,25.586-.3,8.068-5.3,76.57-6.236,78.737s-8.069,5.6-8.069,5.6c1.831-11.206,5.416-96.179,5.416-96.179C983.545,434.058,990.53,433.534,999.643,429.612Z" transform="translate(48.892 118.172)" fill="#4e4854"/>
        <path id="Path_638" data-name="Path 638" d="M980.977,493.584c-.562,10.5-18.676,10.719-20.133,10.719h-.076c-11.951,1.084-31.636,3.961-29.133-11.317.786-4.818,2.316-7.732,4.035-9.71-.262.671-4.446,10.533,2.762,13.895,7.472,3.511,9.338-3.474,9.338-3.474s-1.418-1.643,0-6.76c1.383-5.154,2.316-5.154,2.093-.262s2.576,8.628,7.693,8.18c5.154-.448,5.379-5.379,5.379-8.18s-2.576-5.193,0-3.623c2.578,1.532,3.511,4.108,3.736,9.225.223,4.818,12.661,3.7,14.193-2.764A24.236,24.236,0,0,1,980.977,493.584Z" transform="translate(9.815 162.854)" fill="#322e35"/>
        <path id="Path_639" data-name="Path 639" d="M966.634,516.321l-11.953-4.332s-4.182-35.484-4.444-45.121c-.225-9.338-8.516-29.133-9.039-30.328a46.906,46.906,0,0,0,25.7,18.339C967.158,475.683,967.158,501.344,966.634,516.321Z" transform="translate(18.07 124.019)" fill="#322e35"/>
        <path id="Path_640" data-name="Path 640" d="M1004.1,398.959s10.728-13.256,11.228-19.321,13.157-33.432,11.51-43.122-6.969-11.82-15.591-9.143-34.055,31.7-34.055,31.7Z" transform="translate(48.451 30.984)" fill="#6a636e"/>
        <path id="Path_641" data-name="Path 641" d="M980.183,357.407s24.175-24.643,28.346-26.176,10.343-5.6,11.2,5.038-9.777,32.39-9.818,35.327-4.651,14.925-8.923,19.6S980.183,357.407,980.183,357.407Z" transform="translate(50.973 33.408)" fill="#6d6f72"/>
        <path id="Path_642" data-name="Path 642" d="M1005.645,333.418s3.985,2.648,2.39,11.894-1.652,14.5-8.278,14.643-12.213-7.278-11.506-12.44S998.465,329.272,1005.645,333.418Z" transform="translate(57.731 36.31)" fill="#96999c"/>
        <path id="Path_643" data-name="Path 643" d="M934.458,399.066s-8.833-14.588-8.506-20.666-8.506-34.9-5.561-44.282,8.506-10.767,16.686-6.946S966.522,363.2,966.522,363.2Z" transform="translate(0 30.04)" fill="#6a636e"/>
        <path id="Path_644" data-name="Path 644" d="M1049.936,436.524c-2.119,6.377-10.089,19.318-23.006,26.424s-20.671,11.626-36.413,11.626h-.02c-15.744,0-23.5-4.522-36.413-11.626S933.2,442.9,931.076,436.524c-2.139-6.377-7.911-49.2-2.414-55.327,5.515-6.148,14.584-28.445,25.421-33.612s36.434-5.5,36.434-5.5,25.578.334,36.413,5.5,19.9,27.464,25.421,33.612C1057.847,387.323,1052.077,430.148,1049.936,436.524Z" transform="translate(5.542 44.297)" fill="#6a636e"/>
        <path id="Path_645" data-name="Path 645" d="M960.8,386.526s1.431-12.689-10.14-14.512-13.564,4.092-13.564,4.092-5.187,12.764,6.133,17.453,17.876-3.126,17.876-3.126Z" transform="translate(13.602 69.265)" fill="#d7b810"/>
        <path id="Path_646" data-name="Path 646" d="M943.783,373.82s-4.512,1.075-4.33,7.459a6.835,6.835,0,0,0,7.771,6.985c1.822-.433,4.188-2.871,2.89-8.32S945.8,372.675,943.783,373.82Z" transform="translate(16.593 70.808)" fill="#1a1818"/>
        <path id="Path_647" data-name="Path 647" d="M948.9,376.381a2.785,2.785,0,1,0-2.786,2.784A2.786,2.786,0,0,0,948.9,376.381Z" transform="translate(19.868 70.894)" fill="#fff"/>
        <path id="Path_648" data-name="Path 648" d="M958.935,360.788S938.323,333.1,934.4,331.013s-9.487-6.946-11.778,3.472,5.3,33.417,4.938,36.332,2.585,15.418,6.185,20.629S958.935,360.788,958.935,360.788Z" transform="translate(2.025 32.451)" fill="#6d6f72"/>
        <path id="Path_649" data-name="Path 649" d="M928.184,332.307s-4.307,2.084-3.979,11.462-.328,14.588,6.216,15.63,13.087-5.558,13.087-10.767S935.86,329.174,928.184,332.307Z" transform="translate(3.712 35.671)" fill="#96999c"/>
        <path id="Path_650" data-name="Path 650" d="M986.514,412.576c-12.753,0-13.723-4.925-13.806-5.9-.061,1-1.051,5.9-13.806,5.9-10.418,0-11.46-11.982-11.46-11.982s2.43,8.672,11.287,8.943c8.857.249,11.636-6.34,11.636-6.34v-8.335h4.689V403.2s2.69,6.437,11.547,6.166c8.857-.251,11.376-8.77,11.376-8.77S996.935,412.576,986.514,412.576Z" transform="translate(23.339 88.844)" fill="#1a1818"/>
        <path id="Path_651" data-name="Path 651" d="M972.352,386.526s-1.433-12.689,10.14-14.512,13.564,4.092,13.564,4.092,5.187,12.764-6.133,17.453-17.876-3.126-17.876-3.126Z" transform="translate(44.107 69.265)" fill="#d7b810"/>
        <path id="Path_652" data-name="Path 652" d="M981.951,373.724s4.606.544,5.167,6.9a6.835,6.835,0,0,1-6.908,7.841c-1.862-.219-4.494-2.368-3.835-7.929S979.815,372.821,981.951,373.724Z" transform="translate(47.671 70.835)" fill="#1a1818"/>
        <circle id="Ellipse_20" data-name="Ellipse 20" cx="2.785" cy="2.785" r="2.785" transform="translate(1022.089 444.489)" fill="#fff"/>
        <path id="Path_653" data-name="Path 653" d="M971.429,397.833c-4.418,3.02-1.042,4.584-6.231,4.584v.02c-5.209,0-1.835-1.584-6.251-4.6-4.438-3.022-1.835-7.9-1.835-7.9,0,2.854,8.086,2.333,8.086,2.333s8.064.522,8.064-2.355C973.262,389.913,975.868,394.811,971.429,397.833Z" transform="translate(30.861 84.666)" fill="#322e35"/>
      </g>
    </g>
  </g>
</svg>
