<svg xmlns="http://www.w3.org/2000/svg" width="492" height="492" viewBox="0 0 492 492">
  <g id="Group_56" data-name="Group 56" transform="translate(-714 -369)">
    <g id="Group_61" data-name="Group 61">
      <path id="Path_432" data-name="Path 432" d="M246,0C381.862,0,492,110.138,492,246S381.862,492,246,492,0,381.862,0,246,110.138,0,246,0Z" transform="translate(714 369)" fill="#b1baea"/>
      <g id="Group_80" data-name="Group 80" transform="translate(514.752 9.75)">
        <path id="Path_498" data-name="Path 498" d="M440.684,690.573c-43.938-40.33-73.768-88.1-53.495-151.168,10.7-33.3-7.659-84.548-20.559-91.659-18.628-2.4,14.1,42.037-2.374,96.1-22.468,73.706,14.348,116.428,46.911,155.586,10.686,8.715,22.733,2.849,29.517-8.86Zm0,0" transform="translate(0.002 60.77)" fill="#eadaac"/>
        <path id="Path_499" data-name="Path 499" d="M390.421,624.831c-10.889-25.212-13.546-53.336-3.23-85.426,10.7-33.3-7.659-84.548-20.559-91.659-18.628-2.4,14.1,42.037-2.374,96.1-11.35,37.205-7.575,66.52,3.122,91.47,11.963,1.709,20.254-3.365,23.041-10.486Zm0,0" transform="translate(0 60.77)" fill="#4f3726"/>
        <path id="Path_500" data-name="Path 500" d="M380.3,586.99c-4.885-29.336-13.63-32.693-.875-82.99,29.59-13.67,71.68-13.724,104.74-1.92,11.064,50.573,1.434,56.479-3.451,85.818,18.229,15.644,16.416,73.579-22.193,68.81-6.878.94-12.036,1.14-16.182-.37-5.666,2.141-14.391,2.322-20.751.243-8.218.432-10.192,2.323-15.706.095-39.941,2.428-43.811-54.03-25.582-69.685Zm0,0" transform="translate(21.244 138.687)" fill="#e2d3a5"/>
        <path id="Path_501" data-name="Path 501" d="M425.873,785.434c-.718,6.435-13.9,16.184-22.439,10.159-4.588-3.238-8.893-11.034-.378-19.779.559-91.208-31.477-94.508-27.851-146.442,2.322-33.187,38.915-70.678,25.4-97.038-6.479-12.617-13.041-18.061-19.012-38.885-3.26-11.383-20.273-65.234-2.171-80.519,6.984-5.909,28.882,33.808,35.814,46.457,2.447,1.129,5.137-1.372,14.451-1.8s12.174,2.152,14.464,1.372c7.235-12.1,26.022-49.887,34.8-45.636,17.764,8.609,2.406,67.081-.853,78.464-5.971,20.824-11.129,27.648-18.25,39.9-13.524,23.249,18.377,67.016,21.245,100.16,4.664,54.011-20.759,55.593-25.263,144.711,9.155,6.2,4.207,17.186-1.655,19.158-9.906,3.313-20.192-3.862-20.519-10.338-2.047-40.581,14.145-114.835-3.43-115.183s.3,73.368-4.356,115.246Zm0,0" transform="translate(23.58 0.709)" fill="#fff3d1"/>
        <path id="Path_502" data-name="Path 502" d="M434.944,483.221c-11.731-11.088-26.214-21.259-36.889-23.335,9.409-19.042,25.917-48.113,33.84-47.967,19.179,5.244,6.657,62.747,3.049,71.3Zm0,0" transform="translate(69.215 0)" fill="#675547"/>
        <path id="Path_503" data-name="Path 503" d="M378.673,483.344c11.739-11.086,26.762-21.445,37.438-23.532-9.411-19.031-26.733-47.84-34.653-47.694-19.179,5.244-6.384,62.671-2.784,71.227Zm0,0" transform="translate(23.468 0.338)" fill="#675547"/>
        <path id="Path_504" data-name="Path 504" d="M414.272,432.231c-16.549-.054-45.148,14.875-29.6,30.411,5.147,5.161,21.55,3.767,25.569,3.767,1.615-9.862,3.081-25.75,4.029-34.178Zm0,0" transform="translate(38.839 34.543)" fill="#85766a"/>
        <path id="Path_505" data-name="Path 505" d="M393.879,432.25c16.552-.051,45.15,14.875,29.611,30.413-5.158,5.147-21.564,3.765-25.571,3.765-1.615-9.862-3.081-25.75-4.04-34.178Zm0,0" transform="translate(62.114 34.576)" fill="#85766a"/>
        <path id="Path_506" data-name="Path 506" d="M438.667,438.5c-11.9,3.692-15.128,15.8-11.636,22.142,3.851,6.973,22.217,5.18,23.716-10.073,3.3,11.5-11.553,21.974-17.956,21.963,5.949,15.579-2.458,26.087-16.719,25.612S394.75,488.312,399.36,473c-6.138-1.331-21.107-9.2-18.977-21.964,2.309,15.5,19.916,17.024,23.924,9.811,3.524-6.319,3.23-18.725-9.746-22.946,4.661-3.681,12.773-5.39,21.045-5.652s17.31,1.5,23.06,6.254Zm0,0" transform="translate(38.814 34.528)" fill="#675547"/>
        <path id="Path_507" data-name="Path 507" d="M394.187,448.184a1.681,1.681,0,0,0-1.277,1.615v8.628a1.624,1.624,0,1,0,3.249,0V449.8a1.693,1.693,0,0,0-1.971-1.615Zm0,0" transform="translate(60.466 61.618)" fill="#2b1100"/>
        <path id="Path_508" data-name="Path 508" d="M411.869,450.072a1.71,1.71,0,0,0-.98,2.835,2.578,2.578,0,0,1,.98,2.544,3.438,3.438,0,0,1-1.561,2.258,3.671,3.671,0,0,1-3.124.41c-1.2-.359-2.625-1.361-4-3.586a1.7,1.7,0,0,0-2.773.051c-1.372,2.268-2.8,3.27-4,3.651a3.517,3.517,0,0,1-3.07-.411,3.4,3.4,0,0,1-1.612-2.2,2.638,2.638,0,0,1,1.034-2.552,1.619,1.619,0,1,0-2.2-2.374,6.014,6.014,0,0,0-2.025,5.444,6.677,6.677,0,0,0,3.07,4.461,6.979,6.979,0,0,0,5.779.7,10.2,10.2,0,0,0,4.464-3.419,9.99,9.99,0,0,0,4.4,3.354,7,7,0,0,0,5.79-.813,6.588,6.588,0,0,0,3.07-4.4,6.168,6.168,0,0,0-2.025-5.5,1.648,1.648,0,0,0-1.223-.462Zm0,0" transform="translate(52.911 64.88)" fill="#2b1100"/>
        <path id="Path_509" data-name="Path 509" d="M398.281,452.243c-3.754-14.178,11.34-21.31,20.1-10.875,3.438,9.039-10.824,18.987-20.1,10.875Zm0,0" transform="translate(68.598 41.631)" fill="#c4c4ff"/>
        <path id="Path_510" data-name="Path 510" d="M405.33,437.727c-8.239.041-7.575,11.086,0,11.024s8.239-11.056,0-11.024Zm0,0" transform="translate(71.497 43.889)" fill="#2b1100"/>
        <path id="Path_511" data-name="Path 511" d="M401.7,452.38c3.756-14.167-11.34-21.3-20.095-10.864-3.44,9.041,10.821,18.987,20.095,10.864Zm0,0" transform="translate(40.341 41.883)" fill="#c4c4ff"/>
        <path id="Path_512" data-name="Path 512" d="M388.762,437.875c8.229.032,7.575,11.088,0,11.024s-8.237-11.064,0-11.024Zm0,0" transform="translate(43.326 44.141)" fill="#2b1100"/>
        <path id="Path_513" data-name="Path 513" d="M408.2,531.449c-3.125,1.564-21.488,2.544-24.3.57.726,10.224,2.457,30.457,2.287,41.183-10.022,9.506-3.216,19.285,3.281,21.594,6.751,2.406,17.691-3.954,19.306-11,2.984-12.995-.065-43.576-.57-52.345Zm0,0" transform="translate(40.387 203.267)" fill="#675547"/>
        <path id="Path_514" data-name="Path 514" d="M396.874,531.438c3.133,1.572,21.488,2.541,24.316.581-1.159,10.211-4.178,30.875-4.008,41.6,9.452,8.933,3.638,18.175-3.006,20.022-9.179,2.541-19.654-3.786-19.876-10.729-.621-19.59,2.079-42.712,2.574-51.478Zm0,0" transform="translate(62.673 203.248)" fill="#675547"/>
        <path id="Path_515" data-name="Path 515" d="M401.547,450.852c1.1-7.035,17.132-38.4,24.842-37.375,9.652,2.163,5.444,40.1,3.017,49.455-2.973.686-7.278.7-9.746,5.3-5.455-4.591-10.548-6.816-14.388-9.284.262-3.986-1.51-5.4-3.724-8.091Zm0,0" transform="translate(75.153 2.609)" fill="#ffd5d5"/>
        <path id="Path_516" data-name="Path 516" d="M403.587,451.2c-1.1-7.038-17.132-38.4-24.834-37.375-9.652,2.163-5.452,40.1-3.027,49.452,2.987.686,6.236,1.067,8.693,5.644,5.455-4.577,10.548-6.813,14.388-9.282-.254-3.989,2.574-5.749,4.78-8.439Zm0,0" transform="translate(26.098 3.194)" fill="#ffd5d5"/>
        <path id="Path_517" data-name="Path 517" d="M391.523,446.634a16.955,16.955,0,0,1,10.645-.157c-4.232,8.563-6.362,8.469-10.645.157Zm0,0" transform="translate(58.107 57.44)"/>
        <path id="Path_518" data-name="Path 518" d="M392.555,445.727a1.713,1.713,0,0,0-1.35,2.436c1.35,2.468,2.625,5.822,5.812,7.426a1.673,1.673,0,0,0,1.55,0c2.838-1.677,4.548-5.01,5.876-7.089a1.621,1.621,0,1,0-2.7-1.761,26.584,26.584,0,0,1-4.124,5.136,20.81,20.81,0,0,1-3.575-5.263,1.677,1.677,0,0,0-1.488-.886Zm0,0" transform="translate(57.256 57.494)" fill="#2b1100"/>
      </g>
    </g>
  </g>
</svg>
