<svg xmlns="http://www.w3.org/2000/svg" width="492" height="492" viewBox="0 0 492 492">
  <g id="Group_57" data-name="Group 57" transform="translate(-1266 -369)">
    <g id="Group_63" data-name="Group 63">
      <path id="Path_302" data-name="Path 302" d="M246,0C381.862,0,492,110.138,492,246S381.862,492,246,492,0,381.862,0,246,110.138,0,246,0Z" transform="translate(1266 369)" fill="#31819f"/>
      <g id="Group_81" data-name="Group 81" transform="translate(1043.807 176.745)">
        <path id="Path_519" data-name="Path 519" d="M450.086,482.517c-55.748,2.568-99.691-36.961-94.354-87.477,7.9-74.716-8.556-89.031-1.291-100.379,5.667-8.849,20.555,2.408,27.087,16.709,21.352,46.777-19.7,117.078,45.966,133.723,26.648,6.757,36.12,3.15,46.5,14.608,1.611,9.939-3.007,22.016-23.906,22.816Zm0,0" transform="translate(0.351 77.375)" fill="#a19467"/>
        <path id="Path_520" data-name="Path 520" d="M356.495,292.223c-10.858,3.753,3.5,41.484,1.58,62.533,8.1-3.927,18.535-6.08,30.548-1.236,3.539-27.448-12.7-68.026-32.128-61.3Zm0,0" transform="translate(0 77.267)" fill="#6c4f1c"/>
        <path id="Path_521" data-name="Path 521" d="M463.481,482.484c5.732,1.6,14.485,2.994,21.059-.783,31.2,7,40.353-6.56,29.536-29.216,10.272-32.169,9.939-84.671-1.809-113.407-32.516-24.56-97.7-41.416-141.172-2.435-6.985,34.645-5.337,89.126,5.919,113.407-10.991,19.226-3.167,38.528,21.7,32.543,17.122,9.618,22.193.252,31.079-.773,9.325,3.644,24.625,1.117,33.688.664Zm0,0" transform="translate(34.946 130.25)" fill="#bcae7b"/>
        <path id="Path_522" data-name="Path 522" d="M511.177,469.008c-3.127,39.314-27.326,95.485-30.493,123.73,8.034,5.47,7.718,20.449.7,20.7-9.22.334-21.3,6.253-28.63-5.041-9.792-15.088,21.059-95.444-8.423-96.016s-4.922,82.021-14.727,97.106c-7.333,11.3-19.4,5.375-28.63,5.044-7.013-.252-7.333-15.235.719-20.7-3.181-28.245-29.948-88.37-33.089-127.671-2.994-37.584,7.05-45.592,12.479-80.186,1.982-12.663-5.535-40.006-1.6-65.029-3.167-18.988-1.025-53.858,8.4-61.187,7.663-4.353,31.464,28.617,34.059,41.59,8.287-1.969,22.537-3.167,31.386-.228,2.18-11.934,25.97-44.9,33.647-40.551,9.417,7.33,11.56,42.216,8.392,61.187,3.927,25.023-3.3,52.311-.61,67.039,6.679,36.549,19.41,42.642,16.416,80.213Zm0,0" transform="translate(37.698 0)" fill="#efe0ac"/>
        <path id="Path_523" data-name="Path 523" d="M384.391,272.9c7.156,1.09,7.009,15.364,14.141,15.831s7.118-14.928,13.225-16.165c-6.253-2.486-21.273-1.7-27.367.334Zm0,0" transform="translate(76.982 28.021)" fill="#b1863e"/>
        <path id="Path_524" data-name="Path 524" d="M452.1,389.43c.906-28.7-9.884-43.81,5.763-58.459,11.614-10.872,30-27.567,29.468-40.953-1.332-4-.92-9.193-5.228-9.06-6.481,7.983-17.336,21.74-31.028,27.554-5.068-9.578-12.118-15.245-20.793-15.245s-16.4,6.556-20.8,15.245c-13.688-5.8-23.654-19.131-31.689-25.558-4.312-.119-5.31,2.65-6.652,6.652-.521,13.385,17.03,27.939,33.34,40.527,20.156,15.551,8.208,41.443,11.921,58.565,1.356,6.281-3.195,38.129.225,44.1,4.325,9.608,6.107,27.315,13.651,29.083a31.487,31.487,0,0,1,13.157-.184c3.78-1.57,6.706-22.394,7.65-30.8-1.57-2.98.814-35.057,1.012-41.47Zm0,0" transform="translate(45.096 51.945)" fill="#fbf1cf"/>
        <path id="Path_525" data-name="Path 525" d="M391.574,290.511c-.014-17.786,28.753-20.18,28.79-.385s-28.763,18.174-28.79.385Zm0,0" transform="translate(94.264 40.517)" fill="#74f774"/>
        <path id="Path_526" data-name="Path 526" d="M402.332,293.479c11.257-.637,9.247-16.471-1.451-15.432s-9.792,16.073,1.451,15.432Zm0,0" transform="translate(98.553 44.827)" fill="#2b1100"/>
        <path id="Path_527" data-name="Path 527" d="M405.019,290.657c.014-17.789-28.749-20.183-28.777-.385s28.766,18.174,28.777.385Zm0,0" transform="translate(57.377 40.864)" fill="#74f774"/>
        <path id="Path_528" data-name="Path 528" d="M385.61,293.626c-11.253-.64-9.244-16.471,1.451-15.436s9.806,16.073-1.451,15.436Zm0,0" transform="translate(61.737 45.174)" fill="#2b1100"/>
        <path id="Path_529" data-name="Path 529" d="M388.445,272.949c-5.456,3.154-6.519,6.665-3.021,12.135,5.136-3.328,5.627-7.357,3.021-12.135Zm0,0" transform="translate(74.604 32.68)" fill="#b1863e"/>
        <path id="Path_530" data-name="Path 530" d="M393.072,272.949c5.456,3.154,6.533,6.665,3.035,12.135-5.136-3.328-5.64-7.357-3.035-12.135Zm0,0" transform="translate(94.163 32.68)" fill="#b1863e"/>
        <path id="Path_531" data-name="Path 531" d="M371.273,288.416c-.16.334-.759,7.04.2,9.911,5.122-8.195,8.433-11.522,15.633-19.342-6.88,2.806-11.883,5.1-15.834,9.431Zm0,0" transform="translate(44.624 47.202)" fill="#b1863e"/>
        <path id="Path_532" data-name="Path 532" d="M406.661,309.341c.906-6.335,3.195-10.565,7.064-13.477-17.946,4.6-32.087-5.269-40.51-14.7,3.324,9.686,18.893,24.322,33.446,28.18Zm0,0" transform="translate(50.094 52.435)" fill="#b1863e"/>
        <path id="Path_533" data-name="Path 533" d="M416.955,288.188c.157.33.995,7.037.038,9.9-5.123-8.195-8.661-11.509-15.872-19.332,6.88,2.807,11.88,5.1,15.834,9.434Zm0,0" transform="translate(117.233 46.647)" fill="#b1863e"/>
        <path id="Path_534" data-name="Path 534" d="M399.444,309.107A19.477,19.477,0,0,0,391.7,295.63c17.949,4.6,32.091-5.269,40.513-14.7-3.314,9.686-18.228,24.322-32.768,28.177Zm0,0" transform="translate(94.565 51.882)" fill="#b1863e"/>
        <path id="Path_535" data-name="Path 535" d="M402.467,284.188c-15.541-.068-27.687,19.676-12.694,25.156,6.093,9.407,16.938,9.155,24.935.453,14.022-6.625,3.3-25.544-12.241-25.609Zm0,0" transform="translate(73.488 59.72)" fill="#fdf9ec"/>
        <path id="Path_536" data-name="Path 536" d="M389.55,286.761a2.116,2.116,0,0,0-1.584,2.033v5.415a2.044,2.044,0,1,0,4.084,0v-5.415a2.116,2.116,0,0,0-2.5-2.033Zm0,0" transform="translate(85.58 65.795)" fill="#2b1100"/>
        <path id="Path_537" data-name="Path 537" d="M394.116,288.572a2.356,2.356,0,0,0-.787.225c-3.58,1.611-5.521,4.5-6.6,5.507a2.056,2.056,0,0,0,2.834,2.98,31.493,31.493,0,0,1,4.629-4.084,20.511,20.511,0,0,1,5.109,4.084,2.043,2.043,0,1,0,3.219-2.435,21.894,21.894,0,0,0-7.384-6.052,2.044,2.044,0,0,0-1.022-.225Zm0,0" transform="translate(81.16 70.265)" fill="#2b1100"/>
        <path id="Path_538" data-name="Path 538" d="M386.645,285.768a20.463,20.463,0,0,1,14.036.439c-4.952,8.569-9.792,8.474-14.036-.439Zm0,0" transform="translate(82.405 61.039)" fill="#c54171"/>
        <path id="Path_539" data-name="Path 539" d="M387.572,284.784a2.159,2.159,0,0,0-.947,3.484c1.131,1.093,3.872,4.54,6.56,6.812a2.1,2.1,0,0,0,2.476.174,25.952,25.952,0,0,0,7.49-6.716,2.044,2.044,0,1,0-3.232-2.476,22.265,22.265,0,0,1-5.283,4.683c-1.849-1.822-3.859-4.084-5.191-5.361a2.1,2.1,0,0,0-1.873-.6Zm0,0" transform="translate(81.025 61.066)" fill="#2b1100"/>
        <path id="Path_540" data-name="Path 540" d="M373.481,306.461c5.109,17.309,14.86,49.733,4.056,88.741-10.63-30.333-13.144-64.062-4.056-88.741Zm0,0" transform="translate(37.335 113.307)" fill="#d7c78f"/>
        <path id="Path_541" data-name="Path 541" d="M411.721,305.856c-5.1,17.309-10.044,51.208.76,90.216,10.63-37.213,10.936-65.458-.76-90.216Zm0,0" transform="translate(129.065 111.852)" fill="#d7c78f"/>
        <path id="Path_542" data-name="Path 542" d="M395.9,287.467c2.221-5.947,16.444-28.525,22.551-26.634,6.277,4.523,7.169,27.06,7.169,36.893-4.057,6.253-7.755,9.925-9.22,15.367-5.283-5.828-9.206-7.769-15.381-10.245-1.7-5.494-3.283-9.857-5.119-15.381Zm0,0" transform="translate(104.66 3.261)" fill="#ffd5d5"/>
        <path id="Path_543" data-name="Path 543" d="M402.146,287.483c-2.221-5.947-16.444-28.525-22.551-26.634-6.277,4.537-7.169,27.074-7.169,36.893,4.057,6.253,7.755,9.925,9.22,15.368,5.283-5.827,9.193-7.772,15.378-10.245,1.7-5.5,3.273-9.86,5.122-15.381Zm0,0" transform="translate(48.196 3.3)" fill="#ffd5d5"/>
        <path id="Path_544" data-name="Path 544" d="M394.791,338.012c-12.146-.014-18.5,8.62-1.2,7.81.453-2.966.613-4.482,1.2-7.81Zm0,0" transform="translate(73.565 189.216)" fill="#b1863e"/>
        <path id="Path_545" data-name="Path 545" d="M390.62,343.525c-6.335-.6-10.885,4.216.211,5.919.133-1.277-.252-3.781-.211-5.919Zm0,0" transform="translate(76.26 202.357)" fill="#b1863e"/>
        <path id="Path_546" data-name="Path 546" d="M394.2,338.327c5.361-.6,15.647,4.578,0,6.12Zm0,0" transform="translate(100.58 189.859)" fill="#b1863e"/>
        <path id="Path_547" data-name="Path 547" d="M394.921,342.082c18.545,1.7,15.579,8.583-.933,8.4,0-1.836.746-5.589.933-8.4Zm0,0" transform="translate(100.072 199.009)" fill="#b1863e"/>
      </g>
    </g>
  </g>
</svg>
