<svg xmlns="http://www.w3.org/2000/svg" width="492" height="492" viewBox="0 0 492 492">
  <g id="Group_59" data-name="Group 59" transform="translate(-130 -249)">
    <g id="Component_1_2" data-name="Component 1 – 2" transform="translate(130 249)">
      <g id="Group_53" data-name="Group 53">
        <circle id="Ellipse_7" data-name="Ellipse 7" cx="246" cy="246" r="246" fill="#795d8b"/>
      </g>
    </g>
    <g id="Group_58" data-name="Group 58" transform="translate(-205.993 270.134)">
      <path id="Path_228" data-name="Path 228" d="M570.355,285.906c-21.822-14.376-55.8-44.733-41.559-78.442,31.806-75.342-10.693-140.2-20.636-134.4-13.157,7.69,34.514,42.458-4.211,134.014-18.806,44.489,31.627,90.681,41.632,98.539,13.033,3.745,23.333-4.877,24.774-19.715Zm0,0" transform="translate(0 74.037)" fill="#9d9d9d"/>
      <path id="Path_229" data-name="Path 229" d="M649.211,233.429c2.052-25.616-7.552-34.281-9.626-50.717-1.9-15.126,10.588-27.289-1.744-55.943-40.755-25.345-82.122-12.8-119.481.022-13.793,29.509-1.292,41.673-3.2,56.8-2.074,16.428-11.676,25.1-9.626,50.72,1.958,24.516,15.424,37.706,33.753,41.3,7.977-3.926,14.194-2.136,19.42-.709,8.207.856,27.322,2.973,36.471.612,8.684,2.147,12.112,3.588,26.052.076s26.008-17.633,27.977-42.163Zm0,0" transform="translate(9.337 141.31)" fill="#dfb3b3"/>
      <path id="Path_230" data-name="Path 230" d="M586.983,292.837C611.567,306.661,575.508,386.2,592,413.756c3.9,6.526,11.541,8.706,22.751,3.745,5.86-2.591,4.614-15.686-3.691-20.753,2.9-39.623,27.481-84.353,28-127.783.265-22.51-17.295-51.564-26.823-77.459-1.969-5.342-15.8-28.315-3.745-38.448,13.019-10.948,12.069-18.881,12.185-32.45,6.231-4.582,20.625-3.068,25.321-15,6.74-17.146,15.074-75.171,3.3-75.964-18.827-.382-46.666,37.877-48.318,50.644-.623,6.686-5.849-.52-21.524,0s-19.672,6.493-20.3-.19c-1.649-12.767-29.49-51.026-48.318-50.646-11.771.793-3.447,58.821,3.3,75.967,4.7,11.931,19.093,10.42,25.323,15-.964,13.571-.848,23.122,12.185,32.453,12.808,9.169-1.779,33.105-3.745,38.448-9.531,25.892-29.585,52.252-29.447,79.2.222,44.245,21.6,84.543,24.487,124.166-8.3,5.077-8.673,19.919-2.813,22.51,11.221,4.961,19.726,2.781,23.628-3.756,16.49-27.544-19.082-106.332,5.5-120.158,6.3,1.154,12.2,1.427,17.725-.444Zm0,0" transform="translate(8.777 0.161)" fill="#ffc9c9"/>
      <path id="Path_231" data-name="Path 231" d="M533.673,69.4a1.677,1.677,0,0,0-1.289,1.652v6.97a1.65,1.65,0,0,0,3.3,0v-6.97a1.7,1.7,0,0,0-2.012-1.652Zm0,0" transform="translate(55.667 68.322)" fill="#2b1100"/>
      <path id="Path_232" data-name="Path 232" d="M540.53,71.765a1.685,1.685,0,0,0-1.511,1.365c-.636,3.924-2.868,5.088-4.666,5.1a2.772,2.772,0,0,1-2.082-.793,2.2,2.2,0,0,1-.436-2.223,1.692,1.692,0,0,0-1.183-1.977,1.71,1.71,0,0,0-1.979,1.183,5.73,5.73,0,0,0,1.153,5.175,6.075,6.075,0,0,0,4.527,1.871,7.645,7.645,0,0,0,6.315-3.807,8.315,8.315,0,0,0,6.824,3.945,5.461,5.461,0,0,0,5.321-7.755,1.625,1.625,0,1,0-3.016,1.08c.5,1.386.244,2.093-.146,2.581a2.777,2.777,0,0,1-2.158.866c-2.009,0-4.611-1.343-5.237-5.245a1.683,1.683,0,0,0-1.725-1.365Zm0,0" transform="translate(49.031 72.422)" fill="#2b1100"/>
      <path id="Path_233" data-name="Path 233" d="M541.835,68.888C543.3,59,529.724,54.5,521.24,61.366c-1.828,12.789,13.994,17.2,20.6,7.522Zm0,0" transform="translate(36.389 49.036)" fill="#78d9fa"/>
      <path id="Path_234" data-name="Path 234" d="M529.138,59.57c5.237,1.988,3.989,9.5-2.242,8.218s-3-10.216,2.242-8.218Zm0,0" transform="translate(40.464 51.108)" fill="#2b1100"/>
      <path id="Path_235" data-name="Path 235" d="M537.757,49.087a.793.793,0,0,0-.615.742,3.573,3.573,0,0,1-1.216,2.643,5.94,5.94,0,0,1-2.773,1.216,15.261,15.261,0,0,1-6.293-.263.794.794,0,0,0-.815,1.143.721.721,0,0,0,.4.338,16.143,16.143,0,0,0,6.97.273,7.31,7.31,0,0,0,3.458-1.627,5.235,5.235,0,0,0,1.757-3.65.79.79,0,0,0-.877-.815Zm0,0" transform="translate(44.678 33.687)" fill="#e88484"/>
      <path id="Path_236" data-name="Path 236" d="M531.179,55.306a21.532,21.532,0,0,0-5.489.265c-.815.106-.528,1.692.274,1.489,3.734-.612,6.729-.328,8.665.88s2.97,3.3,2.708,6.843a.8.8,0,0,0,1.489.138c.287-3.9-.961-6.748-3.385-8.261a9.76,9.76,0,0,0-4.262-1.354Zm0,0" transform="translate(43.406 44.191)" fill="#e88484"/>
      <path id="Path_237" data-name="Path 237" d="M533.546,49.195a.735.735,0,0,0-.542.539,49.978,49.978,0,0,0-1.966,21.725c.146.815,1.7.552,1.554-.263a49.473,49.473,0,0,1,1.831-20.985.8.8,0,0,0-.877-1.015Zm0,0" transform="translate(52.612 33.856)" fill="#e88484"/>
      <path id="Path_238" data-name="Path 238" d="M530.927,51.281a.766.766,0,0,0-.6.477c-1.373,2.591-1.227,6.187-.951,8.4.073.815,1.627.677,1.554-.138-.255-2.063-.36-5.616.677-7.585a.8.8,0,0,0-.677-1.154Zm0,0" transform="translate(50.215 37.447)" fill="#e88484"/>
      <path id="Path_239" data-name="Path 239" d="M534.216,49.255a.8.8,0,0,0-.477,1.015,49.364,49.364,0,0,1,1.9,20.985.756.756,0,1,0,1.481.211,50.319,50.319,0,0,0-1.893-21.738.71.71,0,0,0-.2-.263.79.79,0,0,0-.815-.211Zm0,0" transform="translate(57.897 33.922)" fill="#e88484"/>
      <path id="Path_240" data-name="Path 240" d="M536.1,51.357a.8.8,0,0,0-.411,1.08c1.037,1.966.932,5.532.677,7.582-.106.815,1.459,1.026,1.554.2.276-2.2.5-5.86-.877-8.462a.786.786,0,0,0-.942-.4Zm0,0" transform="translate(61.165 37.51)" fill="#e88484"/>
      <path id="Path_241" data-name="Path 241" d="M533.258,49.372a.773.773,0,0,0-.477.742L532.508,68.8c0,.815,1.554.815,1.554,0l.276-18.689a.794.794,0,0,0-1.08-.742Zm0,0" transform="translate(55.881 34.079)" fill="#e88484"/>
      <path id="Path_242" data-name="Path 242" d="M521.48,63.373a.86.86,0,0,0-.4.273.877.877,0,0,0-.2.815c.658,2.7,3.122,4.928,6.231,6.569a23.351,23.351,0,0,0,9.542,2.5,13.825,13.825,0,0,0,.812,10.089c.425.815,1.979,0,1.557-.815a11.719,11.719,0,0,1-.615-9.74.908.908,0,0,0-.8-1.091,21.678,21.678,0,0,1-9.688-2.432c-2.835-1.5-4.877-3.574-5.342-5.489a.914.914,0,0,0-1.089-.677Zm0,0" transform="translate(35.969 58.052)" fill="#e88484"/>
      <path id="Path_243" data-name="Path 243" d="M555.626,63.083a.882.882,0,0,0-.477.615c-.466,1.9-2.507,3.989-5.342,5.478a21.8,21.8,0,0,1-9.751,2.445.9.9,0,0,0-.815,1.143c1.376,4.23.815,7.054-.539,9.751a.9.9,0,0,0,.371,1.227.89.89,0,0,0,1.183-.485,13.756,13.756,0,0,0,.75-10.019,23.522,23.522,0,0,0,9.615-2.5c3.1-1.63,5.565-3.861,6.22-6.558a.917.917,0,0,0-1.216-1.091Zm0,0" transform="translate(66.272 57.462)" fill="#e88484"/>
      <path id="Path_244" data-name="Path 244" d="M508.733,30.9c-7.119,3.6,2.453,53.384,7.013,61.74,9.266,2.889,17.928,8.029,22.456,12.629a32.169,32.169,0,0,1,6.315-12.629A35.006,35.006,0,0,1,549.244,73.7c.517-11.348-26.241-45.174-40.511-42.8Zm0,0" transform="translate(10.924 2.436)" fill="#f79696"/>
      <path id="Path_245" data-name="Path 245" d="M524.711,85.055a.78.78,0,0,0-.477.753,12.224,12.224,0,0,0,3.385,8.048,27.616,27.616,0,0,0,7.65,5.892.758.758,0,1,0,.677-1.289,25.879,25.879,0,0,1-7.173-5.543,10.868,10.868,0,0,1-3.046-7.108.8.8,0,0,0-1.015-.753Zm0,0" transform="translate(41.75 95.062)" fill="#e88484"/>
      <path id="Path_246" data-name="Path 246" d="M525.463,80.56a.775.775,0,0,0-.677.8c-.084,6.577,3.712,12.036,8.662,15.443.636.338,1.408-.72.88-1.227-4.622-3.174-8.134-8.229-8.061-14.216a.784.784,0,0,0-.8-.8Zm0,0" transform="translate(42.69 87.447)" fill="#e88484"/>
      <path id="Path_247" data-name="Path 247" d="M535.868,118.578a.767.767,0,0,0-.55.6c-1.533,6.8-4.56,10.43-8.186,14.969-.5.634.718,1.587,1.216.94,3.618-4.514,6.853-8.462,8.462-15.57a.793.793,0,0,0-.942-.94Zm0,0" transform="translate(46.501 152.325)" fill="#e88484"/>
      <path id="Path_248" data-name="Path 248" d="M548.083,85.293a.805.805,0,0,0-.615.753,10.866,10.866,0,0,1-3.046,7.108,25.862,25.862,0,0,1-7.17,5.543.8.8,0,0,0-.414,1.1.785.785,0,0,0,1.153.19,27.323,27.323,0,0,0,7.585-5.816,12.547,12.547,0,0,0,3.458-8.123.808.808,0,0,0-.95-.753Zm0,0" transform="translate(63.122 95.5)" fill="#e88484"/>
      <path id="Path_249" data-name="Path 249" d="M545.952,80.845a.773.773,0,0,0-.539.742c.076,5.987-3.374,11.042-8,14.216a.737.737,0,1,0,.815,1.227c4.95-3.406,8.746-8.865,8.662-15.443a.793.793,0,0,0-.942-.742Zm0,0" transform="translate(63.696 87.901)" fill="#e88484"/>
      <path id="Path_250" data-name="Path 250" d="M535.418,118.825a.777.777,0,0,0-.542.94c1.608,7.108,4.844,11.056,8.462,15.57a.77.77,0,1,0,1.219-.94c-3.629-4.538-6.653-8.167-8.188-14.969a.79.79,0,0,0-.95-.6Zm0,0" transform="translate(59.879 152.755)" fill="#e88484"/>
      <path id="Path_251" data-name="Path 251" d="M550.5,99.941c-4.56-5.573-6.845-7.49-10.347-17.2,4.972-26.75,41.264-58.461,50.5-52.707,10.948,6.832.03,74.887-8.156,81.507-6.748,5.459-15.242,6.082-22.012,9.215.095-10.758-5.711-15.591-9.984-20.817Zm0,0" transform="translate(68.935 0)" fill="#b3b3b3"/>
      <path id="Path_252" data-name="Path 252" d="M583.872,30.876c7.119,3.6-2.453,53.384-7.01,61.74-9.277,2.887-17.928,8.029-22.456,12.629a32.2,32.2,0,0,0-6.315-12.629,34.92,34.92,0,0,0-4.739-18.933c-.509-11.351,26.252-45.177,40.519-42.807Zm0,0" transform="translate(74.389 2.397)" fill="#f79696"/>
      <path id="Path_253" data-name="Path 253" d="M536.991,68.638c-1.459-9.892,12.112-14.386,20.6-7.522,1.83,12.789-13.994,17.2-20.6,7.522Zm0,0" transform="translate(63.351 48.609)" fill="#78d9fa"/>
      <path id="Path_254" data-name="Path 254" d="M542.178,59.32c-5.234,1.988-4,9.488,2.234,8.218s3-10.217-2.234-8.218Zm0,0" transform="translate(66.793 50.681)" fill="#2b1100"/>
      <path id="Path_255" data-name="Path 255" d="M535.633,49.147a.78.78,0,0,0-.55.815,5.241,5.241,0,0,0,1.766,3.647,7.29,7.29,0,0,0,3.45,1.557,16.179,16.179,0,0,0,6.97-.265c.783-.211.382-1.7-.4-1.492a15.445,15.445,0,0,1-6.3.276,5.693,5.693,0,0,1-2.708-1.227,3.64,3.64,0,0,1-1.289-2.635.785.785,0,0,0-.942-.677Zm0,0" transform="translate(60.275 33.765)" fill="#e88484"/>
      <path id="Path_256" data-name="Path 256" d="M543.222,55.329a10.165,10.165,0,0,0-4.327,1.354c-2.421,1.524-3.68,4.36-3.385,8.261A.75.75,0,1,0,537,64.806c-.273-3.531.772-5.627,2.708-6.832s4.92-1.492,8.662-.877c.793.19,1.091-1.4.265-1.492a20.524,20.524,0,0,0-5.416-.276Zm0,0" transform="translate(60.937 44.23)" fill="#e88484"/>
      <path id="Path_257" data-name="Path 257" d="M525.191,100.235c7.839,9.158-4,14.278-5.056,20.625-1.354,9.033-4.389,16.13-9.867,18.871-.244-8.632,10.438-32.716,14.923-39.5Zm0,0" transform="translate(17.894 121.05)" fill="#b3b3b3"/>
      <path id="Path_258" data-name="Path 258" d="M531.035,67.556c1.736-.571,8.24-1.026,10.238.571-1.722,8.429-8.862,7.709-10.238-.571Zm0,0" transform="translate(53.365 64.34)" fill="#91877e"/>
      <path id="Path_259" data-name="Path 259" d="M542.175,66.927a1.684,1.684,0,0,0-1.154,1.015c-.506,1.186-.772,2.54-1.354,3.661s-1.088,1.747-2.3,1.755-1.849-.666-2.5-1.755a12.05,12.05,0,0,1-1.219-3.184,1.627,1.627,0,1,0-3.12.742,14.445,14.445,0,0,0,1.565,4.135,6.234,6.234,0,0,0,5.343,3.312,5.931,5.931,0,0,0,5.077-3.512,29.723,29.723,0,0,0,1.492-3.861,1.722,1.722,0,0,0-1.83-2.307Zm0,0" transform="translate(52.306 64.111)" fill="#2b1100"/>
    </g>
  </g>
</svg>
