<svg xmlns="http://www.w3.org/2000/svg" width="492" height="492" viewBox="0 0 492 492">
  <g id="Group_57" data-name="Group 57" transform="translate(-1266 -369)">
    <g id="Group_63" data-name="Group 63">
      <path id="Path_302" data-name="Path 302" d="M246,0C381.862,0,492,110.138,492,246S381.862,492,246,492,0,381.862,0,246,110.138,0,246,0Z" transform="translate(1266 369)" fill="#dff4b0"/>
      <g id="Group_111" data-name="Group 111" transform="translate(179.955 -398.058)">
        <path id="Path_916" data-name="Path 916" d="M1227.972,1006.97s8.333,33.457,16.07,45,10.918,18.683,6.351,24.039-8.137,13.688,7.338,13.688,15.473-1.19,14.283-11.9-7.142-27.377-9.522-35.114,3.57-29.523,0-42.138S1219.5,971.494,1227.972,1006.97Z" transform="translate(38.926 45.459)" fill="#5b4335"/>
        <path id="Path_917" data-name="Path 917" d="M1318.639,998.483s-4.167,20.378-4.762,36.375,4.762,10.409,0,22.907-12.5,21.063-17.855,27.014-2.975,9.523,9.523,9.523,10.323-3.8,15.085-13.327,11.9-20.83,16.665-23.21,5.623-7.026,10.506-14.355c10.507-15.764,12.8-43.155,7.143-58.616S1323.278,964.619,1318.639,998.483Z" transform="translate(69.671 39.662)" fill="#5b4335"/>
        <path id="Path_918" data-name="Path 918" d="M1179.384,928.863s-7.142-20.979-8.481-25.444-1.339-4.018,8.481,2.678,23.238,24.212,21.873,32.139S1187.864,938.236,1179.384,928.863Z" transform="translate(12.822 6.171)" fill="#95694f"/>
        <path id="Path_919" data-name="Path 919" d="M1521.063,900.63v.015c-3.094,4.12-5.5,3.911-8.447,2.335-3.063-1.62-6.706-4.7-12.313-5.858a21.305,21.305,0,0,0-3.4-.431c-.149,0-.313-.015-.461-.015a24.068,24.068,0,0,0-10.782,1.918,20.134,20.134,0,0,0-2.246,1.2c-3.643,2.275-6.632,5.829-9.159,10.8a72.129,72.129,0,0,0-4.953,13.443c-.058.238-.133.477-.193.729-.089.311-.164.61-.237.921-.64,2.424-1.2,4.819-1.725,7.153-.238,1.01-.462,2.007-.684,3-1.041,4.595-1.993,8.922-3.153,12.8-.3.981-.61,1.949-.936,2.87-2.662,7.57-6.515,13-13.994,14.633-14.811,3.257-14.082,3.7-10.513,8.12s5.8,16.566,5.8,16.566,4.357.981,11.361,2.051a53.5,53.5,0,0,1,1.858,14.306,92.05,92.05,0,0,1-.61,10.931,59.444,59.444,0,0,0-7.9-7.361c-8.253-5.978-33.726,2.393-39.972,16.566s-44.641,21.978-80.792,18.677-45.087-18.677-45.087-18.677-31.244,8.135-40.612,3.672c-9.383-4.491-6.26-22.32-11.167-23.659s-18.307-11.6-23.659-18.291-1.339-15.182-8.744-9.13-14.023,4.208-34.1,3.376c-9.516-.387-14.737-1.934-17.606-3.436a30.936,30.936,0,0,1-1.249-3.316c-2.231-7.137-4.462-14.722,2.231-18.751s8.044-7.585,10.721-16.953,15.614-15.183,15.614-15.183c25-10.708,43.75,3.569,48.657,11.168,0,0,14.171,6.082,19.97,9.651,2.915,1.785,11.272,4.966,18.931,7.7,7.628,2.735,14.557,5.026,14.557,5.026,21.861.118,34.873,5.427,52.732,5.4,21.889-.015,74.754-5.621,92.435-2.453a43.465,43.465,0,0,1,9.919,3.019c.015-.015,12.669-4.358,21.055-14.975a32.717,32.717,0,0,0,7.228-23.035c-1.785-27.688,32.136-49.222,52.374-36.061C1517.6,894.845,1520.318,898.088,1521.063,900.63Z" transform="translate(0.294 0)" fill="#c5906e"/>
        <path id="Path_920" data-name="Path 920" d="M1144.762,937.585s-1.991.209-2.213,4.227.968,6.026,2.213,6.026,3.477-3.572,4.7-5.691S1149.543,936.7,1144.762,937.585Z" transform="translate(0 23.241)" fill="#6a4c33"/>
        <path id="Path_921" data-name="Path 921" d="M1455.171,989.456c-2.5,21.452-13.042,35.994-35.031,39.065-25.542,3.57-61.466,11.311-94.013,13.1s-71.286-2.972-83.659-21.425c-3.276-4.883-6.231-9.311-8.7-13.6a62.894,62.894,0,0,1-5.8-12.74c-4.214-14.32-25.621-23.756-33.933-26.934a13.827,13.827,0,0,1-3.313-1.187c-9.374-4.911-26.336-3.572-32.808-3.572-5.464,0-9.811-5.088-12.373-10.962,2.874,1.5,8.1,3.035,17.605,3.428,20.086.839,26.7,2.677,34.1-3.376s3.392,2.428,8.748,9.124,18.749,16.962,23.658,18.3,1.785,19.167,11.159,23.649,40.619-3.661,40.619-3.661,8.927,15.364,45.083,18.668,74.543-4.482,80.793-18.668,31.719-22.549,39.967-16.577A60.3,60.3,0,0,1,1455.171,989.456Z" transform="translate(1.392 28.666)" fill="#95694f"/>
        <path id="Path_922" data-name="Path 922" d="M1422.269,903.91a12.542,12.542,0,0,1-8.267-2.573c-8.327-6.662-29.459-1.576-30.649,17.741-.579,9.665-2.186,21.65-6.855,31.659-4.668,9.993-12.417,18.009-25.339,19.7a41.975,41.975,0,0,1,11.421,19.435c-7-1.07-11.361-2.051-11.361-2.051s-2.231-12.149-5.8-16.566-4.3-4.863,10.513-8.12c7.479-1.636,11.332-7.063,13.994-14.633.326-.921.639-1.889.936-2.87,1.161-3.881,2.113-8.209,3.154-12.8.222-1,.446-1.993.684-3,.521-2.335,1.085-4.729,1.725-7.153.073-.311.148-.61.237-.921.06-.253.134-.491.193-.729a72.129,72.129,0,0,1,4.953-13.443c2.528-4.966,5.516-8.52,9.159-10.8a20.155,20.155,0,0,1,2.246-1.2,24.069,24.069,0,0,1,10.782-1.918c.148,0,.312.015.461.015a21.308,21.308,0,0,1,3.405.431c5.606,1.159,9.25,4.238,12.313,5.858,2.945,1.576,5.354,1.785,8.448-2.335C1429.72,901.441,1426.389,903.716,1422.269,903.91Z" transform="translate(92.736 3.011)" fill="#95694f"/>
        <g id="Group_109" data-name="Group 109" transform="translate(1164.532 945.456)">
          <path id="Path_923" data-name="Path 923" d="M1157.577,936.909a24.827,24.827,0,0,1,3.57-7.722c2.678-3.844,6.919-1.439,10.044,0s-.224,1.885-1.339,4.341-2.9,4.086-6.472,3.382S1161.371,933.82,1157.577,936.909Z" transform="translate(-1157.577 -926.986)" fill="#1a1818"/>
          <path id="Path_924" data-name="Path 924" d="M1160.073,928.558a8.961,8.961,0,0,0,0,5.985c1.191,2.933,4.4,2.748,5.588,2.566s3.208-3.3,3.023-6.322S1163.739,925.322,1160.073,928.558Z" transform="translate(-1156.669 -927.026)" fill="#d0ae4c"/>
          <ellipse id="Ellipse_21" data-name="Ellipse 21" cx="1.202" cy="3.222" rx="1.202" ry="3.222" transform="translate(5.054 1.533)" fill="#1a1818"/>
          <path id="Path_925" data-name="Path 925" d="M1162.7,929.685a1.358,1.358,0,1,0-1.333,1.611A1.492,1.492,0,0,0,1162.7,929.685Z" transform="translate(-1156.443 -926.542)" fill="#fff"/>
        </g>
        <path id="Path_926" data-name="Path 926" d="M1178.637,926.529s-3.572-15.623,0-25,9.82-.1,16.962,11.778,11.159,25.716,8.927,31.519S1184.439,943.938,1178.637,926.529Z" transform="translate(15.951 4.878)" fill="#c5906e"/>
        <path id="Path_927" data-name="Path 927" d="M1178.87,923.055s-.892-12.944,0-17.409,1.192-9.076,5.952-2.529,9.225,24.848,8.779,29.163-3.164,3.422-3.164,3.422S1183.483,935.4,1178.87,923.055Z" transform="translate(16.609 5.879)" fill="#e4c7b7"/>
        <path id="Path_928" data-name="Path 928" d="M1417.053,906.921a9.332,9.332,0,0,1-2.1-3.942c-.848-2.735-1.368-5.829-3.6-7.807-1.74-1.531-6.127-4-8.327-1.754-1.012,1.026-.684,2.364-.387,3.7.267,1.352.506,2.692-.714,3.7a22.7,22.7,0,0,1-2.691-4.133,8.014,8.014,0,0,0-1.294-1.651c-2.677-2.5-.981-1.428-4.655-1.711-8.074-.624-5.636.863-5.294,5.265a10.946,10.946,0,0,1-.015,2.1,3.645,3.645,0,0,1-2.231-.892c-1.547-1.221-2.409-3.376-4.357-3.792-2.067-.431-4.342,1.441-6.142,2.349-.535,4.268,2.052,8.164,1.339,12.238-3.228-.431-3.7-4.892-7.57-2.855-.981.521-2.988,4.462-3.227,5.651-.238,1.2.193,5.785.833,6.811,1.145,1.858,3.583,2.275,5.01,3.836a4.137,4.137,0,0,1,1,1.918q-.713-.112-1.427-.267a15.613,15.613,0,0,0-5.874-.579c-.477,4.164,2.14,5.769,4.149,7.732a6.154,6.154,0,0,1,2.14,4.029,13.43,13.43,0,0,1-2.824-1.026c-2.959-1.412-3.911-2.8-5.518,2.1-1.472,4.49-.773,5.873,2.038,10.2.118.178.222.342.326.506,2.351,3.747,1.279,3.7-.936,2.87a39.842,39.842,0,0,0-4.893-1.71,7.3,7.3,0,0,0-5.265.387,32.716,32.716,0,0,0,7.228-23.035c-1.785-27.688,32.136-49.222,52.374-36.061,5.785,3.747,8.506,6.99,9.25,9.532v.015C1424.5,904.452,1421.173,906.727,1417.053,906.921Z" transform="translate(97.952 0)" fill="#95694f"/>
        <path id="Path_929" data-name="Path 929" d="M1256.707,1016.935c-4.465,19.194-29.684,68.517-30.577,70.749s-5.355,7.07-14.506,7.213-16.374,2.464-12.455-6.017a11.179,11.179,0,0,1,9.927-4.7c8.33.6,7.142-13.087,11.972-25.818s8.409-38.52,8.409-38.52c-11.757-11.972-16.81-29.095-16.81-29.095-5.669-21.247,24.256-23.39,39.834-13.016l.009.009C1252.716,978.236,1261.116,997.982,1256.707,1016.935Z" transform="translate(25.666 39.065)" fill="#c5906e"/>
        <path id="Path_930" data-name="Path 930" d="M1414.382,1102.987c-3.572,5.5-21.427,2.526-21.427-1.491s7.589-3.572,6.25-9.374-12.5-29.46-17.409-33.478-23.21-6.694-46.422-27.889c-22.818-20.836-12.579-60.277-12.221-61.6v-.009c7.694-13.6,23.63-18.123,36.476-15.551,17.855,3.57,17.855,26.193,20.229,47.618s5.357,38.084,10.713,42.923,8.927,16,14.284,29.084S1413.194,1094.647,1414.382,1102.987Z" transform="translate(82.247 30.387)" fill="#c5906e"/>
        <path id="Path_931" data-name="Path 931" d="M1254.072,1038.833c-8.927,17.854-17.264,35.111-21.425,45.824s-1.785,12.5-12.5,12.5-21.425,1.189-22.621-2.972c-.554-1.946.187-4.794,1.981-7.214-3.919,8.481,3.313,6.169,12.455,6.018s13.614-4.982,14.506-7.213,26.112-51.555,30.577-70.749c4.409-18.953-3.991-38.7-4.2-39.191,4.052,2.7,7.133,6.249,8.364,10.525C1267.159,1007.086,1263,1020.978,1254.072,1038.833Z" transform="translate(25.328 40.977)" fill="#95694f"/>
        <path id="Path_932" data-name="Path 932" d="M1394.546,1102.771c-11.605,0-7.437-11.471-1.322-13.846s-10.882-22.023-12.668-27.014-20.827-8.105-42.85-26.8-18.444-50.939-18.444-50.939c-.169-8.168,1.581-14.846,4.589-20.149-.358,1.322-10.6,40.763,12.22,61.6,23.212,21.194,41.513,23.872,46.422,27.889s16.07,27.675,17.409,33.478-6.25,5.357-6.25,9.374,17.855,6.99,21.427,1.491C1416.267,1106.181,1406.151,1102.771,1394.546,1102.771Z" transform="translate(81.55 35.521)" fill="#95694f"/>
        <g id="Group_110" data-name="Group 110" transform="translate(1156.879 924.782)">
          <path id="Path_933" data-name="Path 933" d="M1157.682,938.171c3.828.879,6.4,7.83,9.862,10.181,2.651,1.8,8.616,3.684,11.383,1.345-4.611-1.585-9.061-1.526-13.219-5.21C1163.026,942.111,1161.005,937.5,1157.682,938.171Z" transform="translate(-1149.875 -901.234)" fill="#95694f"/>
          <path id="Path_934" data-name="Path 934" d="M1169.489,930.237c-.718.178-.041.373-.364,1.531,2.509,1.605,3.665,6.557,5.939,9.153,2.76,3.152,6.039,2.583,9.637,3.421-2.654-1.94-6.519-1.988-9.057-4.763C1173.091,936.787,1172.3,932.619,1169.489,930.237Z" transform="translate(-1144.589 -904.869)" fill="#95694f"/>
          <path id="Path_935" data-name="Path 935" d="M1157.467,939.194h-2.582c4.727,3.247,20.779-1.447,20.753-8.131-3.428.833-5.37,4.946-8.392,6.737a11.2,11.2,0,0,1-5.855,1.395C1160.09,939.252,1158.77,939.194,1157.467,939.194Z" transform="translate(-1151.167 -904.488)" fill="#95694f"/>
          <path id="Path_936" data-name="Path 936" d="M1152.342,941.71c2.307,3.238,5.895,4.363,9.6,5.531a4.008,4.008,0,0,1,.3-1c-2.677-1.428-5.617-2.572-8.411-3.789Z" transform="translate(-1152.342 -899.569)" fill="#95694f"/>
          <path id="Path_937" data-name="Path 937" d="M1158.117,923.011c-1.408.7-2.424,5.126.529,4.061,1.852-.668,1.613-3.82.586-4.434Z" transform="translate(-1150.31 -908.38)" fill="#95694f"/>
          <path id="Path_938" data-name="Path 938" d="M1160.513,917.833c-2.2,1.188-5.8,4.617-5.882,7.4v1.114c1.052-1.325,1.095-3.028,2.427-4.45C1158.359,920.5,1160.764,920.424,1160.513,917.833Z" transform="translate(-1151.285 -910.6)" fill="#95694f"/>
          <path id="Path_939" data-name="Path 939" d="M1168.885,917.289l1.487.371c3.94.229,6.966,2.468,10.725,2.936a14.9,14.9,0,0,0,.453-3.177c-4.656,2.729-10.2-4.442-14.32-.494C1168.038,916.693,1168.568,917.258,1168.885,917.289Z" transform="translate(-1145.464 -911.58)" fill="#95694f"/>
          <path id="Path_940" data-name="Path 940" d="M1213.469,1040.256a11.477,11.477,0,0,0-1.115,1.412l.5,1.982c2.256,3.054,7.266,4.443,11.819,4.893C1224.757,1045.728,1216.224,1041.679,1213.469,1040.256Z" transform="translate(-1124.618 -854.043)" fill="#95694f"/>
          <path id="Path_941" data-name="Path 941" d="M1222.619,1038.829c-1.87-2.278-6.395-6.105-8.909-3.42l.5.991C1217.042,1037.093,1219.726,1038.348,1222.619,1038.829Z" transform="translate(-1123.992 -856.707)" fill="#95694f"/>
          <path id="Path_942" data-name="Path 942" d="M1217.44,1029.761l.991,1.487c3.726,1.038,8.1,3.272,12.858,2.9C1228.941,1030.752,1221.162,1028.9,1217.44,1029.761Z" transform="translate(-1122.269 -858.99)" fill="#95694f"/>
          <path id="Path_943" data-name="Path 943" d="M1209.616,1049.064l-.991,1.982c2.076.475,4.267,1.208,6.425.89C1213.739,1050.076,1211.6,1048.424,1209.616,1049.064Z" transform="translate(-1126.341 -850.039)" fill="#95694f"/>
          <path id="Path_944" data-name="Path 944" d="M1217.44,1019.6l.5,2.478c4.5,2.876,13.82,2.214,19.253,2.9C1237.187,1020.062,1221.629,1018.725,1217.44,1019.6Z" transform="translate(-1122.269 -863.701)" fill="#95694f"/>
          <path id="Path_945" data-name="Path 945" d="M1220.491,1009.647c.771,1.175,11.177,2.617,13.574,2.893,2.747.314,5.573.032,7.463-2.036C1237.334,1009.8,1223.523,1004.982,1220.491,1009.647Z" transform="translate(-1120.859 -869.112)" fill="#95694f"/>
          <path id="Path_946" data-name="Path 946" d="M1214.049,997.364l1.984,1.982c.754.7,3.146.877,5.057.893a46.917,46.917,0,0,1,10.766.839c4.362.922,8.472.509,12.908.149C1238.746,997.657,1220,993.005,1214.049,997.364Z" transform="translate(-1123.835 -874.674)" fill="#95694f"/>
          <path id="Path_947" data-name="Path 947" d="M1230.292,990.971c-3.469-.708-6.466-4.186-10.14-2.5l3.966,2.479c1.809,4.167,5.794,2.224,9.324,1.972,3.791-.269,8.092,1.443,11.469.516C1241.481,989.56,1234.9,991.909,1230.292,990.971Z" transform="translate(-1121.016 -878.177)" fill="#95694f"/>
          <path id="Path_948" data-name="Path 948" d="M1225.883,986.721c-1.778-5.319-11.351-4.446-15.7-5.33-1.8-.365-5.814-1.45-6.827.512-.994,1.921.785,4.039,2.873,2.488,1.922-.276,7.02,1.488,10.168,1.487C1219.692,985.876,1223.126,985.672,1225.883,986.721Z" transform="translate(-1128.905 -881.528)" fill="#95694f"/>
          <path id="Path_949" data-name="Path 949" d="M1217.392,972.138c.811.414,2.136,1.779,2.548,1.982l1.487-1.487c2.765-1.917,7.9,3.523,11.687,3.188,2.708-.24,7.145-2.49,7.6-5.2-3.066-2.686-7.224,1.525-10.695,1.536C1226.259,972.177,1220.19,968.816,1217.392,972.138Z" transform="translate(-1122.291 -886.624)" fill="#95694f"/>
          <path id="Path_950" data-name="Path 950" d="M1188.282,913.636l1.982.991a39.7,39.7,0,0,1,1.56,10.345C1196.953,923.806,1192.912,909.49,1188.282,913.636Z" transform="translate(-1135.739 -912.885)" fill="#95694f"/>
          <path id="Path_951" data-name="Path 951" d="M1192.316,942.3l1.487.993c4.206,1.794,2.827,7.247,6.468,9.241.877-2.988-.459-8.352-2.861-10.838C1195.363,939.58,1188.935,938.806,1192.316,942.3Z" transform="translate(-1134.321 -900.408)" fill="#95694f"/>
          <path id="Path_952" data-name="Path 952" d="M1204.362,934.707l-1.487-1.982c-2.173.066-2.551,1.646-1.908,3.79C1202.913,937.216,1204.245,936.766,1204.362,934.707Z" transform="translate(-1130.009 -903.72)" fill="#95694f"/>
          <path id="Path_953" data-name="Path 953" d="M1213.26,938.62l-1.487-1.487C1204.773,939.95,1215.174,946.9,1213.26,938.62Z" transform="translate(-1126.02 -901.683)" fill="#95694f"/>
          <path id="Path_954" data-name="Path 954" d="M1211.151,953.123c.883-1.253.643-2.194.1-3.406l-1.982-2.974c-2.218-1-4.99.026-3.964,3.265C1206.031,952.3,1209.1,952.68,1211.151,953.123Z" transform="translate(-1127.976 -897.415)" fill="#95694f"/>
          <path id="Path_955" data-name="Path 955" d="M1222.923,960.111l-3.469-2.974C1209.891,959.394,1225.346,969.991,1222.923,960.111Z" transform="translate(-1122.796 -892.442)" fill="#95694f"/>
          <path id="Path_956" data-name="Path 956" d="M1220.518,953.183c2.449.9,4.819.171,4.955-2.376l-3.966-3.471C1218.374,946.433,1216.651,951.766,1220.518,953.183Z" transform="translate(-1121.875 -897.017)" fill="#95694f"/>
          <path id="Path_957" data-name="Path 957" d="M1218.609,936.038l-3.469-2.974C1210.059,939.853,1221.689,941.266,1218.609,936.038Z" transform="translate(-1123.933 -903.563)" fill="#95694f"/>
          <path id="Path_958" data-name="Path 958" d="M1205.487,956.459l-3.965,2.478c-.439-.057.023-.877-.906-.453C1198.462,968.393,1212.981,959.529,1205.487,956.459Z" transform="translate(-1130.143 -892.755)" fill="#95694f"/>
          <path id="Path_959" data-name="Path 959" d="M1257.916,979.062c-.1-3.7.146-7.336-3.469-9.38l-.993,3.965c-4.209,11.228,2.338,20.557,10.83,27.149.96-5.136-2.864-8.14-4.879-12.251C1257.732,985.125,1258.014,982.9,1257.916,979.062Z" transform="translate(-1106.237 -886.647)" fill="#95694f"/>
          <path id="Path_960" data-name="Path 960" d="M1250.822,954.424l-.991,1.488c-1.417,2.161.063,6.956,1.623,9.383C1254.4,963.17,1254.512,956.078,1250.822,954.424Z" transform="translate(-1107.569 -893.695)" fill="#95694f"/>
          <path id="Path_961" data-name="Path 961" d="M1242.039,966.291l-.5,2.478c.361,5.958-1.529,10.808,3,15.487C1245.613,981.265,1245.8,968.54,1242.039,966.291Z" transform="translate(-1111.177 -888.213)" fill="#95694f"/>
          <path id="Path_962" data-name="Path 962" d="M1246.733,953.23c.143-1.89-8.167-9.612-10.332-10.333l-.991,2.478C1240.887,950.189,1238.657,953.549,1246.733,953.23Z" transform="translate(-1113.967 -899.021)" fill="#95694f"/>
          <path id="Path_963" data-name="Path 963" d="M1250.452,946.783l-2.478-.5C1240.694,948.6,1254.089,953.622,1250.452,946.783Z" transform="translate(-1109.181 -897.454)" fill="#95694f"/>
          <path id="Path_964" data-name="Path 964" d="M1233.877,963.106c.052-3.437.567-11.637-2.551-13.808-1.006.25.026.547-.484,1.051l-.5,2.478C1230.3,956.842,1229.589,961.291,1233.877,963.106Z" transform="translate(-1116.339 -896.063)" fill="#95694f"/>
          <path id="Path_965" data-name="Path 965" d="M1271.158,983.254c-3.885-.515-5.146,5.279-1.6,5.981,2.621.519,3.547-2.45,3.082-4.494Z" transform="translate(-1099.156 -880.392)" fill="#95694f"/>
          <path id="Path_966" data-name="Path 966" d="M1266.385,971.038c-10.188.2,4.678,12.766,2.479,3.469Z" transform="translate(-1101.323 -886.02)" fill="#95694f"/>
          <path id="Path_967" data-name="Path 967" d="M1267.506,963.549l-2.478-2.479c-2.667-1.595-7.326-.211-5.212,4C1261.7,968.828,1267.651,968.072,1267.506,963.549Z" transform="translate(-1102.939 -890.923)" fill="#95694f"/>
          <path id="Path_968" data-name="Path 968" d="M1268.041,951.936c-2.475-2.689-3.74,2.979-3.431,5.288,2.626.968,4.7-.5,4.422-3.306Z" transform="translate(-1100.499 -895.172)" fill="#95694f"/>
          <path id="Path_969" data-name="Path 969" d="M1275.391,968.285l-.5-3.965C1266.552,962.16,1274.8,978.581,1275.391,968.285Z" transform="translate(-1097.44 -889.215)" fill="#95694f"/>
          <path id="Path_970" data-name="Path 970" d="M1279.6,979.5c-1.479-2.335-4.016-.437-3.535,2.614.68,4.332,6.168,4.332,5.517-.632Z" transform="translate(-1095.211 -882.591)" fill="#95694f"/>
          <path id="Path_971" data-name="Path 971" d="M1261.258,945.384l-1.433-1.433c-.24.057-1.63.063-1.958.12C1257.242,947.034,1260.312,947.92,1261.258,945.384Z" transform="translate(-1103.631 -898.534)" fill="#95694f"/>
          <path id="Path_972" data-name="Path 972" d="M1259.143,943.914l.054.054C1259.257,943.953,1259.266,943.936,1259.143,943.914Z" transform="translate(-1103.003 -898.551)" fill="#95694f"/>
          <path id="Path_973" data-name="Path 973" d="M1286.762,962.556c-3.278-3.319-6.329,2.006-3.924,5,1.9,2.367,5.906,2,5.411-1.526Z" transform="translate(-1092.455 -890.425)" fill="#95694f"/>
          <path id="Path_974" data-name="Path 974" d="M1286.615,986.341c.594,6.645,10.6,9.49,10.411,1.389l-3.966-6.94C1289.161,978.148,1286.264,982.417,1286.615,986.341Z" transform="translate(-1090.325 -881.893)" fill="#95694f"/>
          <path id="Path_975" data-name="Path 975" d="M1298.446,974.961c-2.577-1.484-5.052-.222-3.928,3.2,1.219,3.716,6.9,2.18,5.911-.228Z" transform="translate(-1086.789 -884.491)" fill="#95694f"/>
          <path id="Path_976" data-name="Path 976" d="M1286.248,972.7l-1.487-1.982C1278.935,969.848,1283.833,977.815,1286.248,972.7Z" transform="translate(-1092.435 -886.198)" fill="#95694f"/>
          <path id="Path_977" data-name="Path 977" d="M1305.6,960.677c-3.418-2-6.937,2.782-4.669,5.727,1.864,2.426,7.367.987,6.156-1.76Z" transform="translate(-1084.03 -891.026)" fill="#95694f"/>
          <path id="Path_978" data-name="Path 978" d="M1314.11,973.271c-3.058-1.727-6,.251-5.421,3.965.933,5.987,11.028,4.374,8.4.5Z" transform="translate(-1080.148 -885.28)" fill="#95694f"/>
          <path id="Path_979" data-name="Path 979" d="M1322.329,958.242l-2.479-.991c-.108-.475.045-.942-.075-1.433-6.952,1.978,5.577,8.794,3.471.9A1.623,1.623,0,0,0,1322.329,958.242Z" transform="translate(-1075.973 -893.051)" fill="#95694f"/>
          <path id="Path_980" data-name="Path 980" d="M1317.407,966.576l.991-2.974C1310.662,957.957,1316.187,975.483,1317.407,966.576Z" transform="translate(-1077.496 -889.985)" fill="#95694f"/>
          <path id="Path_981" data-name="Path 981" d="M1329.422,968.059c-2.526-1.314-4.937,3.358-2.515,4.855s4.346-1.276,4-3.367Z" transform="translate(-1072.161 -887.503)" fill="#95694f"/>
          <path id="Path_982" data-name="Path 982" d="M1295.859,949.252l-3.967-3.469C1285.027,942.179,1292.649,957.8,1295.859,949.252Z" transform="translate(-1089.157 -897.942)" fill="#95694f"/>
          <path id="Path_983" data-name="Path 983" d="M1281.477,955.3l-.5-1.982C1278.077,947.633,1274.231,957.008,1281.477,955.3Z" transform="translate(-1094.603 -895.063)" fill="#95694f"/>
          <path id="Path_984" data-name="Path 984" d="M1309.357,950a5.351,5.351,0,0,0,.572-1.9l-.991-1.983C1304.031,943.432,1302.673,951.348,1309.357,950Z" transform="translate(-1081.913 -897.789)" fill="#95694f"/>
          <path id="Path_985" data-name="Path 985" d="M1320.044,948.747c1.615,1.684,4.54.127,5-1.559l-.5-1.982C1322.054,942.729,1317.462,946.054,1320.044,948.747Z" transform="translate(-1075.221 -898.356)" fill="#95694f"/>
          <path id="Path_986" data-name="Path 986" d="M1333.126,946.437l-1.487-2.478c-1.5-.608-2.042.816-1.943,2.923C1331.255,947.782,1331.964,947.318,1333.126,946.437Z" transform="translate(-1070.414 -898.595)" fill="#95694f"/>
          <path id="Path_987" data-name="Path 987" d="M1315.65,951.5l-1.983-1.487c-.65.07-1.267-.037-1.908.074C1311.373,952.868,1314.049,953.03,1315.65,951.5Z" transform="translate(-1078.713 -895.731)" fill="#95694f"/>
          <path id="Path_988" data-name="Path 988" d="M1341.08,951.745l-.991-2.975c-2.756-1.627-9.418,2.869-4.254,5.428C1338.547,955.543,1341.87,953.636,1341.08,951.745Z" transform="translate(-1068.454 -896.468)" fill="#95694f"/>
          <path id="Path_989" data-name="Path 989" d="M1304.247,952.189l-2.974-1.487c-2.317-.3-4.576,2.5-2.936,4.494C1300.657,958.018,1304.423,954.934,1304.247,952.189Z" transform="translate(-1085.155 -895.425)" fill="#95694f"/>
          <path id="Path_990" data-name="Path 990" d="M1300.336,940l-1.487-.5a16.426,16.426,0,0,1-4.408.573C1295.08,946.379,1304.761,943.475,1300.336,940Z" transform="translate(-1086.696 -900.587)" fill="#95694f"/>
          <path id="Path_991" data-name="Path 991" d="M1319.582,944.26l-.991-2.479C1312.458,938.066,1315.164,949.415,1319.582,944.26Z" transform="translate(-1077.193 -899.888)" fill="#95694f"/>
          <path id="Path_992" data-name="Path 992" d="M1271.986,944.234a3.486,3.486,0,0,0,4.026,1.485l.5-1.487A3.042,3.042,0,0,0,1271.986,944.234Z" transform="translate(-1097.07 -898.869)" fill="#95694f"/>
          <path id="Path_993" data-name="Path 993" d="M1246.3,939.513a8.791,8.791,0,0,0-4.408.956c.563,2.576,4.863,2.781,5.895,1.026Z" transform="translate(-1110.974 -900.594)" fill="#95694f"/>
          <path id="Path_994" data-name="Path 994" d="M1329.415,992.257l-.991-1.982C1319.932,985.96,1329.19,1001.166,1329.415,992.257Z" transform="translate(-1072.65 -877.498)" fill="#95694f"/>
          <path id="Path_995" data-name="Path 995" d="M1333.918,979.938c-3.757-1.738-5.478,5.469-1.633,6.873,3.765,1.374,5-3.028,3.121-5.386Z" transform="translate(-1070.215 -882.033)" fill="#95694f"/>
          <path id="Path_996" data-name="Path 996" d="M1340.274,973.359l-.991-1.982C1333.743,971.387,1338.78,979.595,1340.274,973.359Z" transform="translate(-1067.153 -885.864)" fill="#95694f"/>
          <path id="Path_997" data-name="Path 997" d="M1348.17,972.372a4.166,4.166,0,0,0,.572-1.93l-.991-3.471C1343.844,966.733,1344.907,972.122,1348.17,972.372Z" transform="translate(-1063.227 -887.902)" fill="#95694f"/>
          <path id="Path_998" data-name="Path 998" d="M1340.019,965.434l.5-2.478C1333,957.38,1337.03,972.73,1340.019,965.434Z" transform="translate(-1067.394 -890.33)" fill="#95694f"/>
          <path id="Path_999" data-name="Path 999" d="M1344.582,992.223l-2.478-1.982C1335.171,986.366,1342.695,1000.657,1344.582,992.223Z" transform="translate(-1066.007 -877.464)" fill="#95694f"/>
          <path id="Path_1000" data-name="Path 1000" d="M1342.217,1004.381l-.5-4.462C1331.685,997.642,1339.827,1016.092,1342.217,1004.381Z" transform="translate(-1067.112 -872.769)" fill="#95694f"/>
          <path id="Path_1001" data-name="Path 1001" d="M1346.033,1002.109c2.835.286,8.165-1.775,10.789-2.936.88-3.156-1.485-4.45-3.917-2.392l-2.478.991C1347.543,997.149,1345.27,999.023,1346.033,1002.109Z" transform="translate(-1062.931 -874.587)" fill="#95694f"/>
          <path id="Path_1002" data-name="Path 1002" d="M1361.54,984.564c-.427-.766-.8-.649-1.449-.981l-1.983.5c-3.478-.578-6.744.673-7.392,4.421C1353.752,988.906,1360.74,987.517,1361.54,984.564Z" transform="translate(-1060.698 -880.225)" fill="#95694f"/>
          <path id="Path_1003" data-name="Path 1003" d="M1342.707,1016.659l-.5,3.965c3.188,2.056,17.665-5.069,16.788-8.843C1355.211,1011.637,1344.98,1013.365,1342.707,1016.659Z" transform="translate(-1064.628 -867.202)" fill="#95694f"/>
          <path id="Path_1004" data-name="Path 1004" d="M1354.417,1024.887l.5,1.983c6.021-.206,9.19-3.29,10.405-9.3C1361.638,1018.158,1356.98,1022.408,1354.417,1024.887Z" transform="translate(-1058.989 -864.525)" fill="#95694f"/>
          <path id="Path_1005" data-name="Path 1005" d="M1371.3,1025.625h-.991c-4.268.36-8.674,2.421-8.433,7.305,2.3-.485,16.392-1.716,17.38-3.111C1381.479,1026.679,1372.653,1026.672,1371.3,1025.625Z" transform="translate(-1055.548 -860.803)" fill="#95694f"/>
          <path id="Path_1006" data-name="Path 1006" d="M1378.755,1037.353l-1.982-.5c-2.466-1.925-7.086-1.738-7.443,1.895,3.807.939,8.387,3.14,11.828,4.507A7.479,7.479,0,0,0,1378.755,1037.353Z" transform="translate(-1052.1 -856.173)" fill="#95694f"/>
          <path id="Path_1007" data-name="Path 1007" d="M1356.5,1009.643c4.667,1.159,4.9-2.458,8.855-2.887,0-2.367-1.681-3.572-3.925-3.507l-2.48.991C1356.728,1004.695,1356.187,1007.464,1356.5,1009.643Z" transform="translate(-1058.066 -871.141)" fill="#95694f"/>
          <path id="Path_1008" data-name="Path 1008" d="M1361.062,970.3c-1.3-2.539-2.977-4.642-5.9-5.365l-1.487.5a4,4,0,0,0-1.956,2.874C1354.643,969.347,1358.075,971.8,1361.062,970.3Z" transform="translate(-1060.234 -888.84)" fill="#95694f"/>
        </g>
      </g>
    </g>
  </g>
</svg>
