<svg xmlns="http://www.w3.org/2000/svg" width="492" height="492" viewBox="0 0 492 492">
  <g id="Group_59" data-name="Group 59" transform="translate(-130 -249)">
    <g id="Group_76" data-name="Group 76">
      <g id="Group_105" data-name="Group 105">
        <g id="Component_1_2" data-name="Component 1 – 2" transform="translate(130 249)">
          <g id="Group_53" data-name="Group 53">
            <circle id="Ellipse_7" data-name="Ellipse 7" cx="246" cy="246" r="246" fill="#b7ebe7"/>
          </g>
        </g>
        <g id="Group_112" data-name="Group 112" transform="translate(-997.637 135.202)">
          <path id="Path_1009" data-name="Path 1009" d="M1349.632,375.415a11.461,11.461,0,0,0-4.709,3.858c-7.855,12.307-41.8,20.3-47.021,9.67-5.19-10.635-25.978-12.762-28.645-35.45-2.637-22.689,3.375-34.741,3.375-34.741A176.261,176.261,0,0,0,1240.9,299.5c3.6-2.185,7.4-4.339,11.259-6.381,6.3,4.934,15.684,10.181,28.531,15.711,0,0,14.152-4.935,17.215,7.459,3.092,12.393,6.693,14.52,19.8,6.721,13.074-7.8,8.819-9.927,13.074-.71s15.739,8.622,10.01,37.294C1338.94,368.75,1343,373.544,1349.632,375.415Z" transform="translate(23.844 40.821)" fill="#fff"/>
          <path id="Path_1010" data-name="Path 1010" d="M1371.427,382.137c-9.615-1.106-17.868-2.806-21.158-5.473-7.8-6.409-3.573-22.349-3.573-22.349s-8.622-.821-19.229-.849c5.615-2.412,10.125-5.275,12.168-8,8.507-11.344,11.6-11.372,15.371-20.561,3.772-9.217,12.762-6.381,12.166,14.888C1366.746,355.451,1366.6,375.047,1371.427,382.137Z" transform="translate(79.502 58.063)" fill="#fff"/>
          <path id="Path_1011" data-name="Path 1011" d="M1426.515,371.521s-23.4-6.381-38.229-6.665c-6.636-.113-17.555-.368-28.331-1.162,9.5-5.673,7.912-15.429,28.331-13.444C1410.209,352.377,1423.679,350.25,1426.515,371.521Z" transform="translate(100.39 77.387)" fill="#fff"/>
          <path id="Path_1012" data-name="Path 1012" d="M1320.208,386.966c-4.963,12.762-9.927,9.219-44.668,9.219s-35.449-5.673-39.164-17.018c6.89,13.812,23.226,12.394,27.481,10.295,4.254-2.154,0-7.827-6.411-11.627-4.508-2.694-9.471-9.614-12-13.443a25.651,25.651,0,0,1,3.205-1.249C1281.3,349.22,1325.171,374.206,1320.208,386.966Z" transform="translate(20.937 83.21)" fill="#878787"/>
          <path id="Path_1013" data-name="Path 1013" d="M1510.226,412.91a33,33,0,0,1-2.466,7.2c-5.049,1.191-8.537-.056-9.1-4.367-2.836-21.271-16.306-19.143-38.229-21.271-21.894-2.126-18.491,9.219-30.544,14.606-12.053,5.417-12.053-23.113-11.458-44.384s-8.394-24.105-12.166-14.888c-3.772,9.189-6.864,9.217-15.371,20.561s-60.266,25.523-54.51-3.12c5.729-28.672-5.757-28.078-10.01-37.295s0-7.089-13.074.71c-13.1,7.8-16.7,5.671-19.8-6.721-3.062-12.394-17.215-7.459-17.215-7.459-12.847-5.53-22.235-10.778-28.531-15.711,15.343-8.169,31.651-14.663,40.415-15.4,21.808-1.814,26.374,30.176,52.352,9.841,25.95-20.3,99.772-20.335,133.521,11.827C1507.788,339.172,1514.026,396.829,1510.226,412.91Z" transform="translate(28.25 33.162)" fill="#0d0d0d"/>
          <path id="Path_1014" data-name="Path 1014" d="M1522,409.956c-5.076,10.607-16.109,14.55-42.91,14.55h-177.2c-47.675,0-56.295-35.933-60.89-67.13-4.566-31.2-12.876-33.067-12.876-33.067-8.224-4.709,4.765-16.449,22.6-27.31a176.261,176.261,0,0,1,31.735,19.257s-6.011,12.052-3.375,34.741c2.667,22.687,23.455,24.815,28.645,35.45,5.218,10.635,39.166,2.637,47.021-9.67a11.461,11.461,0,0,1,4.709-3.858h.028c9.133,2.609,23.142-.255,33.465-4.707,10.607.028,19.229.849,19.229.849s-4.226,15.94,3.573,22.349c3.289,2.666,11.543,4.367,21.158,5.473,1.672,2.553,4.027,3.46,7.2,2.042a20.237,20.237,0,0,0,2.213-1.162c10.776.794,21.7,1.048,28.331,1.162,14.833.284,38.229,6.665,38.229,6.665C1513.463,409.9,1516.951,411.147,1522,409.956Z" transform="translate(14.01 43.318)" fill="#bdbdbd"/>
          <path id="Path_1015" data-name="Path 1015" d="M1354.224,357.794c3.035.37,6.21.652,9.416.881a20.237,20.237,0,0,1-2.213,1.162C1358.251,361.254,1355.9,360.347,1354.224,357.794Z" transform="translate(96.705 82.406)" fill="#1a1818"/>
          <path id="Path_1016" data-name="Path 1016" d="M1264.081,387.37c-4.255,2.1-20.591,3.518-27.481-10.295-2.666-8.026,4.622-12.733,9.074-14.775,2.525,3.828,7.488,10.748,12,13.443C1264.081,379.543,1268.334,385.216,1264.081,387.37Z" transform="translate(20.714 85.303)" fill="#fff"/>
          <path id="Path_1017" data-name="Path 1017" d="M1367.035,349.56c-.4.738-7.26,12.593-19.143,14.89-12.251,2.382-18.292-2.581-26.091,7.346s-17.356,22.546-25.185,25.1c-7.77,2.552-32.556,8.026-30.629-3.744v-.028c3.575-4.424,11.09-7.743,17.216-9.416,9.5-2.637,27.877-21.554,27.877-21.554,3.659-3.6,16.024-7.2,23.369-11.118A40.145,40.145,0,0,0,1367.035,349.56Z" transform="translate(39.906 77.112)" fill="#fff"/>
          <path id="Path_1018" data-name="Path 1018" d="M1482.281,354.024s9.024,20.1.015,33.808-36.411,16.737-59.351,12.033c-60.974-12.506-87.208-5.583-102.1,4.073s-32.768,7.866-27.02-6.128,21.439-28.359,47.98-32.167,48.522.447,77.591,6.118S1477.1,381.663,1482.281,354.024Z" transform="translate(57.166 79.982)" fill="#0d0d0d"/>
          <path id="Path_1019" data-name="Path 1019" d="M1367.2,354.516c-23.4,38.824-55.416,24.077-55.416,24.077,7.345-3.914-10.663-3.261-10.663-16.988s7.344-65.313,52.125-53.034C1375.542,314.7,1374.636,335.146,1367.2,354.516Z" transform="translate(62.567 49.554)" fill="#0d0d0d"/>
          <path id="Path_1020" data-name="Path 1020" d="M1390.631,335.8c-7.487,19.6-21.667,38.116-25.354,39.761-7.345,3.261-22.037,3.913-36.074,14.351-14.011,10.464-16.025,16.334-17.358,19.6-1.332,3.289-12.677,5.246-23.568,5.246-10.919,0-19.171,3.913-22.914-4.594-1.334-3.007-.6-5.758,1.388-8.169-1.927,11.77,22.86,6.3,30.629,3.744,7.829-2.553,17.385-15.172,25.185-25.1s13.84-4.963,26.091-7.346c11.883-2.3,18.746-14.152,19.143-14.89l.028-.028C1375.458,354.577,1383.457,347.714,1390.631,335.8Z" transform="translate(39.14 68.267)" fill="#878787"/>
          <path id="Path_1021" data-name="Path 1021" d="M1242.139,265.754s-18.1-24.107-26.783-27.416-14.353-8.507-10.1,10.871,5.09,35.451,18.141,36.4S1248.3,279.461,1242.139,265.754Z" transform="translate(0 3.539)" fill="#0d0d0d"/>
          <path id="Path_1022" data-name="Path 1022" d="M1303.969,343.91h-.057c-38.315-1.05-27.85-30.148-42.823-32.16-14.975-1.986-20.959-6.495-23.512-19.682-2.552-13.16,1.163-20.052-3.317-17.555-4.51,2.466-8.31,12.307-11,19.4-2.722,7.089-2.013,8.99-10.408,11.428-8.083,2.354-7.912,12.082-7.885,12.82l-.028-.028a138.491,138.491,0,0,1,.34-20.818c1.758-21.639,20.221-35.734,20.221-35.734,17.016-15.6,29.012-7.544,49.516-10.806,20.506-3.289,43.364,6.552,46.879,24.248C1325.239,291.869,1340.242,322.357,1303.969,343.91Z" transform="translate(0.563 13.195)" fill="#0d0d0d"/>
          <path id="Path_1023" data-name="Path 1023" d="M1216.29,285.6a12.829,12.829,0,0,0,1.654-10.635c-1.654-6.381-7.091-5.2-7.091-5.2s-4.254,3.309-3.544,12.526S1216.29,285.6,1216.29,285.6Z" transform="translate(2.198 25.756)" fill="#ffda20"/>
          <path id="Path_1024" data-name="Path 1024" d="M1303.806,334.572c-1.191.4-20.418,6.238-32.1,2.126-12.054-4.254-14.52-12.421-15.059-14.576-.511-2.185-11.543-1.76-21.1-4.339-9.559-2.611-6.834-15-6.834-15s-5.928-2.949-8.453-2.609c-2.551.34-1.73,3.176-.311,11.231,1.388,8.026-2.127,8.28-7.2,8.28-5.1,0-7.374-6.041-7.374-6.041-.227-1.5-.4-3.09-.511-4.792v-.028c-.028-.738-.2-10.465,7.885-12.82,8.4-2.438,7.686-4.339,10.408-11.428,2.694-7.091,6.495-16.932,11-19.4,4.48-2.5.766,4.395,3.317,17.555,2.553,13.188,8.536,17.7,23.512,19.682C1275.956,304.425,1265.491,333.523,1303.806,334.572Z" transform="translate(0.669 22.533)" fill="#fff"/>
          <path id="Path_1025" data-name="Path 1025" d="M1303.661,320.69c-1.871,1.106-3.885,2.183-6.041,3.261-43.9,21.639-82.7-.652-87.378-8.537a41.111,41.111,0,0,1-5.077-15.656s2.269,6.041,7.374,6.041c5.077,0,8.593-.255,7.2-8.28-1.419-8.055-2.241-10.891.311-11.231,2.525-.34,8.453,2.609,8.453,2.609s-2.724,12.393,6.834,15c9.557,2.579,20.589,2.154,21.1,4.339.539,2.156,3,10.323,15.059,14.576,11.685,4.112,30.912-1.73,32.1-2.126Z" transform="translate(0.871 36.415)" fill="#bdbdbd"/>
          <path id="Path_1026" data-name="Path 1026" d="M1219.219,291.9s0,11.448,13.076,15.205c10.72,3.079,17.573-.371,20.024-2.967s4.088,5.563-11.032,5.933-20.427-7.416-20.427-7.416,1.007,5.941-3.9,6.67-5.312-.94-4.9-2.795-.289,2.088,4.7.557,3.072-4.99,2.459-7.769-3.679-6.861-1.635-10.571S1219.219,291.9,1219.219,291.9Z" transform="translate(5.226 37.308)" fill="#1a1818"/>
          <path id="Path_1027" data-name="Path 1027" d="M1232.251,284.068s2.126-12.532,11.934-14.809a12.688,12.688,0,0,1,14.155,5.77s.853,10.178-10.49,13.025S1232.251,284.068,1232.251,284.068Z" transform="translate(18.285 25.223)" fill="#ffda20"/>
          <path id="Path_1028" data-name="Path 1028" d="M1239.935,272s-5.436,6.618,0,12.053C1239.935,284.054,1245.606,279.8,1239.935,272Z" transform="translate(21.671 27.247)" fill="#0d0d0d"/>
          <path id="Path_1029" data-name="Path 1029" d="M1212.4,272.028s-4.977,6.031-1.541,11.954C1210.858,283.982,1215.711,280.318,1212.4,272.028Z" transform="translate(3.753 27.264)" fill="#0d0d0d"/>
          <path id="Path_1030" data-name="Path 1030" d="M1251.648,267.4s7.563-22.216,14.18-31.2,15.274-10.4,20.4,6.145,7.015,41.594,3.708,48.212S1244.085,299.07,1251.648,267.4Z" transform="translate(30.178 0)" fill="#0d0d0d"/>
          <path id="Path_1031" data-name="Path 1031" d="M1253.079,265.7s11.571-27.971,16.674-32.614,11.2.945,13.1,19.38,3.309,23.634-4.727,29.3S1251.178,277.786,1253.079,265.7Z" transform="translate(31.59 1.229)" fill="#a14d50"/>
          <path id="Path_1032" data-name="Path 1032" d="M1212.195,285.884s-3.345,5.668,2.422,9.251,3.982-.039,9.992-4.627S1215.776,280.726,1212.195,285.884Z" transform="translate(4.77 34.795)" fill="#a14d50"/>
        </g>
      </g>
    </g>
  </g>
</svg>
