<svg xmlns="http://www.w3.org/2000/svg" width="358" height="110.856" viewBox="0 0 358 110.856">
  <g id="Group_42" data-name="Group 42" transform="translate(-112 -114.647)">
    <rect id="Rectangle_4" data-name="Rectangle 4" width="358" height="81" rx="30" transform="translate(112 136)" fill="#faf2d9"/>
    <text id="Zen_Cat" data-name="Zen       Cat" transform="translate(155 193)" fill="#680b0b" font-size="55" font-family="QuicksandBook-Regular, Quicksand" letter-spacing="-0.06em"><tspan x="0" y="0" xml:space="preserve">Zen       Cat</tspan></text>
    <g id="Group_12" data-name="Group 12" transform="translate(-1538.978 -783.48)">
      <g id="Group_12-2" data-name="Group 12" transform="translate(1800.183 942.048)">
        <path id="Path_35" data-name="Path 35" d="M1878.715,1949.1l-18.88.182-18.88-.182c0,.349-6.8,27.9-11.04,45.6a15.26,15.26,0,0,0,14.842,18.812h30.157a15.26,15.26,0,0,0,14.842-18.812C1885.519,1977.006,1878.715,1949.452,1878.715,1949.1Z" transform="translate(-1828.229 -1947.843)" fill="#fff"/>
        <path id="Path_36" data-name="Path 36" d="M1855.908,1937.378c-2.067-8.476-3.856-15.807-3.99-16.5a1.261,1.261,0,0,0-1.25-1.1h-.012l-18.867.181-18.868-.181a1.262,1.262,0,0,0-1.262,1.1c-.134.693-1.921,8.024-3.989,16.5-2.2,9.013-4.935,20.23-7.027,28.973a16.521,16.521,0,0,0,16.067,20.366h30.157a16.521,16.521,0,0,0,16.067-20.366C1860.843,1957.607,1858.107,1946.39,1855.908,1937.378Zm-3.979-16.342Zm0,0h0Zm0,0v0Zm-40.281,0Zm0,0h0Zm0,0v0Zm46.211,57.826a13.921,13.921,0,0,1-10.992,5.328h-30.157a14,14,0,0,1-13.615-17.258c2.092-8.738,4.827-19.952,7.025-28.963,1.148-4.706,2.139-8.771,2.859-11.744.483-1.994.77-3.188.941-3.917l17.857.171h.024l17.857-.171c.17.729.458,1.924.941,3.918.72,2.973,1.711,7.038,2.86,11.745,2.2,9.01,4.933,20.224,7.024,28.961A13.921,13.921,0,0,1,1857.859,1978.865Z" transform="translate(-1800.183 -1919.78)" fill="#7a073c"/>
      </g>
      <path id="Path_37" data-name="Path 37" d="M2056.964,2437.9c-4.815-2.235-13.585-7.05-18.8-15.188l-10.92,9.07c-.2,11.277,8.81,23.87,15.1,23.314,3.4-.3,7.644-3.5,8.909-5.4C2052.31,2448.11,2058.691,2438.7,2056.964,2437.9Z" transform="translate(-217.296 -1459.044)" fill="#fcdbc0"/>
      <path id="Path_38" data-name="Path 38" d="M2157.609,2643.992c-9.372,0-16.97,9.781-16.97,21.848a26.209,26.209,0,0,0,3.156,12.691h24.272c1.986-3.577,6.511-7.958,6.511-12.691C2174.578,2653.774,2166.981,2643.992,2157.609,2643.992Z" transform="translate(-325.82 -1670.81)" fill="#fcdbc0"/>
      <path id="Path_39" data-name="Path 39" d="M1882.182,1965.133c-2.243-9.194-4.014-16.455-4.014-16.629a.027.027,0,0,0-.008-.019.023.023,0,0,0-.019-.008l-18.88.181-18.88-.181a.028.028,0,0,0-.019.008.027.027,0,0,0-.008.019c0,.174-1.771,7.434-4.013,16.626-2.2,9.012-4.934,20.228-7.026,28.969a15.287,15.287,0,0,0,14.867,18.845h30.157a15.287,15.287,0,0,0,14.867-18.845C1887.115,1985.359,1884.38,1974.145,1882.182,1965.133Zm4.118,41.959a15.148,15.148,0,0,1-11.96,5.8h-30.157a15.233,15.233,0,0,1-14.815-18.779c2.092-8.741,4.827-19.956,7.026-28.968,2.271-9.31,3.928-16.1,4.011-16.613l18.856.181,18.856-.181c.084.51,1.741,7.3,4.012,16.615,2.2,9.011,4.934,20.226,7.025,28.966A15.145,15.145,0,0,1,1886.3,2007.092Z" transform="translate(-27.472 -1005.195)" fill="#ea1111"/>
      <path id="Path_40" data-name="Path 40" d="M2033.229,2024.374l-19.646-.189c-.66,2.74-1.7,7.017-2.924,12.026,5.208,1.422,12.225,2.02,19.935,2.02,10.721,0,20.136-3.341,23.992-6.893-.7-2.895-1.3-5.355-1.736-7.154Z" transform="translate(-201.427 -1077.649)" fill="#fcdbc0"/>
      <g id="Group_13" data-name="Group 13" transform="translate(1809.02 942.048)">
        <path id="Path_41" data-name="Path 41" d="M2056.576,1949.285l-18.88-.182c0,.138-1.071,4.56-2.628,10.95,5,1.523,11.3,2.326,19.018,2.326,10.288,0,18.059-1.424,23.571-4.082-1.323-5.431-2.2-9.069-2.2-9.194Z" transform="translate(-2033.807 -1947.843)" fill="#ffc23b"/>
        <path id="Path_42" data-name="Path 42" d="M2048.639,1920.877a1.261,1.261,0,0,0-1.25-1.1h-.012l-18.868.182-18.868-.182a1.26,1.26,0,0,0-1.262,1.1c-.126.648-1.8,7.5-2.6,10.816a1.261,1.261,0,0,0,.857,1.5,67.714,67.714,0,0,0,19.386,2.381,80.662,80.662,0,0,0,13.794-1.063,39.721,39.721,0,0,0,10.324-3.144,1.261,1.261,0,0,0,.677-1.434C2050.2,1927.4,2048.756,1921.481,2048.639,1920.877Zm-40.27.164h0Zm0,0v0Zm0,0Zm.014-.178Zm17.636,12.2a68.066,68.066,0,0,1-17.508-1.942c1.253-5.145,1.846-7.6,2.126-8.8l17.859.172h.024l17.859-.172c.25,1.072.748,3.134,1.74,7.212C2042.736,1931.869,2035.309,1933.057,2026.019,1933.057Zm22.63-12.016h0Zm0,0v0Zm0,0h0Z" transform="translate(-2005.74 -1919.781)" fill="#7a073c"/>
      </g>
      <path id="Path_43" data-name="Path 43" d="M1855.908,1937.378c-2.067-8.476-3.856-15.807-3.99-16.5a1.261,1.261,0,0,0-1.25-1.1h-.012l-18.867.181-18.868-.181a1.262,1.262,0,0,0-1.262,1.1c-.134.693-1.921,8.024-3.989,16.5-2.2,9.013-4.935,20.23-7.027,28.973a16.521,16.521,0,0,0,16.067,20.366h30.157a16.521,16.521,0,0,0,16.067-20.366C1860.843,1957.607,1858.107,1946.39,1855.908,1937.378Zm-3.979-16.342Zm0,0h0Zm0,0v0Zm-40.281,0Zm0,0h0Zm0,0v0Zm46.211,57.826a13.921,13.921,0,0,1-10.992,5.328h-30.157a14,14,0,0,1-13.615-17.258c2.092-8.738,4.827-19.952,7.025-28.963,1.148-4.706,2.139-8.771,2.859-11.744.483-1.994.77-3.188.941-3.917l17.857.171h.024l17.857-.171c.17.729.458,1.924.941,3.918.72,2.973,1.711,7.038,2.86,11.745,2.2,9.01,4.933,20.224,7.024,28.961A13.921,13.921,0,0,1,1857.859,1978.865Z" transform="translate(0 -977.732)" fill="#7a073c"/>
      <g id="Group_14" data-name="Group 14" transform="translate(1829.162 898.127)">
        <path id="Path_44" data-name="Path 44" d="M2527.273,927.634c-6.386-2.5-23.692,15.271-23.692,15.271l20.269,17.584,7.208,2.554S2530.19,928.775,2527.273,927.634Z" transform="translate(-2502.321 -926.135)" fill="#ffc23b"/>
        <path id="Path_45" data-name="Path 45" d="M2502.281,905.459a33.927,33.927,0,0,0-.858-4.334c-.454-1.571-.978-2.37-1.751-2.672-3.143-1.23-8.211,1.024-15.491,6.891a122.8,122.8,0,0,0-9.563,8.674,1.26,1.26,0,0,0,.077,1.832l20.268,17.584a1.256,1.256,0,0,0,.405.236l7.208,2.554a1.26,1.26,0,0,0,1.681-1.22c0-.086-.225-8.693-.8-17.328C2503.116,912.586,2502.721,908.475,2502.281,905.459Zm-5.847,25.914-19.065-16.541c1.542-1.518,4.792-4.625,8.41-7.539a48.6,48.6,0,0,1,7.628-5.221c2.845-1.482,4.378-1.563,5.185-1.326.181.3.735,1.55,1.333,6.079.4,3.02.758,7.011,1.07,11.863.38,5.918.594,11.7.686,14.545Z" transform="translate(-2474.259 -898.128)" fill="#7a073c"/>
      </g>
      <g id="Group_15" data-name="Group 15" transform="translate(1801.668 898.127)">
        <path id="Path_46" data-name="Path 46" d="M1867.814,927.634c-2.917,1.141-3.784,35.409-3.784,35.409l7.208-2.554,20.268-17.584S1874.2,925.135,1867.814,927.634Z" transform="translate(-1862.769 -926.135)" fill="#ffc23b"/>
        <path id="Path_47" data-name="Path 47" d="M1854.784,905.343c-7.28-5.867-12.347-8.121-15.491-6.891-.773.3-1.3,1.1-1.751,2.672a34.033,34.033,0,0,0-.858,4.334c-.44,3.017-.835,7.127-1.175,12.216-.577,8.636-.8,17.243-.8,17.329a1.26,1.26,0,0,0,1.681,1.22l7.208-2.554a1.263,1.263,0,0,0,.405-.236l20.268-17.584a1.261,1.261,0,0,0,.077-1.832A122.912,122.912,0,0,0,1854.784,905.343Zm-12.253,26.029-5.248,1.86c.092-2.849.306-8.627.686-14.545.312-4.851.671-8.843,1.07-11.863.6-4.529,1.152-5.776,1.333-6.079.807-.237,2.34-.156,5.185,1.326a48.6,48.6,0,0,1,7.628,5.221c3.618,2.914,6.868,6.021,8.41,7.539Z" transform="translate(-1834.708 -898.127)" fill="#7a073c"/>
      </g>
      <g id="Group_16" data-name="Group 16" transform="translate(1801.667 898.318)">
        <path id="Path_48" data-name="Path 48" d="M1915.209,931.975c-2.076-.714-7.745,7.078-10.949,11.8a59.7,59.7,0,0,0-25.5,0c-3.2-4.723-8.874-12.514-10.95-11.8s-3.106,17.918-3.532,28.078a67.668,67.668,0,0,0-.252,7.331c0,10.388,8.329,16.519,27.485,16.519s27.485-6.131,27.485-16.519a67.608,67.608,0,0,0-.252-7.331C1918.316,949.894,1917.291,932.691,1915.209,931.975Z" transform="translate(-1862.762 -930.667)" fill="#fff"/>
        <path id="Path_49" data-name="Path 49" d="M1890.789,914.238a73.239,73.239,0,0,0-1.038-7.371c-.563-2.668-1.178-3.843-2.194-4.192-1.247-.429-2.5.416-3.337,1.089a24.475,24.475,0,0,0-3.085,3.149c-1.93,2.274-3.972,5.12-5.486,7.322a62.31,62.31,0,0,0-24.406,0c-1.513-2.2-3.556-5.048-5.485-7.322a24.489,24.489,0,0,0-3.086-3.149c-.835-.673-2.089-1.518-3.336-1.089-1.015.349-1.63,1.524-2.194,4.192a73.168,73.168,0,0,0-1.038,7.371c-.58,5.764-.944,12.751-1.148,17.612a64.952,64.952,0,0,0-.256,6.975v.45a14.739,14.739,0,0,0,7.146,13.221,27.419,27.419,0,0,0,8.963,3.411,70.146,70.146,0,0,0,25.276,0,27.424,27.424,0,0,0,8.962-3.411,14.739,14.739,0,0,0,7.145-13.221v-.451a65.131,65.131,0,0,0-.256-6.974C1891.733,926.989,1891.369,920,1890.789,914.238Zm-4.294-9.323Zm-46.1,0Zm49.274,33.908v.452a13.46,13.46,0,0,1-1.454,6.373,12.611,12.611,0,0,1-4.519,4.717c-4.374,2.766-11.188,4.169-20.253,4.169s-15.879-1.4-20.253-4.169a12.621,12.621,0,0,1-4.519-4.717,13.463,13.463,0,0,1-1.453-6.373v-.452a61.715,61.715,0,0,1,.245-6.743c0-.027.005-.055.006-.083.19-4.529.527-11.1,1.058-16.672.28-2.935.587-5.324.913-7.1a13.484,13.484,0,0,1,.811-3.061c.718.343,3.222,2.11,9.4,11.212a1.261,1.261,0,0,0,1.358.513,58.47,58.47,0,0,1,24.874,0,1.261,1.261,0,0,0,1.358-.513c6.175-9.1,8.679-10.869,9.4-11.212a13.489,13.489,0,0,1,.811,3.061c.326,1.778.634,4.167.913,7.1.531,5.573.868,12.142,1.058,16.672,0,.028,0,.055.006.083A61.831,61.831,0,0,1,1889.671,938.824Z" transform="translate(-1834.7 -902.558)" fill="#7a073c"/>
      </g>
      <path id="Path_50" data-name="Path 50" d="M1891.509,1681.5c-18.474,0-26.878-5.7-27.453-15.425-.038,1.337-.032,2.645-.032,3.893,0,10.388,8.329,16.519,27.485,16.519s27.486-6.131,27.486-16.519c0-1.248.006-2.557-.032-3.893C1918.387,1675.8,1909.983,1681.5,1891.509,1681.5Z" transform="translate(-61.095 -734.936)" fill="#fcdbc0"/>
      <path id="Path_51" data-name="Path 51" d="M2775.9,932.058l-.006,0a.561.561,0,0,0-.142-.076h0l-.055-.016c-2.12-.561-7.718,7.135-10.894,11.816q-.752-.194-1.554-.362c-.309,1.25,2.147.915,3.9,1.5,1.342.45,1.937,2.333,2.558.538,1.893-5.464,4.48-12.069,6.3-13.307a.9.9,0,0,0-.077-.071Z" transform="translate(-921.638 -32.352)" fill="#fcdbc0"/>
      <path id="Path_52" data-name="Path 52" d="M1947.739,943.778c-3.176-4.681-8.774-12.377-10.894-11.816l-.054.016h0a.56.56,0,0,0-.142.076l-.006,0-.026.021a1.014,1.014,0,0,0-.077.071c1.818,1.238,4.405,7.843,6.3,13.307.622,1.794,1.217-.088,2.558-.538,1.752-.588,4.209-.253,3.9-1.5Q1948.49,943.585,1947.739,943.778Z" transform="translate(-130.493 -32.352)" fill="#fcdbc0"/>
      <path id="Path_53" data-name="Path 53" d="M1890.789,914.238a73.239,73.239,0,0,0-1.038-7.371c-.563-2.668-1.178-3.843-2.194-4.192-1.247-.429-2.5.416-3.337,1.089a24.475,24.475,0,0,0-3.085,3.149c-1.93,2.274-3.972,5.12-5.486,7.322a62.31,62.31,0,0,0-24.406,0c-1.513-2.2-3.556-5.048-5.485-7.322a24.489,24.489,0,0,0-3.086-3.149c-.835-.673-2.089-1.518-3.336-1.089-1.015.349-1.63,1.524-2.194,4.192a73.168,73.168,0,0,0-1.038,7.371c-.58,5.764-.944,12.751-1.148,17.612a64.952,64.952,0,0,0-.256,6.975v.45a14.739,14.739,0,0,0,7.146,13.221,27.419,27.419,0,0,0,8.963,3.411,70.146,70.146,0,0,0,25.276,0,27.424,27.424,0,0,0,8.962-3.411,14.739,14.739,0,0,0,7.145-13.221v-.451a65.131,65.131,0,0,0-.256-6.974C1891.733,926.989,1891.369,920,1890.789,914.238Zm-4.294-9.323Zm-46.1,0Zm49.274,33.908v.452a13.46,13.46,0,0,1-1.454,6.373,12.611,12.611,0,0,1-4.519,4.717c-4.374,2.766-11.188,4.169-20.253,4.169s-15.879-1.4-20.253-4.169a12.621,12.621,0,0,1-4.519-4.717,13.463,13.463,0,0,1-1.453-6.373v-.452a61.715,61.715,0,0,1,.245-6.743c0-.027.005-.055.006-.083.19-4.529.527-11.1,1.058-16.672.28-2.935.587-5.324.913-7.1a13.484,13.484,0,0,1,.811-3.061c.718.343,3.222,2.11,9.4,11.212a1.261,1.261,0,0,0,1.358.513,58.47,58.47,0,0,1,24.874,0,1.261,1.261,0,0,0,1.358-.513c6.175-9.1,8.679-10.869,9.4-11.212a13.489,13.489,0,0,1,.811,3.061c.326,1.778.634,4.167.913,7.1.531,5.573.868,12.142,1.058,16.672,0,.028,0,.055.006.083A61.831,61.831,0,0,1,1889.671,938.824Z" transform="translate(-33.033 -4.241)" fill="#7a073c"/>
      <g id="Group_20" data-name="Group 20" transform="translate(1849.174 928.269)">
        <g id="Group_17" data-name="Group 17" transform="translate(0 5.179)">
          <path id="Path_54" data-name="Path 54" d="M2983.887,1749.516c-1.888-.253-6.843-.985-6.9.918-.186,5.923-2.075,16.2-7.9,19.675l4.758,16.6c9.772-2.89,15.818-18.445,16.938-28.458.385-3.453.185-6.247-.649-7.635C2988.367,1747.694,2986.151,1749.819,2983.887,1749.516Z" transform="translate(-2967.82 -1747.792)" fill="#fff"/>
          <path id="Path_55" data-name="Path 55" d="M2960.388,1719.81a6.465,6.465,0,0,0-2.628.2,5.389,5.389,0,0,1-1.771.206l-.186-.025a32.7,32.7,0,0,0-3.535-.332c-1.858-.044-3.07.229-3.817.86a2.169,2.169,0,0,0-.791,1.625,39.22,39.22,0,0,1-1.774,10.4,21.206,21.206,0,0,1-2.26,4.919,10.217,10.217,0,0,1-3.255,3.307,1.26,1.26,0,0,0,1.289,2.166,12.686,12.686,0,0,0,4.083-4.1,23.705,23.705,0,0,0,2.54-5.506,41.862,41.862,0,0,0,1.892-10.939,5.215,5.215,0,0,1,2.056-.214,30.8,30.8,0,0,1,3.236.31l.189.025a7.44,7.44,0,0,0,2.652-.243,4.569,4.569,0,0,1,1.615-.185c.262.05.62.2,1.061.932.246.408,1.006,2.109.477,6.846a49.387,49.387,0,0,1-5.089,16.456,29.983,29.983,0,0,1-4.889,7.007,14.2,14.2,0,0,1-6.064,3.926,1.261,1.261,0,1,0,.716,2.417,16.668,16.668,0,0,0,7.159-4.589,32.505,32.505,0,0,0,5.314-7.594,52.062,52.062,0,0,0,5.359-17.344c.3-2.715.408-6.382-.822-8.425A4.062,4.062,0,0,0,2960.388,1719.81Z" transform="translate(-2939.754 -1719.742)" fill="#7a073c"/>
        </g>
        <g id="Group_18" data-name="Group 18" transform="translate(0 5.179)">
          <path id="Path_56" data-name="Path 56" d="M2983.887,1749.516c-1.888-.253-6.843-.985-6.9.918-.186,5.923-2.075,16.2-7.9,19.675l4.758,16.6c9.772-2.89,15.818-18.445,16.938-28.458.385-3.453.185-6.247-.649-7.635C2988.367,1747.694,2986.151,1749.819,2983.887,1749.516Z" transform="translate(-2967.82 -1747.792)" fill="#fff"/>
          <path id="Path_57" data-name="Path 57" d="M2960.388,1719.81a6.465,6.465,0,0,0-2.628.2,5.389,5.389,0,0,1-1.771.206l-.186-.025a32.7,32.7,0,0,0-3.535-.332c-1.858-.044-3.07.229-3.817.86a2.169,2.169,0,0,0-.791,1.625,39.22,39.22,0,0,1-1.774,10.4,21.206,21.206,0,0,1-2.26,4.919,10.217,10.217,0,0,1-3.255,3.307,1.26,1.26,0,0,0,1.289,2.166,12.686,12.686,0,0,0,4.083-4.1,23.705,23.705,0,0,0,2.54-5.506,41.862,41.862,0,0,0,1.892-10.939,5.215,5.215,0,0,1,2.056-.214,30.8,30.8,0,0,1,3.236.31l.189.025a7.44,7.44,0,0,0,2.652-.243,4.569,4.569,0,0,1,1.615-.185c.262.05.62.2,1.061.932.246.408,1.006,2.109.477,6.846a49.387,49.387,0,0,1-5.089,16.456,29.983,29.983,0,0,1-4.889,7.007,14.2,14.2,0,0,1-6.064,3.926,1.261,1.261,0,1,0,.716,2.417,16.668,16.668,0,0,0,7.159-4.589,32.505,32.505,0,0,0,5.314-7.594,52.062,52.062,0,0,0,5.359-17.344c.3-2.715.408-6.382-.822-8.425A4.062,4.062,0,0,0,2960.388,1719.81Z" transform="translate(-2939.754 -1719.742)" fill="#7a073c"/>
        </g>
        <path id="Path_58" data-name="Path 58" d="M3146.031,1749.069c-1.26-.089-2.635.643-4.027.456-1.887-.253-6.843-.984-6.9.919a41.62,41.62,0,0,1-.8,6.8,7.985,7.985,0,0,0,5.26,1.751c2.406,0,5.5-1.977,5.932-4.127C3145.493,1754.862,3146.95,1749.523,3146.031,1749.069Z" transform="translate(-3125.937 -1742.622)" fill="#fcdbc0"/>
        <g id="Group_19" data-name="Group 19" transform="translate(5.136 0)">
          <path id="Path_59" data-name="Path 59" d="M3097.437,1628.59c-4.178,0-8.884,1.178-8.884,5.483,0,3.028,3.387,5.483,7.565,5.483a38.47,38.47,0,0,0,4.713-.24l4.282,3.656a64.79,64.79,0,0,0,.375-8.9C3105.489,1631.045,3101.616,1628.59,3097.437,1628.59Z" transform="translate(-3087.293 -1627.329)" fill="#fff"/>
          <path id="Path_60" data-name="Path 60" d="M3078.687,1606.012a5.105,5.105,0,0,0-.875-2.824,7.453,7.453,0,0,0-2.145-2.1,11.615,11.615,0,0,0-6.291-1.817,15.567,15.567,0,0,0-6.564,1.256,5.861,5.861,0,0,0-3.581,5.488,5.443,5.443,0,0,0,.766,2.77,7.008,7.008,0,0,0,1.97,2.128,10.421,10.421,0,0,0,6.09,1.846,38.662,38.662,0,0,0,4.9-.255,1.261,1.261,0,1,0-.378-2.493,34.675,34.675,0,0,1-4.523.226,7.889,7.889,0,0,1-4.61-1.366,3.614,3.614,0,0,1-1.695-2.857,3.362,3.362,0,0,1,2.169-3.224,12.745,12.745,0,0,1,5.454-1,9.036,9.036,0,0,1,4.894,1.394c1.65,1.1,1.9,2.244,1.9,2.828,0,.121,0,.287,0,.491a58.715,58.715,0,0,1-.357,8.179,1.261,1.261,0,1,0,2.479.458,58.921,58.921,0,0,0,.4-8.651C3078.688,1606.29,3078.687,1606.129,3078.687,1606.012Z" transform="translate(-3059.23 -1599.268)" fill="#7a073c"/>
        </g>
        <path id="Path_61" data-name="Path 61" d="M2948.824,1826.546a1.262,1.262,0,0,0-1.4,1.11,35.424,35.424,0,0,1-2.173,9.024c-1.274,3.142-2.918,5.329-4.886,6.5a1.26,1.26,0,1,0,1.289,2.167c2.452-1.459,4.449-4.056,5.934-7.719a37.971,37.971,0,0,0,2.341-9.687A1.26,1.26,0,0,0,2948.824,1826.546Z" transform="translate(-2939.754 -1816.767)" fill="#7a073c"/>
      </g>
      <path id="Path_62" data-name="Path 62" d="M3189.031,1774.288a5.3,5.3,0,0,1-.641-2.328,1.261,1.261,0,0,0-2.513.2,11.81,11.81,0,0,0,.226,1.445,4.8,4.8,0,0,0,1.2,2.513,1.26,1.26,0,1,0,1.731-1.833Z" transform="translate(-1326.118 -835.158)" fill="#7a073c"/>
      <path id="Path_63" data-name="Path 63" d="M3288.193,1767.019a5.214,5.214,0,0,1-.809-2.57,1.261,1.261,0,0,0-2.511.225,11.476,11.476,0,0,0,.273,1.574,4.974,4.974,0,0,0,1.416,2.693,1.261,1.261,0,0,0,1.631-1.923Z" transform="translate(-1420.858 -827.981)" fill="#7a073c"/>
      <g id="Group_21" data-name="Group 21" transform="translate(1813.667 919.841)">
        <path id="Path_64" data-name="Path 64" d="M2118.334,1403.207a4.743,4.743,0,0,0-4.451,3.126.989.989,0,0,0,1.861.671,2.753,2.753,0,0,1,5.257.25.989.989,0,0,0,1.917-.488A4.725,4.725,0,0,0,2118.334,1403.207Z" transform="translate(-2113.824 -1403.207)" fill="#7a073c"/>
        <path id="Path_65" data-name="Path 65" d="M2685.2,1403.207a4.743,4.743,0,0,0-4.451,3.126.989.989,0,0,0,1.861.671,2.753,2.753,0,0,1,5.257.25.989.989,0,0,0,1.917-.488A4.725,4.725,0,0,0,2685.2,1403.207Z" transform="translate(-2656.316 -1403.207)" fill="#7a073c"/>
      </g>
      <g id="Group_24" data-name="Group 24" transform="translate(1806.407 929.407)">
        <g id="Group_22" data-name="Group 22" transform="translate(0 0)">
          <circle id="Ellipse_10" data-name="Ellipse 10" cx="4.444" cy="4.444" r="4.444" transform="translate(0 6.284) rotate(-45)" fill="#f96446"/>
        </g>
        <g id="Group_23" data-name="Group 23" transform="translate(35.444 0)">
          <circle id="Ellipse_11" data-name="Ellipse 11" cx="4.444" cy="4.444" r="4.444" transform="translate(0 6.284) rotate(-45)" fill="#f96446"/>
        </g>
      </g>
      <g id="Group_30" data-name="Group 30" transform="translate(1822.951 924.326)">
        <g id="Group_26" data-name="Group 26" transform="translate(3.757 0)">
          <g id="Group_25" data-name="Group 25">
            <path id="Path_66" data-name="Path 66" d="M2436.5,1523.128c-1.926,0-3.861.654-3.736,2.017.089.954.914,1.235,2.056,1.546.587.16.958.966,1.68.966s1.093-.806,1.681-.966c1.143-.312,1.968-.593,2.056-1.546C2440.36,1523.782,2438.424,1523.128,2436.5,1523.128Z" transform="translate(-2432.086 -1522.458)" fill="#7a073c"/>
            <path id="Path_67" data-name="Path 67" d="M2421.591,1507.551a5.392,5.392,0,0,0-3.886,1.243,1.971,1.971,0,0,0,.424,3.023,5.97,5.97,0,0,0,1.606.613,1.568,1.568,0,0,1,.413.3,1.861,1.861,0,0,0,2.887,0,1.561,1.561,0,0,1,.413-.3,5.976,5.976,0,0,0,1.606-.613,1.971,1.971,0,0,0,.424-3.023A5.393,5.393,0,0,0,2421.591,1507.551Zm3.069,2.625c-.041.441-.348.63-1.565.962a2.386,2.386,0,0,0-.946.591c-.247.219-.409.351-.558.351s-.31-.132-.557-.351a2.392,2.392,0,0,0-.947-.591c-1.218-.332-1.525-.521-1.566-.962a.586.586,0,0,1,.173-.48,5.6,5.6,0,0,1,5.792,0A.587.587,0,0,1,2424.66,1510.176Z" transform="translate(-2417.179 -1507.551)" fill="#7a073c"/>
          </g>
          <path id="Path_68" data-name="Path 68" d="M2510.709,1536.256a.408.408,0,0,0,0,.817c1.549,0,2.543.306,2.729.84a.408.408,0,1,0,.771-.267C2513.891,1536.723,2512.712,1536.256,2510.709,1536.256Z" transform="translate(-2506.298 -1535.022)" fill="#e2e6f3"/>
        </g>
        <g id="Group_29" data-name="Group 29" transform="translate(0 4.529)">
          <g id="Group_27" data-name="Group 27">
            <path id="Path_69" data-name="Path 69" d="M2337.752,1612.916a.67.67,0,0,0-.541.777,2.976,2.976,0,0,1-1.344,2.91,4.337,4.337,0,0,1-3.217.343,2.516,2.516,0,0,1-1.587-1.285.67.67,0,0,0-1.207.581,3.794,3.794,0,0,0,2.4,1.986,5.62,5.62,0,0,0,4.284-.47,4.1,4.1,0,0,0,1.688-1.968,4.2,4.2,0,0,0,.3-2.333A.67.67,0,0,0,2337.752,1612.916Z" transform="translate(-2329.791 -1612.905)" fill="#7a073c"/>
            <path id="Path_70" data-name="Path 70" d="M2511.587,1615.35a.67.67,0,0,0-.894.313,2.516,2.516,0,0,1-1.587,1.285,4.335,4.335,0,0,1-3.216-.343,2.976,2.976,0,0,1-1.344-2.911.67.67,0,1,0-1.318-.236,4.2,4.2,0,0,0,.3,2.334,4.094,4.094,0,0,0,1.688,1.968,5.625,5.625,0,0,0,4.284.47,3.8,3.8,0,0,0,2.4-1.985A.67.67,0,0,0,2511.587,1615.35Z" transform="translate(-2495.718 -1612.906)" fill="#7a073c"/>
          </g>
          <g id="Group_28" data-name="Group 28" transform="translate(5.335 6.054)">
            <path id="Path_71" data-name="Path 71" d="M2457.595,1754.082a1.408,1.408,0,0,0-1.855,0,3.6,3.6,0,0,1-.558.4,4.714,4.714,0,0,1-1.3.509,3.309,3.309,0,0,0,5.578,0,4.717,4.717,0,0,1-1.3-.509A3.639,3.639,0,0,1,2457.595,1754.082Z" transform="translate(-2453.878 -1753.733)" fill="#fcdbc0"/>
          </g>
        </g>
      </g>
      <g id="Group_32" data-name="Group 32" transform="translate(1825.746 953.561)">
        <circle id="Ellipse_12" data-name="Ellipse 12" cx="4.599" cy="4.599" r="4.599" transform="translate(0.069 2.39)" fill="#fcdbc0"/>
        <g id="Group_31" data-name="Group 31" transform="translate(0 0)">
          <circle id="Ellipse_13" data-name="Ellipse 13" cx="3.88" cy="3.88" r="3.88" transform="translate(0 1.783) rotate(-13.283)" fill="#ffc23b"/>
          <path id="Path_72" data-name="Path 72" d="M2402.158,2190.412a4.547,4.547,0,1,0,4.547,4.547A4.552,4.552,0,0,0,2402.158,2190.412Zm0,7.76a3.214,3.214,0,1,1,3.215-3.214A3.217,3.217,0,0,1,2402.158,2198.173Z" transform="translate(-2397.491 -2190.291)" fill="#7a073c"/>
        </g>
        <path id="Path_73" data-name="Path 73" d="M2493.8,2250a.43.43,0,1,0,0,.859,1.127,1.127,0,0,1,1.125,1.126.43.43,0,0,0,.86,0A1.987,1.987,0,0,0,2493.8,2250Z" transform="translate(-2489.134 -2247.317)" fill="#fff"/>
      </g>
      <path id="Path_74" data-name="Path 74" d="M2276.064,1176.488a54.26,54.26,0,0,0-11.424-1.063,55.825,55.825,0,0,0-10.724.919,9.183,9.183,0,0,0,16.671,2.458,3.051,3.051,0,0,0,5.5-2.159C2276.081,1176.59,2276.073,1176.538,2276.064,1176.488Z" transform="translate(-434.227 -265.376)" fill="#ffc23b"/>
      <path id="Path_75" data-name="Path 75" d="M2037.852,1151.846a22.917,22.917,0,0,0-8.578-4.2,52.033,52.033,0,0,0-13.544-1.544,53.291,53.291,0,0,0-12.943,1.386,24.166,24.166,0,0,0-8.451,3.791,1.261,1.261,0,1,0,1.5,2.028,21.684,21.684,0,0,1,7.574-3.375,50.806,50.806,0,0,1,12.322-1.308,49.547,49.547,0,0,1,12.879,1.455,20.426,20.426,0,0,1,7.642,3.715,1.261,1.261,0,0,0,1.6-1.947Z" transform="translate(-185.317 -237.315)" fill="#7a073c"/>
      <g id="Group_33" data-name="Group 33" transform="translate(1817.366 976.128)">
        <path id="Path_76" data-name="Path 76" d="M2229.129,2728c-7.6,0-13.757,7.93-13.757,17.712a20.2,20.2,0,0,0,4.6,13.217h18.317a20.2,20.2,0,0,0,4.6-13.217C2242.886,2735.93,2236.727,2728,2229.129,2728Z" transform="translate(-2214.706 -2727.333)" fill="#ffc23b"/>
        <path id="Path_77" data-name="Path 77" d="M2219.968,2713.973a11.661,11.661,0,0,0-11.346,0,14.749,14.749,0,0,0-4.581,3.972,21.1,21.1,0,0,0-4.169,12.933,22.579,22.579,0,0,0,1.279,7.585,18.749,18.749,0,0,0,3.483,6.069.667.667,0,0,0,.5.229h18.317a.666.666,0,0,0,.5-.229,18.736,18.736,0,0,0,3.483-6.069,22.6,22.6,0,0,0,1.28-7.585,21.1,21.1,0,0,0-4.17-12.933A14.752,14.752,0,0,0,2219.968,2713.973Zm6.215,24.044a17.546,17.546,0,0,1-3.037,5.411h-17.7a17.528,17.528,0,0,1-3.037-5.411,21.264,21.264,0,0,1-1.2-7.139c0-9.4,5.872-17.046,13.091-17.046s13.09,7.646,13.09,17.046A21.264,21.264,0,0,1,2226.184,2738.018Z" transform="translate(-2199.872 -2712.5)" fill="#7a073c"/>
      </g>
      <path id="Path_78" data-name="Path 78" d="M2767.872,3117.791a.431.431,0,0,0-.43.43,17.249,17.249,0,0,1-.14,2.193.429.429,0,0,0,.371.481.307.307,0,0,0,.056,0,.43.43,0,0,0,.426-.375,18,18,0,0,0,.148-2.3A.431.431,0,0,0,2767.872,3117.791Z" transform="translate(-925.538 -2124.24)" fill="#fff"/>
      <path id="Path_79" data-name="Path 79" d="M2372.087,3363.433" transform="translate(-547.317 -2359.322)" fill="none" stroke="#fff" stroke-linecap="round" stroke-linejoin="round" stroke-width="20"/>
      <path id="Path_80" data-name="Path 80" d="M2629.616,2831.526a.43.43,0,1,0-.443.737,12.708,12.708,0,0,1,5.448,8.12.43.43,0,0,0,.418.332.4.4,0,0,0,.1-.011.43.43,0,0,0,.321-.516A13.567,13.567,0,0,0,2629.616,2831.526Z" transform="translate(-793.151 -1850.223)" fill="#fff"/>
      <g id="Group_34" data-name="Group 34" transform="translate(1808.687 962.409)">
        <path id="Path_81" data-name="Path 81" d="M2038.238,2422.713l-10.92,9.07c1.851,7.4,10.55,18.51,16.844,17.954a9.135,9.135,0,0,0,6.824-4.341,4.109,4.109,0,0,0-.432-5.08C2046.955,2436.473,2039.494,2428.015,2038.238,2422.713Z" transform="translate(-2026.056 -2421.452)" fill="#fff"/>
        <path id="Path_82" data-name="Path 82" d="M2023.405,2411.386c-1.838-1.964-4.537-4.973-6.951-8.155-2.81-3.7-4.559-6.771-5.057-8.877a1.261,1.261,0,0,0-2.453.581c1.294,5.465,8.463,13.732,12.621,18.174a2.837,2.837,0,0,1,.3,3.521,9.389,9.389,0,0,1-2.3,2.447,7.115,7.115,0,0,1-3.586,1.336,7.231,7.231,0,0,1-4.249-1.344,22.532,22.532,0,0,1-4.782-4.225,30.527,30.527,0,0,1-6.48-11.436,1.26,1.26,0,1,0-2.446.612,32.707,32.707,0,0,0,7.032,12.488,25.06,25.06,0,0,0,5.341,4.7,10.027,10.027,0,0,0,5.229,1.741c.193,0,.385-.009.575-.026a10.3,10.3,0,0,0,7.763-4.9,5.368,5.368,0,0,0-.562-6.64Z" transform="translate(-1997.989 -2393.385)" fill="#7a073c"/>
      </g>
      <path id="Path_83" data-name="Path 83" d="M2388.963,2952.185s-.331-.089-.991-.818a9.172,9.172,0,0,1-.711-.895,1.261,1.261,0,0,0-2.089,1.413,11.805,11.805,0,0,0,.907,1.147,4.806,4.806,0,0,0,2.278,1.6,1.247,1.247,0,0,0,.3.037,1.261,1.261,0,0,0,.3-2.484Z" transform="translate(-559.633 -1963.585)" fill="#7a073c"/>
      <path id="Path_84" data-name="Path 84" d="M2462.46,2889.188a5.3,5.3,0,0,1-1.7-1.712,1.26,1.26,0,0,0-2.089,1.412,11.569,11.569,0,0,0,.907,1.147,4.8,4.8,0,0,0,2.278,1.6,1.26,1.26,0,1,0,.606-2.447Z" transform="translate(-629.97 -1903.297)" fill="#7a073c"/>
      <g id="Group_35" data-name="Group 35" transform="translate(1811.536 988.745)">
        <path id="Path_85" data-name="Path 85" d="M2108.005,3047.79l-2.76-.8v0a11.66,11.66,0,0,0-11.66-11.66l3.914,17.717h13.383v-1A4.132,4.132,0,0,0,2108.005,3047.79Z" transform="translate(-2092.325 -3034.065)" fill="#fff"/>
        <path id="Path_86" data-name="Path 86" d="M2080.315,3018.523l-.019-.006-1.886-.547A12.922,12.922,0,0,0,2065.523,3006a1.261,1.261,0,0,0,0,2.521,10.4,10.4,0,0,1,10.4,10.4v.006a1.26,1.26,0,0,0,.908,1.211l2.75.8a2.8,2.8,0,0,1,1.971,2.784h-12.115a1.26,1.26,0,1,0,0,2.521h13.383a1.26,1.26,0,0,0,1.261-1.26v-1a6.08,6.08,0,0,0-.968-3.415A5.155,5.155,0,0,0,2080.315,3018.523Z" transform="translate(-2064.263 -3006.003)" fill="#7a073c"/>
      </g>
      <g id="Group_36" data-name="Group 36" transform="translate(1837.717 989.239)">
        <path id="Path_87" data-name="Path 87" d="M2708.219,3057.985v0l-2.76.8a4.131,4.131,0,0,0-2.876,4.255v1h6.5l7.426-17.223A11.666,11.666,0,0,0,2708.219,3057.985Z" transform="translate(-2701.322 -3045.557)" fill="#fff"/>
        <path id="Path_88" data-name="Path 88" d="M2688.085,3017.543a12.929,12.929,0,0,0-9.155,11.419l-1.885.548-.019.005a5.148,5.148,0,0,0-2.8,2.046,6.08,6.08,0,0,0-.968,3.415v1a1.261,1.261,0,0,0,1.261,1.261h6.5a1.26,1.26,0,0,0,0-2.521h-5.235a2.8,2.8,0,0,1,1.971-2.784l2.749-.8a1.262,1.262,0,0,0,.909-1.21v-.01a10.306,10.306,0,0,1,2.092-6.25,10.482,10.482,0,0,1,5.3-3.7,1.261,1.261,0,0,0-.727-2.414Z" transform="translate(-2673.26 -3017.489)" fill="#7a073c"/>
      </g>
    </g>
  </g>
</svg>
